<svg width="192" height="80" viewBox="0 0 192 80" fill="none" xmlns="http://www.w3.org/2000/svg">
<path d="M20.4084 6.40454C20.2914 6.36066 20.1158 6.34603 19.8671 6.34603C19.6038 6.34603 19.4136 6.36066 19.2966 6.40454L11.8652 25.5535C12.0847 25.6559 12.3334 25.6998 12.6406 25.6998C12.8307 25.6998 12.9624 25.6852 13.0355 25.6705L15.3761 19.5265H24.5044L26.962 25.6705C27.0937 25.7144 27.2254 25.729 27.357 25.729C27.6935 25.729 27.9568 25.6705 28.1323 25.5535L20.4084 6.40454ZM19.4429 8.83291L19.8086 7.69187L20.2328 8.83291L24.0948 18.5171H15.7565L19.4429 8.83291Z" fill="black"/>
<path d="M42.0881 5.86328C41.8687 5.86328 41.6931 5.89254 41.5615 5.95105V12.1536C40.5521 11.5392 39.2648 11.232 37.6849 11.232C35.6515 11.232 33.9253 11.9049 32.4771 13.2361C31.0288 14.5674 30.2974 16.3959 30.2974 18.6926C30.2974 20.9601 30.9849 22.7448 32.3747 24.0175C33.7644 25.2902 35.5198 25.9338 37.6556 25.9338C39.4257 25.9485 41.0934 25.5535 42.6586 24.7782V5.95105C42.527 5.89254 42.3368 5.86328 42.0881 5.86328ZM31.4238 18.6634C31.4238 16.7763 32.0089 15.2403 33.1939 14.0553C34.3788 12.8704 35.8709 12.2853 37.6849 12.2853C39.294 12.2706 40.5814 12.6364 41.5615 13.3824V24.1199C40.4204 24.6319 39.1185 24.8952 37.6556 24.8952C35.8417 24.8952 34.3495 24.3393 33.1792 23.2422C32.0089 22.145 31.4238 20.6236 31.4238 18.6634Z" fill="black"/>
<path d="M52.9572 25.6705C54.1129 23.6957 55.2978 21.3551 56.4827 18.678C57.6677 16.001 58.443 13.6457 58.7794 11.627C58.6624 11.5831 58.4576 11.5538 58.1797 11.5538C57.9163 11.5538 57.7408 11.5685 57.6677 11.5831C57.3312 13.4995 56.6144 15.723 55.5465 18.2392C54.464 20.7553 53.4839 22.7594 52.6061 24.2662C52.5622 24.3393 52.5037 24.4856 52.4306 24.6758H52.4013C52.3721 24.6319 52.3136 24.4856 52.2112 24.2662C51.4358 23.0227 50.5142 21.121 49.461 18.5317C48.3931 15.9571 47.647 13.6457 47.2081 11.5831C47.1057 11.5685 46.9448 11.5538 46.7254 11.5538C46.4182 11.5685 46.1988 11.5831 46.0379 11.627C46.5645 13.8798 47.3983 16.3813 48.5247 19.1169C49.6511 21.8671 50.7337 24.0467 51.8016 25.6705C52.1526 25.7876 52.65 25.7876 52.9572 25.6705Z" fill="black"/>
<path d="M66.4595 11.232C64.4554 11.232 62.817 11.8172 61.515 12.9728C61.5881 13.3385 61.7783 13.5872 62.0855 13.7189C63.3436 12.768 64.7918 12.2853 66.4302 12.2853C69.1366 12.2853 70.892 13.6311 70.892 16.4983V18.2684C69.5754 17.5077 68.054 17.1274 66.3425 17.1274C64.7041 17.1274 63.3728 17.5077 62.3488 18.2684C61.3102 19.0291 60.7982 20.1116 60.7982 21.5014C60.7982 22.8472 61.2956 23.9151 62.2757 24.7197C63.2558 25.5242 64.6455 25.9338 66.4595 25.9338C68.6392 25.9485 70.4824 25.5389 72.0038 24.7197V16.3521C72.0038 14.6112 71.4918 13.3239 70.4678 12.4901C69.4291 11.6562 68.0979 11.232 66.4595 11.232ZM61.9685 21.3258C61.9685 19.4094 63.5484 18.1514 66.3425 18.1514C68.0979 18.1514 69.6193 18.561 70.892 19.3802V24.1199C69.6193 24.6611 68.1418 24.9245 66.4595 24.9245C63.5484 24.9245 61.9685 23.5347 61.9685 21.3258Z" fill="black"/>
<path d="M82.712 11.232C80.4738 11.232 78.4843 11.8757 76.7435 13.1484V25.6413C77.0214 25.7583 77.548 25.7583 77.8553 25.6413V13.6604C79.245 12.7388 80.8102 12.2853 82.5218 12.2853C85.7401 12.2706 87.3493 13.8652 87.3493 17.0689V25.6413C87.5394 25.6998 87.7296 25.729 87.9198 25.729C88.1685 25.729 88.3587 25.6998 88.4903 25.6413V16.8348C88.4903 15.1379 88.0222 13.7774 87.0713 12.7534C86.1205 11.744 84.6722 11.232 82.712 11.232Z" fill="black"/>
<path d="M99.3594 25.9338C101.247 25.9338 102.87 25.3633 104.231 24.2369C104.158 23.9151 103.938 23.6371 103.602 23.3885C102.388 24.3978 100.983 24.8952 99.3594 24.8952C97.6186 24.8952 96.2289 24.3101 95.1902 23.1398C94.1516 21.9695 93.625 20.4627 93.625 18.6049C93.625 16.8202 94.1516 15.3134 95.1902 14.0992C96.2289 12.8851 97.6186 12.2853 99.3594 12.2853C100.925 12.2853 102.241 12.7388 103.309 13.6604C103.646 13.4556 103.88 13.1776 103.997 12.8119C102.783 11.7586 101.247 11.232 99.3594 11.232C97.4431 11.232 95.8193 11.9049 94.4881 13.2508C93.1569 14.6112 92.4986 16.3959 92.4986 18.6049C92.4986 20.8723 93.1422 22.6716 94.4296 23.9736C95.7169 25.2756 97.3553 25.9338 99.3594 25.9338Z" fill="black"/>
<path d="M119.211 18.6049C119.211 18.444 119.24 18.166 119.24 18.0051C119.225 15.8254 118.655 14.1577 117.528 12.9875C116.402 11.8172 114.968 11.232 113.213 11.232C111.399 11.232 109.848 11.9049 108.575 13.2508C107.303 14.6112 106.659 16.3959 106.659 18.6049C106.659 20.9601 107.274 22.7594 108.517 24.0321C109.746 25.3048 111.384 25.9338 113.447 25.9338C115.392 25.9485 117.119 25.3341 118.64 24.0906C118.538 23.6957 118.347 23.4323 118.04 23.3007C116.724 24.3832 115.202 24.9245 113.491 24.9245C111.721 24.9245 110.331 24.3686 109.322 23.2422C108.298 22.1304 107.786 20.609 107.786 18.6634V18.6049H119.211ZM113.213 12.256C114.573 12.256 115.714 12.7095 116.636 13.6311C117.558 14.5527 118.011 15.8839 118.011 17.6394H107.815C107.976 16.0448 108.546 14.7429 109.512 13.7481C110.477 12.7534 111.706 12.256 113.213 12.256Z" fill="black"/>
<path d="M134.073 5.86328C133.854 5.86328 133.678 5.89254 133.547 5.95105V12.1536C132.537 11.5392 131.25 11.232 129.67 11.232C127.637 11.232 125.91 11.9049 124.462 13.2361C123.014 14.5674 122.283 16.3959 122.283 18.6926C122.283 20.9601 122.97 22.7448 124.36 24.0175C125.75 25.2902 127.505 25.9338 129.641 25.9338C131.411 25.9485 133.079 25.5535 134.644 24.7782V5.95105C134.512 5.89254 134.322 5.86328 134.073 5.86328ZM123.409 18.6634C123.409 16.7763 123.994 15.2403 125.179 14.0553C126.364 12.8704 127.856 12.2853 129.67 12.2853C131.279 12.2706 132.567 12.6364 133.547 13.3824V24.1199C132.406 24.6319 131.104 24.8952 129.641 24.8952C127.827 24.8952 126.335 24.3393 125.164 23.2422C123.994 22.145 123.409 20.6236 123.409 18.6634Z" fill="black"/>
<path d="M15.9482 31.8208C14.2659 31.8208 12.569 31.9525 10.8574 32.2012V51.2331C12.4812 51.4672 14.2805 51.5842 16.2554 51.5842C19.4883 51.5842 22.0776 50.648 24.0086 48.7901C25.925 46.9323 26.8905 44.5332 26.8905 41.5782C26.8905 38.6085 25.9396 36.2387 24.0232 34.4686C22.1069 32.6986 19.4152 31.8208 15.9482 31.8208ZM16.3432 49.4045C15.3631 49.4045 14.3537 49.3606 13.2858 49.2582V34.1907C14.222 34.1029 15.1144 34.059 15.9482 34.059C18.7277 34.059 20.8196 34.7319 22.2385 36.0924C23.6429 37.4529 24.3451 39.2961 24.3451 41.6367C24.3451 43.9919 23.6575 45.879 22.2824 47.2834C20.8927 48.7023 18.9178 49.4045 16.3432 49.4045Z" fill="black"/>
<path d="M42.8211 43.0557C42.8211 41.2417 42.2213 39.7496 41.0364 38.5647C39.8515 37.3797 38.3447 36.7946 36.5308 36.7946C34.5852 36.7946 32.9614 37.4968 31.6594 38.9157C30.3575 40.3347 29.6992 42.1341 29.6992 44.3137C29.6992 46.5519 30.3575 48.3366 31.6594 49.6971C32.9614 51.0576 34.6583 51.7451 36.7356 51.7451C38.8128 51.7305 40.6561 51.0576 42.2798 49.6971C42.1043 48.9657 41.6654 48.4244 40.9633 48.0587C40.5829 48.3513 40.2757 48.5707 40.027 48.717C39.7783 48.8779 39.3541 49.0388 38.7543 49.229C38.1546 49.4191 37.4816 49.5215 36.7648 49.5215C35.4921 49.5215 34.4389 49.0973 33.605 48.2342C32.7712 47.3711 32.3177 46.2886 32.2153 44.972H42.7041C42.7772 44.2552 42.8211 43.6116 42.8211 43.0557ZM32.2446 42.9679C32.3762 41.8269 32.8297 40.876 33.605 40.1007C34.3804 39.3254 35.3458 38.945 36.5308 38.945C37.8035 38.945 38.7543 39.34 39.3834 40.1299C39.9978 40.9199 40.305 41.8707 40.305 42.9679H32.2446Z" fill="black"/>
<path d="M54.9629 37.2627C54.0267 36.9409 53.0173 36.78 51.9494 36.7946C50.8523 36.7946 49.7844 36.9848 48.7604 37.3505C47.7217 37.7162 46.8879 38.1697 46.2442 38.7109V51.3209C46.6246 51.394 47.0342 51.4379 47.473 51.4379C47.9558 51.4379 48.3654 51.394 48.7018 51.3209V39.7935C49.4772 39.3107 50.5158 39.062 51.7885 39.062C52.7686 39.0767 53.6171 39.1791 54.3631 39.3692C54.8166 38.7695 55.0214 38.0673 54.9629 37.2627Z" fill="black"/>
<path d="M73.1318 36.7946C71.3178 36.7946 69.6648 37.4529 68.158 38.7695C67.0755 37.4529 65.5395 36.7946 63.5353 36.7946C62.365 36.7946 61.2094 36.9994 60.0537 37.4236C58.898 37.8479 57.9911 38.3452 57.3035 38.945V51.3209C57.6839 51.394 58.0788 51.4379 58.5031 51.4379C58.9858 51.4379 59.3954 51.394 59.7319 51.3209V39.9983C60.7559 39.3546 61.9115 39.0328 63.1842 39.0328C64.5155 39.0328 65.4809 39.4278 66.0807 40.2031C66.6659 40.9784 66.9584 42.0024 66.9584 43.2605V51.3209C67.2949 51.394 67.7045 51.4379 68.1873 51.4379C68.6407 51.4379 69.0503 51.394 69.3868 51.3209V42.2365C69.3722 41.6952 69.299 41.1393 69.1381 40.5688C70.2353 39.5448 71.4495 39.0328 72.766 39.0328C74.0972 39.0328 75.0627 39.4278 75.6625 40.2031C76.2477 40.9784 76.5402 42.0024 76.5402 43.2605V51.3209C76.8767 51.394 77.2863 51.4379 77.769 51.4379C78.2225 51.4379 78.6321 51.394 78.9686 51.3209V42.2365C78.9686 40.7443 78.442 39.457 77.4033 38.3891C76.3501 37.3212 74.9311 36.7946 73.1318 36.7946Z" fill="black"/>
<path d="M88.17 36.7946C87.0436 36.7946 86.005 36.9848 85.0249 37.3797C84.0448 37.7747 83.3133 38.2136 82.8159 38.7109C82.9476 39.457 83.3572 39.9983 84.0448 40.3201C85.1712 39.457 86.517 39.0328 88.053 39.0328C90.5253 39.0328 91.915 40.1884 91.915 42.3096V43.3775C90.7593 42.8948 89.4574 42.6607 87.9945 42.6607C86.2976 42.6607 84.9078 43.0557 83.8253 43.8602C82.7282 44.6648 82.1869 45.762 82.1869 47.1517C82.1869 48.5414 82.6843 49.6532 83.6937 50.487C84.6884 51.3209 86.2098 51.7451 88.2724 51.7451C89.3257 51.7451 90.4229 51.6135 91.5493 51.3355C92.6757 51.0576 93.5827 50.7357 94.2848 50.3554V42.3096C94.2848 40.4225 93.7143 39.0328 92.5879 38.1404C91.4615 37.2481 89.984 36.7946 88.17 36.7946ZM84.6738 47.0347C84.6738 45.5279 85.7856 44.7819 87.9945 44.7965C89.5013 44.7965 90.8178 45.0598 91.915 45.5718V49.0095C90.8471 49.3899 89.6329 49.5801 88.3017 49.5801C85.9465 49.5801 84.6738 48.5999 84.6738 47.0347Z" fill="black"/>
<path d="M106.968 48.4975C106.134 49.2143 105.227 49.5801 104.262 49.5801C103.399 49.5801 102.74 49.3606 102.257 48.9218C101.775 48.4829 101.541 47.6783 101.541 46.4934V39.1937H107.143C107.304 38.55 107.304 37.8332 107.143 37.2334H101.541V33.5178C101.204 33.4446 100.809 33.4007 100.37 33.4007C99.9169 33.4007 99.5073 33.4446 99.1708 33.5178V37.2334H96.7425C96.5815 37.8332 96.5815 38.55 96.7425 39.1937H99.1708V46.9762C99.1708 50.2091 101.043 51.7159 104.086 51.7159C105.637 51.7012 106.953 51.2038 108.036 50.2091C107.904 49.463 107.538 48.8925 106.968 48.4975Z" fill="black"/>
<path d="M122.05 49.5654C123.454 48.1465 124.157 46.3764 124.157 44.2552C124.157 42.1194 123.484 40.3347 122.138 38.9011C120.792 37.4821 119.066 36.7653 116.974 36.7653C114.882 36.7653 113.127 37.4821 111.722 38.9157C110.303 40.364 109.601 42.1341 109.601 44.2552C109.601 46.391 110.274 48.1611 111.634 49.5801C112.98 50.999 114.706 51.7159 116.798 51.7159C118.89 51.7159 120.646 50.999 122.05 49.5654ZM113.375 48.0148C112.498 47.0493 112.059 45.7912 112.059 44.2552C112.059 42.69 112.498 41.4319 113.375 40.4518C114.253 39.4863 115.423 39.0035 116.886 39.0035C118.334 39.0035 119.505 39.4863 120.397 40.4518C121.275 41.4319 121.714 42.69 121.714 44.2552C121.714 45.7912 121.275 47.0347 120.397 48.0002C119.505 48.9803 118.334 49.463 116.886 49.463C115.423 49.463 114.253 48.9803 113.375 48.0148Z" fill="black"/>
<path d="M128.999 51.4379C129.481 51.4379 129.891 51.394 130.228 51.3209V31.6014C129.891 31.5283 129.481 31.4844 128.999 31.4844C128.574 31.4844 128.18 31.5283 127.799 31.6014V51.3209C128.18 51.394 128.574 51.4379 128.999 51.4379Z" fill="black"/>
<path d="M146.304 49.5654C147.709 48.1465 148.411 46.3764 148.411 44.2552C148.411 42.1194 147.738 40.3347 146.392 38.9011C145.046 37.4821 143.32 36.7653 141.228 36.7653C139.136 36.7653 137.381 37.4821 135.977 38.9157C134.558 40.364 133.855 42.1341 133.855 44.2552C133.855 46.391 134.528 48.1611 135.889 49.5801C137.235 50.999 138.961 51.7159 141.053 51.7159C143.145 51.7159 144.9 50.999 146.304 49.5654ZM137.63 48.0148C136.752 47.0493 136.313 45.7912 136.313 44.2552C136.313 42.69 136.752 41.4319 137.63 40.4518C138.507 39.4863 139.678 39.0035 141.141 39.0035C142.589 39.0035 143.759 39.4863 144.651 40.4518C145.529 41.4319 145.968 42.69 145.968 44.2552C145.968 45.7912 145.529 47.0347 144.651 48.0002C143.759 48.9803 142.589 49.463 141.141 49.463C139.678 49.463 138.507 48.9803 137.63 48.0148Z" fill="black"/>
<path d="M158.607 36.7946C156.428 36.7946 154.628 37.4821 153.209 38.8426C151.776 40.2031 151.059 41.9439 151.059 44.0358C151.059 46.1277 151.761 47.81 153.18 49.0827C154.584 50.3554 156.325 50.9844 158.402 50.9844C159.529 50.9844 160.655 50.7065 161.782 50.1506V50.9552C161.782 52.1693 161.416 53.1641 160.699 53.9102C159.982 54.6562 158.9 55.0366 157.466 55.0366C155.521 55.0366 153.985 54.3929 152.858 53.0909C152.097 53.3982 151.571 53.954 151.293 54.7294C152.741 56.3678 154.789 57.187 157.466 57.187C159.441 57.187 161.065 56.6018 162.323 55.4169C163.581 54.232 164.21 52.7545 164.21 50.9552V38.6232C162.63 37.409 160.758 36.7946 158.607 36.7946ZM158.607 48.8633C157.086 48.8633 155.857 48.439 154.935 47.5759C154.014 46.7128 153.546 45.5425 153.546 44.0358C153.546 42.5583 154.014 41.3587 154.95 40.4079C155.886 39.4716 157.1 39.0035 158.607 39.0035C159.938 39.0182 161.006 39.3254 161.782 39.9398V47.81C160.845 48.5122 159.792 48.8633 158.607 48.8633Z" fill="black"/>
<path d="M179.395 37.1164C179.058 37.1164 178.722 37.1457 178.4 37.2042C177.332 41.7098 175.986 45.5133 174.392 48.5999C174.348 48.6877 174.245 48.9364 174.172 49.0095C174.055 48.8194 173.982 48.6731 173.938 48.5707C172.051 44.8111 170.617 41.0223 169.623 37.2042C169.257 37.1457 168.906 37.1164 168.54 37.1164C167.984 37.131 167.487 37.2042 167.048 37.3359C168.423 42.4998 170.31 47.0786 172.709 51.0576C171.832 52.5351 170.559 54.1735 168.906 55.9874C169.242 56.8359 169.813 57.3333 170.617 57.4649C172.87 54.9634 174.669 52.5204 176.03 50.1213C177.917 46.8299 179.526 42.5876 180.857 37.4236C180.36 37.2188 179.877 37.1164 179.395 37.1164Z" fill="black"/>
<path d="M15.0175 72.8822C15.8478 72.8822 16.4943 72.6537 16.9568 72.2023C17.4194 71.7509 17.6534 71.1435 17.6534 70.38C17.6534 68.8252 16.7729 67.9614 15.0843 67.9614C14.711 67.9614 14.3822 68.0283 14.0924 68.1676V66.3062H17.2522C17.2856 66.1781 17.3023 66.0276 17.3023 65.8604C17.2968 65.6765 17.28 65.5205 17.2522 65.3923H13.223V69.1038C13.301 69.1317 13.3902 69.1484 13.4905 69.1484C13.6521 69.1484 13.8918 69.0982 14.215 69.0035C14.5382 68.9088 14.8057 68.8642 15.0175 68.8642C16.1766 68.8642 16.7506 69.427 16.7506 70.4134C16.7506 71.4388 16.1599 72.0686 15.0175 72.0686C14.5326 72.0686 14.0478 71.8735 13.5685 71.4778C13.3066 71.6395 13.145 71.8679 13.0781 72.1744C13.5853 72.6481 14.2317 72.8822 15.0175 72.8822Z" fill="black"/>
<path d="M22.3569 71.645C22.0392 71.9181 21.6937 72.0574 21.3259 72.0574C20.9971 72.0574 20.7463 71.9738 20.5624 71.8066C20.3785 71.6395 20.2894 71.3329 20.2894 70.8815V68.1007H22.4238C22.4851 67.8555 22.4851 67.5824 22.4238 67.3539H20.2894V65.9384C20.1612 65.9106 20.0107 65.8939 19.8435 65.8939C19.6708 65.8939 19.5147 65.9106 19.3866 65.9384V67.3539H18.4615C18.4002 67.5824 18.4002 67.8555 18.4615 68.1007H19.3866V71.0655C19.3866 72.297 20.0999 72.871 21.259 72.871C21.8498 72.8655 22.3513 72.676 22.7637 72.297C22.7136 72.0128 22.5742 71.7955 22.3569 71.645Z" fill="black"/>
<path d="M26.2467 67.1868C25.6839 67.1868 25.1489 67.3261 24.6529 67.6047V65.2084C24.5247 65.1805 24.3687 65.1638 24.1959 65.1638C24.0287 65.1638 23.8727 65.1805 23.7278 65.2084V72.7206C23.8727 72.7484 24.0287 72.7652 24.1959 72.7652C24.3687 72.7652 24.5247 72.7484 24.6529 72.7206V68.4629C25.1099 68.1954 25.5836 68.0617 26.0795 68.0617C27.1272 68.0617 27.6511 68.6134 27.6511 69.7168V72.7206C27.796 72.7484 27.9464 72.7652 28.1081 72.7652C28.292 72.7652 28.448 72.7484 28.5762 72.7206V69.388C28.5762 68.7806 28.3811 68.2567 27.9855 67.8276C27.5898 67.3985 27.0102 67.1868 26.2467 67.1868Z" fill="black"/>
<path d="M35.7874 65.3923C35.6592 65.3477 35.4976 65.3254 35.3082 65.3254C35.1131 65.3254 34.9459 65.3477 34.8178 65.3923L32.1038 72.6426C32.2654 72.7262 32.4437 72.7652 32.6499 72.7652C32.7948 72.7652 32.9341 72.7484 33.0623 72.7206L33.7923 70.6754H36.8184L37.5707 72.7206C37.6933 72.7484 37.8438 72.7652 38.0166 72.7652C38.2339 72.7707 38.4178 72.7262 38.5627 72.6426L35.7874 65.3923ZM35.0797 67.0474L35.2747 66.4344L35.4698 67.0474L36.5175 69.8784H34.0766L35.0797 67.0474Z" fill="black"/>
<path d="M41.3157 72.7652C41.4773 72.7652 41.6166 72.7484 41.7392 72.7206C42.7646 70.8258 43.4835 69.0481 43.8959 67.393C43.7454 67.3372 43.5615 67.3094 43.3442 67.3094C43.216 67.3094 43.099 67.3205 42.982 67.3428C42.564 68.8307 42.0401 70.263 41.416 71.6339C41.3881 71.684 41.3658 71.7342 41.3603 71.7843H41.3491C41.3435 71.7342 41.3268 71.684 41.3045 71.6339C40.6637 70.302 40.1175 68.8753 39.6605 67.3428C39.5435 67.3205 39.4209 67.3094 39.2927 67.3094C39.0754 67.3149 38.8748 67.3428 38.702 67.393C39.3095 69.4605 40.0395 71.2382 40.881 72.7206C41.0036 72.7484 41.1485 72.7652 41.3157 72.7652Z" fill="black"/>
<path d="M49.5468 69.5719C49.5468 68.8809 49.3183 68.3125 48.8669 67.8611C48.4155 67.4097 47.8415 67.1868 47.1504 67.1868C46.4092 67.1868 45.7907 67.4543 45.2947 67.9948C44.7987 68.5354 44.5479 69.2208 44.5479 70.0512C44.5479 70.9038 44.7987 71.5837 45.2947 72.102C45.7907 72.6203 46.4371 72.8822 47.2285 72.8822C48.0198 72.8766 48.722 72.6203 49.3406 72.102C49.2737 71.8234 49.1065 71.6172 48.839 71.4778C48.6941 71.5893 48.5771 71.6729 48.4823 71.7286C48.3876 71.7899 48.226 71.8512 47.9975 71.9237C47.769 71.9961 47.5127 72.0351 47.2396 72.0351C46.7548 72.0351 46.3535 71.8735 46.0359 71.5447C45.7182 71.2159 45.5455 70.8035 45.5064 70.302H49.5022C49.53 70.0289 49.5468 69.7837 49.5468 69.5719ZM45.5176 69.5385C45.5677 69.1038 45.7405 68.7416 46.0359 68.4462C46.3312 68.1509 46.699 68.006 47.1504 68.006C47.6353 68.006 47.9975 68.1564 48.2371 68.4574C48.4712 68.7583 48.5882 69.1205 48.5882 69.5385H45.5176Z" fill="black"/>
<path d="M53.3196 67.1868C52.8403 67.1868 52.3778 67.2648 51.9375 67.4208C51.4972 67.5769 51.135 67.7719 50.8508 68.006V72.7206C50.9957 72.7484 51.1462 72.7652 51.3078 72.7652C51.4917 72.7652 51.6477 72.7484 51.7759 72.7206V68.4184C52.205 68.1676 52.6843 68.0394 53.2248 68.0394C54.2948 68.0394 54.8019 68.5354 54.8019 69.6945V72.7206C54.9468 72.7484 55.0973 72.7652 55.2589 72.7652C55.4428 72.7652 55.5988 72.7484 55.727 72.7206V69.3769C55.727 68.7472 55.5264 68.2233 55.1196 67.8053C54.7128 67.393 54.1109 67.1868 53.3196 67.1868Z" fill="black"/>
<path d="M61.6287 67.3094C61.4615 67.3094 61.3054 67.3261 61.1605 67.3539V71.7843C60.7314 71.946 60.2856 72.024 59.8286 72.024C59.2045 72.024 58.7865 71.8902 58.5747 71.6283C58.3574 71.3664 58.2515 70.954 58.2515 70.3911V67.3539C58.1233 67.3261 57.9673 67.3094 57.7945 67.3094C57.6274 67.3094 57.4713 67.3261 57.3264 67.3539V70.7701C57.3264 72.0909 58.1178 72.8822 59.6113 72.8822C60.4639 72.8766 61.2887 72.7039 62.0856 72.3528V67.3539C61.9575 67.3261 61.8014 67.3094 61.6287 67.3094Z" fill="black"/>
<path d="M68.4275 69.5719C68.4275 68.8809 68.199 68.3125 67.7476 67.8611C67.2962 67.4097 66.7222 67.1868 66.0312 67.1868C65.29 67.1868 64.6714 67.4543 64.1754 67.9948C63.6795 68.5354 63.4287 69.2208 63.4287 70.0512C63.4287 70.9038 63.6795 71.5837 64.1754 72.102C64.6714 72.6203 65.3179 72.8822 66.1092 72.8822C66.9006 72.8766 67.6027 72.6203 68.2213 72.102C68.1544 71.8234 67.9873 71.6172 67.7198 71.4778C67.5749 71.5893 67.4578 71.6729 67.3631 71.7286C67.2684 71.7899 67.1068 71.8512 66.8783 71.9237C66.6498 71.9961 66.3934 72.0351 66.1204 72.0351C65.6355 72.0351 65.2343 71.8735 64.9166 71.5447C64.599 71.2159 64.4262 70.8035 64.3872 70.302H68.3829C68.4108 70.0289 68.4275 69.7837 68.4275 69.5719ZM64.3984 69.5385C64.4485 69.1038 64.6213 68.7416 64.9166 68.4462C65.212 68.1509 65.5798 68.006 66.0312 68.006C66.516 68.006 66.8783 68.1564 67.1179 68.4574C67.352 68.7583 67.469 69.1205 67.469 69.5385H64.3984Z" fill="black"/>
<path d="M69.7316 74.4872C69.9935 74.2197 70.2275 73.8797 70.4393 73.4729C70.6455 73.0661 70.7514 72.6258 70.7514 72.1522C70.7458 71.946 70.7291 71.7899 70.6901 71.6729C70.5619 71.6172 70.4003 71.5893 70.2108 71.5893C69.9768 71.5949 69.7817 71.6227 69.6201 71.684C69.687 71.9627 69.7204 72.2636 69.7204 72.5813C69.726 73.3057 69.6034 73.8407 69.3582 74.1918C69.386 74.3478 69.5588 74.4872 69.7316 74.4872Z" fill="black"/>
<path d="M79.9744 65.3366C79.8741 65.3366 79.7292 65.3533 79.5397 65.3923V70.6196L79.5509 71.1212L79.3558 70.7924L75.4771 65.3589C75.2041 65.2976 74.9254 65.3421 74.6524 65.487V72.7206C74.9254 72.793 75.271 72.793 75.5329 72.7206V66.8858L75.7168 67.2536L79.6066 72.754C79.9243 72.754 80.1918 72.7206 80.4203 72.6537V65.3923C80.2531 65.3533 80.1026 65.3366 79.9744 65.3366Z" fill="black"/>
<path d="M86.9516 69.5719C86.9516 68.8809 86.7231 68.3125 86.2717 67.8611C85.8203 67.4097 85.2463 67.1868 84.5553 67.1868C83.8141 67.1868 83.1955 67.4543 82.6995 67.9948C82.2036 68.5354 81.9528 69.2208 81.9528 70.0512C81.9528 70.9038 82.2036 71.5837 82.6995 72.102C83.1955 72.6203 83.842 72.8822 84.6333 72.8822C85.4247 72.8766 86.1268 72.6203 86.7454 72.102C86.6785 71.8234 86.5114 71.6172 86.2439 71.4778C86.099 71.5893 85.9819 71.6729 85.8872 71.7286C85.7925 71.7899 85.6309 71.8512 85.4024 71.9237C85.1739 71.9961 84.9175 72.0351 84.6445 72.0351C84.1596 72.0351 83.7584 71.8735 83.4407 71.5447C83.1231 71.2159 82.9503 70.8035 82.9113 70.302H86.907C86.9349 70.0289 86.9516 69.7837 86.9516 69.5719ZM82.9225 69.5385C82.9726 69.1038 83.1454 68.7416 83.4407 68.4462C83.7361 68.1509 84.1039 68.006 84.5553 68.006C85.0401 68.006 85.4024 68.1564 85.642 68.4574C85.8761 68.7583 85.9931 69.1205 85.9931 69.5385H82.9225Z" fill="black"/>
<path d="M94.9821 67.3205C94.9096 67.3205 94.7926 67.3261 94.6421 67.3428C94.2576 68.9478 93.756 70.4357 93.1319 71.8066C93.1152 71.8401 93.1096 71.8735 93.1096 71.9014H93.0984C93.0984 71.8679 93.0929 71.8345 93.0762 71.8066C92.5913 70.7199 92.1176 69.232 91.6607 67.3428C91.5102 67.3261 91.3876 67.3205 91.2929 67.3205C91.0421 67.3261 90.847 67.3484 90.7021 67.393C90.9139 68.1564 91.0755 68.7193 91.1925 69.0815C90.9306 70.0233 90.5962 70.9317 90.1894 71.8066C90.1727 71.8401 90.1671 71.8735 90.1671 71.9014H90.156C90.156 71.8679 90.1504 71.8345 90.1337 71.8066C89.5095 70.4524 88.9968 68.9645 88.59 67.3428C88.4396 67.3261 88.3225 67.3205 88.2278 67.3205C87.977 67.3261 87.7764 67.3484 87.6315 67.393C88.1498 69.427 88.8297 71.2048 89.6656 72.7206C89.7826 72.7484 89.9275 72.7652 90.0947 72.7652C90.312 72.7652 90.4792 72.7484 90.6018 72.7206C91.0142 71.946 91.3374 71.1323 91.5715 70.2908C91.8613 71.1323 92.2012 71.946 92.5857 72.7206C92.7084 72.7484 92.8477 72.7652 93.0093 72.7652C93.1988 72.7652 93.3548 72.7484 93.4774 72.7206C93.8786 72.0296 94.2632 71.2103 94.631 70.2574C94.9988 69.3044 95.3053 68.3515 95.5505 67.393C95.4 67.3428 95.2106 67.3205 94.9821 67.3205Z" fill="black"/>
<path d="M103.938 65.3254C103.743 65.3254 103.592 65.3366 103.492 65.3589L101.564 68.7026L101.38 69.1038L101.196 68.7026L99.2007 65.3589C98.9834 65.3143 98.5933 65.2976 98.1976 65.4146L100.878 69.8784V72.7206C101.051 72.7596 101.201 72.7763 101.324 72.7763C101.469 72.7763 101.63 72.7596 101.803 72.7206V69.9119L104.45 65.4146C104.283 65.3533 104.11 65.3254 103.938 65.3254Z" fill="black"/>
<path d="M109.065 72.0518C109.6 71.5113 109.867 70.837 109.867 70.0289C109.867 69.2153 109.611 68.5354 109.098 67.9892C108.585 67.4487 107.928 67.1756 107.131 67.1756C106.334 67.1756 105.665 67.4487 105.13 67.9948C104.59 68.5465 104.322 69.2208 104.322 70.0289C104.322 70.8425 104.578 71.5168 105.097 72.0574C105.609 72.598 106.267 72.871 107.064 72.871C107.861 72.871 108.53 72.598 109.065 72.0518ZM105.76 71.4611C105.426 71.0933 105.258 70.6141 105.258 70.0289C105.258 69.4326 105.426 68.9533 105.76 68.58C106.094 68.2122 106.54 68.0283 107.097 68.0283C107.649 68.0283 108.095 68.2122 108.435 68.58C108.769 68.9533 108.936 69.4326 108.936 70.0289C108.936 70.6141 108.769 71.0877 108.435 71.4555C108.095 71.8289 107.649 72.0128 107.097 72.0128C106.54 72.0128 106.094 71.8289 105.76 71.4611Z" fill="black"/>
<path d="M114.515 67.3651C114.158 67.2425 113.774 67.1812 113.367 67.1868C112.949 67.1868 112.542 67.2592 112.152 67.3985C111.756 67.5378 111.439 67.7106 111.193 67.9168V72.7206C111.338 72.7484 111.494 72.7652 111.662 72.7652C111.845 72.7652 112.002 72.7484 112.13 72.7206V68.3292C112.425 68.1453 112.821 68.0505 113.306 68.0505C113.679 68.0561 114.002 68.0951 114.286 68.1676C114.459 67.9391 114.537 67.6716 114.515 67.3651Z" fill="black"/>
<path d="M117.691 69.8896C118.55 69.1986 119.252 68.3682 119.803 67.4041C119.647 67.3484 119.475 67.3205 119.285 67.3205C119.09 67.3205 118.94 67.3317 118.823 67.3539C118.265 68.3292 117.468 69.1484 116.432 69.8004V65.2084C116.304 65.1805 116.153 65.1638 115.981 65.1638C115.819 65.1638 115.668 65.1805 115.524 65.2084V72.7206C115.668 72.7484 115.819 72.7652 115.981 72.7652C116.153 72.7652 116.304 72.7484 116.432 72.7206V70.7701C116.677 70.6141 116.855 70.497 116.972 70.4246L119.001 72.7429C119.174 72.7652 119.33 72.7763 119.458 72.7763C119.659 72.7763 119.87 72.7484 120.099 72.6983L117.691 69.8896Z" fill="black"/>
</svg>
