<svg width="192" height="80" viewBox="0 0 192 80" fill="none" xmlns="http://www.w3.org/2000/svg">
<path d="M29.8782 39.6759C31.2476 39.2808 32.4289 38.4058 33.2059 37.2109C33.9828 36.0161 34.3035 34.5814 34.1092 33.1694C33.9148 31.7575 33.2185 30.4628 32.1476 29.5223C31.0767 28.5818 29.7029 28.0584 28.2776 28.048H11V52.6718H29.1395C30.7906 52.6597 32.3751 52.0197 33.5713 50.8815C34.7675 49.7434 35.4856 48.1926 35.5796 46.5441C35.6737 44.8957 35.1367 43.2733 34.0777 42.0065C33.0187 40.7397 31.5172 39.9235 29.8782 39.7238V39.6759ZM18.0177 32.8359H24.6935C25.4028 32.8359 26.0831 33.1177 26.5846 33.6193C27.0862 34.1208 27.368 34.8011 27.368 35.5104C27.368 36.2197 27.0862 36.8999 26.5846 37.4015C26.0831 37.903 25.4028 38.1848 24.6935 38.1848H18.0177V32.8359ZM25.6853 48.5199H18.0177V42.535H25.6853C26.4542 42.5718 27.1795 42.9031 27.7106 43.4603C28.2418 44.0175 28.5381 44.7577 28.5381 45.5275C28.5381 46.2973 28.2418 47.0375 27.7106 47.5947C27.1795 48.1518 26.4542 48.4832 25.6853 48.5199Z" fill="url(#paint0_linear)"/>
<path d="M65.3576 52.6238H72.9294L61.3494 28H54.7284L43.1552 52.6238H50.727L52.3344 48.5676H63.7502L65.3576 52.6238ZM54.5231 43.0479L58.0389 34.1559L61.5614 43.0479H54.5231Z" fill="url(#paint1_linear)"/>
<path d="M102.367 52.6238H109.939L98.3587 28H91.7376L80.1576 52.6238H87.7294L89.3368 48.5676H100.759L102.367 52.6238ZM91.5256 43.0479L95.0482 34.1559L98.5707 43.0479H91.5256Z" fill="url(#paint2_linear)"/>
<path d="M136.006 28.0342V41.2215L125.746 28.2736V28.0342H118.858V52.6237H125.746V39.8467L136.006 51.6182V52.6237H142.894V28.0342H136.006Z" fill="url(#paint3_linear)"/>
<path d="M152.935 28.0342L162.018 40.3324L152.935 52.6237H160.849L170.082 40.3324L160.773 28.0342H152.935Z" fill="url(#paint4_linear)"/>
<path d="M173.38 28.0342L168.25 35.134L172.059 39.9014L180.999 28.0342H173.38Z" fill="url(#paint5_linear)"/>
<path d="M173.38 52.5074L168.25 45.4007L172.059 40.6401L180.999 52.5074H173.38Z" fill="url(#paint6_linear)"/>
<defs>
<linearGradient id="paint0_linear" x1="11" y1="45" x2="181" y2="45" gradientUnits="userSpaceOnUse">
<stop stop-color="#3476F2"/>
<stop offset="1" stop-color="#01249A"/>
</linearGradient>
<linearGradient id="paint1_linear" x1="11" y1="45" x2="181" y2="45" gradientUnits="userSpaceOnUse">
<stop stop-color="#3476F2"/>
<stop offset="1" stop-color="#01249A"/>
</linearGradient>
<linearGradient id="paint2_linear" x1="11" y1="45" x2="181" y2="45" gradientUnits="userSpaceOnUse">
<stop stop-color="#3476F2"/>
<stop offset="1" stop-color="#01249A"/>
</linearGradient>
<linearGradient id="paint3_linear" x1="11" y1="45" x2="181" y2="45" gradientUnits="userSpaceOnUse">
<stop stop-color="#3476F2"/>
<stop offset="1" stop-color="#01249A"/>
</linearGradient>
<linearGradient id="paint4_linear" x1="11" y1="45" x2="181" y2="45" gradientUnits="userSpaceOnUse">
<stop stop-color="#3476F2"/>
<stop offset="1" stop-color="#01249A"/>
</linearGradient>
<linearGradient id="paint5_linear" x1="11" y1="45" x2="181" y2="45" gradientUnits="userSpaceOnUse">
<stop stop-color="#3476F2"/>
<stop offset="1" stop-color="#01249A"/>
</linearGradient>
<linearGradient id="paint6_linear" x1="11" y1="45" x2="181" y2="45" gradientUnits="userSpaceOnUse">
<stop stop-color="#3476F2"/>
<stop offset="1" stop-color="#01249A"/>
</linearGradient>
</defs>
</svg>
