<svg width="192" height="76" viewBox="0 0 192 76" fill="none" xmlns="http://www.w3.org/2000/svg">
<mask id="mask0_305_172" style="mask-type:luminance" maskUnits="userSpaceOnUse" x="128" y="11" width="47" height="55">
<path d="M174.143 18.2154L137.275 11.4363L128.559 58.8383L165.427 65.6175L174.143 18.2154Z" fill="white"/>
</mask>
<g mask="url(#mask0_305_172)">
<path d="M165.635 49.715C165.635 49.715 163.89 28.7909 163.381 22.8982C162.871 17.0054 155.776 16.7118 155.776 16.7118L144.43 16.7891C144.43 16.7891 137.344 17.1794 136.994 23.0778C136.643 28.9762 135.466 49.9203 135.466 49.9203C135.466 49.9203 134.472 59.0271 143.244 59.3526C148.189 59.5325 149.994 59.5202 150.638 59.4304C151.284 59.5115 153.089 59.4992 158.028 59.252C166.875 58.7645 165.635 49.715 165.635 49.715Z" fill="#AF4825"/>
<path d="M159.941 28.3937C159.925 27.3638 159.498 26.3794 158.755 25.6557C158.012 24.932 157.013 24.5278 155.976 24.5313L145.142 24.6048C144.105 24.6157 143.117 25.0334 142.394 25.767C141.671 26.5005 141.271 27.4902 141.282 28.5203L141.459 41.5972C141.476 42.627 141.903 43.6112 142.646 44.3348C143.389 45.0585 144.388 45.4628 145.424 45.4595L156.259 45.386C157.296 45.3751 158.283 44.9573 159.006 44.2237C159.729 43.4902 160.129 42.5004 160.118 41.4703L159.941 28.3937Z" fill="#D7713E"/>
<path d="M155.806 16.6809L144.444 16.7593C144.444 16.7593 137.347 17.151 136.996 23.0606C136.965 23.9169 136.895 25.116 136.784 26.4866C137.477 26.3197 138.203 26.3295 138.894 26.5149C140.365 27.1469 141.94 29.0196 143.747 28.9215C145.553 28.8235 147.758 26.3254 149.909 26.2677L151.2 26.259C153.395 26.2443 155.667 28.7541 157.433 28.8273C159.199 28.9006 160.766 27.0064 162.221 26.3543C162.67 26.1766 163.162 26.1287 163.639 26.216C163.535 24.8468 163.434 23.7347 163.379 22.8788C162.955 16.9741 155.806 16.6809 155.806 16.6809Z" fill="#AF4825"/>
<path d="M155.806 16.6809L144.444 16.7593C144.444 16.7593 137.347 17.151 136.996 23.0606C136.965 23.9169 136.895 25.116 136.784 26.4866C137.477 26.3197 138.203 26.3295 138.894 26.5149C140.365 27.1469 141.94 29.0196 143.747 28.9215C145.553 28.8235 147.758 26.3254 149.909 26.2677L151.2 26.259C153.395 26.2443 155.667 28.7541 157.433 28.8273C159.199 28.9006 160.766 27.0064 162.221 26.3543C162.67 26.1766 163.162 26.1287 163.639 26.216C163.535 24.8468 163.434 23.7347 163.379 22.8788C162.955 16.9741 155.806 16.6809 155.806 16.6809Z" fill="#852E1B"/>
<path d="M150.883 47.1326C144.385 47.1773 139.189 51.2355 139.255 56.1564C139.259 56.9748 139.416 57.7864 139.718 58.5497C140.841 59.0267 142.041 59.2941 143.258 59.3385C148.21 59.5185 150.017 59.5061 150.662 59.4161C151.308 59.4973 153.116 59.485 158.062 59.2371C159.669 59.209 161.23 58.723 162.561 57.8367C162.726 57.2374 162.805 56.6174 162.795 55.995C162.728 51.0741 157.381 47.088 150.883 47.1326Z" fill="#852E1B"/>
<path d="M144.612 27.4077L141.904 27.4257L141.949 30.6728L144.657 30.6549L144.612 27.4077Z" fill="#794D26"/>
<path d="M144.214 30.652L142.332 30.6654L142.489 42.5719L144.371 42.5585L144.214 30.652Z" fill="#CD9B88"/>
<path d="M159.303 27.2881L156.596 27.3061L156.64 30.5532L159.348 30.5353L159.303 27.2881Z" fill="#794D26"/>
<path d="M158.949 30.5325L157.066 30.5459L157.224 42.4524L159.106 42.439L158.949 30.5325Z" fill="#CD9B88"/>
<path d="M142.418 46.1096L140.537 46.1232L140.731 60.9306L142.612 60.917L142.418 46.1096Z" fill="#CD9B88"/>
<path d="M142.878 47.7285L140.17 47.7465L140.214 50.9936L142.922 50.9757L142.878 47.7285Z" fill="#794D26"/>
<path d="M161.076 45.958L159.195 45.9716L159.389 60.7789L161.27 60.7653L161.076 45.958Z" fill="#CD9B88"/>
<path d="M161.534 47.5768L158.826 47.5947L158.871 50.8419L161.578 50.8239L161.534 47.5768Z" fill="#794D26"/>
<path d="M155.894 29.9628L145.514 30.0383L145.529 31.1964L155.909 31.1209L155.894 29.9628Z" fill="#794D26"/>
<path d="M162.577 33.5224C162.577 33.5224 166.007 33.1998 166.833 34.0481C167.659 34.8963 167.825 37.5859 168.174 41.2128C168.376 43.4739 169.107 46.757 168.089 47.6615C167.071 48.566 163.635 48.4184 163.635 48.4184L162.577 33.5224Z" fill="#D7713E"/>
<path d="M138.124 33.7283C138.124 33.7283 134.686 33.4532 133.882 34.313C133.078 35.1727 132.986 37.8636 132.734 41.495C132.592 43.7592 131.95 47.0516 132.992 47.9413C134.034 48.8309 137.466 48.6362 137.466 48.6362L138.124 33.7283Z" fill="#D7713E"/>
<path opacity="0.5" d="M155.94 34.7413L155.979 34.4843L151.795 33.5297L155.952 32.5184L155.817 32.0491L150.717 33.3232L145.583 32.1611L145.46 32.6322L149.645 33.587L145.487 34.5985L145.534 34.8548L145.537 35.0686L149.721 36.0231L145.563 37.0345L145.61 37.2908L145.571 37.5478L149.755 38.5022L145.597 39.514L145.644 39.7704L145.604 40.0274L149.788 40.9811L145.631 41.9926L145.766 42.4619L150.867 41.2306L156 42.3925L156.123 41.9215L151.938 40.9669L156.096 39.9554L156.049 39.699L156.089 39.442L151.905 38.4876L156.062 37.4762L156.015 37.2198L156.055 36.9629L151.871 36.0084L156.029 34.9971L155.94 34.7413ZM154.865 34.7484L150.75 35.7596L146.608 34.8046L150.723 33.7935L154.865 34.7484ZM150.756 36.2296L154.898 37.1847L150.783 38.1963L146.641 37.241L150.756 36.2296ZM150.79 38.666L154.931 39.6211L150.816 40.6323L146.674 39.6772L150.79 38.666Z" fill="black"/>
<path d="M153.209 14.9657C152.348 14.6044 151.422 14.4215 150.49 14.428C149.557 14.4345 148.637 14.6304 147.785 15.0036C147.349 15.171 146.956 15.4315 146.633 15.7667C146.31 16.102 146.066 16.5039 145.916 16.9442C146.05 17.1421 146.231 17.3038 146.443 17.4145C146.655 17.5253 146.891 17.5816 147.13 17.5783L147.303 17.5771C147.467 16.8869 147.89 16.2866 148.486 15.8983C149.082 15.503 149.782 15.2898 150.501 15.2849C151.22 15.28 151.926 15.4836 152.533 15.8707C153.121 16.269 153.555 16.8561 153.76 17.5328L153.932 17.5316C154.171 17.5316 154.406 17.472 154.615 17.3582C154.824 17.2445 155.001 17.0804 155.129 16.8807C154.947 16.1103 154.206 15.4299 153.209 14.9657Z" fill="#794D26"/>
</g>
<path d="M93.5071 25.5317C93.4847 25.5684 93.4571 25.595 93.4242 25.6115C93.3933 25.6248 93.3604 25.6299 93.3256 25.627C93.2941 25.6262 93.2624 25.6183 93.2303 25.6033C93.1995 25.5937 93.1708 25.5808 93.1441 25.5646C93.1074 25.5423 93.0671 25.5109 93.0231 25.4704C92.9804 25.4353 92.9408 25.3952 92.9043 25.3501C92.8677 25.305 92.8365 25.2585 92.8107 25.2108C92.7902 25.1618 92.7811 25.1128 92.7834 25.0639C92.7837 25.0184 92.8029 24.9455 92.8411 24.8452C92.8846 24.7437 92.9379 24.6298 93.001 24.5035C93.0661 24.374 93.1369 24.2388 93.2135 24.0979C93.2921 23.9537 93.3666 23.8161 93.4371 23.6852C93.5109 23.5564 93.5766 23.4409 93.6342 23.3388C93.6972 23.2353 93.7439 23.1586 93.7743 23.1085C93.9164 22.8749 94.0568 22.6517 94.1955 22.4389C94.3395 22.2247 94.4866 22.0055 94.6367 21.7814C94.62 21.7712 94.6023 21.7627 94.5836 21.7559C94.5649 21.7491 94.5472 21.7406 94.5305 21.7305C94.483 21.7107 94.4349 21.6883 94.3862 21.6632C94.3408 21.6402 94.2947 21.6144 94.248 21.586C94.1913 21.5515 94.1473 21.511 94.1161 21.4646C94.0849 21.4182 94.0906 21.36 94.1333 21.2899C94.184 21.2064 94.243 21.1509 94.3102 21.1231C94.3773 21.0954 94.4474 21.0855 94.5204 21.0933C94.5954 21.0978 94.6693 21.1153 94.7421 21.1459C94.817 21.1732 94.8881 21.2028 94.9556 21.2347C94.9656 21.2408 94.9723 21.2448 94.9756 21.2469C94.981 21.2455 94.9887 21.2479 94.9987 21.254C95.0264 21.216 95.0592 21.1697 95.097 21.115C95.1369 21.0569 95.1799 20.9939 95.2258 20.9258C95.2962 20.8177 95.3722 20.704 95.454 20.5846C95.5379 20.4618 95.6176 20.3458 95.6934 20.2364C95.7711 20.1236 95.8414 20.0269 95.9042 19.9462C95.969 19.8622 96.0176 19.8049 96.0499 19.7743C96.093 19.7411 96.1327 19.7172 96.169 19.7027C96.2086 19.6902 96.2584 19.7022 96.3185 19.7388C96.4519 19.82 96.529 19.9263 96.5496 20.0578C96.5702 20.1892 96.542 20.3183 96.4648 20.4451C96.3755 20.592 96.2811 20.7357 96.1818 20.8765C96.0858 21.0192 95.9887 21.1637 95.8907 21.3098L95.7204 21.5559C95.8099 21.5967 95.9024 21.6324 95.998 21.6632C96.0883 21.6952 96.1775 21.7289 96.2657 21.7643C96.3573 21.8017 96.4414 21.8438 96.5182 21.8905C96.5849 21.9311 96.6255 21.9809 96.6399 22.04C96.6563 22.0957 96.6442 22.1569 96.6035 22.2236C96.5589 22.2971 96.5019 22.3607 96.4325 22.4145C96.3632 22.4683 96.284 22.4933 96.1949 22.4894L96.1999 22.4925C96.1825 22.491 96.1364 22.4767 96.0615 22.4494C95.9887 22.4188 95.9058 22.3821 95.813 22.3393C95.7235 22.2986 95.6339 22.2578 95.5444 22.2171C95.4582 22.1784 95.3941 22.1485 95.352 22.1275L95.347 22.1244C95.2267 22.3072 95.109 22.4894 94.9939 22.6709C94.881 22.8491 94.7676 23.0316 94.6539 23.2185C94.4976 23.4754 94.3378 23.7531 94.1745 24.0516C94.0165 24.3487 93.8767 24.6386 93.7551 24.9212L93.658 25.1708C93.6369 25.2357 93.614 25.2995 93.5895 25.3624C93.5671 25.4218 93.5396 25.4783 93.5071 25.5317Z" fill="black"/>
<path d="M96.8741 27.3813C96.8335 27.4481 96.7823 27.4833 96.7207 27.4869C96.659 27.4905 96.5965 27.4731 96.5331 27.4345C96.4931 27.4101 96.4534 27.3814 96.414 27.3483C96.3768 27.3119 96.3411 27.2765 96.3072 27.2422C96.2493 27.1795 96.2095 27.121 96.1877 27.0666C96.1692 27.0142 96.1612 26.9636 96.1635 26.9147C96.1678 26.8624 96.1809 26.8109 96.2026 26.7602C96.2277 26.7114 96.2559 26.6577 96.287 26.5989C96.2972 26.5822 96.3047 26.5662 96.3095 26.5508C96.3176 26.5375 96.3257 26.5241 96.3338 26.5108C96.4395 26.3144 96.5483 26.1131 96.6601 25.9068C96.7753 25.7025 96.8907 25.5053 97.0065 25.3151C97.0653 25.2183 97.1242 25.1215 97.1831 25.0247C97.2453 24.93 97.3075 24.8353 97.3698 24.7405C97.432 24.6458 97.4915 24.5517 97.5484 24.4582C97.6106 24.3635 97.6711 24.2677 97.73 24.171C97.7422 24.1509 97.7517 24.1316 97.7585 24.1129C97.7707 24.0928 97.7812 24.0718 97.7901 24.0497C97.6262 24.1238 97.4631 24.2189 97.3009 24.3351C97.1441 24.45 96.9899 24.5757 96.8384 24.7121C96.6888 24.8452 96.5449 24.984 96.4067 25.1285C96.2738 25.2717 96.15 25.4113 96.0353 25.5472L95.9563 25.6432C95.8686 25.7498 95.7788 25.8598 95.687 25.9732C95.5972 26.0831 95.5158 26.1982 95.4427 26.3183C95.4122 26.3684 95.387 26.4285 95.3672 26.4987C95.3576 26.5295 95.3464 26.5592 95.3335 26.588C95.3259 26.6154 95.311 26.6475 95.2887 26.6842C95.2399 26.7642 95.1874 26.8055 95.1311 26.8078C95.0728 26.8135 95.0103 26.796 94.9435 26.7554C94.9035 26.731 94.8605 26.7003 94.8145 26.6631C94.7718 26.628 94.7322 26.5879 94.6956 26.5428C94.6604 26.5031 94.6298 26.4593 94.604 26.4116C94.5782 26.3639 94.5647 26.3146 94.5637 26.2636C94.5701 26.2081 94.6201 26.0808 94.7138 25.8817C94.8108 25.6847 94.9353 25.4426 95.0871 25.1555C95.2423 24.8704 95.4178 24.5519 95.6135 24.2001C95.8114 23.8449 96.0143 23.4814 96.2222 23.1095C96.4335 22.7397 96.6428 22.3732 96.8501 22.01C97.0606 21.6489 97.254 21.3161 97.43 21.0117C97.6094 20.7094 97.7645 20.447 97.8951 20.2248C98.0279 19.9991 98.1216 19.8413 98.1764 19.7512C98.217 19.6844 98.2619 19.6295 98.3111 19.5862C98.3656 19.5417 98.4363 19.5458 98.5231 19.5986C98.6132 19.6534 98.6851 19.7269 98.7388 19.819C98.7945 19.9078 98.8143 20.0067 98.7982 20.1158C98.7968 20.1332 98.7699 20.1923 98.7177 20.2932C98.6676 20.3907 98.6001 20.5165 98.5154 20.6708C98.4328 20.8216 98.3359 20.9959 98.2248 21.1935C98.1157 21.3878 98.0016 21.5904 97.8824 21.8014C97.7652 22.009 97.647 22.2183 97.5278 22.4292C97.4086 22.6402 97.2975 22.8378 97.1945 23.0221L96.7688 23.7781C96.8718 23.699 96.9878 23.621 97.1169 23.5441C97.246 23.4672 97.3774 23.4054 97.511 23.3587C97.6479 23.3139 97.783 23.291 97.9164 23.2898C98.053 23.2907 98.1814 23.3276 98.3016 23.4007C98.4484 23.4901 98.5402 23.5985 98.5769 23.726C98.6136 23.8535 98.6175 23.9862 98.5885 24.124C98.5628 24.2639 98.5154 24.4019 98.4463 24.5382C98.3771 24.6744 98.31 24.7959 98.245 24.9027C98.2044 24.9694 98.1632 25.0335 98.1212 25.0949C98.0827 25.1583 98.0424 25.2207 98.0005 25.282C97.9566 25.3467 97.9126 25.4115 97.8687 25.4762C97.8301 25.5396 97.7905 25.6046 97.7499 25.6714C97.6098 25.9016 97.4706 26.1416 97.3324 26.3913C97.1962 26.6377 97.0771 26.8898 96.975 27.1478L96.9424 27.224C96.9369 27.2481 96.9277 27.2745 96.9148 27.3032C96.9019 27.3319 96.8883 27.358 96.8741 27.3813Z" fill="black"/>
<path d="M97.5569 28.2769C97.5068 28.2464 97.4558 28.2063 97.4039 28.1564C97.3553 28.1085 97.3134 28.0533 97.2783 27.9908C97.2465 27.9303 97.2255 27.8672 97.2152 27.8015C97.2102 27.7344 97.227 27.6692 97.2656 27.6058C97.3225 27.5124 97.3816 27.4227 97.4431 27.3366C97.51 27.2493 97.5758 27.1636 97.6407 27.0796L97.6376 27.0846L97.8717 26.7675C97.9548 26.6534 98.0434 26.5267 98.1374 26.3873C98.2313 26.2478 98.3247 26.1057 98.4174 25.9609C98.5154 25.8148 98.6097 25.671 98.7004 25.5296C98.791 25.3881 98.8729 25.2573 98.946 25.1372C98.9886 25.0671 99.0296 24.996 99.0689 24.9239C99.1136 24.8505 99.1583 24.777 99.2029 24.7036C99.2382 24.6382 99.2791 24.5671 99.3258 24.4903C99.3746 24.4103 99.4192 24.3368 99.4598 24.2701C99.5025 24.2 99.5453 24.1484 99.5884 24.1151C99.6369 24.0806 99.7045 24.0897 99.7912 24.1425C99.868 24.1892 99.9359 24.258 99.995 24.3488C100.057 24.4416 100.083 24.5349 100.072 24.6286L100.067 24.6256C100.061 24.6724 100.036 24.7396 99.992 24.8271C99.9533 24.9133 99.9163 24.9891 99.8811 25.0545C99.9906 25.0023 100.11 24.9491 100.239 24.8949C100.371 24.8428 100.503 24.8021 100.635 24.7728C100.77 24.7401 100.9 24.7255 101.026 24.729C101.152 24.7324 101.268 24.7667 101.375 24.8316C101.515 24.9169 101.6 25.0169 101.631 25.1317C101.662 25.2464 101.661 25.3673 101.63 25.4944C101.6 25.6182 101.551 25.7411 101.481 25.8633C101.413 25.9821 101.35 26.0899 101.291 26.1867L101.267 26.2268C101.242 26.2668 101.216 26.3058 101.188 26.3438C101.166 26.3806 101.138 26.4115 101.105 26.4368C101.076 26.4607 101.041 26.4736 100.999 26.4753C100.96 26.4791 100.915 26.4658 100.865 26.4353C100.812 26.4028 100.759 26.3616 100.707 26.3117C100.657 26.2585 100.615 26.2006 100.58 26.1381C100.548 26.0776 100.527 26.0145 100.517 25.9488C100.508 25.8797 100.521 25.8142 100.554 25.7521C100.57 25.7254 100.587 25.6987 100.603 25.672C100.619 25.6453 100.637 25.6196 100.657 25.5949C100.667 25.5782 100.679 25.5582 100.693 25.5349C100.713 25.5102 100.73 25.4862 100.744 25.4628C100.572 25.5046 100.397 25.5786 100.218 25.6847C100.042 25.7928 99.8674 25.915 99.693 26.0512C99.522 26.1895 99.3583 26.3345 99.2019 26.4863C99.0476 26.6347 98.9101 26.7706 98.7894 26.8937L98.7803 26.9088C98.7073 27.0061 98.6387 27.1038 98.5745 27.2019C98.5102 27.3 98.4439 27.4014 98.3756 27.5062C98.2992 27.6243 98.2201 27.743 98.1383 27.8625C98.0598 27.9839 97.9784 28.099 97.894 28.2076C97.8487 28.267 97.7992 28.3032 97.7456 28.3162C97.6932 28.3347 97.6303 28.3216 97.5569 28.2769Z" fill="black"/>
<path d="M103.039 28.6906C102.862 28.9809 102.661 29.256 102.434 29.5159C102.213 29.7744 101.949 29.9865 101.642 30.1521C101.549 30.2004 101.45 30.243 101.345 30.2799C101.242 30.3134 101.137 30.3362 101.029 30.3483C100.922 30.3657 100.816 30.3647 100.708 30.3453C100.603 30.3312 100.503 30.2958 100.41 30.2389C100.263 30.1496 100.156 30.0364 100.088 29.8993C100.022 29.7676 99.9824 29.6223 99.9693 29.4634C99.9616 29.3033 99.9737 29.1369 100.006 28.9642C100.043 28.7903 100.091 28.6207 100.15 28.4556C100.215 28.2892 100.283 28.1319 100.355 27.9836C100.431 27.8374 100.501 27.7108 100.566 27.6041C100.639 27.4839 100.724 27.3551 100.821 27.2177C100.919 27.0803 101.025 26.9437 101.139 26.8077C101.257 26.6738 101.381 26.5456 101.511 26.4231C101.643 26.3027 101.782 26.1994 101.925 26.1132C102.071 26.0236 102.222 25.9572 102.376 25.914C102.532 25.8674 102.691 25.8516 102.851 25.8667L102.847 25.8717C102.989 25.8799 103.113 25.9165 103.22 25.9815C103.286 26.0221 103.329 26.0686 103.347 26.121C103.368 26.17 103.356 26.2269 103.312 26.2916C103.475 26.4366 103.57 26.6154 103.596 26.8279C103.622 27.0405 103.608 27.2601 103.552 27.4869C103.5 27.7157 103.423 27.9363 103.321 28.1487C103.222 28.3631 103.128 28.5437 103.039 28.6906ZM102.669 26.7509C102.612 26.7163 102.572 26.6622 102.549 26.5883C102.426 26.6465 102.305 26.7258 102.184 26.8262C102.066 26.9233 101.953 27.0305 101.845 27.1477C101.742 27.2636 101.645 27.3853 101.554 27.5127C101.463 27.6401 101.382 27.7622 101.311 27.879C101.252 27.9758 101.181 28.1039 101.097 28.2635C101.016 28.4198 100.942 28.5828 100.875 28.7525C100.812 28.9243 100.764 29.0922 100.733 29.2561C100.706 29.4221 100.714 29.5622 100.759 29.6763C100.899 29.6792 101.042 29.6359 101.188 29.5463C101.339 29.4555 101.482 29.3438 101.618 29.2114C101.753 29.0789 101.877 28.9366 101.987 28.7846C102.101 28.6345 102.193 28.5028 102.262 28.3893C102.313 28.3059 102.374 28.1944 102.445 28.0548C102.516 27.9152 102.582 27.7699 102.642 27.6189C102.704 27.4645 102.749 27.3141 102.779 27.1676C102.812 27.0231 102.815 26.9015 102.788 26.8028C102.752 26.7946 102.713 26.7772 102.669 26.7509Z" fill="black"/>
<path d="M106.273 28.9438C106.253 28.9772 106.228 29.0102 106.199 29.0429C106.17 29.0755 106.143 29.1048 106.118 29.1308C106.089 29.1634 106.061 29.1944 106.034 29.2237C106.009 29.2497 105.988 29.2777 105.97 29.3077C105.781 29.6181 105.596 29.9331 105.415 30.2529C105.24 30.5714 105.083 30.9037 104.946 31.2499C104.889 31.3802 104.838 31.5092 104.792 31.6368C104.747 31.7645 104.703 31.8959 104.662 32.0309L104.654 32.0671L104.66 32.0571C104.656 32.0865 104.649 32.1166 104.64 32.1474C104.635 32.1768 104.625 32.2049 104.609 32.2316C104.587 32.2683 104.558 32.2922 104.524 32.3034C104.493 32.3166 104.46 32.3218 104.425 32.3189C104.391 32.316 104.356 32.3061 104.32 32.2891C104.288 32.2742 104.259 32.2586 104.232 32.2423C104.122 32.1753 104.041 32.1098 103.988 32.0459C103.941 31.9806 103.91 31.9141 103.897 31.8463C103.885 31.7752 103.889 31.7019 103.907 31.6263C103.929 31.5528 103.957 31.4736 103.99 31.3887L104.03 31.2894C104.045 31.2346 104.067 31.1795 104.096 31.124C104.109 31.0953 104.113 31.0816 104.108 31.0829C104.108 31.0829 104.114 31.0685 104.127 31.0398C104.029 31.0948 103.92 31.1514 103.797 31.2096C103.68 31.2665 103.556 31.3123 103.426 31.347C103.3 31.3804 103.175 31.398 103.05 31.3999C102.928 31.3985 102.815 31.3663 102.711 31.3034C102.568 31.2161 102.482 31.1047 102.455 30.9692C102.431 30.8357 102.438 30.6961 102.477 30.5503C102.517 30.4011 102.575 30.2578 102.649 30.1202C102.726 29.9794 102.795 29.8589 102.856 29.7588C103.087 29.3783 103.328 29.0083 103.579 28.6488C103.833 28.2913 104.09 27.9331 104.349 27.5743C104.355 27.5643 104.364 27.551 104.374 27.5343C104.387 27.5196 104.397 27.5073 104.403 27.4973C104.435 27.4526 104.465 27.4112 104.492 27.3732C104.52 27.3352 104.552 27.3019 104.587 27.2733L104.584 27.2783C104.63 27.233 104.672 27.2058 104.709 27.1967C104.75 27.1896 104.797 27.2023 104.851 27.2348C104.901 27.2652 104.945 27.3057 104.983 27.3562C105.023 27.4033 105.052 27.4557 105.072 27.5135C105.094 27.5679 105.103 27.6239 105.1 27.6815C105.101 27.7411 105.085 27.7976 105.052 27.851C105.036 27.8777 105.016 27.9094 104.994 27.9461C104.972 27.9828 104.951 28.0135 104.931 28.0382C104.917 28.0615 104.897 28.0905 104.871 28.1252C104.851 28.1586 104.834 28.1869 104.82 28.2103C104.598 28.5144 104.384 28.8209 104.178 29.1298C103.974 29.4354 103.773 29.75 103.576 30.0737C103.521 30.1638 103.466 30.2539 103.412 30.344C103.36 30.4362 103.315 30.5324 103.277 30.6326C103.473 30.5595 103.676 30.4388 103.888 30.2706C104.103 30.0991 104.31 29.9078 104.512 29.6967C104.719 29.4842 104.912 29.268 105.092 29.0481C105.277 28.8268 105.434 28.6278 105.565 28.4511C105.571 28.4411 105.578 28.4294 105.586 28.416C105.598 28.4047 105.606 28.3941 105.612 28.384C105.638 28.3494 105.663 28.3164 105.686 28.285C105.71 28.2537 105.741 28.2291 105.779 28.2112C105.798 28.1812 105.819 28.1505 105.842 28.1192C105.866 28.0878 105.892 28.0629 105.922 28.0443C105.954 28.0224 105.986 28.0102 106.02 28.0077C106.057 28.0073 106.098 28.0213 106.145 28.0497C106.279 28.1309 106.358 28.2366 106.384 28.3667C106.412 28.4935 106.391 28.6223 106.321 28.7532C106.321 28.79 106.317 28.8239 106.307 28.8546C106.303 28.8841 106.292 28.9138 106.273 28.9438Z" fill="black"/>
<path d="M108.142 32.9066C108.122 32.94 108.087 32.974 108.039 33.0085C107.996 33.0417 107.944 33.0742 107.883 33.106C107.828 33.1365 107.769 33.1666 107.705 33.1964C107.641 33.2261 107.582 33.2519 107.528 33.2737L107.389 33.3331L107.234 33.4175L107.096 33.4981C107.059 33.5669 107.02 33.6417 106.98 33.7225C106.94 33.8033 106.902 33.8808 106.866 33.9549C106.694 34.3209 106.512 34.6906 106.322 35.0639C106.135 35.4393 105.936 35.7988 105.727 36.1425C105.616 36.3261 105.488 36.5021 105.344 36.6707C105.198 36.8427 105.038 36.9784 104.863 37.0778C104.69 37.1825 104.502 37.2397 104.299 37.2491C104.097 37.2586 103.884 37.1953 103.661 37.0593C103.507 36.9659 103.394 36.8583 103.322 36.7366C103.25 36.6149 103.21 36.4854 103.202 36.348C103.195 36.216 103.215 36.0774 103.263 35.9323C103.31 35.7872 103.375 35.6463 103.458 35.5095C103.623 35.2392 103.821 34.9848 104.053 34.7464C104.285 34.508 104.533 34.2841 104.797 34.0747C105.065 33.8674 105.344 33.6731 105.632 33.492C105.919 33.3143 106.201 33.1475 106.478 32.9918C106.482 32.9851 106.486 32.9785 106.49 32.9718C106.497 32.9618 106.504 32.9457 106.513 32.9237C106.421 32.9774 106.32 33.0304 106.21 33.0826C106.106 33.1335 105.999 33.1711 105.888 33.1952C105.781 33.2213 105.672 33.2307 105.562 33.2233C105.456 33.2179 105.353 33.1848 105.253 33.1239C105.112 33.0386 105.016 32.9342 104.963 32.8106C104.91 32.687 104.887 32.5562 104.893 32.4183C104.903 32.2823 104.933 32.1455 104.985 32.0078C105.037 31.8701 105.096 31.7462 105.163 31.6361C105.24 31.5093 105.323 31.3882 105.412 31.2729C105.504 31.1596 105.595 31.0506 105.686 30.946C105.833 30.7794 105.998 30.6029 106.18 30.4164C106.367 30.2287 106.564 30.0514 106.771 29.8845C106.98 29.7143 107.192 29.5645 107.408 29.4352C107.627 29.3079 107.846 29.2192 108.064 29.169L108.125 29.1583C108.195 29.1413 108.27 29.13 108.351 29.1245C108.434 29.1157 108.506 29.1295 108.566 29.166C108.603 29.1884 108.628 29.2177 108.643 29.2539C108.661 29.2922 108.669 29.3342 108.669 29.3797C108.671 29.4219 108.666 29.4644 108.653 29.5072C108.644 29.5521 108.63 29.5912 108.609 29.6245C108.585 29.6646 108.544 29.6988 108.485 29.7273L108.495 29.7334C108.699 29.8572 108.779 30.0339 108.735 30.2634C108.751 30.3191 108.754 30.3754 108.742 30.4323C108.734 30.4912 108.713 30.5473 108.681 30.6007C108.665 30.6274 108.645 30.6565 108.621 30.6878C108.599 30.7158 108.577 30.7411 108.554 30.7638C108.529 30.7897 108.507 30.815 108.487 30.8397C108.468 30.8644 108.451 30.8884 108.437 30.9117C108.39 30.9885 108.334 31.0846 108.268 31.2001C108.202 31.3156 108.135 31.4371 108.067 31.5646C107.998 31.6922 107.931 31.818 107.865 31.9422C107.803 32.0651 107.75 32.172 107.704 32.2628C107.745 32.247 107.788 32.2365 107.833 32.2315C107.88 32.2284 107.926 32.2401 107.969 32.2665C108.006 32.2888 108.039 32.3275 108.07 32.3827C108.104 32.4398 108.128 32.5006 108.144 32.565C108.163 32.6314 108.172 32.6961 108.17 32.7591C108.174 32.8208 108.164 32.8699 108.142 32.9066ZM108.02 30.0068C108.032 29.9868 108.046 29.9651 108.06 29.9417C108.077 29.9204 108.098 29.8984 108.12 29.8758L108.058 29.8995C108.013 29.9133 107.971 29.9264 107.931 29.9389C107.892 29.9514 107.853 29.9665 107.814 29.9844C107.65 30.0584 107.473 30.1769 107.283 30.3399C107.097 30.5015 106.915 30.6809 106.736 30.8781C106.558 31.072 106.393 31.2686 106.24 31.4679C106.09 31.6693 105.968 31.8468 105.874 32.0003C105.828 32.077 105.783 32.1548 105.739 32.2336C105.696 32.3124 105.667 32.3976 105.652 32.4893C105.73 32.4676 105.8 32.4376 105.865 32.3991C105.932 32.3574 105.997 32.3129 106.063 32.2657C106.236 32.1469 106.415 31.9952 106.6 31.8108C106.786 31.6264 106.965 31.4292 107.138 31.2192C107.312 31.0093 107.474 30.7993 107.625 30.5892C107.777 30.3757 107.909 30.1816 108.02 30.0068ZM105.148 35.5842C105.286 35.3573 105.411 35.1407 105.523 34.9344C105.632 34.7314 105.746 34.5104 105.864 34.2713C105.717 34.3782 105.562 34.4942 105.399 34.6191C105.237 34.7494 105.083 34.8838 104.934 35.0222C104.784 35.164 104.643 35.3091 104.512 35.4577C104.38 35.6063 104.269 35.7557 104.177 35.9058L104.156 35.9409C104.109 36.0176 104.064 36.1024 104.022 36.1953C103.977 36.2915 103.964 36.3842 103.983 36.4734L104.038 36.5069C104.104 36.5475 104.174 36.5576 104.246 36.5373C104.319 36.5224 104.392 36.489 104.464 36.4372C104.537 36.3854 104.608 36.3212 104.677 36.2446C104.747 36.1679 104.811 36.0883 104.871 36.0056C104.93 35.9229 104.983 35.8432 105.03 35.7664C105.08 35.6917 105.119 35.631 105.148 35.5842Z" fill="black"/>
<path d="M110.069 35.4098C110.028 35.4765 109.977 35.5117 109.915 35.5154C109.854 35.519 109.791 35.5015 109.728 35.463C109.688 35.4386 109.648 35.4099 109.609 35.3768C109.572 35.3404 109.536 35.305 109.502 35.2706C109.444 35.208 109.404 35.1494 109.382 35.095C109.364 35.0427 109.356 34.992 109.358 34.9432C109.363 34.8909 109.376 34.8394 109.397 34.7886C109.423 34.7399 109.451 34.6861 109.482 34.6274C109.492 34.6107 109.499 34.5947 109.504 34.5793C109.512 34.5659 109.52 34.5526 109.529 34.5392C109.634 34.3429 109.743 34.1416 109.855 33.9353C109.97 33.731 110.086 33.5338 110.201 33.3436C110.26 33.2468 110.319 33.15 110.378 33.0532C110.44 32.9585 110.502 32.8637 110.565 32.769C110.627 32.6743 110.686 32.5802 110.743 32.4867C110.805 32.392 110.866 32.2962 110.925 32.1994C110.937 32.1794 110.947 32.1601 110.953 32.1413C110.966 32.1213 110.976 32.1003 110.985 32.0782C110.821 32.1522 110.658 32.2474 110.496 32.3636C110.339 32.4785 110.185 32.6042 110.033 32.7406C109.884 32.8736 109.74 33.0124 109.601 33.157C109.469 33.3002 109.345 33.4398 109.23 33.5757L109.151 33.6717C109.063 33.7783 108.974 33.8883 108.882 34.0016C108.792 34.1116 108.711 34.2267 108.637 34.3468C108.607 34.3969 108.582 34.457 108.562 34.5272C108.552 34.558 108.541 34.5877 108.528 34.6165C108.521 34.6439 108.506 34.6759 108.483 34.7126C108.435 34.7927 108.382 34.8339 108.326 34.8363C108.268 34.8419 108.205 34.8245 108.138 34.7839C108.098 34.7595 108.055 34.7288 108.009 34.6916C107.967 34.6565 107.927 34.6164 107.89 34.5713C107.855 34.5316 107.825 34.4878 107.799 34.4401C107.773 34.3924 107.76 34.3431 107.759 34.2921C107.765 34.2366 107.815 34.1093 107.909 33.9102C108.006 33.7132 108.13 33.4711 108.282 33.184C108.437 32.8989 108.613 32.5804 108.808 32.2286C109.006 31.8734 109.209 31.5099 109.417 31.138C109.628 30.7682 109.838 30.4017 110.045 30.0385C110.255 29.6774 110.449 29.3446 110.625 29.0402C110.804 28.7378 110.959 28.4755 111.09 28.2532C111.223 28.0276 111.316 27.8698 111.371 27.7797C111.412 27.7129 111.457 27.6579 111.506 27.6147C111.56 27.5702 111.631 27.5743 111.718 27.6271C111.808 27.6819 111.88 27.7554 111.934 27.8475C111.989 27.9362 112.009 28.0352 111.993 28.1443C111.992 28.1617 111.965 28.2208 111.913 28.3216C111.862 28.4191 111.795 28.545 111.71 28.6992C111.628 28.8501 111.531 29.0244 111.42 29.222C111.311 29.4163 111.196 29.6189 111.077 29.8298C110.96 30.0375 110.842 30.2468 110.723 30.4577C110.603 30.6687 110.492 30.8663 110.389 31.0506L109.964 31.8066C110.067 31.7275 110.183 31.6495 110.312 31.5726C110.441 31.4957 110.572 31.4339 110.706 31.3871C110.843 31.3424 110.978 31.3195 111.111 31.3183C111.248 31.3192 111.376 31.3561 111.496 31.4292C111.643 31.5186 111.735 31.627 111.772 31.7545C111.808 31.882 111.812 32.0147 111.783 32.1525C111.758 32.2924 111.71 32.4304 111.641 32.5666C111.572 32.7029 111.505 32.8244 111.44 32.9312C111.399 32.9979 111.358 33.062 111.316 33.1234C111.277 33.1868 111.237 33.2492 111.195 33.3105C111.151 33.3752 111.107 33.4399 111.063 33.5047C111.025 33.5681 110.985 33.6331 110.945 33.6999C110.805 33.9301 110.665 34.1701 110.527 34.4198C110.391 34.6662 110.272 34.9183 110.17 35.1763L110.137 35.2525C110.132 35.2765 110.122 35.303 110.11 35.3317C110.097 35.3604 110.083 35.3864 110.069 35.4098Z" fill="black"/>
<path d="M31.348 49.1262C31.018 47.3222 29.28 39.7982 29.06 39.4242C28.928 39.2702 24.198 39.5122 24 39.8862C24.506 42.7682 28.642 55.1322 28.708 55.1542C29.258 55.2642 34.208 55.1322 34.406 55.0002C34.604 54.8682 38.564 41.7342 38.916 39.8862C38.806 39.5562 33.944 39.3802 33.812 39.4682C33.306 41.1622 31.81 47.3442 31.48 49.1042C31.436 49.1042 31.392 49.1262 31.348 49.1262Z" fill="black"/>
<path d="M40.2511 39.7321C40.0311 41.7341 40.0971 53.7461 40.2071 55.0661C40.2291 55.2421 44.9591 55.4401 45.0691 54.9781C45.2671 54.1421 45.2891 39.8201 45.1131 39.6881C44.9371 39.5561 41.1751 39.5341 40.2511 39.7321Z" fill="black"/>
<path d="M58.4432 50.9961C57.6732 50.9301 54.2412 50.9301 52.2612 50.9961V49.3241C54.5932 49.3901 57.0132 49.3901 57.0132 49.2581C57.0132 49.1481 57.2112 45.6061 56.9692 45.3641C56.8372 45.2321 54.5052 45.1661 52.2832 45.1881L52.2392 43.7141C54.1312 43.7801 57.8272 43.8021 58.6412 43.7141C58.7952 42.7681 58.7732 40.1061 58.6192 39.6001C58.5532 39.4681 50.1712 39.4901 47.6852 39.6441C47.5312 42.8121 47.3772 53.4601 47.4872 55.0221C49.8412 55.1981 58.6632 55.1981 58.4212 55.0661C58.5752 54.5601 58.5972 51.9421 58.4432 50.9961Z" fill="black"/>
<path d="M59.6733 43.7581C60.2233 43.8241 61.5653 43.8461 63.1933 43.8241C63.1493 48.0701 63.1933 54.0761 63.2813 54.9781C63.3033 55.1541 67.9453 55.0221 68.0553 54.8681C68.1653 54.7141 68.1213 48.3341 68.0993 43.8681C69.8813 43.8021 71.3553 43.7361 71.7513 43.6701C71.9053 43.6481 71.9713 39.6001 71.5973 39.5341C70.8713 39.3361 59.6733 39.6001 59.5633 39.7761C59.4533 39.9301 59.4973 42.8781 59.6733 43.7581Z" fill="black"/>
<path d="M87.086 54.7361C87.284 53.9001 87.438 39.8861 87.262 39.7541C87.086 39.6221 83.456 39.5561 82.532 39.7541C82.422 40.7001 82.554 44.3521 82.532 47.5861C80.816 44.2421 78.132 39.9961 77.824 39.5121C77.736 39.3581 73.38 39.3581 73.314 39.8201C73.116 41.0081 73.182 53.9441 73.314 54.8461C73.336 55.0661 77.142 55.0441 78.066 54.8461C78.132 53.5481 77.978 50.5341 77.978 47.6741C80.024 50.8421 82.114 54.5161 82.576 55.0881C82.884 55.2641 86.976 55.1981 87.086 54.7361Z" fill="black"/>
<path d="M99.2766 55.2201C99.3426 55.2421 103.743 55.0221 104.337 54.7581C103.831 51.8761 99.4966 39.5121 99.4306 39.4901C98.8806 39.3801 93.4026 39.5121 93.2046 39.6441C93.0066 39.7761 88.9366 53.2621 88.5406 54.7581C88.8926 54.9341 93.5126 55.2641 93.6446 55.1761C93.7766 55.0881 94.3926 52.7341 94.5026 52.2501C94.9646 52.2721 98.0446 52.3381 98.2866 52.3161C98.4406 52.9101 99.2106 55.1981 99.2766 55.2201ZM96.5486 43.9561C96.8566 45.0121 97.5606 47.8061 97.8246 48.5981C97.0986 48.5761 95.5586 48.5761 95.1626 48.5981C95.3826 47.9381 96.1086 45.0781 96.4166 43.9781C96.4606 43.9781 96.5046 43.9561 96.5486 43.9561Z" fill="black"/>
<path d="M114.119 48.5321C113.371 45.2541 112.051 40.2601 111.611 39.4681C111.061 39.3581 107.233 39.2261 107.101 39.6661C106.771 40.8321 104.637 53.6361 104.659 54.5381C104.659 54.7581 108.289 55.1981 109.213 55.1321C109.455 53.9221 109.785 49.6761 110.137 46.9481C110.159 46.9481 110.203 46.9701 110.225 46.9701C110.797 49.4561 112.007 54.7361 112.183 54.9781C112.359 55.1541 115.615 55.1541 116.033 55.0441C116.539 53.7901 117.397 49.8741 118.101 47.0581H118.189C118.519 50.2481 118.827 54.6481 118.937 55.2421C118.981 55.4181 123.183 55.0441 123.491 54.6041C123.557 53.9221 121.577 39.6221 121.379 39.5121C120.939 39.4021 116.957 39.4021 116.693 39.6441C116.231 40.0621 115.021 45.2541 114.251 48.5321H114.119Z" fill="black"/>
<path d="M25.6952 32.821C25.8932 32.81 26.0912 32.788 26.3552 32.788C27.2022 32.788 27.6752 33.096 27.6752 33.668C27.6752 34.163 27.3012 34.5261 26.4212 34.5261C26.1572 34.5261 25.9262 34.515 25.6732 34.482C25.6732 34.482 25.6732 33.03 25.6952 32.821ZM25.6072 29.8291C25.7172 29.8181 25.8932 29.796 26.1132 29.796C26.5972 29.796 27.2792 29.9941 27.2792 30.5991C27.2792 31.1161 26.8722 31.4021 26.0692 31.4021C25.8492 31.4021 25.7172 31.4021 25.5962 31.3911C25.5962 31.3911 25.5962 30.0601 25.6072 29.8291ZM28.3242 31.9741C28.8522 31.6991 29.2262 31.281 29.2262 30.39C29.2262 28.784 27.6752 28.3 25.9152 28.3C25.7502 28.3 23.7372 28.344 23.7042 28.432C23.6712 28.52 23.7372 35.89 23.7922 35.934C23.8472 35.978 25.6182 36.0661 26.6632 36.0661C28.5992 36.0661 29.7432 35.417 29.7432 33.932C29.7432 32.821 29.0172 32.1831 28.3242 32.0401V31.9741Z" fill="black"/>
<path d="M35.2204 36.099C35.2534 36.121 37.0244 36.044 37.2554 35.901C37.0244 34.658 34.7254 28.256 34.6924 28.245C34.4174 28.19 32.2724 28.256 32.1734 28.322C32.0744 28.388 29.9404 35.098 29.7314 35.89C29.8634 35.989 31.7224 36.121 31.7774 36.077C31.8434 35.978 32.1624 34.878 32.2944 34.449C32.6904 34.449 34.3734 34.46 34.6374 34.449C34.7694 34.856 35.1324 35.901 35.2204 36.099ZM33.5374 30.038C33.6804 30.566 34.1424 32.161 34.4174 32.92C33.9664 32.92 32.9654 32.931 32.5914 32.942C32.8444 32.227 33.3174 30.599 33.4714 30.049C33.4934 30.049 33.5154 30.038 33.5374 30.038Z" fill="black"/>
<path d="M39.2299 32.172C39.2299 30.918 40.1099 30.016 41.2429 30.016C41.9359 30.016 42.6069 30.313 43.0029 30.544C43.2779 30.313 43.7399 29.125 43.7399 28.905C43.3989 28.575 42.4859 28.179 41.2209 28.179C38.7239 28.179 37.1619 29.884 37.1619 32.095C37.1619 34.394 38.3609 36.231 40.9349 36.231C42.1999 36.231 43.3109 35.703 43.7839 35.164C43.6079 34.79 43.1239 33.899 42.8709 33.723C42.6289 33.899 42.0239 34.372 41.1329 34.372C40.1979 34.372 39.2299 33.745 39.2299 32.172Z" fill="black"/>
<path d="M44.3714 28.344C44.2174 28.509 44.3824 36 44.4594 36.066C44.5364 36.132 46.1534 36.088 46.3514 36.033L46.3404 33.987C46.3404 33.987 47.0554 33.184 47.1654 33.063C47.3964 33.448 48.7934 36.033 48.9474 36.165C49.2994 36.253 50.7624 35.714 50.7734 35.626C50.7184 35.417 49.1014 32.48 48.5624 31.732C48.5624 31.732 50.7074 28.971 50.6964 28.85C50.6854 28.718 49.1564 28.267 49.0574 28.267C48.9694 28.267 46.2854 31.589 46.2854 31.589C46.2854 31.589 46.4064 28.333 46.3404 28.3C46.2744 28.267 44.5034 28.201 44.3714 28.344Z" fill="black"/>
<path d="M53.3387 32.062C53.3387 31.655 53.3497 30.423 53.3387 30.104C53.5037 30.082 53.7457 30.071 53.8997 30.071C54.6697 30.071 55.3297 30.269 55.3297 31.116C55.3297 31.798 54.8017 32.084 54.1087 32.084C53.8667 32.084 53.5367 32.073 53.3387 32.062ZM53.3387 36C53.4047 35.802 53.3827 34.537 53.3937 33.778C53.5257 33.778 53.8007 33.789 53.9877 33.789C56.0777 33.789 57.2437 32.975 57.2437 30.995C57.2437 29.268 56.0997 28.267 53.9877 28.267C53.1297 28.267 51.8757 28.322 51.3147 28.388C51.2157 29.147 51.2377 35.516 51.2927 36.033C51.3037 36.099 53.2947 36.077 53.3387 36Z" fill="black"/>
<path d="M62.292 36.099C62.325 36.121 64.096 36.044 64.327 35.901C64.096 34.658 61.797 28.256 61.764 28.245C61.489 28.19 59.344 28.256 59.245 28.322C59.146 28.388 57.012 35.098 56.803 35.89C56.935 35.989 58.794 36.121 58.849 36.077C58.915 35.978 59.234 34.878 59.366 34.449C59.762 34.449 61.445 34.46 61.709 34.449C61.841 34.856 62.204 35.901 62.292 36.099ZM60.609 30.038C60.752 30.566 61.214 32.161 61.489 32.92C61.038 32.92 60.037 32.931 59.663 32.942C59.916 32.227 60.389 30.599 60.543 30.049C60.565 30.049 60.587 30.038 60.609 30.038Z" fill="black"/>
<path d="M66.3015 32.172C66.3015 30.918 67.1815 30.016 68.3145 30.016C69.0075 30.016 69.6785 30.313 70.0745 30.544C70.3495 30.313 70.8115 29.125 70.8115 28.905C70.4705 28.575 69.5575 28.179 68.2925 28.179C65.7955 28.179 64.2335 29.884 64.2335 32.095C64.2335 34.394 65.4325 36.231 68.0065 36.231C69.2715 36.231 70.3825 35.703 70.8555 35.164C70.6795 34.79 70.1955 33.899 69.9425 33.723C69.7005 33.899 69.0955 34.372 68.2045 34.372C67.2695 34.372 66.3015 33.745 66.3015 32.172Z" fill="black"/>
<path d="M71.443 28.344C71.289 28.509 71.454 36 71.531 36.066C71.608 36.132 73.225 36.088 73.423 36.033L73.412 33.987C73.412 33.987 74.127 33.184 74.237 33.063C74.468 33.448 75.865 36.033 76.019 36.165C76.371 36.253 77.834 35.714 77.845 35.626C77.79 35.417 76.173 32.48 75.634 31.732C75.634 31.732 77.779 28.971 77.768 28.85C77.757 28.718 76.228 28.267 76.129 28.267C76.041 28.267 73.357 31.589 73.357 31.589C73.357 31.589 73.478 28.333 73.412 28.3C73.346 28.267 71.575 28.201 71.443 28.344Z" fill="black"/>
<path d="M78.3753 28.366C78.2873 29.422 78.3203 35.263 78.3643 36.044C78.3753 36.121 80.2563 36.198 80.3223 36C80.3993 35.296 80.4103 28.806 80.3333 28.344C80.2673 28.278 78.7273 28.234 78.3753 28.366Z" fill="black"/>
<path d="M88.0705 35.923C88.1805 35.175 88.2135 28.465 88.1475 28.399C88.0815 28.333 86.6185 28.311 86.2445 28.41C86.2005 28.982 86.2665 31.248 86.2445 33.019C85.3205 31.325 83.4505 28.454 83.3295 28.267C83.2745 28.19 81.5585 28.19 81.5145 28.388C81.4265 29.136 81.4595 35.329 81.5145 35.956C81.5255 36.066 83.0545 36.055 83.4285 35.956C83.4615 35.131 83.3955 33.151 83.3955 31.567C84.4625 33.217 86.0465 35.802 86.2555 36.066C86.3875 36.154 88.0265 36.121 88.0705 35.923Z" fill="black"/>
<path d="M90.9663 32.172C90.9663 30.918 91.7913 30.027 92.9243 30.027C93.6173 30.027 94.1893 30.269 94.5963 30.5C94.7943 30.291 95.4213 29.147 95.4213 28.927C95.0693 28.608 94.1673 28.179 92.8913 28.179C90.4053 28.179 88.9203 29.884 88.9203 32.095C88.9203 34.394 90.1193 36.22 92.6933 36.22C93.9583 36.22 95.1793 35.758 95.6633 35.373C95.7073 35.12 95.7403 31.897 95.6633 31.776C95.5863 31.688 92.9133 31.787 92.5723 31.864C92.5063 31.974 92.5283 33.206 92.5833 33.272C92.8033 33.261 93.8593 33.228 93.8593 33.228C93.8593 33.228 93.8703 33.998 93.8813 34.273C93.6393 34.361 93.2653 34.471 92.8913 34.471C91.7913 34.471 90.9663 33.745 90.9663 32.172Z" fill="black"/>
</svg>
