<svg width="192" height="80" viewBox="0 0 192 80" fill="none" xmlns="http://www.w3.org/2000/svg">
<path d="M19.5474 36.4372H16.4184V45.7609H14.129V36.4372H11V34.4119H19.5474V36.4372ZM31.3928 34.4119V45.7662H29.1035V41.1479H24.8786V45.7609H22.5814V34.4066H24.8707V39.0883H29.0956V34.4119H31.3928ZM42.7471 43.733V45.7609H35.4804V34.4066H42.5939V36.4372H37.7697V39.1385H41.9945V41.1981H37.7697V43.733H42.7471ZM51.4952 34.4119H55.9418C59.2029 34.4119 61.0961 36.8808 61.0961 40.1102C61.0961 43.3396 59.2029 45.7609 55.9418 45.7609H51.4925L51.4952 34.4119ZM55.9418 43.733C57.8351 43.733 58.8068 42.0536 58.8068 40.1102C58.8068 38.1668 57.8325 36.4372 55.9392 36.4372H53.7766V43.733H55.9418ZM71.8061 43.733V45.7609H64.5394V34.4066H71.653V36.4372H66.8287V39.1385H71.0536V41.1981H66.8287V43.733H71.8061ZM78.3784 41.6919H77.6047V45.7609H75.3154V34.4066H79.8465C82.4475 34.4066 83.5671 36.255 83.5671 38.1034C83.5671 39.7194 82.7274 41.169 80.8156 41.5625L83.7651 45.7477H81.077L78.3784 41.6919ZM77.6047 39.8435H79.4346C80.7179 39.8435 81.2619 39.0698 81.2619 38.1641C81.2619 37.2584 80.6862 36.4346 79.6142 36.4346H77.6047V39.8435ZM97.8497 45.7583L97.0232 38.7265L94.2559 44.475H92.4604L89.6614 38.7265L88.8376 45.7609H86.498L87.8975 34.4066H89.841L93.3502 41.8503L96.8172 34.4119H98.795L100.179 45.7662L97.8497 45.7583ZM109.075 45.7583V34H112.66C115.607 34 117.577 34.7763 117.577 36.931C117.577 38.4361 116.539 39.5715 114.366 39.8963L119.499 45.7609H116.938L112.114 40.2158H111.089V45.7609L109.075 45.7583ZM112.441 39.318C114.319 39.318 115.346 38.6368 115.346 37.1C115.346 35.5632 114.305 34.8661 112.441 34.8661H111.092V39.3207L112.441 39.318ZM122.338 34H130.26V34.9453H124.355V39.1702H129.335V40.1181H124.355V44.8262H130.267V45.7741H122.346L122.338 34ZM132.702 34H134.891L138.923 43.1389L142.942 34H144.083L138.91 45.7609H137.901L132.702 34ZM147.288 34H149.306V45.7609H147.288V34ZM153.99 34H161.912V34.9453H156.007V39.1702H160.982V40.1181H156.007V44.8262H161.917V45.7741H153.995L153.99 34ZM164.51 34H166.622L169.527 42.6873L172.732 34H173.633L176.984 42.7138L179.87 34H181L177.089 45.7609H176.049L172.701 37.1185L169.474 45.7609H168.45L164.51 34Z" fill="black"/>
</svg>
