<svg width="192" height="80" viewBox="0 0 192 80" fill="none" xmlns="http://www.w3.org/2000/svg">
<path d="M76.8434 33.8778C76.8807 34.152 77.0994 34.4432 77.0994 34.9905C77.0994 37.0356 75.5472 38.5515 73.2845 38.5515C71.8956 38.5515 70.7818 38.7521 70.7818 39.4263C70.7818 39.5543 70.8181 39.6652 70.9098 39.7751C71.6214 39.5543 72.3159 39.4263 73.2845 39.4263C76.1148 39.4263 78.3593 40.4504 78.3593 42.6214C78.3593 44.8307 76.2236 45.8165 73.2845 45.8165C70.3252 45.8165 68.1895 44.8307 68.1895 42.6214C68.1895 42.0208 68.4999 41.4713 68.8658 41.0329C68.4999 40.6318 68.2993 40.156 68.2993 39.6098C68.2993 38.4779 68.9928 37.474 70.417 37.2361C69.8142 36.6878 69.4504 35.9026 69.4504 34.9905C69.4504 33.019 71.1488 31.5042 73.2845 31.5042C74.2692 31.5042 75.0544 31.8327 75.6934 32.3608C76.0764 31.8509 76.661 31.5042 77.3363 31.5042H77.5731C78.0116 31.5042 78.3593 31.9245 78.3593 32.4344C78.3593 32.9465 78.0116 33.3839 77.5731 33.3839H77.3363C76.9714 33.3849 76.8071 33.6047 76.8434 33.8778ZM73.2845 43.5719C74.6885 43.5719 75.6582 43.2977 75.6582 42.4955C75.6582 41.6911 74.6885 41.3999 73.2845 41.3999C71.8603 41.3999 70.8927 41.6911 70.8927 42.4955C70.8927 43.2977 71.8603 43.5719 73.2845 43.5719ZM73.2845 33.7861C72.5548 33.7861 71.9702 34.3899 71.9702 35.1004C71.9702 35.8119 72.5548 36.3976 73.2845 36.3976C73.995 36.3976 74.5786 35.813 74.5786 35.1004C74.5796 34.3899 73.995 33.7861 73.2845 33.7861Z" fill="black"/>
<path d="M88.7299 38.2784H81.4638C81.9012 39.5554 83.1238 40.3768 84.4392 40.3768C85.3705 40.3768 86.4842 40.0312 87.1233 39.4455C87.4881 39.0444 88.1634 39.0444 88.6371 39.4828C89.1139 39.8839 89.2227 40.5774 88.876 40.9785C87.7623 42.0752 86.0831 42.696 84.4392 42.696C81.2643 42.696 78.5781 40.2851 78.5781 37.09C78.5781 33.8949 81.1715 31.5042 84.3474 31.5042C87.471 31.5042 90.025 33.9685 90.025 37.09C90.025 37.6938 89.4425 38.2784 88.7299 38.2784ZM87.2513 36.0317C86.8128 34.7537 85.6799 33.9322 84.3474 33.9322C83.0331 33.9322 81.9023 34.7537 81.4638 36.0317H87.2513Z" fill="black"/>
<path d="M91.5983 30.354C91.5983 29.7715 92.1808 29.2776 92.8753 29.2776C93.5698 29.2776 94.1534 29.7705 94.1534 30.354V31.8155H95.0655C95.5957 31.8155 96.032 32.3265 96.032 32.9485C96.032 33.5694 95.5946 34.0804 95.0655 34.0804H94.1534V39.264C94.1534 39.6299 94.4275 39.903 94.7742 39.903H95.0665C95.5967 39.903 96.0331 40.4524 96.0331 41.1448C96.0331 41.8382 95.5957 42.3865 95.0665 42.3865H94.7742C92.8583 42.3865 91.5983 41.4734 91.5983 39.4464V34.0804H91.289C90.7577 34.0804 90.3203 33.5694 90.3203 32.9485C90.3203 32.3265 90.7577 31.8155 91.289 31.8155H91.5983V30.354V30.354Z" fill="black"/>
<path d="M109.697 39.873C110.189 40.3638 110.281 41.1137 109.752 41.5693C108.749 42.4462 107.469 42.9583 106.063 42.9583C102.85 42.9583 100.277 40.5473 100.277 37.3532C100.277 34.1571 102.85 31.7664 106.063 31.7664C107.469 31.7664 108.766 32.24 109.752 33.134C110.282 33.6109 110.208 34.3043 109.697 34.8324C109.223 35.3252 108.474 35.3999 108.054 34.9785C107.526 34.5219 106.814 34.2488 106.063 34.2488C104.347 34.2488 102.979 35.6549 102.979 37.3532C102.979 39.0516 104.347 40.4747 106.063 40.4747C106.814 40.4747 107.526 40.1824 108.054 39.7258C108.474 39.3066 109.221 39.3791 109.697 39.873Z" fill="black"/>
<path d="M117.527 31.8743C118.076 32.0034 118.497 32.4792 118.497 33.0819C118.497 33.7753 117.949 34.3226 117.254 34.3226C117.145 34.3226 116.962 34.2874 116.525 34.2501C115.118 34.1775 114.059 35.4726 114.059 36.9886V41.6975C114.059 42.3013 113.476 42.792 112.763 42.792C112.051 42.792 111.467 42.3013 111.467 41.6975V32.9539C111.467 32.3874 112.014 31.9319 112.671 31.9319C113.328 31.9319 113.876 32.3874 113.876 32.9539V33.5385H113.913C114.46 32.6061 115.227 31.7676 116.65 31.7676C116.926 31.7665 117.218 31.8017 117.527 31.8743Z" fill="black"/>
<path d="M125.964 41.5159L125.91 41.4786C125.162 42.3736 123.938 42.9582 122.698 42.9582C119.466 42.9582 118.225 41.278 118.225 39.2148C118.225 37.0246 119.467 35.4895 122.698 35.4895C124.285 35.4895 125.162 36.2213 125.708 36.8059L125.764 36.7697V35.418C125.764 34.6873 124.742 34.0856 123.464 34.0856C122.24 34.0856 121.291 34.3405 120.579 34.6137C120.087 34.8515 119.485 34.5411 119.246 33.9554C119.008 33.3922 119.21 32.7883 119.63 32.5686C120.705 32.0597 122.021 31.7493 123.463 31.7493C126.037 31.7493 128.354 33.2631 128.354 35.418V41.7698C128.354 42.3918 127.808 42.7918 127.151 42.7918C126.493 42.7918 125.963 42.3918 125.963 41.7698V41.5159H125.964ZM123.299 37.7543C121.364 37.7543 120.925 38.3571 120.925 39.2148C120.925 40.1099 121.364 40.7307 123.299 40.7307C124.814 40.7307 125.764 40.0192 125.764 39.2148C125.764 38.4488 124.813 37.7543 123.299 37.7543Z" fill="black"/>
<path d="M138.871 39.873C139.366 40.3638 139.456 41.1137 138.927 41.5693C137.924 42.4462 136.644 42.9583 135.238 42.9583C132.026 42.9583 129.453 40.5473 129.453 37.3532C129.453 34.1571 132.026 31.7664 135.238 31.7664C136.644 31.7664 137.941 32.24 138.927 33.134C139.456 33.6109 139.383 34.3043 138.871 34.8324C138.399 35.3252 137.649 35.3999 137.228 34.9785C136.7 34.5219 135.988 34.2488 135.238 34.2488C133.523 34.2488 132.153 35.6549 132.153 37.3532C132.153 39.0516 133.523 40.4747 135.238 40.4747C135.988 40.4747 136.701 40.1824 137.228 39.7258C137.65 39.3066 138.399 39.3791 138.871 39.873Z" fill="black"/>
<path d="M140.279 29.9039C140.279 29.3011 140.863 28.8093 141.577 28.8093C142.288 28.8093 142.873 29.3011 142.873 29.9039V41.6975C142.873 42.3013 142.289 42.792 141.577 42.792C140.864 42.792 140.279 42.3013 140.279 41.6975V29.9039ZM149.646 40.8397C150.028 41.2601 149.936 41.9727 149.39 42.4645C148.878 42.8848 148.165 42.9392 147.783 42.4645L143.986 38.3029C143.747 38.0287 143.621 37.7364 143.621 37.3534C143.621 36.9704 143.747 36.6781 143.986 36.4029L147.746 32.2594C148.129 31.7836 148.841 31.8391 149.354 32.2594C149.901 32.7512 149.993 33.4649 149.609 33.8841L146.523 37.3523L149.646 40.8397Z" fill="black"/>
<path d="M152.55 28.5713C153.35 28.5713 153.991 29.2103 153.991 30.0147C153.991 30.8169 153.35 31.457 152.55 31.457C151.746 31.457 151.107 30.8169 151.107 30.0147C151.107 29.2103 151.746 28.5713 152.55 28.5713ZM151.254 33.0274C151.254 32.4235 151.837 31.9317 152.55 31.9317C153.261 31.9317 153.844 32.4235 153.844 33.0274V41.6973C153.844 42.3011 153.261 42.7919 152.55 42.7919C151.837 42.7919 151.254 42.3011 151.254 41.6973V33.0274Z" fill="black"/>
<path d="M162.846 36.5853C162.846 35.2902 161.841 34.25 160.562 34.25C159.268 34.25 158.263 35.2902 158.263 36.5853V41.6974C158.263 42.3194 157.679 42.792 156.967 42.792C156.256 42.792 155.67 42.3194 155.67 41.6974V32.9539C155.67 32.3522 156.256 31.9319 156.912 31.9319C157.569 31.9319 158.174 32.3522 158.174 32.9539V33.7572H158.208C158.848 32.7896 159.852 31.7676 161.495 31.7676C163.923 31.7676 165.439 33.4457 165.439 36.2588V41.6974C165.439 42.3194 164.87 42.792 164.161 42.792C163.449 42.792 162.846 42.3194 162.846 41.6974V36.5853V36.5853Z" fill="black"/>
<path d="M175.116 34.1402C175.153 34.4133 175.371 34.7056 175.371 35.2539C175.371 37.2979 173.82 38.8139 171.556 38.8139C170.169 38.8139 169.054 39.0144 169.054 39.6897C169.054 39.8177 169.091 39.9276 169.181 40.0364C169.894 39.8177 170.588 39.6897 171.556 39.6897C174.385 39.6897 176.631 40.7128 176.631 42.8848C176.631 45.0942 174.496 46.0799 171.556 46.0799C168.599 46.0799 166.463 45.0942 166.463 42.8848C166.463 42.2821 166.773 41.7348 167.139 41.2963C166.773 40.8941 166.573 40.4215 166.573 39.8732C166.573 38.7392 167.265 37.7364 168.69 37.4995C168.089 36.9512 167.722 36.166 167.722 35.255C167.722 33.2824 169.42 31.7676 171.556 31.7676C172.54 31.7676 173.326 32.0951 173.965 32.6253C174.349 32.1143 174.933 31.7676 175.61 31.7676H175.847C176.284 31.7676 176.631 32.1868 176.631 32.6978C176.631 33.211 176.284 33.6484 175.847 33.6484H175.61C175.244 33.6473 175.079 33.866 175.116 34.1402ZM171.556 43.8343C172.962 43.8343 173.929 43.5601 173.929 42.7568C173.929 41.9535 172.962 41.6612 171.556 41.6612C170.133 41.6612 169.164 41.9535 169.164 42.7568C169.164 43.5601 170.132 43.8343 171.556 43.8343ZM171.556 34.0484C170.826 34.0484 170.242 34.6512 170.242 35.3638C170.242 36.0743 170.827 36.6589 171.556 36.6589C172.267 36.6589 172.851 36.0732 172.851 35.3638C172.851 34.6522 172.267 34.0484 171.556 34.0484Z" fill="black"/>
<path d="M179.103 42.8291C178.051 42.8291 177.191 41.9682 177.191 40.9174C177.191 39.8815 178.051 39.0227 179.103 39.0227C180.139 39.0227 180.999 39.8826 180.999 40.9174C180.999 41.9682 180.139 42.8291 179.103 42.8291ZM179.103 39.2446C178.163 39.2446 177.43 39.9935 177.43 40.9174C177.43 41.8572 178.163 42.6061 179.103 42.6061C180.027 42.6061 180.759 41.8562 180.759 40.9174C180.759 39.9924 180.027 39.2446 179.103 39.2446ZM179.628 42.1122L179.183 41.2203H178.657V42.1122H178.227V39.6745H179.325C179.772 39.6745 180.123 40.0266 180.123 40.4405C180.123 40.7744 179.931 41.0283 179.644 41.1723L180.123 42.1122H179.628ZM179.325 40.7893C179.532 40.7893 179.66 40.6315 179.66 40.4405C179.66 40.2645 179.532 40.1205 179.325 40.1205H178.657V40.7893H179.325Z" fill="black"/>
<path d="M35.658 68.8529C29.8257 68.8113 24.3274 66.4974 20.1743 62.3369C16.0095 58.1646 13.7383 52.6662 13.7799 46.8553C13.8471 37.8984 19.2921 22.6302 26.9955 15.0409C30.0348 12.0411 32.7691 10.6436 35.5961 10.6436H35.6591H35.7199C38.5501 10.6436 41.2843 12.0411 44.3205 15.0409C52.0282 22.6345 57.4742 37.9016 57.5393 46.8553C57.6183 58.8986 47.8025 68.7665 35.658 68.8529Z" fill="white"/>
<path d="M57.0967 51.3518C56.2998 61.2454 47.6437 68.6043 37.7651 67.8031C27.8864 67.003 20.5233 58.3362 21.3277 48.4491C22.1267 38.5704 30.786 31.2158 40.6689 32.017C50.5423 32.8203 57.9054 41.4711 57.0967 51.3518Z" fill="#FFC627"/>
<path d="M38.0174 59.1045C49.0364 56.9773 51.5605 48.1825 51.9542 46.4393C52.1312 45.6595 51.6416 44.8818 50.8649 44.7047C50.0254 44.5137 49.3821 44.9276 49.1367 45.8163C48.2299 49.0519 45.5128 54.7103 37.469 56.254C36.4364 56.4513 35.3951 56.5527 34.3731 56.5527C28.1408 56.5527 23.9899 52.9319 22.6265 51.7424C22.5454 51.6699 22.475 51.6101 22.4185 51.5611C22.0408 51.2058 21.6834 51.0319 21.3421 51.0319C21.0124 51.0319 20.6774 51.1941 20.3489 51.5152C19.7803 52.0742 19.7739 52.9927 20.3329 53.5613C21.3015 54.546 26.5268 59.4619 34.3283 59.4619L34.3294 59.7328V59.4619C35.5466 59.4619 36.7863 59.3424 38.0174 59.1045Z" fill="black"/>
<path d="M29.8153 42.2446C30.7039 42.2446 31.4272 41.5202 31.4272 40.6294V36.0133C31.4272 35.1247 30.7039 34.4014 29.8153 34.4014C28.9255 34.4014 28.2012 35.1247 28.2012 36.0133V40.6294C28.2012 41.5202 28.9255 42.2446 29.8153 42.2446Z" fill="black"/>
<path d="M39.6519 42.2446C40.5416 42.2446 41.2638 41.5202 41.2638 40.6294V36.0133C41.2638 35.1247 40.5416 34.4014 39.6519 34.4014C38.7632 34.4014 38.041 35.1247 38.041 36.0133V40.6294C38.041 41.5202 38.7632 42.2446 39.6519 42.2446Z" fill="black"/>
<path d="M46.4006 13.2359C42.83 9.7133 39.3415 8 35.7389 8L35.6578 8.00107L35.5778 8C31.9272 8 28.5368 9.66316 24.9097 13.2359C16.6697 21.3586 11.0657 37.094 11.0006 46.6953C10.9537 53.2509 13.5098 59.4512 18.2037 64.1526C22.8817 68.8401 29.0799 71.4464 35.6578 71.4922C42.2357 71.4464 48.435 68.8401 53.1129 64.1526C57.8058 59.4512 60.3619 53.2519 60.315 46.6964C60.2446 37.0876 54.6374 21.3511 46.4006 13.2359ZM35.6578 68.8529C29.8256 68.8113 24.3272 66.4974 20.1741 62.3369C16.0093 58.1646 13.7381 52.6662 13.7797 46.8553C13.8469 37.8984 19.2919 22.6302 26.9953 15.0409C30.0346 12.0411 32.7689 10.6436 35.5959 10.6436H35.6589H35.7197C38.5499 10.6436 41.2842 12.0411 44.3203 15.0409C52.028 22.6345 57.4741 37.9016 57.5391 46.8553C57.6181 58.8985 47.8024 68.7665 35.6578 68.8529Z" fill="black"/>
<path d="M68.498 50.5954C68.498 50.2957 68.7872 50.0503 69.1413 50.0503H73.0171C73.3158 50.0503 73.5601 50.3223 73.5601 50.6669C73.5601 51.0115 73.3158 51.2835 73.0171 51.2835H69.7836V52.8229H72.3919C72.6917 52.8229 72.936 53.095 72.936 53.4385C72.936 53.782 72.6917 54.0551 72.3919 54.0551H69.7836V55.6116H73.0171C73.3158 55.6116 73.5601 55.8836 73.5601 56.2282C73.5601 56.5728 73.3158 56.8437 73.0171 56.8437H69.1413C68.7872 56.8437 68.498 56.5994 68.498 56.3007V50.5954Z" fill="black"/>
<path d="M78.4716 52.6225C78.4898 52.758 78.5975 52.9041 78.5975 53.1762C78.5975 54.1896 77.8284 54.9417 76.705 54.9417C76.0158 54.9417 75.4643 55.042 75.4643 55.3781C75.4643 55.441 75.4824 55.4954 75.5272 55.5498C75.8804 55.441 76.2249 55.3781 76.705 55.3781C78.1089 55.3781 79.2216 55.8848 79.2216 56.9612C79.2216 58.0579 78.1623 58.5465 76.705 58.5465C75.2381 58.5465 74.1777 58.0579 74.1777 56.9612C74.1777 56.6625 74.3324 56.3915 74.5127 56.1739C74.3314 55.9744 74.2321 55.7386 74.2321 55.4677C74.2321 54.9065 74.5757 54.4083 75.2829 54.2899C74.9842 54.0179 74.8029 53.6285 74.8029 53.1762C74.8029 52.1979 75.6457 51.4458 76.705 51.4458C77.1936 51.4458 77.583 51.609 77.9009 51.8715C78.0908 51.6165 78.381 51.4458 78.7159 51.4458H78.8333C79.0509 51.4458 79.2216 51.6538 79.2216 51.9077C79.2216 52.1616 79.0509 52.3793 78.8333 52.3793H78.7159C78.5346 52.3793 78.4524 52.4881 78.4716 52.6225ZM76.705 57.4327C77.4027 57.4327 77.8828 57.2973 77.8828 56.8993C77.8828 56.5014 77.4038 56.3553 76.705 56.3553C75.9988 56.3553 75.5187 56.5003 75.5187 56.8993C75.5187 57.2983 75.9988 57.4327 76.705 57.4327ZM76.705 52.5777C76.3434 52.5777 76.0532 52.8775 76.0532 53.2306C76.0532 53.5826 76.3423 53.8739 76.705 53.8739C77.0592 53.8739 77.3483 53.5837 77.3483 53.2306C77.3472 52.8775 77.0581 52.5777 76.705 52.5777Z" fill="black"/>
<path d="M84.0418 52.6225C84.0599 52.758 84.1687 52.9041 84.1687 53.1762C84.1687 54.1896 83.3985 54.9417 82.2762 54.9417C81.5881 54.9417 81.0355 55.042 81.0355 55.3781C81.0355 55.441 81.0536 55.4954 81.0995 55.5498C81.4526 55.441 81.7972 55.3781 82.2773 55.3781C83.6812 55.3781 84.7949 55.8848 84.7949 56.9612C84.7949 58.0579 83.7345 58.5465 82.2773 58.5465C80.8104 58.5465 79.75 58.0579 79.75 56.9612C79.75 56.6625 79.9047 56.3915 80.085 56.1739C79.9047 55.9744 79.8044 55.7386 79.8044 55.4677C79.8044 54.9065 80.1479 54.4083 80.8541 54.2899C80.5554 54.0179 80.3741 53.6285 80.3741 53.1762C80.3741 52.1979 81.2169 51.4458 82.2762 51.4458C82.7648 51.4458 83.1542 51.609 83.4721 51.8715C83.662 51.6165 83.9511 51.4458 84.2871 51.4458H84.4045C84.6221 51.4458 84.7949 51.6538 84.7949 51.9077C84.7949 52.1616 84.6221 52.3793 84.4045 52.3793H84.2871C84.1047 52.3793 84.0236 52.4881 84.0418 52.6225ZM82.2751 57.4327C82.9728 57.4327 83.4529 57.2973 83.4529 56.8993C83.4529 56.5014 82.9728 56.3553 82.2751 56.3553C81.5678 56.3553 81.0888 56.5003 81.0888 56.8993C81.0888 57.2983 81.5689 57.4327 82.2751 57.4327ZM82.2751 52.5777C81.9124 52.5777 81.6233 52.8775 81.6233 53.2306C81.6233 53.5826 81.9124 53.8739 82.2751 53.8739C82.6283 53.8739 82.9184 53.5837 82.9184 53.2306C82.9184 52.8775 82.6293 52.5777 82.2751 52.5777Z" fill="black"/>
<path d="M87.9815 50.5954C87.9815 50.2957 88.2706 50.0503 88.6248 50.0503H92.3373C92.636 50.0503 92.8814 50.3223 92.8814 50.6669C92.8814 51.0115 92.6371 51.2835 92.3373 51.2835H89.267V52.8229H91.7207C92.0194 52.8229 92.2648 53.095 92.2648 53.4385C92.2648 53.782 92.0205 54.0551 91.7207 54.0551H89.267V56.3733C89.267 56.6709 88.9779 56.9163 88.6238 56.9163C88.2696 56.9163 87.9805 56.672 87.9805 56.3733V50.5954H87.9815Z" fill="black"/>
<path d="M96.6862 56.2816L96.6595 56.2634C96.2883 56.7072 95.6813 56.9963 95.0657 56.9963C93.4634 56.9963 92.8457 56.1642 92.8457 55.1401C92.8457 54.053 93.4623 53.2924 95.0657 53.2924C95.8541 53.2924 96.2883 53.6551 96.5593 53.9442L96.5859 53.9271V53.2572C96.5859 52.8955 96.0792 52.5947 95.4444 52.5947C94.8374 52.5947 94.367 52.7227 94.0139 52.8582C93.7696 52.9745 93.4719 52.8219 93.3524 52.5317C93.2362 52.2512 93.3343 51.9525 93.5434 51.8436C94.0779 51.5897 94.7297 51.4351 95.4444 51.4351C96.7214 51.4351 97.8725 52.1872 97.8725 53.2572V56.4085C97.8725 56.7168 97.6005 56.9163 97.2751 56.9163C96.9487 56.9163 96.6862 56.7168 96.6862 56.4085V56.2816ZM95.3634 54.4168C94.4043 54.4168 94.1856 54.7155 94.1856 55.1412C94.1856 55.5849 94.4032 55.8922 95.3634 55.8922C96.1155 55.8922 96.5859 55.5391 96.5859 55.1412C96.5859 54.7603 96.1155 54.4168 95.3634 54.4168Z" fill="black"/>
<path d="M101.787 51.5002C102.059 51.5642 102.267 51.7989 102.267 52.0987C102.267 52.4411 101.996 52.7142 101.651 52.7142C101.597 52.7142 101.506 52.6961 101.289 52.678C100.592 52.6428 100.067 53.285 100.067 54.036V56.3734C100.067 56.671 99.7768 56.9164 99.4236 56.9164C99.0695 56.9164 98.7793 56.6721 98.7793 56.3734V52.0347C98.7793 51.7541 99.0513 51.5279 99.3778 51.5279C99.7042 51.5279 99.9752 51.753 99.9752 52.0347V52.3248H99.9933C100.265 51.8629 100.646 51.4458 101.351 51.4458C101.488 51.4458 101.633 51.4639 101.787 51.5002Z" fill="black"/>
<path d="M108.76 53.6017C108.76 53.0854 108.352 52.6768 107.835 52.6768C107.327 52.6768 106.921 53.0843 106.921 53.6017V56.3733C106.921 56.6816 106.632 56.9163 106.277 56.9163C105.923 56.9163 105.634 56.6816 105.634 56.3733V53.6017C105.634 53.0854 105.245 52.6768 104.728 52.6768C104.221 52.6768 103.823 53.0843 103.823 53.6017V56.3733C103.823 56.6816 103.524 56.9163 103.171 56.9163C102.818 56.9163 102.537 56.6816 102.537 56.3733V52.0346C102.537 51.7369 102.826 51.5279 103.154 51.5279C103.479 51.5279 103.778 51.7359 103.778 52.0346V52.361H103.796C104.05 51.962 104.448 51.4468 105.2 51.4468C105.878 51.4468 106.314 51.8362 106.639 52.3525C106.965 51.9002 107.482 51.4468 108.206 51.4468C109.366 51.4468 110.045 52.3162 110.045 53.6028V56.3744C110.045 56.672 109.756 56.9174 109.402 56.9174C109.049 56.9174 108.76 56.6731 108.76 56.3744V53.6017Z" fill="black"/>
<path d="M115.979 54.8051H112.374C112.592 55.4398 113.198 55.8474 113.85 55.8474C114.312 55.8474 114.865 55.6756 115.182 55.3854C115.362 55.1859 115.698 55.1859 115.934 55.4036C116.17 55.6031 116.223 55.9466 116.051 56.1461C115.5 56.6891 114.667 56.9974 113.85 56.9974C112.275 56.9974 110.943 55.8026 110.943 54.2173C110.943 52.6331 112.229 51.4468 113.805 51.4468C115.354 51.4468 116.621 52.6693 116.621 54.2173C116.622 54.516 116.332 54.8051 115.979 54.8051ZM115.246 53.6913C115.028 53.0577 114.467 52.6501 113.806 52.6501C113.154 52.6501 112.593 53.0577 112.375 53.6913H115.246Z" fill="black"/>
<path d="M120.172 51.5002C120.443 51.5642 120.653 51.7989 120.653 52.0987C120.653 52.4411 120.38 52.7142 120.036 52.7142C119.982 52.7142 119.891 52.6961 119.673 52.678C118.977 52.6428 118.451 53.285 118.451 54.036V56.3734C118.451 56.671 118.16 56.9164 117.808 56.9164C117.454 56.9164 117.164 56.6721 117.164 56.3734V52.0347C117.164 51.7541 117.436 51.5279 117.761 51.5279C118.088 51.5279 118.36 51.753 118.36 52.0347V52.3248H118.378C118.65 51.8629 119.031 51.4458 119.737 51.4458C119.874 51.4458 120.018 51.4639 120.172 51.5002Z" fill="black"/>
<path d="M123.117 52.5776C122.556 52.5776 122.302 52.7782 122.302 53.0491C122.302 53.3745 122.446 53.4833 123.361 53.5921C124.72 53.7831 125.382 54.2536 125.382 55.3481C125.382 56.4256 124.339 56.9963 123.108 56.9963C122.357 56.9963 121.669 56.815 121.125 56.5163C120.908 56.3893 120.826 56.0629 120.972 55.7823C121.125 55.4932 121.432 55.3652 121.686 55.5017C122.076 55.7194 122.574 55.8292 123.108 55.8559C123.688 55.8922 124.06 55.6756 124.06 55.3481C124.06 54.9769 123.879 54.851 122.801 54.7048C121.623 54.5512 120.999 54.0711 120.999 53.0481C120.999 52.0325 121.85 51.4351 123.108 51.4351C123.733 51.4351 124.322 51.5812 124.839 51.834C125.056 51.9333 125.147 52.2426 125.02 52.5136C124.893 52.7942 124.604 52.9297 124.368 52.8123C124.013 52.6416 123.552 52.5776 123.117 52.5776Z" fill="black"/>
<path d="M130.336 56.9974C128.751 56.9974 127.465 55.8111 127.465 54.2173C127.465 52.6331 128.751 51.4468 130.336 51.4468C131.929 51.4468 133.206 52.6331 133.206 54.2173C133.207 55.8111 131.929 56.9974 130.336 56.9974ZM130.336 52.6779C129.494 52.6779 128.806 53.3745 128.806 54.2173C128.806 55.0686 129.494 55.7663 130.336 55.7663C131.197 55.7663 131.868 55.0686 131.868 54.2173C131.868 53.3745 131.197 52.6779 130.336 52.6779Z" fill="black"/>
<path d="M135.825 51.0756C135.661 51.0756 135.527 51.1919 135.527 51.3839V51.6005H135.971C136.233 51.6005 136.451 51.8544 136.451 52.1617C136.451 52.4689 136.232 52.7239 135.971 52.7239H135.527V56.3819C135.527 56.6711 135.227 56.9164 134.884 56.9164C134.539 56.9164 134.24 56.6721 134.24 56.3819V52.7228H134.095C133.832 52.7228 133.615 52.4689 133.615 52.1606C133.615 51.8523 133.833 51.5994 134.095 51.5994H134.24V51.3551C134.24 50.4132 134.974 49.8958 135.825 49.8958C136.214 49.8958 136.567 50.0494 136.849 50.2947C137.056 50.4676 137.065 50.8281 136.875 51.0735C136.658 51.3359 136.331 51.3445 136.087 51.1823C136.033 51.1471 135.933 51.0756 135.825 51.0756Z" fill="black"/>
<path d="M142.483 56.9974C140.462 56.9974 138.842 55.458 138.842 53.4471C138.842 51.4361 140.462 49.8967 142.483 49.8967C144.493 49.8967 146.123 51.4361 146.123 53.4471C146.123 55.458 144.493 56.9974 142.483 56.9974ZM142.483 51.1289C141.206 51.1289 140.182 52.1701 140.182 53.4471C140.182 54.7336 141.206 55.7652 142.483 55.7652C143.768 55.7652 144.783 54.7326 144.783 53.4471C144.783 52.1701 143.768 51.1289 142.483 51.1289Z" fill="black"/>
<path d="M150.544 53.8375C150.544 53.1931 150.046 52.6779 149.411 52.6779C148.768 52.6779 148.27 53.1942 148.27 53.8375V56.3733C148.27 56.6816 147.981 56.9163 147.627 56.9163C147.273 56.9163 146.984 56.6816 146.984 56.3733V52.0346C146.984 51.7369 147.273 51.5279 147.6 51.5279C147.926 51.5279 148.225 51.7359 148.225 52.0346V52.4346H148.243C148.56 51.9546 149.058 51.4468 149.873 51.4468C151.078 51.4468 151.83 52.28 151.83 53.6743V56.3733C151.83 56.6816 151.549 56.9163 151.196 56.9163C150.843 56.9163 150.544 56.6816 150.544 56.3733V53.8375Z" fill="black"/>
<path d="M152.972 50.875C152.972 50.5859 153.262 50.3406 153.605 50.3406C153.95 50.3406 154.24 50.5859 154.24 50.875V51.5994H154.693C154.956 51.5994 155.173 51.8533 155.173 52.1606C155.173 52.4678 154.956 52.7228 154.693 52.7228H154.24V55.2948C154.24 55.4751 154.376 55.6117 154.548 55.6117H154.693C154.956 55.6117 155.173 55.8837 155.173 56.2283C155.173 56.5729 154.956 56.8438 154.693 56.8438H154.548C153.597 56.8438 152.972 56.3915 152.972 55.3866V52.7228H152.818C152.556 52.7228 152.338 52.4689 152.338 52.1606C152.338 51.8522 152.556 51.5994 152.818 51.5994H152.972V50.875V50.875Z" fill="black"/>
<path d="M159.383 56.2817L159.357 56.2635C158.985 56.7073 158.378 56.9964 157.763 56.9964C156.16 56.9964 155.545 56.1643 155.545 55.1402C155.545 54.0531 156.16 53.2925 157.763 53.2925C158.551 53.2925 158.985 53.6552 159.257 53.9443L159.284 53.9262V53.2562C159.284 52.8945 158.776 52.5937 158.143 52.5937C157.536 52.5937 157.065 52.7217 156.712 52.8572C156.468 52.9735 156.168 52.8209 156.051 52.5308C155.933 52.2502 156.032 51.9515 156.24 51.8427C156.775 51.5888 157.428 51.4341 158.144 51.4341C159.421 51.4341 160.571 52.1862 160.571 53.2562V56.4075C160.571 56.7159 160.299 56.9154 159.972 56.9154C159.646 56.9154 159.383 56.7159 159.383 56.4075V56.2817ZM158.062 54.4169C157.101 54.4169 156.884 54.7156 156.884 55.1412C156.884 55.585 157.101 55.8923 158.062 55.8923C158.813 55.8923 159.284 55.5392 159.284 55.1412C159.284 54.7604 158.813 54.4169 158.062 54.4169Z" fill="black"/>
<path d="M164.485 51.5002C164.756 51.5642 164.964 51.7989 164.964 52.0987C164.964 52.4411 164.693 52.7142 164.348 52.7142C164.294 52.7142 164.203 52.6961 163.986 52.678C163.289 52.6428 162.763 53.285 162.763 54.036V56.3734C162.763 56.671 162.474 56.9164 162.12 56.9164C161.767 56.9164 161.477 56.6721 161.477 56.3734V52.0347C161.477 51.7541 161.748 51.5279 162.075 51.5279C162.4 51.5279 162.674 51.753 162.674 52.0347V52.3248H162.692C162.963 51.8629 163.343 51.4458 164.05 51.4458C164.185 51.4458 164.329 51.4639 164.485 51.5002Z" fill="black"/>
<path d="M166.241 49.8616C166.64 49.8616 166.957 50.1784 166.957 50.5763C166.957 50.9753 166.64 51.2922 166.241 51.2922C165.842 51.2922 165.525 50.9753 165.525 50.5763C165.525 50.1784 165.842 49.8616 166.241 49.8616ZM165.598 52.0709C165.598 51.7733 165.887 51.5279 166.241 51.5279C166.594 51.5279 166.883 51.7722 166.883 52.0709V56.3734C166.883 56.671 166.594 56.9164 166.241 56.9164C165.887 56.9164 165.598 56.6721 165.598 56.3734V52.0709Z" fill="black"/>
<path d="M170.48 56.9974C168.895 56.9974 167.609 55.8111 167.609 54.2173C167.609 52.6331 168.896 51.4468 170.48 51.4468C172.074 51.4468 173.351 52.6331 173.351 54.2173C173.351 55.8111 172.074 56.9974 170.48 56.9974ZM170.48 52.6779C169.637 52.6779 168.949 53.3745 168.949 54.2173C168.949 55.0686 169.637 55.7663 170.48 55.7663C171.341 55.7663 172.011 55.0686 172.011 54.2173C172.011 53.3745 171.341 52.6779 170.48 52.6779Z" fill="black"/>
</svg>
