<svg width="192" height="80" viewBox="0 0 192 80" fill="none" xmlns="http://www.w3.org/2000/svg">
<g clip-path="url(#clip0)">
<path d="M76.014 33.5972V42.7576H71.3744V34.3308C71.3744 31.7433 70.1847 30.5537 68.1325 30.5537C65.9019 30.5537 64.2959 31.9218 64.2959 34.8662V42.7973H59.6562V26.7964H64.0877V28.6701C64.7728 27.9667 65.5982 27.4152 66.5102 27.0514C67.4222 26.6876 68.4006 26.5197 69.3817 26.5584C73.1589 26.5188 76.014 28.7196 76.014 33.5972Z" fill="#002B55"/>
<path d="M74.1646 56.8498V65.6433H69.9909V57.5338C69.9909 55.0554 68.9202 53.9103 67.0713 53.9103C65.0885 53.9103 63.6014 55.2239 63.6014 58.0494V65.6433H59.4277V44.4575H63.6014V51.8929C64.1961 51.2868 64.9105 50.8112 65.699 50.4963C66.4876 50.1814 67.333 50.0341 68.1816 50.0638C71.5969 50.039 74.1646 52.1556 74.1646 56.8498Z" fill="#002B55"/>
<path d="M89.4222 56.8498V65.6137H85.5112V63.7003C84.7379 65.1031 83.241 65.8417 81.1244 65.8417C77.7487 65.8417 75.7461 63.8589 75.7461 61.1921C75.7461 58.5253 77.5356 56.5921 81.9274 56.5921H85.2435C85.2435 54.6787 84.1778 53.5684 81.9274 53.5684C80.4223 53.5586 78.9588 54.0621 77.7784 54.996L76.2914 51.883C77.8677 50.6834 80.1974 50.0242 82.4974 50.0242C86.8793 50.039 89.4222 52.2102 89.4222 56.8498ZM85.2435 60.7608V59.1895H82.3834C80.4304 59.1895 79.8108 59.9628 79.8108 60.9888C79.8108 62.1041 80.6981 62.8477 82.1703 62.8477C82.8382 62.8838 83.4997 62.7011 84.0544 62.3271C84.609 61.9532 85.0266 61.4085 85.2435 60.7757V60.7608Z" fill="#002B55"/>
<path d="M106.661 56.8498V65.6434H102.482V57.5339C102.482 55.0554 101.411 53.9104 99.5626 53.9104C97.555 53.9104 96.0927 55.224 96.0927 58.0494V65.6434H91.9141V50.277H95.8796V52.0763C96.4766 51.4101 97.2128 50.8832 98.0359 50.5329C98.8591 50.1825 99.7492 50.0174 100.643 50.049C104.088 50.0391 106.661 52.1556 106.661 56.8498Z" fill="#002B55"/>
<path d="M124.006 44.4576V65.6434H120.04V63.8738C118.994 65.2171 117.472 65.8566 115.544 65.8566C111.475 65.8566 108.342 62.7734 108.342 57.9255C108.342 53.0777 111.475 49.9945 115.544 49.9945C116.356 49.957 117.166 50.1048 117.912 50.4269C118.659 50.749 119.322 51.2368 119.852 51.8533V44.418L124.006 44.4576ZM119.901 57.9503C119.901 55.2934 118.295 53.6973 116.238 53.6973C114.181 53.6973 112.54 55.2934 112.54 57.9503C112.54 60.6072 114.146 62.2033 116.238 62.2033C118.33 62.2033 119.901 60.6072 119.901 57.9503Z" fill="#002B55"/>
<path d="M125.209 64.2009L126.597 61.0037C128.092 61.9615 129.828 62.477 131.603 62.4908C133.532 62.4908 134.255 61.9456 134.255 61.088C134.255 58.5798 125.556 61.1475 125.556 55.0109C125.556 52.0962 128.034 50.054 132.218 50.054C134.201 50.054 136.397 50.5496 137.76 51.3973L136.367 54.5647C135.116 53.8077 133.68 53.413 132.218 53.4246C130.344 53.4246 129.541 54.0541 129.541 54.8522C129.541 57.4794 138.241 54.9365 138.241 60.9938C138.241 63.844 135.762 65.8714 131.445 65.8714C129.006 65.8565 126.547 65.1427 125.209 64.2009Z" fill="#002B55"/>
<path d="M62.8515 74.5115V73.8572H65.6571V73.7035C65.663 73.3688 65.6212 73.035 65.5332 72.7121C65.4684 72.445 65.3332 72.2002 65.1416 72.0032C64.9493 71.8255 64.6944 71.7311 64.4327 71.7406C64.2309 71.7426 64.0341 71.8044 63.8674 71.9182C63.7006 72.032 63.5714 72.1927 63.4959 72.38C63.2569 72.9068 63.1448 73.4823 63.1687 74.0604V74.328C63.1631 74.7379 63.2047 75.1471 63.2927 75.5474C63.3506 75.8605 63.4928 76.1519 63.7041 76.3901C63.8057 76.4932 63.9282 76.5734 64.0632 76.6255C64.1982 76.6776 64.3428 76.7005 64.4873 76.6925C64.7545 76.6952 65.0194 76.6429 65.2655 76.5388C65.5111 76.4373 65.7439 76.3075 65.9595 76.1522C66.0296 76.2391 66.0864 76.3361 66.128 76.4397C66.1706 76.5414 66.2005 76.648 66.2172 76.7569C65.9688 76.9618 65.6916 77.1288 65.3944 77.2526C65.0795 77.3805 64.7428 77.4461 64.403 77.446C64.0739 77.458 63.749 77.3698 63.4711 77.1932C63.2135 77.0131 63.0056 76.771 62.8664 76.4893C62.7089 76.1646 62.5987 75.8191 62.5392 75.4632C62.4724 75.0619 62.4392 74.6556 62.4401 74.2487C62.4314 73.6959 62.5118 73.1453 62.678 72.6179C62.8025 72.1901 63.0366 71.8022 63.3571 71.4927C63.6473 71.219 64.034 71.0711 64.4327 71.0813C64.8209 71.0681 65.2008 71.1948 65.5034 71.4382C65.7988 71.6958 66.0196 72.0278 66.1429 72.3998C66.2884 72.8191 66.3638 73.2596 66.3659 73.7035C66.3659 73.8522 66.3659 73.986 66.3659 74.1C66.3659 74.2141 66.366 74.3429 66.3412 74.4916L62.8515 74.5115Z" fill="#002B55"/>
<path d="M67.0009 74.333C66.9799 73.7078 67.0757 73.0841 67.2834 72.494C67.4289 72.0907 67.6766 71.732 68.0021 71.453C68.2435 71.2508 68.5451 71.134 68.8597 71.1209C69.1596 71.1214 69.4539 71.2018 69.7123 71.3539C69.9905 71.5177 70.2469 71.7159 70.4756 71.9437V72.7171C70.2622 72.5152 70.0353 72.3281 69.7965 72.1569C69.549 71.9721 69.248 71.873 68.939 71.8744C68.7196 71.8796 68.5104 71.9682 68.3541 72.1223C68.1332 72.3394 67.9741 72.6114 67.8931 72.9104C67.7564 73.3718 67.6945 73.852 67.7097 74.333C67.6942 74.7886 67.7426 75.2441 67.8534 75.6862C67.9231 75.9702 68.0648 76.2314 68.2649 76.4447C68.4067 76.5919 68.6008 76.6773 68.8052 76.6826C69.0313 76.679 69.2517 76.6101 69.4397 76.4843C69.668 76.3373 69.8637 76.1449 70.0147 75.9192C70.1945 75.6592 70.3255 75.3686 70.4013 75.0617L70.5153 75.9093C70.4256 76.1655 70.2969 76.4063 70.1336 76.6231C69.9623 76.8531 69.7487 77.0483 69.5041 77.1981C69.2574 77.3516 68.9717 77.4308 68.6812 77.4261C68.5086 77.4302 68.337 77.3973 68.178 77.3298C68.019 77.2623 67.8763 77.1616 67.7593 77.0345C67.4855 76.7208 67.2932 76.3446 67.1991 75.939C67.0622 75.4148 66.9955 74.8748 67.0009 74.333ZM70.8127 75.5822C70.8119 75.8389 70.8268 76.0955 70.8573 76.3504C70.8748 76.5667 70.9577 76.7725 71.0953 76.9403C71.0645 77.0313 71.0194 77.1166 70.9614 77.1932C70.911 77.2706 70.8431 77.3351 70.7631 77.3815C70.6425 77.324 70.5358 77.241 70.4502 77.1383C70.3647 77.0357 70.3023 76.9157 70.2675 76.7867C70.182 76.4988 70.1402 76.1997 70.1435 75.8994V68.2509L70.203 68.1765H70.4509C70.6095 68.1765 70.7086 68.2261 70.7532 68.3302C70.8038 68.4698 70.8257 68.6182 70.8177 68.7664L70.8127 75.5822Z" fill="#002B55"/>
<path d="M72.097 72.3702C72.097 72.1719 72.097 71.9836 72.097 71.8051C72.0874 71.6369 72.0574 71.4704 72.0078 71.3094C72.0621 71.2516 72.128 71.206 72.2011 71.1756C72.2777 71.1415 72.3603 71.123 72.444 71.121C72.4984 71.1167 72.5529 71.1278 72.6012 71.1533C72.6495 71.1788 72.6895 71.2174 72.7166 71.2648C72.7764 71.3968 72.8036 71.5414 72.7959 71.6861V75.156C72.7743 75.5293 72.8266 75.9032 72.9496 76.2564C73.0038 76.3677 73.0908 76.4598 73.199 76.52C73.3071 76.5803 73.4312 76.6059 73.5544 76.5934C73.7891 76.5885 74.019 76.5255 74.2235 76.41C74.4667 76.2831 74.6864 76.1155 74.8729 75.9143C75.0685 75.728 75.2267 75.5059 75.3388 75.2601V76.1771C75.1249 76.5198 74.8328 76.807 74.4863 77.0148C74.1606 77.2238 73.7827 77.3371 73.3957 77.3419C73.1185 77.3555 72.8468 77.2614 72.6373 77.0793C72.4448 76.8853 72.3064 76.6443 72.2358 76.3803C72.1542 76.0697 72.1142 75.7497 72.1168 75.4286L72.097 72.3702ZM75.8098 75.5823C75.808 75.8392 75.8246 76.0959 75.8593 76.3505C75.875 76.5663 75.9563 76.7722 76.0923 76.9404C76.0622 77.0292 76.0188 77.1127 75.9634 77.1883C75.9157 77.271 75.8451 77.3381 75.7602 77.3816C75.6405 77.3227 75.5345 77.2393 75.4491 77.1369C75.3637 77.0344 75.3008 76.9151 75.2645 76.7868C75.179 76.4989 75.1372 76.1998 75.1406 75.8995V71.2251C75.1888 71.2095 75.2387 71.1995 75.2893 71.1954H75.4727H75.666C75.7166 71.199 75.7666 71.209 75.8147 71.2251L75.8098 75.5823Z" fill="#002B55"/>
<path d="M79.8494 73.3367C79.8629 73.0949 79.8395 72.8526 79.78 72.6179C79.7244 72.3866 79.6081 72.1744 79.4429 72.0032C79.3535 71.9179 79.2475 71.852 79.1315 71.8093C79.0156 71.7667 78.8921 71.7483 78.7688 71.7554C78.5694 71.7656 78.3771 71.8326 78.2146 71.9485C78.0521 72.0645 77.9262 72.2245 77.8517 72.4097C77.5872 73.0061 77.4682 73.6568 77.5047 74.3082C77.4652 74.9261 77.5846 75.5439 77.8517 76.1026C77.9401 76.282 78.0771 76.4329 78.2471 76.5381C78.4172 76.6433 78.6134 76.6985 78.8134 76.6974C79.0626 76.6995 79.3066 76.6251 79.5123 76.4843C79.7257 76.336 79.9263 76.1702 80.1121 75.9886C80.1922 76.0597 80.2623 76.1414 80.3203 76.2315C80.382 76.3268 80.4257 76.4326 80.4491 76.5438C80.2292 76.797 79.9697 77.0129 79.6808 77.1832C79.3921 77.3512 79.063 77.4369 78.7291 77.4311C78.4042 77.4419 78.0845 77.348 77.817 77.1634C77.5603 76.9755 77.3542 76.7268 77.2172 76.4397C77.0588 76.1276 76.9485 75.7934 76.8901 75.4483C76.8204 75.074 76.7855 74.6939 76.786 74.3131C76.7776 73.8256 76.8325 73.3391 76.9496 72.8658C77.0417 72.5118 77.1943 72.1764 77.4006 71.8744C77.5662 71.6317 77.7849 71.43 78.0401 71.2845C78.2697 71.1589 78.5269 71.0925 78.7886 71.0912C79.0702 71.0824 79.3495 71.1437 79.6015 71.2696C79.8105 71.3839 79.9916 71.5431 80.1319 71.7356C80.2617 71.9083 80.359 72.1031 80.4194 72.3105C80.4743 72.4805 80.5044 72.6575 80.5086 72.836C80.5115 72.9678 80.4896 73.0989 80.4442 73.2227C80.4045 73.3317 80.3054 73.3862 80.1468 73.3862C80.099 73.3913 80.0508 73.3913 80.003 73.3862L79.8494 73.3367Z" fill="#002B55"/>
<path d="M80.9996 75.6465C80.9856 75.2598 81.0655 74.8754 81.2326 74.5263C81.3785 74.247 81.6094 74.0214 81.8919 73.8818C82.2 73.7311 82.5404 73.658 82.8832 73.6687C83.1118 73.6704 83.3401 73.6836 83.5673 73.7084C83.7994 73.7368 84.0284 73.7866 84.2513 73.8571V74.4618C84.035 74.4061 83.8145 74.368 83.5921 74.3478C83.3492 74.3478 83.0964 74.3131 82.8832 74.3131C82.7251 74.3065 82.5674 74.3325 82.4198 74.3897C82.2723 74.4468 82.1381 74.5338 82.0257 74.6452C81.8005 74.9034 81.6865 75.2402 81.7085 75.5821C81.7003 75.8641 81.7725 76.1426 81.9166 76.3851C81.9796 76.4893 82.0694 76.5746 82.1767 76.6322C82.284 76.6897 82.4047 76.7173 82.5263 76.7122C82.8505 76.6924 83.1598 76.5691 83.4087 76.3603C83.7566 76.0797 84.0292 75.7168 84.2018 75.3045L84.3257 76.1174C84.1873 76.3106 84.0384 76.4959 83.8796 76.6726C83.694 76.8811 83.4805 77.0629 83.2451 77.2129C83.0084 77.3642 82.7329 77.4435 82.452 77.4409C82.1614 77.4532 81.8761 77.3599 81.649 77.1782C81.4274 76.9989 81.2565 76.7648 81.1533 76.4991C81.0509 76.2266 80.9988 75.9377 80.9996 75.6465ZM84.9651 76.9403C84.9363 77.031 84.8927 77.1164 84.8363 77.1931C84.7854 77.2719 84.7155 77.3367 84.633 77.3814C84.487 77.3088 84.3623 77.1995 84.2712 77.0642C84.177 76.9253 84.1128 76.7683 84.0828 76.6032C84.0431 76.4108 84.0249 76.2147 84.0283 76.0183V73.1284C84.0574 72.7789 83.9683 72.4298 83.7755 72.137C83.6913 72.0407 83.5866 71.9644 83.4691 71.9138C83.3516 71.8632 83.2242 71.8396 83.0964 71.8446C82.8118 71.845 82.5296 71.8971 82.2636 71.9983C81.9812 72.0995 81.7077 72.2238 81.4457 72.37C81.3711 72.2825 81.3139 72.1815 81.2772 72.0726C81.2305 71.9523 81.2054 71.8248 81.2028 71.6958C81.3615 71.6116 81.5498 71.5224 81.763 71.4282C81.9803 71.3376 82.2039 71.263 82.4321 71.2051C82.6655 71.1462 82.9052 71.1163 83.1459 71.1159C83.4527 71.1038 83.7557 71.1869 84.0134 71.3538C84.2485 71.5285 84.422 71.7732 84.5091 72.0528C84.6266 72.4143 84.6819 72.7931 84.6727 73.173V75.6862C84.6694 75.9234 84.686 76.1605 84.7223 76.395C84.7396 76.5952 84.8174 76.7853 84.9453 76.9403H84.9651Z" fill="#002B55"/>
<path d="M87.9326 71.225C87.951 71.3332 87.961 71.4426 87.9624 71.5522C87.9627 71.662 87.9528 71.7715 87.9326 71.8793H86.4455H85.2856C85.2654 71.7715 85.2555 71.662 85.2559 71.5522C85.2572 71.4426 85.2672 71.3332 85.2856 71.225H86.4307H87.9326ZM85.9895 69.9065C85.9828 69.7587 86.003 69.6109 86.049 69.4703C86.0936 69.3662 86.1927 69.3167 86.3514 69.3167H86.5942L86.6537 69.391V76.1473C86.6483 76.2739 86.6793 76.3995 86.7429 76.5091C86.7753 76.5585 86.8207 76.598 86.874 76.6234C86.9273 76.6487 86.9866 76.6589 87.0453 76.6528H87.8235C87.8658 76.8044 87.8842 76.9616 87.8781 77.1188V77.2031C87.8807 77.2311 87.8807 77.2593 87.8781 77.2873C87.7244 77.2873 87.5658 77.327 87.4072 77.3419C87.2486 77.3567 87.0751 77.3419 86.8768 77.3419C86.758 77.3478 86.6394 77.3287 86.5284 77.2861C86.4174 77.2434 86.3166 77.178 86.2324 77.094C86.0619 76.891 85.9766 76.6299 85.9944 76.3654L85.9895 69.9065Z" fill="#002B55"/>
<path d="M92.366 74.2586C92.3742 74.8146 92.2939 75.3685 92.1281 75.8993C92.0037 76.3321 91.7638 76.7228 91.4341 77.0295C91.1126 77.2972 90.7075 77.4438 90.2891 77.4438C89.8707 77.4438 89.4655 77.2972 89.144 77.0295C88.8169 76.7176 88.5791 76.324 88.455 75.8894C88.2979 75.3603 88.221 74.8105 88.227 74.2586C88.22 73.7078 88.2986 73.1593 88.46 72.6327C88.5888 72.2005 88.828 71.8093 89.1539 71.4976C89.465 71.2185 89.8713 71.0694 90.2891 71.0812C90.7116 71.0676 91.1232 71.2167 91.4391 71.4976C91.7667 71.808 92.0061 72.1996 92.133 72.6327C92.2939 73.1594 92.3725 73.7079 92.366 74.2586ZM88.9359 74.2586C88.9364 74.6616 88.9779 75.0635 89.0598 75.4582C89.1252 75.8029 89.2713 76.1273 89.4861 76.4049C89.587 76.5214 89.7119 76.6149 89.8521 76.679C89.9924 76.743 90.1448 76.7762 90.299 76.7762C90.4532 76.7762 90.6056 76.743 90.7458 76.679C90.8861 76.6149 91.0109 76.5214 91.1119 76.4049C91.323 76.1257 91.4672 75.8019 91.5333 75.4582C91.6985 74.6687 91.6985 73.8534 91.5333 73.0639C91.4652 72.7179 91.3213 72.3912 91.1119 72.1073C91.0119 71.9893 90.8873 71.8945 90.747 71.8294C90.6066 71.7644 90.4537 71.7307 90.299 71.7307C90.1443 71.7307 89.9914 71.7644 89.851 71.8294C89.7106 71.8945 89.5861 71.9893 89.4861 72.1073C89.2732 72.3897 89.1274 72.7168 89.0598 73.0639C88.9781 73.4569 88.9365 73.8572 88.9359 74.2586Z" fill="#002B55"/>
<path d="M93.0547 71.6116C93.0805 71.52 93.1206 71.433 93.1736 71.3539C93.2236 71.2695 93.2892 71.1954 93.3669 71.1357C93.621 71.2614 93.8152 71.4824 93.9073 71.7505C94.0306 72.0837 94.0944 72.436 94.0956 72.7914V77.2972H93.9469H93.7635H93.5702H93.4165V72.8756C93.4243 72.6132 93.3858 72.3514 93.3025 72.1024C93.2487 71.9258 93.1649 71.7598 93.0547 71.6116ZM95.8405 71.1854C95.8403 71.3263 95.8303 71.4671 95.8107 71.6067C95.7905 71.7398 95.7487 71.8688 95.6868 71.9884H95.5183H95.3497C95.1391 71.9837 94.9325 72.0462 94.7599 72.1668C94.5931 72.2892 94.453 72.4443 94.3484 72.6228C94.2428 72.804 94.1548 72.9949 94.0857 73.1929C94.0278 73.3644 93.9831 73.54 93.9519 73.7183L93.818 73.52C93.8191 73.2483 93.849 72.9775 93.9073 72.7121C93.9645 72.4445 94.0579 72.186 94.1848 71.9437C94.307 71.7188 94.4761 71.5228 94.6805 71.3688C94.889 71.2173 95.1417 71.1388 95.3993 71.1457H95.5877L95.8405 71.1854Z" fill="#002B55"/>
<path d="M95.8262 76.8212C95.8358 76.7045 95.866 76.5903 95.9154 76.4841C95.9615 76.3798 96.0252 76.2843 96.1038 76.2016C96.3194 76.3499 96.5465 76.4808 96.7829 76.5932C97.0133 76.7107 97.2677 76.7735 97.5264 76.7766C97.8178 76.7913 98.103 76.6897 98.3195 76.4941C98.4183 76.4012 98.4969 76.2891 98.5507 76.1646C98.6044 76.0401 98.632 75.9059 98.6318 75.7704C98.6308 75.5568 98.5632 75.3488 98.4385 75.1755C98.2963 74.9814 98.1045 74.829 97.8833 74.7343L97.2885 74.4617C97.0622 74.3609 96.8491 74.2327 96.654 74.0801C96.4499 73.9358 96.2805 73.7478 96.1583 73.5298C96.0338 73.2897 95.9724 73.0219 95.9798 72.7516C95.9709 72.4371 96.0498 72.1264 96.2079 71.8544C96.3497 71.6071 96.5596 71.4058 96.8126 71.2744C97.0675 71.1398 97.3522 71.0716 97.6404 71.0761C97.9055 71.0775 98.1691 71.116 98.4236 71.1902C98.674 71.2541 98.9155 71.349 99.1423 71.4727C99.1416 71.5529 99.1316 71.6327 99.1126 71.7106C99.0969 71.7909 99.0719 71.8691 99.0382 71.9436C99.0075 72.0131 98.9675 72.0781 98.9193 72.1369C98.7347 72.0387 98.5424 71.9558 98.3443 71.8891C98.1106 71.8131 97.8663 71.7747 97.6206 71.7751C97.3719 71.7654 97.1296 71.8545 96.9464 72.0229C96.8573 72.1133 96.788 72.2213 96.7428 72.3399C96.6975 72.4585 96.6774 72.5852 96.6837 72.7119C96.6783 72.9108 96.7493 73.1041 96.882 73.2522C97.0471 73.4203 97.2444 73.5535 97.4619 73.6438L98.0816 73.9313C98.4314 74.0836 98.7393 74.3183 98.9788 74.6154C99.2123 74.9335 99.3312 75.3215 99.3158 75.7159C99.3313 75.9508 99.2949 76.1862 99.2092 76.4055C99.1235 76.6248 98.9907 76.8225 98.8201 76.9848C98.4554 77.297 97.9863 77.4599 97.5066 77.4408C97.1811 77.447 96.8581 77.3827 96.5598 77.2525C96.2968 77.1426 96.0501 76.9975 95.8262 76.8212Z" fill="#002B55"/>
<path d="M102.696 77.2971H102.542H102.359H102.17H102.017V72.4641C102.036 72.2937 102.005 72.1213 101.928 71.9684C101.889 71.9224 101.84 71.8866 101.785 71.8641C101.73 71.8416 101.67 71.8331 101.61 71.8395H101.516C101.496 71.7366 101.486 71.632 101.486 71.5272C101.484 71.476 101.484 71.4248 101.486 71.3736C101.486 71.329 101.486 71.2744 101.486 71.21L101.774 71.1753H101.967H102.056C102.146 71.1715 102.236 71.1904 102.316 71.2303C102.397 71.2701 102.466 71.3296 102.517 71.4033C102.636 71.5873 102.693 71.8043 102.681 72.0229L102.696 77.2971ZM101.704 69.6287C101.698 69.4769 101.722 69.3254 101.774 69.1826C101.83 69.1416 101.894 69.1129 101.962 69.0983C102.04 69.0793 102.12 69.0693 102.2 69.0686C102.279 69.0705 102.357 69.0804 102.433 69.0983C102.503 69.1104 102.57 69.1393 102.626 69.1826C102.649 69.2486 102.666 69.3167 102.676 69.3859C102.683 69.4667 102.683 69.5479 102.676 69.6287C102.682 69.7789 102.659 69.9289 102.607 70.0699C102.555 70.1191 102.489 70.1503 102.418 70.1591C102.341 70.1807 102.261 70.1924 102.18 70.1938C102.1 70.1938 102.02 70.182 101.942 70.1591C101.873 70.1446 101.809 70.1141 101.754 70.0699C101.709 69.9276 101.692 69.7776 101.704 69.6287Z" fill="#002B55"/>
<path d="M104.326 71.1853C104.485 71.1853 104.584 71.2348 104.628 71.3389C104.674 71.4762 104.694 71.6207 104.688 71.7652V77.2971H104.539H104.356H104.162H104.014V71.2596L104.073 71.1853H104.326ZM107.726 76.1422C107.726 76.3404 107.726 76.5288 107.726 76.7122C107.733 76.8807 107.763 77.0476 107.816 77.2079C107.762 77.2655 107.696 77.3097 107.622 77.3367C107.546 77.3708 107.463 77.3893 107.379 77.3913C107.325 77.3956 107.27 77.3845 107.222 77.359C107.174 77.3336 107.134 77.2949 107.107 77.2476C107.044 77.1181 107.017 76.9745 107.027 76.8312V73.3316C107.049 72.9599 106.997 72.5876 106.874 72.2361C106.82 72.1248 106.733 72.0328 106.624 71.9725C106.516 71.9122 106.392 71.8866 106.269 71.899C106.033 71.9042 105.802 71.9654 105.595 72.0775C105.354 72.2086 105.135 72.3758 104.946 72.5732C104.756 72.7637 104.6 72.985 104.485 73.2275V72.3104C104.7 71.9688 104.992 71.6821 105.337 71.4727C105.661 71.2644 106.037 71.151 106.423 71.1456C106.7 71.132 106.972 71.2262 107.181 71.4083C107.374 71.6023 107.512 71.8432 107.583 72.1072C107.666 72.4209 107.708 72.7442 107.707 73.0689L107.726 76.1422Z" fill="#002B55"/>
<path d="M110.205 76.8212C110.215 76.7044 110.245 76.5903 110.294 76.4841C110.338 76.3785 110.402 76.2826 110.483 76.2016C110.697 76.3487 110.923 76.4796 111.157 76.5931C111.389 76.7102 111.645 76.773 111.905 76.7765C112.197 76.7901 112.481 76.6887 112.698 76.494C112.797 76.4011 112.876 76.289 112.93 76.1645C112.983 76.0401 113.011 75.9059 113.011 75.7703C113.01 75.5568 112.942 75.3488 112.817 75.1755C112.675 74.9813 112.483 74.829 112.262 74.7343L111.667 74.4617C111.441 74.3608 111.228 74.2326 111.033 74.08C110.829 73.9354 110.66 73.7475 110.537 73.5298C110.413 73.2897 110.351 73.0219 110.359 72.7515C110.352 72.4373 110.431 72.1272 110.587 71.8544C110.732 71.61 110.941 71.4096 111.191 71.2744C111.448 71.1404 111.735 71.0722 112.024 71.0761C112.288 71.0772 112.55 71.1156 112.802 71.1901C113.053 71.2522 113.295 71.3472 113.521 71.4727C113.531 71.5517 113.531 71.6315 113.521 71.7106C113.492 71.8661 113.425 72.0122 113.328 72.1369C113.143 72.0387 112.951 71.9558 112.753 71.889C112.519 71.8131 112.275 71.7746 112.029 71.775C111.781 71.7653 111.538 71.8544 111.355 72.0229C111.266 72.1133 111.197 72.2212 111.151 72.3398C111.106 72.4584 111.086 72.5851 111.092 72.7119C111.085 72.911 111.156 73.1051 111.291 73.2522C111.456 73.4202 111.653 73.5534 111.871 73.6438L112.49 73.9313C112.839 74.0823 113.146 74.3173 113.382 74.6153C113.62 74.9317 113.741 75.3205 113.724 75.7158C113.74 75.9507 113.704 76.1861 113.618 76.4054C113.532 76.6247 113.399 76.8225 113.229 76.9847C112.864 77.297 112.395 77.4599 111.915 77.4408C111.588 77.4475 111.263 77.3832 110.963 77.2524C110.692 77.1438 110.437 76.9987 110.205 76.8212Z" fill="#002B55"/>
<path d="M114.22 75.6465C114.206 75.2598 114.286 74.8754 114.453 74.5263C114.598 74.2478 114.827 74.0222 115.108 73.8818C115.416 73.7324 115.756 73.6594 116.099 73.6687C116.326 73.6703 116.553 73.6835 116.778 73.7084C117.012 73.7363 117.243 73.7861 117.467 73.8571V74.4618C117.249 74.4061 117.027 74.368 116.803 74.3478C116.565 74.3478 116.307 74.3131 116.099 74.3131C115.941 74.3059 115.783 74.3317 115.635 74.3888C115.488 74.446 115.353 74.5334 115.241 74.6452C115.016 74.9034 114.902 75.2402 114.924 75.5821C114.916 75.8641 114.988 76.1426 115.132 76.3851C115.195 76.4893 115.285 76.5746 115.392 76.6322C115.5 76.6897 115.62 76.7173 115.742 76.7122C116.065 76.6935 116.373 76.5699 116.619 76.3603C116.969 76.0801 117.243 75.7172 117.418 75.3045L117.536 76.1174C117.422 76.281 117.274 76.4644 117.095 76.6726C116.909 76.8823 116.694 77.0643 116.456 77.2129C116.22 77.3653 115.944 77.4447 115.663 77.4409C115.372 77.4514 115.088 77.3583 114.86 77.1782C114.638 76.9992 114.467 76.765 114.364 76.4991C114.265 76.2259 114.216 75.9371 114.22 75.6465ZM118.186 76.9403C118.155 77.0302 118.112 77.1153 118.057 77.1931C118.005 77.2708 117.935 77.3352 117.854 77.3814C117.706 77.309 117.58 77.1997 117.487 77.0642C117.397 76.9232 117.333 76.767 117.299 76.6032C117.261 76.4105 117.243 76.2146 117.244 76.0183V73.1284C117.273 72.7789 117.184 72.4298 116.991 72.137C116.908 72.0408 116.804 71.9646 116.688 71.914C116.571 71.8633 116.444 71.8396 116.317 71.8446C116.033 71.845 115.75 71.8971 115.484 71.9983C115.202 72.0995 114.928 72.2238 114.666 72.37C114.59 72.2829 114.531 72.1819 114.493 72.0726C114.446 71.9523 114.421 71.8248 114.419 71.6958C114.582 71.6116 114.766 71.5224 114.979 71.4282C115.197 71.3368 115.423 71.2622 115.653 71.2051C115.885 71.1462 116.123 71.1163 116.362 71.1159C116.668 71.1038 116.972 71.1869 117.229 71.3538C117.463 71.5301 117.636 71.7742 117.725 72.0528C117.842 72.4143 117.898 72.7931 117.888 73.173V75.6862C117.886 75.9232 117.901 76.1601 117.933 76.395C117.953 76.5963 118.035 76.7865 118.166 76.9403H118.186Z" fill="#002B55"/>
<path d="M119.669 71.2248H121.468C121.487 71.3329 121.497 71.4423 121.498 71.5519C121.498 71.6164 121.498 71.6709 121.498 71.7254C121.498 71.7799 121.498 71.8295 121.473 71.879H119.684H118.504C118.504 71.8295 118.504 71.775 118.504 71.7254C118.504 71.6758 118.504 71.6164 118.504 71.5519C118.505 71.442 118.516 71.3324 118.539 71.2248H119.669ZM119.361 71.5916C119.361 71.2793 119.317 70.9819 119.297 70.6944C119.277 70.4069 119.257 70.1392 119.257 69.9062C119.253 69.5966 119.307 69.2889 119.416 68.9991C119.516 68.7439 119.688 68.5233 119.912 68.3646C120.141 68.2009 120.418 68.1173 120.7 68.1267C120.894 68.1295 121.087 68.1562 121.275 68.206C121.458 68.245 121.636 68.3049 121.805 68.3845C121.805 68.4917 121.79 68.5984 121.761 68.7017C121.736 68.7976 121.694 68.8882 121.637 68.9693C121.485 68.9103 121.329 68.8623 121.171 68.8256C121.019 68.791 120.865 68.7727 120.71 68.7711C120.595 68.7681 120.482 68.7943 120.381 68.8472C120.279 68.9001 120.193 68.978 120.13 69.0735C119.972 69.3339 119.897 69.6368 119.917 69.9409C119.917 70.1937 119.917 70.4366 119.956 70.734C119.996 71.0314 120.011 71.3041 120.045 71.6164V77.287C119.827 77.3333 119.6 77.3333 119.381 77.287L119.361 71.5916Z" fill="#002B55"/>
<path d="M121.795 74.5113V73.857H124.601V73.7033C124.606 73.3687 124.565 73.0349 124.477 72.7119C124.41 72.4457 124.275 72.2014 124.085 72.0031C123.991 71.9109 123.879 71.8385 123.757 71.79C123.634 71.7414 123.503 71.7178 123.371 71.7206C123.168 71.7216 122.971 71.783 122.803 71.8969C122.635 72.0108 122.505 72.172 122.429 72.36C122.192 72.8873 122.082 73.4628 122.107 74.0404V74.308C122.103 74.7176 122.142 75.1265 122.226 75.5275C122.288 75.8391 122.43 76.1294 122.638 76.3701C122.74 76.473 122.864 76.5531 122.999 76.6052C123.135 76.6573 123.28 76.6802 123.426 76.6725C123.691 76.6748 123.954 76.6225 124.199 76.5189C124.445 76.4184 124.678 76.2886 124.893 76.1322C124.965 76.2179 125.022 76.315 125.061 76.4197C125.106 76.5206 125.136 76.6275 125.151 76.7369C124.903 76.9428 124.626 77.1099 124.328 77.2326C124.013 77.3611 123.676 77.4268 123.337 77.426C123.006 77.4375 122.68 77.3494 122.4 77.1732C122.144 76.9928 121.937 76.7507 121.8 76.4693C121.64 76.1455 121.53 75.7996 121.473 75.4432C121.403 75.0422 121.37 74.6357 121.374 74.2288C121.366 73.6764 121.445 73.1261 121.607 72.5979C121.735 72.1706 121.97 71.7832 122.291 71.4727C122.434 71.3361 122.602 71.2293 122.787 71.1587C122.972 71.088 123.169 71.0549 123.366 71.0613C123.753 71.0476 124.132 71.1744 124.432 71.4182C124.73 71.6742 124.953 72.0066 125.076 72.3798C125.22 72.8079 125.29 73.2569 125.285 73.7083C125.285 73.857 125.285 73.9908 125.285 74.1049C125.285 74.2189 125.285 74.3477 125.255 74.4964L121.795 74.5113Z" fill="#002B55"/>
<path d="M128.433 71.225C128.451 71.3332 128.461 71.4426 128.462 71.5522C128.463 71.662 128.453 71.7715 128.433 71.8793H126.946H125.786C125.765 71.7715 125.755 71.662 125.756 71.5522C125.757 71.4426 125.767 71.3332 125.786 71.225H126.931H128.433ZM126.489 69.9065C126.484 69.7584 126.506 69.6105 126.554 69.4703C126.594 69.3662 126.698 69.3167 126.851 69.3167H127.099L127.159 69.391V76.1473C127.154 76.2732 127.183 76.3981 127.243 76.5091C127.277 76.5585 127.323 76.5979 127.377 76.6232C127.431 76.6485 127.491 76.6587 127.55 76.6528H128.329C128.368 76.8049 128.387 76.9617 128.383 77.1188V77.2031C128.386 77.2311 128.386 77.2593 128.383 77.2873C128.224 77.2873 128.071 77.327 127.887 77.3419C127.704 77.3567 127.55 77.3419 127.357 77.3419C127.238 77.3484 127.119 77.3297 127.008 77.287C126.897 77.2442 126.796 77.1785 126.713 77.094C126.54 76.8917 126.453 76.6305 126.47 76.3654L126.489 69.9065Z" fill="#002B55"/>
<path d="M131.238 77.084C131.108 77.6442 130.943 78.1956 130.742 78.7346C130.612 79.098 130.396 79.4245 130.113 79.6863C129.842 79.9027 129.502 80.0136 129.156 79.9986C129.011 79.9958 128.866 79.9775 128.725 79.9441C128.602 79.92 128.483 79.8835 128.368 79.8351C128.364 79.7226 128.379 79.6103 128.412 79.5029C128.433 79.4049 128.474 79.3122 128.531 79.2303C128.622 79.2704 128.717 79.2987 128.814 79.3146C128.93 79.3392 129.048 79.3525 129.166 79.3543C129.401 79.3636 129.631 79.2799 129.805 79.1213C129.987 78.9336 130.126 78.7086 130.212 78.462C130.335 78.1389 130.436 77.8076 130.514 77.4706L130.549 77.3467C130.41 77.349 130.276 77.2995 130.172 77.2079C130.058 77.0804 129.981 76.9246 129.949 76.7568L128.536 71.3042C128.608 71.2617 128.682 71.2252 128.759 71.1952C128.814 71.1694 128.873 71.1559 128.933 71.1555C129.012 71.1565 129.088 71.1865 129.146 71.2398C129.226 71.3288 129.28 71.4388 129.3 71.5571L130.118 74.7196C130.177 74.9476 130.232 75.1756 130.291 75.4135C130.351 75.6514 130.4 75.8745 130.455 76.0926C130.509 76.3107 130.554 76.4991 130.593 76.6726C130.597 76.6971 130.61 76.7193 130.629 76.7349C130.648 76.7505 130.673 76.7584 130.698 76.7568L131.947 71.2249L132.105 71.1952H132.294C132.353 71.1898 132.413 71.1898 132.472 71.1952L132.626 71.2398V71.2745L131.238 77.084Z" fill="#002B55"/>
<path d="M78.3672 39.9171L79.9633 36.14C81.8997 37.5838 84.2447 38.3753 86.6601 38.4003C89.4459 38.4003 90.576 37.4089 90.576 36.0805C90.576 32.0307 78.7737 34.8115 78.7737 26.7714C78.7737 23.0884 81.5545 20.03 87.3293 20.03C89.8771 20.03 92.4894 20.6794 94.373 21.9483L92.9256 25.7503C91.2412 24.6794 89.2951 24.0912 87.2995 24.0501C84.5137 24.0501 83.4431 25.1654 83.4431 26.5285C83.4431 30.494 95.2454 27.7678 95.2454 35.7137C95.2454 39.3322 92.4299 42.4254 86.6303 42.4254C83.4133 42.4204 80.1665 41.3992 78.3672 39.9171Z" fill="#7AC043"/>
<path d="M111.539 32.5611V42.0536H107.306V39.9965C106.468 41.5133 104.827 42.3163 102.552 42.3163C98.8987 42.3163 96.7227 40.1501 96.7227 37.2751C96.7227 34.4001 98.6658 32.3182 103.419 32.3182H107.013C107.013 30.2462 105.853 29.0368 103.414 29.0368C101.784 29.0301 100.2 29.5751 98.9186 30.5833L97.2977 27.2126C99.0078 25.9139 101.531 25.2051 104.024 25.2051C108.788 25.1654 111.539 27.515 111.539 32.5611ZM107.018 36.7993V35.0941H103.915C101.799 35.0941 101.129 35.9318 101.129 37.0422C101.129 38.2517 102.086 39.0546 103.682 39.0546C104.408 39.092 105.126 38.8915 105.727 38.4836C106.328 38.0756 106.78 37.4824 107.013 36.7943L107.018 36.7993Z" fill="#7AC043"/>
<path d="M120.185 25.7799H124.185V29.4927H120.299V42.0485H115.773V29.4927H113.369V25.7799H115.773V25.0414C115.773 21.2989 117.92 18.8551 121.806 18.8551C123.026 18.7986 124.236 19.1113 125.276 19.7524L124.091 23.2222C123.561 22.8332 122.919 22.6262 122.262 22.6323C120.928 22.6323 120.205 23.4056 120.205 25.0463L120.185 25.7799Z" fill="#7AC043"/>
<path d="M141.032 35.089H129.23C129.666 37.161 131.317 38.43 133.691 38.43C134.42 38.4568 135.146 38.3274 135.82 38.0504C136.495 37.7734 137.102 37.3552 137.602 36.8239L140.011 39.6047C138.564 41.3694 136.387 42.2964 133.567 42.2964C128.174 42.2964 124.645 38.6778 124.645 33.7308C124.645 28.7838 128.213 25.1653 132.967 25.1653C137.552 25.1653 141.087 28.4418 141.087 33.7903C141.116 34.1621 141.062 34.6875 141.032 35.089ZM129.17 32.2785H136.853C136.536 30.1718 135.059 28.8087 133.027 28.8087C130.994 28.8087 129.487 30.1421 129.17 32.2785Z" fill="#7AC043"/>
<path d="M57.3746 41.8355C57.3746 43.5952 55.947 44.5272 54.1873 44.5272C52.4276 44.5272 51 43.5952 51 41.8355C51 40.0758 53.2851 25.7256 53.2851 25.7256H55.8528C55.8528 25.7256 57.3746 40.2047 57.3746 41.8355Z" fill="#002B55"/>
<path d="M53.4434 21.1601C53.4434 21.281 53.4672 21.4007 53.5136 21.5122C53.56 21.6238 53.628 21.7251 53.7137 21.8103C53.7994 21.8955 53.9011 21.963 54.0129 22.0088C54.1247 22.0546 54.2445 22.0778 54.3653 22.0771H54.861C54.9836 22.0778 55.105 22.054 55.2182 22.007C55.3313 21.9599 55.4339 21.8907 55.5198 21.8034C55.6058 21.7161 55.6733 21.6124 55.7185 21.4985C55.7637 21.3846 55.7857 21.2628 55.783 21.1403C55.7533 20.1786 55.9317 18.7412 57.1412 18.1315C59.0348 17.1748 72.6464 11.1224 72.6464 11.1224L72.5126 10.9836C72.4213 10.8932 72.3056 10.8314 72.1796 10.8059C72.0537 10.7803 71.923 10.7922 71.8037 10.8399L56.1399 17.0756H56.0854C55.7929 17.2591 53.4434 18.528 53.4434 21.1601Z" fill="#002B55"/>
<path d="M76.7759 9.3926L74.2975 10.6318C74.097 10.3033 73.967 9.93667 73.9156 9.55525C73.8641 9.17383 73.8925 8.7859 73.9987 8.41598C74.105 8.04607 74.2868 7.7022 74.5328 7.40621C74.7788 7.11022 75.0836 6.86856 75.4278 6.69644C75.7721 6.52432 76.1483 6.4255 76.5327 6.4063C76.9171 6.38709 77.3013 6.44791 77.661 6.58486C78.0206 6.72181 78.348 6.93193 78.6223 7.20193C78.8965 7.47193 79.1118 7.79589 79.2544 8.15337L76.7759 9.3926Z" fill="#002B55"/>
<path d="M100.847 1.02026C100.627 0.589484 100.248 0.260696 99.7907 0.102699C99.3333 -0.0552987 98.8326 -0.0302332 98.3933 0.172647L59.7294 17.9679C59.295 18.1872 58.9625 18.5665 58.8022 19.026C58.6418 19.4855 58.666 19.9892 58.8697 20.4312C59.0733 20.8732 59.4406 21.219 59.894 21.3956C60.3475 21.5723 60.8518 21.566 61.3008 21.3782L71.9184 16.4907C71.7147 17.2928 71.4597 18.0809 71.1551 18.8502C70.7337 19.7623 69.2962 23.1083 70.2529 23.1083C71.2096 23.1083 73.7575 19.2022 80.132 16.4561C86.5066 13.7099 91.8154 13.7595 91.7659 13.2836C91.7163 12.8078 85.3764 10.3095 85.3764 10.3095L99.9398 3.60279C100.175 3.49953 100.386 3.34915 100.56 3.16089C100.735 2.97263 100.869 2.7505 100.954 2.50836C101.039 2.26622 101.073 2.00919 101.055 1.75321C101.036 1.49722 100.966 1.24776 100.847 1.02026Z" fill="#002B55"/>
</g>
<defs>
<clipPath id="clip0">
<rect width="192" height="80" fill="white"/>
</clipPath>
</defs>
</svg>
