<svg width="192" height="80" viewBox="0 0 192 80" fill="none" xmlns="http://www.w3.org/2000/svg">
<g clip-path="url(#clip0)">
<path d="M26.437 47.6607C25.4916 48.0242 24.4933 48.2079 23.4642 48.2079C22.3419 48.2079 21.2561 47.9886 20.2347 47.5568C19.247 47.1394 18.3593 46.5402 17.5957 45.7766C16.8321 45.013 16.2339 44.1253 15.8156 43.1376C15.3837 42.1162 15.1645 41.0304 15.1645 39.9081C15.1645 38.7858 15.3837 37.7 15.8156 36.6786C16.2329 35.6909 16.8321 34.8032 17.5957 34.0396C18.3593 33.276 19.247 32.6778 20.2347 32.2594C21.2561 31.8276 22.3419 31.6083 23.4642 31.6083C24.5866 31.6083 25.6724 31.8276 26.6938 32.2594C27.6815 32.6768 28.5691 33.276 29.3328 34.0396C30.0964 34.8032 30.6946 35.6909 31.1129 36.6786C31.5447 37.7 31.764 38.7858 31.764 39.9081C31.764 41.0304 31.5447 42.1162 31.1129 43.1376C30.9321 43.5646 30.7177 43.9724 30.4714 44.36L32.9825 46.9201C34.43 44.9582 35.2859 42.5336 35.2859 39.9091C35.2859 33.3798 29.9935 28.0874 23.4642 28.0874C16.935 28.0874 11.6426 33.3798 11.6426 39.9081C11.6426 46.4364 16.935 51.7298 23.4642 51.7298C25.2935 51.7298 27.0246 51.3143 28.5701 50.5728L26.437 47.6607Z" fill="#17224B"/>
<path d="M35.0096 52.7455L30.1797 52.8407L22.7695 42.5684L25.1902 42.5847L35.0096 52.7455Z" fill="#00B4DC"/>
</g>
<path d="M117.887 45.6866H119.244V37.9689H117.887V38.8887C117.46 38.339 116.843 37.8455 115.867 37.8455C114.454 37.8455 113.119 38.956 113.119 40.9191V40.9415C113.119 42.9046 114.476 44.0152 115.867 44.0152C116.832 44.0152 117.449 43.5216 117.887 42.9046V45.6866ZM116.193 42.8373C115.273 42.8373 114.488 42.0857 114.488 40.9415V40.9191C114.488 39.7412 115.262 39.0233 116.193 39.0233C117.101 39.0233 117.909 39.7749 117.909 40.9191V40.9415C117.909 42.0745 117.101 42.8373 116.193 42.8373Z" fill="#00B4DC"/>
<path d="M122.979 44.0152C123.898 44.0152 124.448 43.5328 124.83 42.9719V43.8918H126.187V37.9689H124.83V41.3117C124.83 42.2316 124.28 42.7812 123.495 42.7812C122.687 42.7812 122.227 42.254 122.227 41.3342V37.9689H120.87V41.738C120.87 43.1178 121.644 44.0152 122.979 44.0152Z" fill="#00B4DC"/>
<path d="M132.863 43.8918V40.3807C132.863 38.799 132.01 37.8791 130.26 37.8791C129.295 37.8791 128.656 38.081 128.005 38.3727L128.376 39.4608C128.914 39.2365 129.408 39.0906 130.07 39.0906C131.012 39.0906 131.528 39.5393 131.528 40.3582V40.4704C131.068 40.3246 130.608 40.2236 129.89 40.2236C128.51 40.2236 127.489 40.8518 127.489 42.1643V42.1867C127.489 43.3758 128.477 44.0152 129.598 44.0152C130.496 44.0152 131.113 43.645 131.517 43.1626V43.8918H132.863ZM131.55 41.7492C131.55 42.4896 130.877 42.9944 129.98 42.9944C129.34 42.9944 128.836 42.6803 128.836 42.1194V42.097C128.836 41.5249 129.34 41.1771 130.193 41.1771C130.72 41.1771 131.202 41.2781 131.55 41.4127V41.7492Z" fill="#00B4DC"/>
<path d="M134.477 43.8918H135.834V41.637C135.834 40.0666 136.665 39.2925 137.854 39.2925H137.932V37.8567C136.889 37.8118 136.205 38.4176 135.834 39.3038V37.9689H134.477V43.8918Z" fill="#00B4DC"/>
<path d="M141.096 43.9928C141.601 43.9928 141.983 43.8806 142.319 43.6899V42.5793C142.05 42.7139 141.781 42.7812 141.478 42.7812C141.018 42.7812 140.749 42.5681 140.749 42.0409V39.1355H142.342V37.9689H140.749V36.3423H139.391V37.9689H138.64V39.1355H139.391V42.254C139.391 43.5553 140.098 43.9928 141.096 43.9928Z" fill="#00B4DC"/>
<path d="M146.262 44.0264C147.35 44.0264 148.124 43.5889 148.685 42.9159L147.889 42.2091C147.418 42.6691 146.947 42.9159 146.285 42.9159C145.41 42.9159 144.726 42.3774 144.58 41.4127H148.932C148.943 41.2781 148.955 41.1547 148.955 41.0313C148.955 39.3262 148.001 37.8455 146.117 37.8455C144.423 37.8455 143.222 39.2365 143.222 40.9303V40.9528C143.222 42.7812 144.546 44.0264 146.262 44.0264ZM144.568 40.5153C144.692 39.5954 145.275 38.956 146.105 38.956C147.003 38.956 147.519 39.6403 147.608 40.5153H144.568Z" fill="#00B4DC"/>
<path d="M150.318 43.8918H151.675V41.637C151.675 40.0666 152.505 39.2925 153.694 39.2925H153.773V37.8567C152.729 37.8118 152.045 38.4176 151.675 39.3038V37.9689H150.318V43.8918Z" fill="#00B4DC"/>
<path d="M158.317 44.0152C159.73 44.0152 161.076 42.9046 161.076 40.9415V40.9191C161.076 38.956 159.719 37.8455 158.317 37.8455C157.363 37.8455 156.746 38.339 156.309 38.956V35.7029H154.952V43.8918H156.309V42.9719C156.724 43.5216 157.341 44.0152 158.317 44.0152ZM158.003 42.8373C157.083 42.8373 156.275 42.0857 156.275 40.9415V40.9191C156.275 39.7861 157.083 39.0233 158.003 39.0233C158.923 39.0233 159.697 39.7749 159.697 40.9191V40.9415C159.697 42.1082 158.934 42.8373 158.003 42.8373Z" fill="#00B4DC"/>
<path d="M167.436 43.8918V40.3807C167.436 38.799 166.583 37.8791 164.833 37.8791C163.869 37.8791 163.229 38.081 162.579 38.3727L162.949 39.4608C163.487 39.2365 163.981 39.0906 164.643 39.0906C165.585 39.0906 166.101 39.5393 166.101 40.3582V40.4704C165.641 40.3246 165.181 40.2236 164.463 40.2236C163.084 40.2236 162.063 40.8518 162.063 42.1643V42.1867C162.063 43.3758 163.05 44.0152 164.172 44.0152C165.069 44.0152 165.686 43.645 166.09 43.1626V43.8918H167.436ZM166.124 41.7492C166.124 42.4896 165.45 42.9944 164.553 42.9944C163.914 42.9944 163.409 42.6803 163.409 42.1194V42.097C163.409 41.5249 163.914 41.1771 164.766 41.1771C165.293 41.1771 165.776 41.2781 166.124 41.4127V41.7492Z" fill="#00B4DC"/>
<path d="M171.787 44.0264C172.943 44.0264 173.627 43.5665 174.21 42.9159L173.392 42.1082C172.965 42.5457 172.494 42.8485 171.855 42.8485C170.812 42.8485 170.082 41.996 170.082 40.9415V40.9191C170.082 39.8871 170.8 39.0345 171.787 39.0345C172.472 39.0345 172.909 39.3374 173.324 39.7749L174.166 38.8663C173.616 38.2605 172.92 37.8455 171.799 37.8455C170.026 37.8455 168.725 39.2589 168.725 40.9415V40.964C168.725 42.6466 170.026 44.0264 171.787 44.0264Z" fill="#00B4DC"/>
<path d="M175.459 43.8918H176.816V42.1979L177.646 41.3342L179.43 43.8918H181L178.566 40.3807L180.922 37.9689H179.273L176.816 40.5938V35.7029H175.459V43.8918Z" fill="#00B4DC"/>
<path d="M41.7891 37.0602H43.2474V35.7702H41.7891V37.0602ZM41.8452 43.8918H43.2025V37.9689H41.8452V43.8918Z" fill="black"/>
<path d="M44.9764 43.8918H46.3337V40.5489C46.3337 39.6291 46.8834 39.0794 47.6686 39.0794C48.4763 39.0794 48.9362 39.6066 48.9362 40.5265V43.8918H50.2936V40.1227C50.2936 38.7429 49.5195 37.8455 48.1846 37.8455C47.2648 37.8455 46.7151 38.3278 46.3337 38.8887V37.9689H44.9764V43.8918Z" fill="black"/>
<path d="M53.9182 43.9928C54.423 43.9928 54.8044 43.8806 55.1409 43.6899V42.5793C54.8717 42.7139 54.6025 42.7812 54.2996 42.7812C53.8397 42.7812 53.5704 42.5681 53.5704 42.0409V39.1355H55.1634V37.9689H53.5704V36.3423H52.2131V37.9689H51.4615V39.1355H52.2131V42.254C52.2131 43.5553 52.9198 43.9928 53.9182 43.9928Z" fill="black"/>
<path d="M59.084 44.0264C60.1721 44.0264 60.9462 43.5889 61.507 42.9159L60.7106 42.2091C60.2394 42.6691 59.7683 42.9159 59.1065 42.9159C58.2315 42.9159 57.5472 42.3774 57.4014 41.4127H61.7538C61.765 41.2781 61.7763 41.1547 61.7763 41.0313C61.7763 39.3262 60.8228 37.8455 58.9382 37.8455C57.2443 37.8455 56.044 39.2365 56.044 40.9303V40.9528C56.044 42.7812 57.3677 44.0264 59.084 44.0264ZM57.3902 40.5153C57.5135 39.5954 58.0969 38.956 58.927 38.956C59.8244 38.956 60.3404 39.6403 60.4301 40.5153H57.3902Z" fill="black"/>
<path d="M63.1394 43.8918H64.4967V41.637C64.4967 40.0666 65.3268 39.2925 66.5159 39.2925H66.5944V37.8567C65.5512 37.8118 64.8669 38.4176 64.4967 39.3038V37.9689H63.1394V43.8918Z" fill="black"/>
<path d="M67.7733 43.8918H69.1306V40.5489C69.1306 39.6291 69.6803 39.0794 70.4655 39.0794C71.2732 39.0794 71.7331 39.6066 71.7331 40.5265V43.8918H73.0904V40.1227C73.0904 38.7429 72.3164 37.8455 70.9815 37.8455C70.0617 37.8455 69.512 38.3278 69.1306 38.8887V37.9689H67.7733V43.8918Z" fill="black"/>
<path d="M79.699 43.8918V40.3807C79.699 38.799 78.8464 37.8791 77.0965 37.8791C76.1318 37.8791 75.4923 38.081 74.8417 38.3727L75.2119 39.4608C75.7504 39.2365 76.2439 39.0906 76.9058 39.0906C77.8481 39.0906 78.3641 39.5393 78.3641 40.3582V40.4704C77.9042 40.3246 77.4442 40.2236 76.7263 40.2236C75.3465 40.2236 74.3257 40.8518 74.3257 42.1643V42.1867C74.3257 43.3758 75.3129 44.0152 76.4346 44.0152C77.332 44.0152 77.949 43.645 78.3529 43.1626V43.8918H79.699ZM78.3865 41.7492C78.3865 42.4896 77.7134 42.9944 76.816 42.9944C76.1766 42.9944 75.6718 42.6803 75.6718 42.1194V42.097C75.6718 41.5249 76.1766 41.1771 77.0292 41.1771C77.5564 41.1771 78.0388 41.2781 78.3865 41.4127V41.7492Z" fill="black"/>
<path d="M83.2441 43.9928C83.7489 43.9928 84.1303 43.8806 84.4668 43.6899V42.5793C84.1976 42.7139 83.9284 42.7812 83.6255 42.7812C83.1656 42.7812 82.8964 42.5681 82.8964 42.0409V39.1355H84.4893V37.9689H82.8964V36.3423H81.539V37.9689H80.7874V39.1355H81.539V42.254C81.539 43.5553 82.2457 43.9928 83.2441 43.9928Z" fill="black"/>
<path d="M85.882 37.0602H87.3403V35.7702H85.882V37.0602ZM85.9381 43.8918H87.2955V37.9689H85.9381V43.8918Z" fill="black"/>
<path d="M91.885 44.0264C93.7135 44.0264 95.0596 42.6242 95.0596 40.9415V40.9191C95.0596 39.2252 93.7247 37.8455 91.9074 37.8455C90.0902 37.8455 88.744 39.2477 88.744 40.9415V40.964C88.744 42.6466 90.0789 44.0264 91.885 44.0264ZM91.9074 42.8485C90.853 42.8485 90.1014 41.9736 90.1014 40.9415V40.9191C90.1014 39.8871 90.7969 39.0345 91.885 39.0345C92.9507 39.0345 93.7023 39.8983 93.7023 40.9415V40.964C93.7023 41.9848 93.0068 42.8485 91.9074 42.8485Z" fill="black"/>
<path d="M96.4419 43.8918H97.7992V40.5489C97.7992 39.6291 98.3489 39.0794 99.1342 39.0794C99.9418 39.0794 100.402 39.6066 100.402 40.5265V43.8918H101.759V40.1227C101.759 38.7429 100.985 37.8455 99.6502 37.8455C98.7303 37.8455 98.1806 38.3278 97.7992 38.8887V37.9689H96.4419V43.8918Z" fill="black"/>
<path d="M108.368 43.8918V40.3807C108.368 38.799 107.515 37.8791 105.765 37.8791C104.8 37.8791 104.161 38.081 103.51 38.3727L103.881 39.4608C104.419 39.2365 104.913 39.0906 105.574 39.0906C106.517 39.0906 107.033 39.5393 107.033 40.3582V40.4704C106.573 40.3246 106.113 40.2236 105.395 40.2236C104.015 40.2236 102.994 40.8518 102.994 42.1643V42.1867C102.994 43.3758 103.982 44.0152 105.103 44.0152C106.001 44.0152 106.618 43.645 107.021 43.1626V43.8918H108.368ZM107.055 41.7492C107.055 42.4896 106.382 42.9944 105.485 42.9944C104.845 42.9944 104.34 42.6803 104.34 42.1194V42.097C104.34 41.5249 104.845 41.1771 105.698 41.1771C106.225 41.1771 106.707 41.2781 107.055 41.4127V41.7492Z" fill="black"/>
<path d="M110.061 43.8918H111.418V35.7029H110.061V43.8918Z" fill="black"/>
<defs>
<clipPath id="clip0">
<rect width="24.9282" height="24.9282" fill="white" transform="translate(11 28)"/>
</clipPath>
</defs>
</svg>
