<svg width="192" height="80" viewBox="0 0 192 80" fill="none" xmlns="http://www.w3.org/2000/svg">
<path fill-rule="evenodd" clip-rule="evenodd" d="M65.0921 10.5151C67.9372 10.5151 70.2436 12.8215 70.2436 15.6667V52.346C70.2436 55.625 68.941 58.7697 66.6224 61.0884L63.5832 64.1275C61.5715 66.1393 58.3097 66.1393 56.2979 64.1275C54.2861 62.1157 54.2861 58.854 56.2979 56.8422L59.337 53.803C59.7235 53.4166 59.9406 52.8925 59.9406 52.346V15.6667C59.9406 12.8215 62.247 10.5151 65.0921 10.5151Z" fill="#1C368F"/>
<path fill-rule="evenodd" clip-rule="evenodd" d="M81.0597 10.5151C83.9048 10.5151 86.2112 12.8215 86.2112 15.6667V45.0303C86.2112 47.8754 83.9048 50.1818 81.0597 50.1818C78.2146 50.1818 75.9082 47.8754 75.9082 45.0303V15.6667C75.9082 12.8215 78.2146 10.5151 81.0597 10.5151Z" fill="#1C368F"/>
<path fill-rule="evenodd" clip-rule="evenodd" d="M97.546 10.5151C100.391 10.5151 102.698 12.8215 102.698 15.6667V45.0303C102.698 47.8754 100.391 50.1818 97.546 50.1818C94.7009 50.1818 92.3945 47.8754 92.3945 45.0303V15.6667C92.3945 12.8215 94.7009 10.5151 97.546 10.5151Z" fill="#1C368F"/>
<path fill-rule="evenodd" clip-rule="evenodd" d="M120.212 16.697C123.057 16.697 125.364 19.0034 125.364 21.8485V45.0304C125.364 47.8755 123.057 50.1819 120.212 50.1819C117.367 50.1819 115.061 47.8755 115.061 45.0304V21.8485C115.061 19.0034 117.367 16.697 120.212 16.697Z" fill="#1C368F"/>
<path fill-rule="evenodd" clip-rule="evenodd" d="M142.878 16.697C145.723 16.697 148.03 19.0034 148.03 21.8485V45.0304C148.03 47.8755 145.723 50.1819 142.878 50.1819C140.033 50.1819 137.727 47.8755 137.727 45.0304V21.8485C137.727 19.0034 140.033 16.697 142.878 16.697Z" fill="#1C368F"/>
<path d="M115.062 23.9091C110.94 15.1515 103.728 19.2727 102.182 24.4242C101.323 23.3939 98.7834 20.6121 99.6076 17.7273C100.638 14.1212 105.274 10 112.486 10C118.256 10 121.759 13.7778 122.789 15.6667C123.133 13.7778 126.086 10 135.153 10C144.22 10 148.032 17.2121 148.032 22.3636L138.243 25.4545C133.606 13.6061 125.364 19.7879 124.849 25.4545L115.062 23.9091Z" fill="#1C368F"/>
<path d="M180.999 17.7273C180.999 11.5455 172.242 10 167.605 10C162.968 10 153.182 11.1254 153.182 21.8485C153.182 35.7576 171.212 32.1515 171.212 38.8485C171.212 41.9394 165.03 41.9394 161.424 39.3636C157.818 36.7879 151.121 36.2727 151.121 42.4545C151.121 47.6061 160.909 51.2121 167.091 51.2121C174.321 51.2121 180.999 45.5455 181 39.3636C181.001 33.697 180.999 30.6061 169.666 27C158.332 23.3939 162.969 17.2121 167.09 19.2727C171.211 21.3333 180.999 25.4545 180.999 17.7273Z" fill="#1C368F"/>
<circle cx="45.5163" cy="15.6667" r="5.66667" fill="#F00000"/>
<circle cx="45.5163" cy="30.091" r="5.66667" fill="#F00000"/>
<circle cx="31.0905" cy="30.091" r="5.66667" fill="#F00000"/>
<circle cx="45.5163" cy="44.5151" r="5.66667" fill="#F00000"/>
<circle cx="31.0905" cy="44.5151" r="5.66667" fill="#F00000"/>
<circle cx="16.6667" cy="44.5151" r="5.66667" fill="#F00000"/>
<path d="M76.4844 63.5135C76.4844 65.8975 78.1004 67.5775 80.3564 67.5775C81.6364 67.5775 82.6124 67.1295 83.3804 66.3295L82.9484 65.7855C82.2924 66.4895 81.3964 66.8575 80.4204 66.8575C78.5964 66.8575 77.4764 65.4655 77.3964 63.7855H83.8604V63.5615C83.8604 61.3375 82.5644 59.4655 80.2124 59.4655C78.0684 59.4655 76.4844 61.2735 76.4844 63.5135ZM80.1964 60.1855C82.1324 60.1855 82.9964 61.8175 83.0124 63.1295H77.3964C77.4604 61.7855 78.3724 60.1855 80.1964 60.1855Z" fill="black"/>
<path d="M92.0585 67.3855V61.9775C92.0585 60.2335 91.1945 59.4655 89.6265 59.4655C88.5065 59.4655 87.4025 60.1535 86.8425 60.8255V59.6575H86.0105V67.3855H86.8425V61.5455C87.3385 60.8415 88.3625 60.2175 89.3545 60.2175C90.4745 60.2175 91.2265 60.6655 91.2265 62.1535V67.3855H92.0585Z" fill="black"/>
<path d="M95.0671 58.3455C95.4191 58.3455 95.7071 58.0575 95.7071 57.7055C95.7071 57.3535 95.4191 57.0655 95.0671 57.0655C94.7311 57.0655 94.4271 57.3535 94.4271 57.7055C94.4271 58.0575 94.7311 58.3455 95.0671 58.3455ZM94.6511 59.6575V68.3775C94.6511 69.3855 94.1231 69.7855 93.3711 69.7855C93.1151 69.7855 92.9071 69.7375 92.7151 69.6735L92.5551 70.3935C92.8111 70.4735 93.1151 70.5215 93.4351 70.5215C94.7151 70.5215 95.4831 69.8015 95.4831 68.3775V59.6575H94.6511Z" fill="black"/>
<path d="M101.337 67.5775C103.625 67.5775 105.065 65.7695 105.065 63.5135C105.065 61.2575 103.625 59.4655 101.337 59.4655C99.081 59.4655 97.625 61.2575 97.625 63.5135C97.625 65.7695 99.081 67.5775 101.337 67.5775ZM101.337 66.8255C99.545 66.8255 98.521 65.2415 98.521 63.5135C98.521 61.8015 99.545 60.2175 101.337 60.2175C103.161 60.2175 104.169 61.8015 104.169 63.5135C104.169 65.2415 103.161 66.8255 101.337 66.8255Z" fill="black"/>
<path d="M106.702 70.4095C106.91 70.4735 107.262 70.5215 107.518 70.5215C108.43 70.5215 109.086 70.0575 109.502 69.0815L113.502 59.6575H112.558L109.774 66.4095L106.958 59.6575H106.03L109.294 67.4495L108.686 68.8255C108.382 69.5615 108.03 69.7695 107.518 69.7695C107.326 69.7695 107.022 69.7215 106.846 69.6415L106.702 70.4095Z" fill="black"/>
<path d="M120.161 60.3935H121.729V59.6575H120.161V58.9535C120.161 57.8815 120.625 57.2735 121.505 57.2735C121.809 57.2735 122.017 57.3375 122.209 57.4495L122.465 56.7935C122.161 56.6175 121.809 56.5535 121.425 56.5535C120.145 56.5535 119.329 57.4335 119.329 58.9535V59.6575H118.049V60.3935H119.329V67.3855H120.161V60.3935ZM123.713 58.3455C124.065 58.3455 124.353 58.0575 124.353 57.7055C124.353 57.3535 124.065 57.0655 123.713 57.0655C123.377 57.0655 123.073 57.3535 123.073 57.7055C123.073 58.0575 123.377 58.3455 123.713 58.3455ZM124.129 67.3855V59.6575H123.297V67.3855H124.129Z" fill="black"/>
<path d="M128.378 67.5775C129.018 67.5775 129.386 67.3855 129.69 67.0975L129.37 66.4575C129.194 66.6495 128.874 66.8255 128.506 66.8255C127.962 66.8255 127.706 66.3935 127.706 65.7695V60.3935H129.274V59.6575H127.706V57.5455H126.858V59.6575H125.578V60.3935H126.858V65.8975C126.858 66.9535 127.354 67.5775 128.378 67.5775Z" fill="black"/>
<path d="M137.152 67.3855V61.9775C137.152 60.2335 136.288 59.4655 134.72 59.4655C133.6 59.4655 132.496 60.1535 131.936 60.8255V59.6575H131.104V67.3855H131.936V61.5455C132.432 60.8415 133.456 60.2175 134.448 60.2175C135.568 60.2175 136.32 60.6655 136.32 62.1535V67.3855H137.152Z" fill="black"/>
<path d="M139.297 63.5135C139.297 65.8975 140.913 67.5775 143.169 67.5775C144.449 67.5775 145.425 67.1295 146.193 66.3295L145.761 65.7855C145.105 66.4895 144.209 66.8575 143.233 66.8575C141.409 66.8575 140.289 65.4655 140.209 63.7855H146.673V63.5615C146.673 61.3375 145.377 59.4655 143.025 59.4655C140.881 59.4655 139.297 61.2735 139.297 63.5135ZM143.009 60.1855C144.945 60.1855 145.809 61.8175 145.825 63.1295H140.209C140.273 61.7855 141.185 60.1855 143.009 60.1855Z" fill="black"/>
<path d="M148.151 66.3615C148.919 67.2095 149.879 67.5775 151.127 67.5775C153.063 67.5775 154.023 66.5535 154.023 65.3055C154.023 63.6575 152.535 63.2895 151.207 62.9535C150.135 62.6815 149.143 62.4415 149.143 61.5615C149.143 60.7615 149.879 60.1695 151.079 60.1695C152.103 60.1695 152.935 60.5855 153.383 61.1935L153.847 60.6015C153.287 59.9775 152.407 59.4655 151.079 59.4655C149.335 59.4655 148.327 60.4255 148.327 61.6095C148.327 63.1135 149.751 63.4495 151.047 63.7695C152.151 64.0575 153.207 64.3455 153.207 65.3375C153.207 66.2335 152.439 66.8735 151.143 66.8735C150.055 66.8735 149.143 66.3615 148.647 65.7375L148.151 66.3615Z" fill="black"/>
<path d="M155.495 66.3615C156.263 67.2095 157.223 67.5775 158.471 67.5775C160.407 67.5775 161.367 66.5535 161.367 65.3055C161.367 63.6575 159.879 63.2895 158.551 62.9535C157.479 62.6815 156.487 62.4415 156.487 61.5615C156.487 60.7615 157.223 60.1695 158.423 60.1695C159.447 60.1695 160.279 60.5855 160.727 61.1935L161.191 60.6015C160.631 59.9775 159.751 59.4655 158.423 59.4655C156.679 59.4655 155.671 60.4255 155.671 61.6095C155.671 63.1135 157.095 63.4495 158.391 63.7695C159.495 64.0575 160.551 64.3455 160.551 65.3375C160.551 66.2335 159.783 66.8735 158.487 66.8735C157.399 66.8735 156.487 66.3615 155.991 65.7375L155.495 66.3615Z" fill="black"/>
</svg>
