<svg width="192" height="80" viewBox="0 0 192 80" fill="none" xmlns="http://www.w3.org/2000/svg">
<path d="M11.1465 43.265V36.9454H12.8821V41.7518H15.7482V43.265H11.1465Z" fill="black"/>
<path d="M22.9398 43.265V36.9454H24.6754V43.265H22.9398Z" fill="black"/>
<path d="M33.5708 36.9454L34.808 41.0843L36.0274 36.9454H37.8521L35.529 43.265H34.087L31.7372 36.9454H33.5708Z" fill="black"/>
<path d="M44.9182 43.265V36.9454H46.6539V43.265H44.9182Z" fill="black"/>
<path d="M56.0655 40.1586V43.265H54.3299V36.9454H55.6828L58.2195 40.1586V36.9454H59.9552V43.265H58.5756L56.0655 40.1586Z" fill="black"/>
<path d="M71.9171 42.7398C71.4661 43.1196 70.9469 43.3095 70.3594 43.3095C69.95 43.3095 69.5584 43.2383 69.1845 43.0959C68.8107 42.9475 68.4843 42.7339 68.2054 42.455C67.9265 42.1761 67.704 41.8349 67.5379 41.4314C67.3717 41.0279 67.2886 40.568 67.2886 40.0518C67.2886 39.6067 67.3717 39.1943 67.5379 38.8146C67.704 38.4289 67.9325 38.0966 68.2232 37.8177C68.514 37.5328 68.8552 37.3103 69.2468 37.1501C69.6444 36.984 70.0716 36.9009 70.5286 36.9009C70.8134 36.9009 71.0863 36.9335 71.3474 36.9988C71.6085 37.0581 71.8489 37.1501 72.0684 37.2747C72.2939 37.3934 72.4956 37.5388 72.6737 37.7109C72.8517 37.877 72.9971 38.0669 73.1098 38.2805L71.8192 39.2685C71.6946 39.0193 71.5076 38.8205 71.2584 38.6721C71.0092 38.5179 70.7451 38.4407 70.4662 38.4407C70.2586 38.4407 70.0687 38.4823 69.8966 38.5653C69.7245 38.6484 69.5762 38.7641 69.4516 38.9125C69.3269 39.0608 69.229 39.2388 69.1578 39.4465C69.0866 39.6483 69.051 39.8708 69.051 40.1141C69.051 40.3633 69.0866 40.5888 69.1578 40.7905C69.229 40.9923 69.3269 41.1674 69.4516 41.3157C69.5821 41.4581 69.7364 41.5709 69.9144 41.6539C70.0924 41.7311 70.2912 41.7696 70.5108 41.7696C71.0151 41.7696 71.4602 41.562 71.8459 41.1466H70.7511V39.9005H73.3501V43.265H71.9171V42.7398Z" fill="black"/>
<path d="M116.383 42.5656L119.338 39.0498H116.516V37.5366H121.341V38.8272L118.564 42.3431H121.394V43.8562H116.383V42.5656Z" fill="black"/>
<path d="M133.313 42.3431V43.8562H128.809V37.5366H133.233V39.0498H130.545V39.9399H132.841V41.3462H130.545V42.3431H133.313Z" fill="black"/>
<path d="M142.442 40.7498V43.8562H140.707V37.5366H142.06L144.596 40.7498V37.5366H146.332V43.8562H144.952L142.442 40.7498Z" fill="black"/>
<path d="M154.004 43.8562V37.5366H155.739V43.8562H154.004Z" fill="black"/>
<path d="M168.337 39.0498H166.522V43.8562H164.786V39.0498H162.961V37.5366H168.337V39.0498Z" fill="black"/>
<path d="M181.146 37.5366V43.8562H179.41V41.3818H177.292V43.8562H175.556V37.5366H177.292V39.8686H179.41V37.5366H181.146Z" fill="black"/>
<path fill-rule="evenodd" clip-rule="evenodd" d="M94.2082 50.8273C99.9683 50.8273 104.638 46.1578 104.638 40.3976C104.638 34.6374 99.9683 29.9679 94.2082 29.9679C88.448 29.9679 83.7784 34.6374 83.7784 40.3976C83.7784 46.1578 88.448 50.8273 94.2082 50.8273ZM94.2082 52.7952C101.055 52.7952 106.606 47.2446 106.606 40.3976C106.606 33.5506 101.055 28 94.2082 28C87.3611 28 81.8105 33.5506 81.8105 40.3976C81.8105 47.2446 87.3611 52.7952 94.2082 52.7952Z" fill="#48A9C4"/>
<path d="M97.7996 36.0682L99.0295 34.002H89.8789V36.0682H97.7996Z" fill="#7E553A"/>
<path d="M92.0454 46.3996L90.9609 44.3334H99.0292V46.3996H92.0454Z" fill="#48A9C4"/>
<path d="M92.0432 46.3996L97.1597 37.1506H94.5031L89.1406 46.3996H92.0432Z" fill="#48A9C4"/>
</svg>
