<svg width="192" height="80" viewBox="0 0 192 80" fill="none" xmlns="http://www.w3.org/2000/svg">
<path d="M50.073 37.5828H46.6025V24H49.7738L55.9968 32.1976V24H59.4673V37.5828H56.296L50.1927 29.3853V37.5828H50.073ZM103.806 50.2681L97.6428 42.0705H94.4714V55.6533H97.9419V47.4558L104.105 55.6533H107.276V42.1304H103.806V50.2681ZM164.899 50.2681L158.735 42.0705H155.564V55.6533H159.035V47.4558L165.198 55.6533H168.369V42.1304H164.899V50.2681ZM28.3525 24L25.6 32.4369L22.9074 24H20.1549L17.4623 32.4967L14.7098 24H11L15.9664 37.5828H18.9582L21.6508 29.5648L24.2238 37.5828H27.2156L32.182 24H28.3525ZM34.8746 37.5828H38.764L45.5853 24H41.8156L39.0632 29.3853L36.4902 24H32.541L37.2082 32.9754L34.8746 37.5828ZM67.4255 37.5828H61.7411V24H67.4255C72.0927 24 74.7255 27.291 74.7255 30.7615C74.6657 34.232 72.0927 37.5828 67.4255 37.5828ZM67.1862 34.6508C69.6394 34.6508 71.1353 32.7361 71.1353 30.7615C71.1353 28.7869 69.6993 26.8721 67.1862 26.8721H65.2714V34.5312H67.1862V34.6508ZM79.8116 32.3771H85.1968V37.5828H88.7272V24H85.1968V29.3853H79.7518V24H76.2214V37.5828H79.7518V32.3771H79.8116ZM94.0526 35.6681L93.3346 37.5828H89.6846L95.0698 24H98.6001L103.866 37.5828H100.216L99.5575 35.6681H94.0526ZM95.0698 32.9754H98.7796L96.9846 27.8295L95.0698 32.9754ZM51.2697 48.8918C51.2697 52.3623 48.6968 55.6533 43.9697 55.6533H38.2853V42.1304H43.9099C48.6369 42.1304 51.2697 45.3615 51.2697 48.8918ZM47.6197 48.8918C47.6197 46.9173 46.1837 45.0025 43.6705 45.0025H41.7558V52.6615H43.6705C46.2435 52.6615 47.6197 50.8664 47.6197 48.8918ZM52.9451 55.5935H62.2198V52.9009H56.4755V50.1484H61.9206V47.5755H56.4755V44.7632H62.2198V42.0705H52.9451V55.5935ZM75.9222 45.0623H79.6919V55.5935H83.1624V45.0623H87.0518V42.1304H75.9222C75.9222 42.1304 75.9222 45.0623 75.9222 45.0623ZM88.6673 55.5935H92.1977V42.1304H88.6673V55.5935ZM117.329 42.1304L122.594 55.7132H118.944L118.286 53.7984H112.721L112.003 55.7132H108.353L113.739 42.1304H117.329ZM117.389 51.0459L115.594 45.9L113.679 51.0459H117.389ZM121.218 45.0623H124.988V55.5935H128.458V45.0623H132.348V42.1304H121.218V45.0623ZM133.903 55.5935H137.434V42.1304H133.903V55.5935ZM153.949 48.8918C153.949 52.6017 151.196 56.0123 146.529 56.0123C141.802 56.0123 139.109 52.6017 139.109 48.8918C139.109 45.182 141.862 41.7115 146.529 41.7115C151.196 41.7115 153.949 45.1222 153.949 48.8918ZM150.418 48.8918C150.418 46.8574 148.982 44.8828 146.529 44.8828C144.076 44.8828 142.64 46.8574 142.64 48.8918C142.64 50.9263 144.076 52.9009 146.529 52.9009C148.922 52.841 150.418 50.9263 150.418 48.8918ZM69.8788 47.2164C68.323 46.7976 67.6648 46.3787 67.6648 45.541C67.6648 44.823 68.323 44.2845 69.3403 44.2845C70.4173 44.2845 71.3149 45.0025 71.3149 45.8402H74.7853C74.7853 43.5664 72.9903 41.5918 69.3403 41.5918C66.0493 41.5918 63.955 43.3869 63.955 45.6607C63.955 48.1738 66.1689 49.1312 68.9214 49.9091C70.4173 50.3279 71.1952 50.7468 71.1952 51.7041C71.1952 52.5419 70.4771 53.2 69.2804 53.2C67.8444 53.2 66.887 52.4222 66.887 50.9861H63.4165C63.4165 54.2771 65.9296 55.773 69.1607 55.773C72.6911 55.773 74.7853 54.0378 74.7853 51.3451C74.9649 49.3107 73.1099 48.114 69.8788 47.2164ZM176.088 47.2164C174.532 46.7976 173.874 46.3787 173.874 45.541C173.874 44.823 174.532 44.2845 175.549 44.2845C176.626 44.2845 177.524 45.0025 177.524 45.8402H180.995C180.995 43.5664 179.199 41.5918 175.549 41.5918C172.258 41.5918 170.164 43.3869 170.164 45.6607C170.164 48.1738 172.378 49.1312 175.131 49.9091C176.626 50.3279 177.404 50.7468 177.404 51.7041C177.404 52.5419 176.686 53.2 175.49 53.2C174.054 53.2 173.096 52.4222 173.096 50.9861H169.626C169.626 54.2771 172.139 55.773 175.37 55.773C178.9 55.773 180.995 54.0378 180.995 51.3451C181.114 49.3107 179.259 48.114 176.088 47.2164ZM108.473 29.7443L111.525 34.4713H113.559L116.611 29.6844V37.5828H120.081V24H116.671L112.721 30.5221L108.533 24H105.122V37.5828H108.593V29.8041H108.473V29.7443ZM31.7033 45.541C29.7886 45.541 28.2927 47.0369 28.2927 48.9517C28.2927 50.8664 29.7886 52.3623 31.7033 52.3623C33.6181 52.3623 35.114 50.8664 35.114 48.9517C35.114 47.0369 33.6181 45.541 31.7033 45.541Z" fill="black"/>
</svg>
