<svg width="192" height="80" viewBox="0 0 192 80" fill="none" xmlns="http://www.w3.org/2000/svg">
<path d="M167.369 35.707C163.787 35.707 159.776 33.3708 158.219 32.0081C161.139 29.2826 163.086 24.6103 166.979 24.805C171.5 24.805 174.468 26.83 175.925 28.4309C176.461 29.0207 176.414 29.8969 175.89 30.4978C173.939 32.734 170.448 35.707 167.369 35.707Z" fill="#F59548"/>
<path d="M153.797 23.2597C154.109 26.8281 156.786 30.6196 158.279 32.0524C160.74 28.9058 165.225 26.5592 164.692 22.6974C164.298 18.1938 162.021 15.4134 160.3 14.102C159.665 13.6189 158.797 13.7427 158.244 14.3171C156.186 16.4548 153.529 20.1922 153.797 23.2597Z" fill="black"/>
<path d="M35.8178 38.468C38.0959 38.468 39.833 39.1515 41.0291 40.5184C42.2536 41.8568 42.8658 44.0353 42.8658 47.0538V57.5619C42.8658 58.3877 42.6095 59.0285 42.0969 59.4841C41.6128 59.9112 40.9721 60.1248 40.1747 60.1248C39.4059 60.1248 38.7651 59.9112 38.2525 59.4841C37.7684 59.0285 37.5264 58.3877 37.5264 57.5619V47.0538C37.5264 45.4876 37.2416 44.377 36.6721 43.722C36.131 43.0386 35.2909 42.6969 34.1518 42.6969C32.7565 42.6969 31.6459 43.181 30.82 44.1492C29.9942 45.0889 29.5813 46.3846 29.5813 48.0363V57.5619C29.5813 58.3877 29.325 59.0285 28.8124 59.4841C28.3283 59.9112 27.7018 60.1248 26.9329 60.1248C26.164 60.1248 25.5233 59.9112 25.0107 59.4841C24.4981 59.0285 24.2418 58.3877 24.2418 57.5619V47.0538C24.2418 45.4876 23.9571 44.377 23.3875 43.722C22.8465 43.0386 22.0064 42.6969 20.8673 42.6969C19.4719 42.6969 18.3613 43.181 17.5355 44.1492C16.7381 45.0889 16.3394 46.3846 16.3394 48.0363V57.5619C16.3394 58.3877 16.0832 59.0285 15.5706 59.4841C15.058 59.9112 14.4172 60.1248 13.6484 60.1248C12.8795 60.1248 12.2388 59.9112 11.7262 59.4841C11.2421 59.0285 11 58.3877 11 57.5619V41.031C11 40.2336 11.2563 39.6213 11.7689 39.1942C12.2815 38.767 12.9222 38.5534 13.6911 38.5534C14.4315 38.5534 15.0295 38.767 15.4851 39.1942C15.9692 39.5929 16.2113 40.1766 16.2113 40.9455V41.9707C16.8663 40.8316 17.7348 39.9631 18.817 39.365C19.9276 38.767 21.1948 38.468 22.6186 38.468C25.7511 38.468 27.8442 39.778 28.8978 42.3979C29.5243 41.2018 30.4498 40.2478 31.6743 39.5359C32.8989 38.824 34.28 38.468 35.8178 38.468Z" fill="black"/>
<path d="M57.3484 38.468C60.2531 38.468 62.4031 39.1942 63.7985 40.6465C65.2223 42.0704 65.9342 44.2489 65.9342 47.182V57.6046C65.9342 58.3735 65.7064 58.9857 65.2508 59.4414C64.7952 59.8685 64.1687 60.0821 63.3713 60.0821C62.6309 60.0821 62.0186 59.8543 61.5345 59.3987C61.0789 58.943 60.8511 58.345 60.8511 57.6046V56.6649C60.367 57.7755 59.5981 58.644 58.5444 59.2705C57.5193 59.897 56.3232 60.2102 54.9563 60.2102C53.561 60.2102 52.2937 59.9255 51.1546 59.3559C50.0156 58.7864 49.1185 58.0033 48.4636 57.0066C47.8086 56.0099 47.4811 54.8993 47.4811 53.6748C47.4811 52.137 47.8655 50.9267 48.6344 50.0439C49.4318 49.1612 50.7133 48.5204 52.4788 48.1217C54.2444 47.7231 56.6792 47.5237 59.7832 47.5237H60.8511V46.5413C60.8511 45.1459 60.5521 44.135 59.9541 43.5085C59.356 42.8535 58.3878 42.526 57.0494 42.526C56.2236 42.526 55.3835 42.6541 54.5292 42.9104C53.6749 43.1383 52.6639 43.48 51.4964 43.9356C50.756 44.3058 50.2149 44.4909 49.8732 44.4909C49.3606 44.4909 48.9334 44.3058 48.5917 43.9356C48.2785 43.5654 48.1218 43.0813 48.1218 42.4833C48.1218 41.9992 48.2357 41.5863 48.4636 41.2445C48.7199 40.8743 49.1328 40.5326 49.7023 40.2194C50.699 39.6783 51.8808 39.2511 53.2477 38.9379C54.6431 38.6246 56.01 38.468 57.3484 38.468ZM56.0242 56.3658C57.4481 56.3658 58.6014 55.896 59.4842 54.9562C60.3954 53.988 60.8511 52.7493 60.8511 51.24V50.343H60.0822C58.1742 50.343 56.6934 50.4284 55.6398 50.5992C54.5861 50.7701 53.8315 51.0691 53.3759 51.4963C52.9202 51.9234 52.6924 52.5072 52.6924 53.2476C52.6924 54.1589 53.0057 54.9135 53.6321 55.5115C54.2871 56.0811 55.0845 56.3658 56.0242 56.3658Z" fill="black"/>
<path d="M83.0221 38.5534C83.7625 38.4965 84.3463 38.6531 84.7735 39.0233C85.2006 39.3935 85.4142 39.9488 85.4142 40.6892C85.4142 41.4581 85.2291 42.0276 84.8589 42.3979C84.4887 42.7681 83.8195 43.0101 82.8513 43.124L81.5698 43.2522C79.8897 43.423 78.6509 43.9926 77.8535 44.9608C77.0847 45.929 76.7002 47.1393 76.7002 48.5916V57.5619C76.7002 58.3877 76.4439 59.0285 75.9314 59.4841C75.4188 59.9112 74.778 60.1248 74.0091 60.1248C73.2403 60.1248 72.5995 59.9112 72.0869 59.4841C71.6028 59.0285 71.3608 58.3877 71.3608 57.5619V41.031C71.3608 40.2336 71.6028 39.6213 72.0869 39.1942C72.5995 38.767 73.226 38.5534 73.9664 38.5534C74.7068 38.5534 75.3049 38.767 75.7605 39.1942C76.2161 39.5929 76.4439 40.1766 76.4439 40.9455V42.6541C76.985 41.4012 77.7824 40.4329 78.836 39.7495C79.9181 39.066 81.1142 38.6816 82.4241 38.5962L83.0221 38.5534Z" fill="black"/>
<path d="M103.827 54.1446C104.311 54.1446 104.695 54.3297 104.98 54.6999C105.293 55.0701 105.45 55.5685 105.45 56.195C105.45 57.0778 104.923 57.8182 103.869 58.4162C102.901 58.9573 101.805 59.3987 100.58 59.7404C99.3558 60.0536 98.1883 60.2102 97.0777 60.2102C93.7174 60.2102 91.0548 59.242 89.0898 57.3056C87.1249 55.3692 86.1425 52.7208 86.1425 49.3605C86.1425 47.2247 86.5696 45.331 87.4239 43.6793C88.2783 42.0276 89.4743 40.7462 91.0121 39.8349C92.5783 38.9236 94.3439 38.468 96.3088 38.468C98.1883 38.468 99.8257 38.8809 101.221 39.7068C102.616 40.5326 103.698 41.7002 104.467 43.2094C105.236 44.7187 105.621 46.4985 105.621 48.5489C105.621 49.7734 105.08 50.3857 103.997 50.3857H91.3965C91.5673 52.3506 92.1227 53.8029 93.0624 54.7427C94.0021 55.6539 95.369 56.1096 97.1631 56.1096C98.0744 56.1096 98.8717 55.9956 99.5552 55.7678C100.267 55.54 101.064 55.2268 101.947 54.8281C102.801 54.3725 103.428 54.1446 103.827 54.1446ZM96.4369 42.227C94.9846 42.227 93.817 42.6826 92.9342 43.5939C92.0799 44.5052 91.5673 45.8151 91.3965 47.5237H101.05C100.993 45.7866 100.566 44.4767 99.7687 43.5939C98.9714 42.6826 97.8608 42.227 96.4369 42.227Z" fill="black"/>
<path d="M122.12 38.468C124.626 38.468 126.491 39.1799 127.715 40.6038C128.94 42.0276 129.552 44.1777 129.552 47.0538V57.5619C129.552 58.3592 129.31 58.9857 128.826 59.4414C128.37 59.897 127.73 60.1248 126.904 60.1248C126.078 60.1248 125.423 59.897 124.939 59.4414C124.455 58.9857 124.213 58.3592 124.213 57.5619V47.3529C124.213 45.7297 123.899 44.5479 123.273 43.8075C122.675 43.0671 121.721 42.6969 120.411 42.6969C118.873 42.6969 117.634 43.181 116.695 44.1492C115.783 45.1174 115.328 46.4131 115.328 48.0363V57.5619C115.328 58.3592 115.086 58.9857 114.602 59.4414C114.118 59.897 113.463 60.1248 112.637 60.1248C111.811 60.1248 111.156 59.897 110.672 59.4414C110.216 58.9857 109.988 58.3592 109.988 57.5619V41.031C109.988 40.2905 110.23 39.6925 110.715 39.2369C111.199 38.7813 111.854 38.5534 112.679 38.5534C113.42 38.5534 114.018 38.7813 114.473 39.2369C114.958 39.6641 115.2 40.2336 115.2 40.9455V42.0988C115.912 40.9313 116.866 40.0343 118.062 39.4078C119.258 38.7813 120.61 38.468 122.12 38.468Z" fill="black"/>
<path d="M152.66 38.5534C153.457 38.5534 154.098 38.7813 154.582 39.2369C155.066 39.6925 155.308 40.3048 155.308 41.0737V57.9463C155.308 61.2212 154.397 63.6987 152.574 65.3788C150.752 67.059 148.06 67.8991 144.501 67.8991C141.397 67.8991 138.805 67.3153 136.727 66.1477C135.673 65.5212 135.146 64.7666 135.146 63.8838C135.146 63.2573 135.289 62.7589 135.573 62.3887C135.887 62.0185 136.285 61.8334 136.769 61.8334C137.026 61.8334 137.339 61.8904 137.709 62.0043C138.079 62.1467 138.464 62.3033 138.862 62.4742C139.888 62.9013 140.799 63.2288 141.596 63.4566C142.422 63.6845 143.362 63.7984 144.415 63.7984C148.146 63.7984 150.011 61.9758 150.011 58.3308V55.597C149.385 56.7645 148.473 57.6758 147.277 58.3308C146.081 58.9573 144.714 59.2705 143.177 59.2705C141.354 59.2705 139.731 58.8434 138.307 57.989C136.912 57.1063 135.815 55.8817 135.018 54.3155C134.221 52.7493 133.822 50.941 133.822 48.8906C133.822 46.8403 134.206 45.032 134.975 43.4657C135.773 41.871 136.883 40.6465 138.307 39.7922C139.731 38.9094 141.354 38.468 143.177 38.468C144.714 38.468 146.081 38.7955 147.277 39.4505C148.473 40.077 149.385 40.974 150.011 42.1416V41.031C150.011 40.2905 150.253 39.6925 150.737 39.2369C151.221 38.7813 151.862 38.5534 152.66 38.5534ZM144.586 55.1271C146.295 55.1271 147.619 54.5718 148.559 53.4612C149.527 52.3506 150.011 50.8271 150.011 48.8906C150.011 46.9257 149.527 45.3879 148.559 44.2773C147.619 43.1667 146.295 42.6114 144.586 42.6114C142.906 42.6114 141.582 43.1667 140.614 44.2773C139.646 45.3879 139.161 46.9257 139.161 48.8906C139.161 50.8271 139.646 52.3506 140.614 53.4612C141.582 54.5718 142.906 55.1271 144.586 55.1271Z" fill="black"/>
<path d="M170.364 60.2102C168.228 60.2102 166.349 59.7689 164.725 58.8861C163.131 58.0033 161.892 56.736 161.009 55.0844C160.126 53.4327 159.685 51.5105 159.685 49.3178C159.685 47.125 160.126 45.2171 161.009 43.5939C161.892 41.9422 163.131 40.675 164.725 39.7922C166.349 38.9094 168.228 38.468 170.364 38.468C172.5 38.468 174.365 38.9094 175.96 39.7922C177.583 40.675 178.822 41.9422 179.676 43.5939C180.559 45.2171 181 47.125 181 49.3178C181 51.5105 180.559 53.4327 179.676 55.0844C178.822 56.736 177.583 58.0033 175.96 58.8861C174.365 59.7689 172.5 60.2102 170.364 60.2102ZM170.321 56.0668C172.058 56.0668 173.382 55.4973 174.294 54.3582C175.205 53.2191 175.661 51.539 175.661 49.3178C175.661 47.125 175.205 45.4591 174.294 44.3201C173.382 43.1525 172.072 42.5687 170.364 42.5687C168.655 42.5687 167.331 43.1525 166.391 44.3201C165.48 45.4591 165.024 47.125 165.024 49.3178C165.024 51.539 165.48 53.2191 166.391 54.3582C167.303 55.4973 168.612 56.0668 170.321 56.0668Z" fill="black"/>
</svg>
