<svg width="192" height="80" viewBox="0 0 192 80" fill="none" xmlns="http://www.w3.org/2000/svg">
<path d="M178.523 33.6851H181.001V46.2368H178.523V33.6851Z" fill="black"/>
<path d="M76.4356 33.6851V46.2368H73.9602V36.6905H73.7873L67.3559 46.2368H64.8882V36.6905H64.7154L58.284 46.2368H55.3496L63.8051 33.6851H67.3636V41.8679L72.8771 33.6851H76.4356Z" fill="black"/>
<path d="M155.622 37.0479L152.619 41.1114L155.622 46.2369H152.797L149.963 41.1114L152.797 37.0479H155.622Z" fill="black"/>
<path d="M147.311 33.6851H149.786V46.2368H147.311V33.6851Z" fill="black"/>
<path d="M87.3945 37.0518V43.4083C87.3945 47.5717 95.7022 47.5717 95.7022 43.4083V37.0518H93.2268V43.5081C93.2268 45.1059 89.8718 45.1059 89.8718 43.5081V37.0518H87.3945Z" fill="black"/>
<path d="M81.8851 36.8711H81.9466C83.156 36.8741 84.315 37.3558 85.1703 38.2108C86.0257 39.0658 86.5078 40.2246 86.5114 41.434V41.8526C86.5078 43.062 86.0257 44.2208 85.1703 45.0758C84.315 45.9308 83.156 46.4124 81.9466 46.4155H81.8851C80.6761 46.4119 79.5176 45.93 78.6626 45.0751C77.8077 44.2202 77.3258 43.0617 77.3223 41.8526V41.4359C77.3258 40.2268 77.8077 39.0683 78.6626 38.2134C79.5176 37.3584 80.6761 36.8766 81.8851 36.873V36.8711ZM81.9159 38.9835C82.527 38.9835 83.1132 39.2263 83.5454 39.6585C83.9775 40.0907 84.2203 40.6768 84.2203 41.288V41.9966C84.2203 42.6078 83.9775 43.194 83.5454 43.6261C83.1132 44.0583 82.527 44.3011 81.9159 44.3011C81.3047 44.3011 80.7185 44.0583 80.2863 43.6261C79.8542 43.194 79.6114 42.6078 79.6114 41.9966V41.288C79.6114 40.6768 79.8542 40.0907 80.2863 39.6585C80.7185 39.2263 81.3047 38.9835 81.9159 38.9835Z" fill="black"/>
<path d="M96.5879 37.0517H99.0633V38.348C100.392 36.0435 104.878 36.2586 105.068 40.3625V46.2427H102.591V40.3663C102.591 38.1866 99.1689 38.3883 99.0633 40.5583V46.2369H96.5879V37.0517Z" fill="black"/>
<path d="M107.545 34.5686H110.022V37.0478H111.964V38.8146H110.022V46.2369H107.545V38.8146H105.951V37.0478H107.545V34.5686Z" fill="black"/>
<path d="M116.61 36.871C118.615 36.8499 120.464 37.8312 120.532 39.815V46.2368H118.398V45.1786C117.63 45.9237 116.76 46.4576 115.443 46.4134C114.504 46.4134 113.76 46.158 113.221 45.6453C112.918 45.3747 112.687 45.0332 112.549 44.6515C112.411 44.2697 112.369 43.8595 112.429 43.4579C112.488 43.0562 112.646 42.6755 112.889 42.3501C113.132 42.0246 113.452 41.7646 113.82 41.5932C114.434 41.3256 115.079 41.136 115.74 41.0287C116.401 40.9193 117.053 40.7666 117.693 40.5716C118.723 40.2202 118.344 38.6147 116.441 38.7991C115.769 38.7991 114.88 39.0967 114.88 39.8687H112.758C112.965 37.714 114.678 36.8652 116.61 36.8652V36.871ZM118.233 41.7526C117.219 42.492 114.701 42.2366 114.701 43.7153C114.701 44.3836 115.191 44.7715 115.884 44.8195C117.528 44.8829 118.189 43.6673 118.229 42.275V41.7526H118.233Z" fill="black"/>
<path d="M121.424 33.6851H123.899V35.7975H121.424V33.6851ZM121.424 37.0458H123.899V46.2368H121.424V37.0515V37.0458Z" fill="black"/>
<path d="M124.777 37.0517H127.253V38.348C128.582 36.0435 133.068 36.2586 133.258 40.3625V46.2427H130.78V40.3663C130.78 38.1866 127.358 38.3883 127.253 40.5583V46.2369H124.777V37.0517Z" fill="black"/>
<path d="M134.141 46.2368V33.6851H136.606V38.294C137.323 37.401 138.21 36.8614 139.21 36.8614C139.731 36.8489 140.248 36.9507 140.726 37.1598C141.203 37.3688 141.628 37.6799 141.972 38.0712C142.702 38.8765 143.067 40.0339 143.067 41.5433C143.067 43.1027 142.683 44.3087 141.949 45.1498C141.62 45.5483 141.207 45.8685 140.739 46.087C140.271 46.3056 139.76 46.4171 139.243 46.4135C138.708 46.4106 138.181 46.2789 137.707 46.0294C137.198 45.754 136.765 45.3584 136.445 44.8771V46.2483L134.141 46.2368ZM136.445 41.5625C136.445 42.5227 136.603 43.2179 136.912 43.675C137.095 43.9727 137.353 44.2176 137.66 44.3859C137.966 44.5542 138.311 44.6401 138.661 44.6352C138.934 44.6377 139.205 44.5787 139.452 44.4627C139.699 44.3467 139.917 44.1766 140.09 43.9649C140.483 43.5053 140.68 42.782 140.68 41.7949C140.68 40.7451 140.481 39.9872 140.084 39.5211C139.9 39.2965 139.668 39.1169 139.404 38.9961C139.14 38.8752 138.852 38.8164 138.561 38.824C138.275 38.8185 137.991 38.8767 137.729 38.9942C137.468 39.1118 137.236 39.2858 137.05 39.5039C136.647 39.959 136.447 40.6446 136.447 41.5702L136.445 41.5625Z" fill="black"/>
<path d="M143.949 33.6851H146.425V35.7975H143.949V33.6851ZM143.949 37.0458H146.425V46.2368H143.949V37.0515V37.0458Z" fill="black"/>
<path d="M160.023 36.8711H160.083C163.211 36.8711 164.577 39.2217 164.471 42.3481H158.093C158.093 44.3395 160.505 45.582 161.823 43.7615H164.298C163.955 44.5566 163.384 45.2325 162.657 45.7043C161.931 46.1762 161.082 46.4229 160.215 46.4135C154.143 46.4135 154.122 36.8711 160.023 36.8711ZM162.157 40.927H158.093C158.343 38.1482 161.896 38.0214 162.157 40.927Z" fill="black"/>
<path d="M169.158 37.0517H171.634V38.348C172.964 36.0435 177.45 36.2586 177.639 40.3625V46.2427H175.163V40.3663C175.163 38.1866 171.741 38.3883 171.636 40.5583V46.2369H169.158V37.0517Z" fill="black"/>
<path fill-rule="evenodd" clip-rule="evenodd" d="M165.355 44.1147H167.831V46.2368H165.355V44.1147Z" fill="#DB1F29"/>
<path d="M35.1708 37.6527L35.3033 37.695C35.1617 37.8408 35.011 37.9774 34.852 38.104C34.0685 38.394 33.3157 38.3729 34.1127 39.5193C34.1665 39.769 34.2221 40.0167 34.2759 40.2664L31.7794 40.9942C31.9388 40.3778 31.9349 39.9514 31.5009 39.1967C31.0727 37.862 30.2162 35.8648 29.8648 34.8643C29.9684 34.8115 30.0657 34.747 30.1547 34.6723C30.0205 34.196 29.8622 33.7268 29.6804 33.2665C30.3353 34.3419 32.0559 34.9949 33.1525 36.4794C33.1198 36.4947 33.1025 36.5005 33.0526 36.5274C32.7799 36.6733 32.8049 36.969 33.068 37.0593L33.4886 37.1745C33.5401 37.2781 33.6119 37.3702 33.6998 37.4453C33.8726 37.5586 34.1165 37.5394 34.3815 37.5298C34.4324 37.566 34.4906 37.5904 34.5521 37.6013C34.6135 37.6123 34.6766 37.6095 34.7368 37.5932C34.8098 37.5932 34.854 37.6662 35.0095 37.6796C35.0672 37.6818 35.1245 37.67 35.1766 37.645L35.1708 37.6527ZM31.837 19.6317L34.8636 21.3774C34.6761 21.3668 34.4883 21.3668 34.3009 21.3774C33.5922 21.4081 33.9168 22.2473 33.5327 22.4854C33.1348 22.5504 32.7474 22.6679 32.3805 22.8349L32.8452 22.9041C32.6136 23.1257 32.3364 23.2942 32.0329 23.3976C32.1651 23.4686 32.3113 23.5099 32.4611 23.5186C32.3997 23.6473 32.3382 23.7932 32.2691 23.9603C32.1039 24.0966 31.8159 24.3021 31.6469 24.3098C31.4779 24.3175 31.2359 24.1178 31.0439 24.0601C30.5476 24.2002 30.0389 24.2916 29.5249 24.3329C28.2593 24.5499 26.8613 25.3046 25.517 26.4799C24.4416 27.4112 24.0095 26.6316 23.2279 26.6719C21.7722 26.7353 21.7031 28.7459 21.2019 29.7445C21.0924 29.9635 21.1327 30.1113 21.4381 30.1824C21.5898 30.2227 21.4381 30.409 21.246 30.578C20.9407 30.8641 21.1001 31.0581 21.1865 31.4057C21.4287 32.1406 21.3834 32.94 21.0597 33.6429C20.7659 34.219 21.3305 34.3227 21.4438 33.7601C21.5963 33.2768 21.7144 32.7833 21.7972 32.2833C21.9374 31.784 22.6863 31.3711 22.7286 31.8762C22.742 32.049 22.5941 32.4888 22.6767 33.2512C22.7676 34.3317 22.8585 35.4135 22.9494 36.4966C22.9859 36.9134 22.6652 36.9748 22.3387 36.9172C22.1313 36.8807 21.8029 36.8001 21.4573 36.7521C20.9964 36.6599 21.1366 37.0843 21.3785 37.3032C21.874 37.7545 22.5308 37.9158 23.1261 38.1731C23.3335 39.2908 23.5697 40.2472 23.7694 40.998C24.0604 40.9943 24.3509 40.9732 24.6394 40.9347C24.6394 41.0633 24.6586 41.1113 24.6912 41.3437C23.466 42.1829 23.2067 43.316 22.6652 44.5508C22.2062 45.607 21.5667 46.7496 21.0386 47.8001C20.908 47.9921 20.6814 47.9921 20.3569 48.3762C20.0227 48.8909 19.9306 49.273 19.7808 49.563C19.7808 49.563 19.7251 49.6552 19.6502 49.7704C19.3803 49.8616 19.1405 50.025 18.9569 50.2428C18.6804 50.5641 18.5299 50.9748 18.5335 51.3987C18.537 51.8225 18.6943 52.2307 18.9761 52.5473C19.1222 52.7015 19.3029 52.8185 19.5033 52.8886C19.7038 52.9588 19.9181 52.98 20.1284 52.9506C20.1554 53.0102 20.1924 53.0647 20.2378 53.1119C20.3326 53.2098 20.4614 53.2675 20.5975 53.2732C20.7337 53.2789 20.8668 53.2322 20.9695 53.1426C21.2153 53.592 21.2441 53.6285 21.2748 53.7187C21.125 54.1969 21.6071 54.7634 22.1332 54.2008C22.3076 54.1948 22.4811 54.1735 22.6518 54.1374C21.0348 55.787 18.5709 55.8657 17.0115 54.2469C15.3792 52.5588 15.3562 49.6667 16.9597 47.7866C18.0927 46.4577 19.7347 45.9911 21.1846 46.4251C21.5098 45.785 21.833 45.1448 22.1544 44.5047C19.9171 43.6981 17.2996 44.3741 15.5194 46.4616C14.0369 48.1995 13.5472 50.5386 13.9562 52.6721L12.8308 52.023C12.2632 51.6925 11.7942 51.2163 11.4725 50.6437C11.1507 50.071 10.9878 49.4228 11.0007 48.766V31.446C10.9917 30.7907 11.1577 30.1449 11.4814 29.5751C11.8051 29.0053 12.2749 28.5321 12.8424 28.2044C17.8034 25.3417 22.7587 22.4841 27.7082 19.6317C28.3179 19.22 29.0368 19 29.7726 19C30.5083 19 31.2273 19.22 31.837 19.6317ZM37.5099 22.8964C40.5735 24.6606 43.6378 26.4274 46.7028 28.1967C47.2703 28.5245 47.7401 28.9976 48.0638 29.5674C48.3875 30.1372 48.5534 30.783 48.5445 31.4383V48.766C48.5534 49.4213 48.3875 50.0671 48.0638 50.6369C47.7401 51.2067 47.2703 51.6799 46.7028 52.0077L42.7545 54.2853C42.8831 54.1547 43.006 54.0183 43.1251 53.8743C45.4776 51.0436 45.3739 46.7016 42.8927 44.1744C42.2237 43.4732 41.385 42.9564 40.4579 42.6742C39.5307 42.3919 38.5464 42.3537 37.6001 42.5632C37.2967 41.5031 36.9837 40.4431 36.661 39.383C36.6246 39.2639 36.5881 39.1449 36.5535 39.0258C36.4575 38.7185 36.3403 38.7358 35.9313 38.7301C35.8122 38.7301 35.7796 38.6283 35.8353 38.5687C36.0619 38.394 36.3653 38.1175 36.5381 37.9926C37.0106 38.0867 37.3927 38.1847 38.0284 38.321C38.2511 38.4631 38.2204 38.513 38.4605 38.4996C38.7005 38.4862 38.8234 38.611 38.9732 38.6052C39.1462 38.5775 39.3236 38.6001 39.484 38.6705C39.7471 38.7512 39.9008 38.129 39.9449 37.7737C40.1984 37.4856 40.5018 37.2398 40.6708 37.0536C40.836 36.8269 40.5748 36.6119 40.354 36.7905C40.2234 36.9326 40.0102 37.0939 39.6089 37.4472C39.3304 37.2204 39.0643 36.9787 38.8119 36.7232C37.7249 35.6613 37.4446 33.4893 36.8051 32.026C36.4056 31.3615 35.9332 30.9275 35.8026 30.4301C35.4531 28.8362 35.286 27.7588 35.1747 27.1654C35.2289 27.1222 35.2802 27.0753 35.3283 27.0252C35.4089 27.0656 35.5203 27.1347 35.5472 27.1481C35.8622 27.2826 35.9313 27.1289 35.9947 26.8716C36.0344 26.6889 36.0943 26.5111 36.1733 26.3416C36.4282 26.5084 36.7133 26.6238 37.0125 26.6815C38.0706 26.1438 38.3299 24.2695 37.5099 22.8983V22.8964ZM39.7548 56.0059C37.1162 57.5256 34.4769 59.0472 31.837 60.5707C31.2273 60.9824 30.5083 61.2024 29.7726 61.2024C29.0368 61.2024 28.3179 60.9824 27.7082 60.5707L23.2125 57.984C20.8043 59.2111 17.991 58.8059 16.2376 56.7472C16.1397 56.632 16.0456 56.5148 15.9611 56.3939C19.8019 59.7373 24.2073 56.9181 25.9702 53.1061C26.3264 53.1385 26.6851 53.0828 27.0146 52.9438C27.3442 52.8048 27.6345 52.5869 27.8599 52.3092C28.016 52.1219 28.1453 51.9138 28.2439 51.6908C29.1803 51.4501 30.1299 51.2648 31.0881 51.1358C31.395 51.1985 31.7053 51.2427 32.0175 51.2683C32.2246 51.2716 32.4314 51.2516 32.634 51.2088C32.9045 52.4174 33.5025 53.5283 34.3623 54.4197C35.0415 55.1316 35.8953 55.6531 36.8387 55.9325C37.7821 56.2118 38.7822 56.2391 39.7394 56.0117L39.7548 56.0059ZM29.3847 41.6798C29.3847 41.6798 29.496 41.2535 29.5229 41.1325C29.3094 40.7747 29.0433 40.451 28.7336 40.1723C28.6319 40.1896 28.5416 40.2241 28.34 40.2721C27.9559 39.9092 27.8983 39.8881 27.4239 39.4809C27.4623 39.8228 27.4623 40.0667 27.5219 40.5064C27.7139 41.2746 27.4508 41.6375 27.3049 41.8737C27.4138 41.9841 27.5286 42.0886 27.6486 42.1868C28.2958 42.0235 28.7375 41.8488 29.377 41.6855L29.3847 41.6798ZM22.9897 47.5543L22.8265 47.777C22.761 47.875 22.7214 47.988 22.7113 48.1054C22.7812 48.4814 22.8827 48.8508 23.0147 49.2097C23.0147 49.2097 23.3988 49.9778 24.0882 50.2563C24.0295 49.2592 23.6434 48.3094 22.9897 47.5543ZM32.4477 49.1943C32.5101 47.5615 33.1065 45.9944 34.1453 44.7332C34.7024 44.0525 35.3925 43.4925 36.1733 43.0874C36.3717 43.7673 36.5708 44.4464 36.7705 45.125C36.3336 45.3729 35.9383 45.6878 35.5991 46.0583C33.8573 47.9537 33.744 50.9457 35.3475 52.7432C36.951 54.5407 39.6607 54.46 41.4025 52.5665C43.1443 50.673 43.2576 47.6791 41.6541 45.8816C41.2299 45.3962 40.6891 45.0268 40.0827 44.8081C39.4763 44.5893 38.8242 44.5286 38.1878 44.6314C38.5565 45.9335 38.9924 47.4909 39.3803 48.7968C39.4161 48.8975 39.412 49.0082 39.3688 49.106C39.2459 49.3902 39.2075 49.4536 39.0961 49.6821C38.6947 50.5443 37.5809 49.9586 37.9285 49.2193C38.0975 48.8621 38.1436 48.7718 38.2358 48.551C37.5464 46.2234 36.8665 43.894 36.179 41.5665C36.1349 41.4186 35.7661 41.4724 35.6951 41.5876C33.7977 44.1168 32.3901 46.0045 30.7193 48.2168C30.7193 48.2552 30.7289 48.3935 30.7309 48.4319C30.7635 48.816 32.0751 49.1405 32.4592 49.2154L32.4477 49.1943ZM26.2871 48.2456C26.5674 46.7093 26.8465 45.1666 27.1244 43.6175C26.9554 43.4466 26.8248 43.3256 26.6059 43.099C26.0067 44.1225 24.9428 44.8945 24.2649 45.8202C24.9701 46.5242 25.4928 47.3898 25.7878 48.3416C25.9512 48.2915 26.1202 48.2618 26.2909 48.2533L26.2871 48.2456ZM27.8234 48.8659C28.0345 49.087 28.1991 49.3482 28.3073 49.6341C28.3353 49.5626 28.3565 49.4886 28.3707 49.4132C28.4725 48.9389 28.5013 48.0497 28.8854 47.7674C29.1177 46.7112 29.1523 45.2594 29.0025 43.4946C28.9999 43.2248 29.0374 42.9563 29.1139 42.6976L28.1383 42.9876C27.8522 44.5834 27.4604 46.7227 27.1551 48.4127C27.4067 48.5205 27.634 48.6779 27.8234 48.8755V48.8659ZM21.1538 52.3034C21.2018 52.3986 21.2255 52.5041 21.223 52.6107C21.3728 52.941 21.4669 53.1061 21.6666 53.471C21.736 53.4469 21.8107 53.4425 21.8824 53.4585C21.9541 53.4744 22.0199 53.51 22.0725 53.5612C22.1252 53.6124 22.1625 53.6773 22.1803 53.7485C22.1982 53.8198 22.1958 53.8946 22.1736 53.9646C22.4195 53.9623 22.6638 53.9255 22.8995 53.8551C23.3353 53.3473 23.6516 52.7481 23.8251 52.1018C23.6436 52.1227 23.4602 52.1188 23.2797 52.0903C22.7439 52.0461 22.0334 51.5141 21.4803 51.0667C21.4963 51.2163 21.4931 51.3673 21.4707 51.5161C21.4727 51.5339 21.4727 51.552 21.4707 51.5698C21.4236 51.8343 21.318 52.085 21.1615 52.3034H21.1538ZM30.8442 45.9469L34.4929 41.096C33.5462 41.3725 32.5956 41.6721 31.6488 41.939C31.4568 43.3582 30.9383 44.3837 30.8518 45.9469H30.8442ZM35.48 36.971C36.3346 37.2225 36.7839 37.3205 37.531 37.5221C37.314 37.0075 37.362 37.0055 37.3812 36.6138C36.9261 35.4174 35.1977 33.6564 34.8328 32.7115C34.6266 32.1182 34.3776 31.5405 34.0877 30.9832C33.7356 30.4594 33.3474 29.9608 32.9259 29.491C32.3786 30.3187 30.825 30.939 30.873 31.5036C32.1596 32.9324 32.8702 34.8413 34.1223 35.9666C34.1933 35.9666 34.7138 35.5825 35.0287 35.4058C35.263 35.2657 35.5184 35.5134 35.2918 35.7093C35.1324 35.8149 34.9615 35.9512 34.5966 36.1951C34.9807 36.295 35.1958 36.3084 35.3801 36.4563C35.4333 36.5315 35.4705 36.6169 35.4893 36.7071C35.5082 36.7973 35.5083 36.8904 35.4896 36.9806L35.48 36.971Z" fill="#DB1F29"/>
</svg>
