<svg width="193" height="81" viewBox="0 0 193 81" fill="none" xmlns="http://www.w3.org/2000/svg">
<path d="M16.3287 28.0923V41.7197H12V22H16.97L25.6274 35.1465V22H30.1165V41.7197H25.4671L16.3287 28.0923Z" fill="#3A2949"/>
<path d="M34.6055 22V41.7197H38.6135V26.0081L44.0645 41.7197H47.5916L52.8822 26.97V41.7197H57.3713V22H50.6377L45.9884 36.1084L41.339 22H34.6055Z" fill="#3A284E"/>
<path fill-rule="evenodd" clip-rule="evenodd" d="M61.8594 41.7198V22.1604H70.6771C72.4407 22.1604 76.2884 23.443 76.2884 28.5733C76.235 30.7109 74.4607 34.9862 69.7152 34.9862H66.3484V41.7198H61.8594ZM68.5939 25.3668H66.3494V31.7797H68.5939C70.3648 31.7797 71.8003 30.3441 71.8003 28.5732C71.8003 26.8024 70.3648 25.3668 68.5939 25.3668Z" fill="#3A284E"/>
<path d="M79.4961 28.8938H86.8709V31.459H82.3819V34.0241H86.5503V36.429H82.3819V39.4751H87.1916V41.7196H79.4961V28.8938Z" fill="#F59362"/>
<path d="M91.3539 56.4694H92.3581L89.1838 48.2622L88.1795 48.2852L85.2129 56.4694H86.1594L87.0136 54.0222H90.4189L91.3539 56.4694ZM88.6528 49.2549L90.1418 53.2604H87.2676L88.6528 49.2549Z" fill="#969696"/>
<path d="M103.523 52.2677C103.523 49.8205 101.826 48.1467 99.2523 48.1467C96.7589 48.1467 94.9466 49.8205 94.9466 52.2677C94.9466 54.761 96.6781 56.5964 99.1137 56.5964C101.757 56.5964 103.523 54.8533 103.523 52.2677ZM102.554 52.3716C102.554 54.3801 101.295 55.7768 99.2061 55.7768H99.1022C97.2206 55.7768 95.9163 54.1954 95.9163 52.1522C95.9163 50.3399 97.2437 48.9663 99.1599 48.9663C101.238 48.9663 102.554 50.3284 102.554 52.3716Z" fill="#969696"/>
<path d="M104.52 56.4694H105.386V52.0483C105.859 51.5404 106.413 51.3327 106.886 51.3327C107.856 51.3327 108.271 51.9329 108.271 53.1334V56.4694H109.137V52.9487C109.137 51.4135 108.445 50.5823 107.094 50.5823C106.424 50.5823 105.859 50.7901 105.328 51.3557L105.316 50.6401L104.52 50.7209V56.4694Z" fill="#969696"/>
<path d="M114.954 56.1346L114.988 55.442C114.261 55.7653 113.684 55.8576 113.188 55.8576C111.803 55.8576 110.891 54.9919 110.914 53.4682H114.931C114.954 53.3296 114.954 53.2257 114.954 53.1449C114.954 51.4596 114.03 50.5708 112.714 50.5708C111.121 50.5708 110.06 51.7136 110.06 53.4912C110.06 55.4074 111.179 56.5848 113.107 56.5848C113.788 56.5848 114.388 56.4232 114.954 56.1346ZM114.077 52.8564H110.948C111.029 51.8059 111.768 51.2172 112.576 51.2172C113.453 51.2172 114.077 51.829 114.077 52.8564Z" fill="#969696"/>
<path d="M119.539 56.4579L122.54 48.2737H121.605L119.031 55.5113L116.388 48.2737H115.384L118.477 56.4809L119.539 56.4579Z" fill="#969696"/>
<path d="M127.218 50.6401L126.352 50.7209V55.1073C125.891 55.6267 125.336 55.8345 124.852 55.8345C123.882 55.8345 123.466 55.2343 123.466 54.0222V50.6401L122.601 50.7209V54.2069C122.601 55.7537 123.293 56.5848 124.644 56.5848C125.313 56.5848 125.891 56.3771 126.41 55.8114L126.421 56.5156L127.218 56.4348V50.6401Z" fill="#969696"/>
<path d="M133.058 56.1346L133.092 55.442C132.365 55.7653 131.788 55.8576 131.292 55.8576C129.906 55.8576 128.995 54.9919 129.018 53.4682H133.035C133.058 53.3296 133.058 53.2257 133.058 53.1449C133.058 51.4596 132.134 50.5708 130.818 50.5708C129.225 50.5708 128.163 51.7136 128.163 53.4912C128.163 55.4074 129.283 56.5848 131.211 56.5848C131.892 56.5848 132.492 56.4232 133.058 56.1346ZM132.18 52.8564H129.052C129.133 51.8059 129.872 51.2172 130.68 51.2172C131.557 51.2172 132.18 51.829 132.18 52.8564Z" fill="#969696"/>
<path d="M143.036 55.95L143.106 55.0958C142.009 55.6152 141.005 55.7537 140.335 55.7537C137.992 55.7537 136.757 54.2069 136.757 52.3485C136.757 50.2476 137.992 48.9778 140.208 48.9778C141.016 48.9778 141.767 49.1279 142.748 49.4973L142.829 48.6662C141.905 48.2852 141.074 48.1583 140.255 48.1583C137.53 48.1583 135.799 49.7512 135.799 52.4062C135.799 54.9688 137.553 56.5848 140.255 56.5848C141.12 56.5848 142.078 56.4117 143.036 55.95Z" fill="#969696"/>
<path d="M149.463 53.4451C149.463 51.7136 148.412 50.5708 146.796 50.5708C145.076 50.5708 143.956 51.7367 143.956 53.5259C143.956 55.3035 144.984 56.5848 146.681 56.5848C148.274 56.5848 149.463 55.3959 149.463 53.4451ZM148.574 53.5028C148.574 54.8764 147.847 55.8576 146.761 55.8576H146.669C145.503 55.8576 144.845 54.7148 144.845 53.4682C144.845 52.1753 145.515 51.2865 146.704 51.2865C147.927 51.2865 148.574 52.2677 148.574 53.5028Z" fill="#969696"/>
<path d="M150.411 56.4694H151.277V52.0483C151.75 51.5404 152.304 51.3327 152.777 51.3327C153.747 51.3327 154.151 51.9329 154.151 53.1334V56.4694H155.005V53.1103C155.005 52.7294 154.982 52.4062 154.913 52.1291C155.386 51.5289 156.009 51.3327 156.471 51.3327C157.441 51.3327 157.856 51.9329 157.856 53.1334V56.4694H158.722V52.9487C158.722 51.4135 158.029 50.5823 156.679 50.5823C155.929 50.5823 155.236 50.8478 154.693 51.5174C154.359 50.9171 153.77 50.5823 152.985 50.5823C152.316 50.5823 151.75 50.7901 151.219 51.3557L151.207 50.6401L150.411 50.7209V56.4694Z" fill="#969696"/>
<path d="M164.981 53.4451C164.981 51.5404 163.884 50.5823 162.545 50.5823C161.887 50.5823 161.229 50.8248 160.745 51.4135V50.6401L159.925 50.7209V59.3552H160.791V56.4463C161.102 56.5502 161.495 56.6079 161.887 56.6079C163.838 56.6079 164.981 55.3728 164.981 53.4451ZM164.081 53.5605C164.081 55.0842 163.25 55.8807 161.968 55.8807C161.622 55.8807 161.183 55.8345 160.791 55.6614V52.1061C161.333 51.5058 161.864 51.3327 162.395 51.3327C163.215 51.3327 164.081 51.9791 164.081 53.5605Z" fill="#969696"/>
<path d="M170.574 56.504L170.609 55.9384C169.754 55.9961 169.789 55.6498 169.789 54.888V52.637C169.789 51.3327 169.2 50.5823 167.711 50.5823C167.146 50.5823 166.407 50.7209 165.841 51.0903L165.899 51.7828C166.557 51.4365 167.134 51.3211 167.631 51.3211C168.716 51.3211 168.935 51.8521 168.935 52.9487V53.1796C166.153 53.2142 165.541 54.23 165.541 55.0958C165.541 55.9961 166.28 56.5964 167.284 56.5964C167.954 56.5964 168.554 56.3771 169.062 55.8922C169.154 56.2962 169.489 56.5733 170.008 56.5733C170.216 56.5733 170.389 56.5502 170.574 56.504ZM168.935 53.826V55.3035C168.496 55.7075 168.035 55.8922 167.48 55.8922C166.788 55.8922 166.384 55.5113 166.384 55.015C166.384 54.4147 166.973 53.7914 168.935 53.826Z" fill="#969696"/>
<path d="M171.22 56.4694H172.086V52.0483C172.559 51.5404 173.113 51.3327 173.587 51.3327C174.556 51.3327 174.972 51.9329 174.972 53.1334V56.4694H175.838V52.9487C175.838 51.4135 175.145 50.5823 173.794 50.5823C173.125 50.5823 172.559 50.7901 172.028 51.3557L172.017 50.6401L171.22 50.7209V56.4694Z" fill="#969696"/>
<path d="M176.841 59.5168C178.041 59.0435 178.999 58.3279 179.646 57.4159C180.361 56.4348 180.881 55.1535 181.296 53.8029C181.7 52.5101 181.897 51.5058 182.001 50.6862H181.123C181.019 51.4712 180.812 52.5216 180.535 53.4912C180.234 54.5301 179.83 55.6037 179.461 56.2962C178.515 53.9645 177.453 50.6862 177.453 50.6862H176.471C176.471 50.6862 177.707 54.2531 178.907 57.0696C178.445 57.7392 177.73 58.2817 176.541 58.778L176.841 59.5168Z" fill="#969696"/>
<path fill-rule="evenodd" clip-rule="evenodd" d="M89.1152 28.8938V41.7196C89.554 41.7196 90.0018 41.7267 90.4541 41.7338C93.5196 41.7821 96.795 41.8337 98.8815 39.7156C99.7458 38.8382 100.338 37.5545 100.338 35.6273C100.338 33.3828 99.6645 28.8938 94.4059 28.8938H89.1152ZM93.2836 31.1384H92.001V39.4752H93.2836C95.5857 39.4752 97.452 37.6089 97.452 35.3068C97.452 33.0046 95.5857 31.1384 93.2836 31.1384Z" fill="#F59362"/>
<path d="M102.262 37.5512V28.8938H105.148V37.5512C105.254 38.1925 105.917 39.4751 107.713 39.4751C109.508 39.4751 109.957 38.1925 109.957 37.5512V28.8938H112.843V37.5512C112.843 39.0291 111.78 41.9664 107.552 42.0389C103.325 41.9664 102.262 39.0291 102.262 37.5512Z" fill="#F59362"/>
<path d="M124.708 29.2145V31.94C122.41 31.1384 117.814 30.7536 117.814 35.6274C117.814 40.5012 122.41 39.5821 124.708 38.5132V41.3991C121.822 42.842 114.768 42.5213 114.768 35.9481C114.768 30.3368 119.257 28.5732 121.501 28.5732C123.297 28.5732 124.387 29.0008 124.708 29.2145Z" fill="#F59362"/>
<path fill-rule="evenodd" clip-rule="evenodd" d="M125.348 41.7197L129.837 29.0542H133.364L138.013 41.5594H134.646L133.845 39.1545H129.195L128.554 41.7197H125.348ZM129.837 36.5894H133.204L131.601 31.2987L129.837 36.5894Z" fill="#F59362"/>
<path d="M136.891 28.8938H147.151V31.1383H136.891V28.8938Z" fill="#F59362"/>
<path d="M140.418 28.8938H143.304V41.7196H140.418V28.8938Z" fill="#F59362"/>
<rect x="148.756" y="28.8938" width="2.88581" height="12.8258" fill="#F59362"/>
<path fill-rule="evenodd" clip-rule="evenodd" d="M159.657 42.0403C163.199 42.0403 166.07 39.0256 166.07 35.3068C166.07 31.588 163.199 28.5732 159.657 28.5732C156.115 28.5732 153.244 31.588 153.244 35.3068C153.244 39.0256 156.115 42.0403 159.657 42.0403ZM159.817 39.4752C161.677 39.4752 163.184 37.6089 163.184 35.3068C163.184 33.0046 161.677 31.1384 159.817 31.1384C157.958 31.1384 156.451 33.0046 156.451 35.3068C156.451 37.6089 157.958 39.4752 159.817 39.4752Z" fill="#F59362"/>
<path d="M167.994 28.8938V41.7196H170.72V32.9019L176.331 41.7196H179.537V28.8938H176.652V37.3909L171.201 28.8938H167.994Z" fill="#F59362"/>
</svg>
