<svg width="193" height="80" viewBox="0 0 193 80" fill="none" xmlns="http://www.w3.org/2000/svg">
<path d="M15.661 37.9691V34.201H17.652C19.1079 34.201 19.7287 34.929 19.7287 36.0851C19.7287 37.2412 19.1079 37.9691 17.652 37.9691H15.661ZM23.4539 36.0851C23.4539 33.3233 21.6128 31.2466 17.9304 31.2466H12V46.2759H15.661V40.8807H17.9304C21.7626 40.8807 23.4539 38.5685 23.4539 36.0851Z" fill="black"/>
<path d="M34.9084 36.1279C34.9084 37.3054 34.2661 38.0119 32.8959 38.0119H30.6265V34.2867H32.8959C34.2661 34.2867 34.9084 35.0146 34.9084 36.1279ZM26.9656 31.2466V46.2759H30.6265V40.6024H31.5043L34.6301 46.2759H38.7621L35.2938 40.3241C37.606 39.639 38.6336 37.862 38.6336 35.978C38.6336 33.3661 36.7924 31.2466 33.11 31.2466H26.9656Z" fill="black"/>
<path d="M57.3312 38.7184C57.3312 34.201 53.9272 31.0325 49.6453 31.0325C45.3849 31.0325 41.9166 34.201 41.9166 38.7184C41.9166 43.2357 45.3849 46.4257 49.6453 46.4257C53.9058 46.4257 57.3312 43.2357 57.3312 38.7184ZM45.6632 38.7184C45.6632 36.0422 47.2047 34.3509 49.6453 34.3509C52.0432 34.3509 53.606 36.0422 53.606 38.7184C53.606 41.3517 52.0432 43.0859 49.6453 43.0859C47.2047 43.0859 45.6632 41.3517 45.6632 38.7184Z" fill="black"/>
<path d="M60.9737 46.2759H64.6346V40.1956H69.2162V37.3482H64.6346V34.1796H70.7577V31.2466H60.9737V46.2759Z" fill="black"/>
<path d="M114.349 42.053C114.349 37.0219 106.92 38.1994 106.92 35.5874C106.92 34.6454 107.584 34.1958 108.461 34.2172C109.446 34.2387 110.131 34.8167 110.195 35.7801H114.156C114.006 32.9113 111.801 31.2842 108.526 31.2842C105.378 31.2842 103.045 32.8685 103.045 35.7159C103.002 41.0468 110.517 39.5481 110.517 42.3314C110.517 43.2091 109.832 43.7444 108.761 43.7444C107.733 43.7444 107.005 43.1877 106.898 42.0316H103.002C103.109 45.0717 105.635 46.6774 108.868 46.6774C112.379 46.6774 114.349 44.5793 114.349 42.053Z" fill="black"/>
<path d="M117.394 34.4313H121.376V46.5276H125.037V34.4313H129.019V31.4983H117.394V34.4313Z" fill="black"/>
<path d="M147.256 38.9701C147.256 34.4527 143.852 31.2842 139.57 31.2842C135.31 31.2842 131.841 34.4527 131.841 38.9701C131.841 43.4875 135.31 46.6774 139.57 46.6774C143.831 46.6774 147.256 43.4875 147.256 38.9701ZM135.588 38.9701C135.588 36.2939 137.129 34.6026 139.57 34.6026C141.968 34.6026 143.531 36.2939 143.531 38.9701C143.531 41.6034 141.968 43.3376 139.57 43.3376C137.129 43.3376 135.588 41.6034 135.588 38.9701Z" fill="black"/>
<path d="M150.278 38.9915C150.278 43.4875 153.403 46.6346 157.835 46.6346C161.41 46.6346 164.108 44.6435 164.964 41.3893H160.939C160.319 42.6739 159.184 43.3162 157.792 43.3162C155.544 43.3162 154.003 41.6463 154.003 38.9915C154.003 36.3368 155.544 34.6668 157.792 34.6668C159.184 34.6668 160.319 35.3091 160.939 36.5937H164.964C164.108 33.3395 161.41 31.327 157.835 31.327C153.403 31.327 150.278 34.4956 150.278 38.9915Z" fill="black"/>
<path d="M177.526 46.5276H182L175.963 38.8631L181.786 31.4983H177.483L172.473 38.0923V31.4983H168.812V46.5276H172.473V39.8907L177.526 46.5276Z" fill="black"/>
<path d="M123.16 54.8396H123.513V51.3184H123.16V54.8396Z" fill="white"/>
<path d="M124.563 54.8396H124.916V52.074L126.155 54.8396H126.412L127.651 52.0639V54.8396H128.004V51.3637H127.626L126.281 54.3761L124.936 51.3637H124.563V54.8396Z" fill="white"/>
<path d="M131.403 54.8396H131.776L130.496 51.3637H130.098L128.814 54.8396H129.187L129.494 54.0033H131.096L131.403 54.8396ZM130.99 53.7112H129.6L130.295 51.807L130.99 53.7112Z" fill="white"/>
<path d="M134.175 51.2781C133.188 51.2781 132.432 52.0236 132.432 53.0765C132.432 54.1343 133.188 54.8748 134.175 54.8748C135.138 54.8748 135.833 54.1595 135.888 53.2276V52.9707H134.034V53.2578H135.515C135.46 54.0588 134.916 54.5575 134.175 54.5575C133.395 54.5575 132.795 53.9882 132.795 53.0765C132.795 52.1647 133.395 51.6005 134.175 51.6005C134.74 51.6005 135.168 51.8926 135.364 52.346H135.777C135.525 51.676 134.931 51.2781 134.175 51.2781Z" fill="white"/>
<path d="M138.625 51.3133H136.786V54.8396H138.625V54.5474H137.139V53.2125H138.473V52.9203H137.139V51.6055H138.625V51.3133Z" fill="white"/>
<path d="M141.773 53.9127C141.773 52.6029 139.838 53.2276 139.838 52.21C139.838 51.802 140.181 51.5753 140.594 51.5803C141.083 51.5854 141.319 51.8876 141.36 52.1344H141.742C141.682 51.6508 141.279 51.2781 140.609 51.2781C139.929 51.2781 139.481 51.676 139.481 52.2201C139.481 53.5449 141.415 52.8901 141.415 53.9278C141.415 54.2905 141.128 54.5776 140.639 54.5776C140.07 54.5776 139.853 54.225 139.823 53.9328H139.45C139.471 54.4718 139.934 54.8748 140.639 54.8748C141.385 54.8748 141.773 54.3912 141.773 53.9127Z" fill="white"/>
<path d="M144.34 54.8396H144.693V53.2175H146.003V52.9253H144.693V51.6105H146.244V51.3184H144.34V54.8396Z" fill="white"/>
<path d="M150.401 53.0765C150.401 52.0236 149.65 51.2781 148.658 51.2781C147.671 51.2781 146.915 52.0236 146.915 53.0765C146.915 54.1343 147.671 54.8748 148.658 54.8748C149.65 54.8748 150.401 54.1343 150.401 53.0765ZM147.278 53.0765C147.278 52.1546 147.877 51.5904 148.658 51.5904C149.439 51.5904 150.038 52.1546 150.038 53.0765C150.038 53.9983 149.439 54.5675 148.658 54.5675C147.877 54.5675 147.278 53.9983 147.278 53.0765Z" fill="white"/>
<path d="M153.192 52.341C153.192 52.7692 152.935 53.0815 152.361 53.0815H151.651V51.6156H152.356C152.95 51.6156 153.192 51.8977 153.192 52.341ZM151.298 51.3184V54.8396H151.651V53.3686H152.301L153.172 54.8396H153.595L152.689 53.3434C153.283 53.2326 153.555 52.8246 153.555 52.341C153.555 51.7617 153.172 51.3184 152.356 51.3184H151.298Z" fill="white"/>
<path d="M158.488 54.8396H158.861L157.582 51.3637H157.184L155.899 54.8396H156.272L156.579 54.0033H158.181L158.488 54.8396ZM158.075 53.7112H156.685L157.38 51.807L158.075 53.7112Z" fill="white"/>
<path d="M159.679 51.3184V54.8396H161.296V54.5524H160.031V51.3184H159.679Z" fill="white"/>
<path d="M162.051 51.3184V54.8396H163.668V54.5524H162.404V51.3184H162.051Z" fill="white"/>
<path d="M166.057 54.8396H166.41V52.074L167.649 54.8396H167.906L169.145 52.0639V54.8396H169.498V51.3637H169.12L167.775 54.3761L166.43 51.3637H166.057V54.8396Z" fill="white"/>
<path d="M172.388 51.3133H170.55V54.8396H172.388V54.5474H170.902V53.2125H172.237V52.9203H170.902V51.6055H172.388V51.3133Z" fill="white"/>
<path d="M174.378 51.3184H173.335V54.8396H174.378C175.552 54.8396 176.242 54.1797 176.242 53.0865C176.242 51.9833 175.552 51.3184 174.378 51.3184ZM173.688 54.5474V51.6105H174.378C175.375 51.6105 175.884 52.1747 175.884 53.0865C175.884 53.9933 175.375 54.5474 174.378 54.5474H173.688Z" fill="white"/>
<path d="M177.144 54.8396H177.496V51.3184H177.144V54.8396Z" fill="white"/>
<path d="M180.894 54.8396H181.267L179.987 51.3637H179.589L178.305 54.8396H178.678L178.985 54.0033H180.587L180.894 54.8396ZM180.481 53.7112H179.091L179.786 51.807L180.481 53.7112Z" fill="white"/>
<path fill-rule="evenodd" clip-rule="evenodd" d="M76.2852 36.7676C76.2852 30.8208 81.1689 26 87.1157 26C93.0625 26 97.9463 30.8208 97.9463 36.7676C97.9463 41.8929 94.3185 46.1819 89.5091 47.269V36.3268H84.5976V47.24C79.8503 46.1075 76.2852 41.8485 76.2852 36.7676ZM87.0534 34.8156C88.6183 34.8156 89.887 33.5469 89.887 31.982C89.887 30.4171 88.6183 29.1484 87.0534 29.1484C85.4884 29.1484 84.2198 30.4171 84.2198 31.982C84.2198 33.5469 85.4884 34.8156 87.0534 34.8156Z" fill="#870000"/>
</svg>
