<svg width="192" height="80" viewBox="0 0 192 80" fill="none" xmlns="http://www.w3.org/2000/svg">
<path d="M107.362 24.2796V22.3612C98.9508 17.934 93.934 20.7871 92.6059 23.099C91.3762 25.3617 90.3924 29.7396 97.6227 33.2813C104.612 36.7049 105.806 38.7413 105.739 40.9549C105.69 42.5782 104.44 45.8247 99.8362 45.8247C95.2321 45.8247 92.4086 43.1684 91.5723 41.8403V44.4966C93.4416 45.1852 97.7112 46.5625 99.8362 46.5625C102.492 46.5625 108.986 43.9063 108.986 39.1841C108.986 35.4063 103.771 32.1007 101.164 30.9202C98.9016 30.1331 94.3762 27.7917 94.3762 24.7222C94.3762 21.6528 97.4259 20.6887 98.9508 20.5903C99.8362 20.5411 101.46 20.5903 103.378 21.4758C104.867 22.1631 106.624 23.6893 107.362 24.2796Z" fill="black"/>
<path d="M73.5694 35.1997L75.6354 34.6094L75.3403 35.1997C78.2917 36.1441 86.0145 44.5457 89.5069 48.6285C92.2841 51.875 96.8264 56.8924 103.674 56.8924C110.153 56.8924 111.417 51.9596 111.243 49.0954C111.227 48.8461 111.42 48.6285 111.67 48.6285C111.899 48.6285 112.086 48.8144 112.079 49.0436C111.908 54.9525 108.086 60.7292 101.165 60.7292C94.5243 60.7292 89.9497 57.7778 82.276 46.2674C78.1441 40.0694 77.7014 39.184 73.5694 36.2326V35.1997Z" fill="black"/>
<path d="M11 20H14.8368V49.2188H11V20Z" fill="black"/>
<path d="M20.1493 36.5278C25.2023 36.5278 29.2986 32.894 29.2986 28.4115C29.2986 23.9289 25.2023 20.2951 20.1493 20.2951C19.9626 20.2951 19.9363 20.5981 20.1112 20.6635C22.8697 21.6945 24.8715 24.7735 24.8715 28.4115C24.8715 32.0494 22.8697 35.1284 20.1112 36.1594C19.9363 36.2248 19.9626 36.5278 20.1493 36.5278Z" fill="black"/>
<path d="M12.1437 32.3438C11.603 31.1789 11.2951 29.8382 11.2951 28.4115C11.2951 26.9848 11.603 25.644 12.1437 24.4791C11.415 25.644 11 26.9848 11 28.4115C11 29.8382 11.415 31.1789 12.1437 32.3438Z" fill="black"/>
<path d="M74.7496 35.3472C79.8027 35.3472 83.8989 31.9777 83.8989 27.8212C83.8989 23.6647 79.8027 20.2951 74.7496 20.2951C74.0347 20.2951 73.3389 20.3626 72.6712 20.4902C72.6162 20.5007 72.6283 20.5903 72.6842 20.5903C76.4333 20.5903 79.4724 23.8277 79.4724 27.8212C79.4724 31.8147 76.4333 35.0521 72.6842 35.0521C72.6283 35.0521 72.6162 35.1417 72.6712 35.1522C73.3389 35.2798 74.0347 35.3472 74.7496 35.3472Z" fill="black"/>
<path d="M35.4965 20H39.0382V41.9878C39.0382 45.8184 42.1434 48.9236 45.974 48.9236C47.5567 48.9236 49.0157 48.3934 50.1829 47.501C50.5466 47.2229 51.1389 47.4632 51.1389 47.921C51.1389 48.0958 51.0479 48.2588 50.8956 48.3445C49.5717 49.0892 48.0438 49.5139 46.4167 49.5139H44.6458C39.5928 49.5139 35.4965 45.4176 35.4965 40.3646V20Z" fill="black"/>
<path d="M54.3854 44.8633C55.137 43.5348 55.566 41.9998 55.566 40.3646V20H54.3854V44.8633Z" fill="black"/>
<path d="M116.365 20H119.906V41.9878C119.906 45.8184 123.011 48.9236 126.842 48.9236C128.425 48.9236 129.884 48.3934 131.051 47.501C131.415 47.2229 132.007 47.4632 132.007 47.921C132.007 48.0958 131.916 48.2588 131.764 48.3445C130.44 49.0892 128.912 49.5139 127.285 49.5139H125.514C120.461 49.5139 116.365 45.4176 116.365 40.3646V20Z" fill="black"/>
<path d="M135.253 44.8633C136.005 43.5348 136.434 41.9998 136.434 40.3646V20H135.253V44.8633Z" fill="black"/>
<path d="M66.191 20H69.7326V49.5139H66.191V20Z" fill="black"/>
<path d="M146.764 20H150.306V49.2188H146.764V20Z" fill="black"/>
<path d="M167.128 20H171.26V49.2188H167.128V20Z" fill="black"/>
<path d="M167.128 20H181V20.8854H167.128V20Z" fill="black"/>
<path d="M157.389 20H163.882V20.8854H157.389V20Z" fill="black"/>
<path d="M135.971 56.5819C135.939 56.5502 135.88 56.5072 135.794 56.4529C135.713 56.3986 135.611 56.3465 135.489 56.2968C135.371 56.2424 135.242 56.1972 135.102 56.161C134.962 56.1248 134.819 56.1067 134.674 56.1067C134.416 56.1067 134.224 56.1542 134.097 56.2492C133.971 56.3443 133.907 56.4778 133.907 56.6497C133.907 56.7493 133.93 56.833 133.975 56.9009C134.025 56.9643 134.095 57.0208 134.186 57.0706C134.276 57.1204 134.389 57.1656 134.525 57.2064C134.665 57.2471 134.826 57.2901 135.007 57.3353C135.242 57.3987 135.455 57.4666 135.645 57.539C135.84 57.6114 136.003 57.7019 136.134 57.8105C136.27 57.9191 136.374 58.0504 136.446 58.2042C136.519 58.3536 136.555 58.5391 136.555 58.7609C136.555 59.0188 136.505 59.2406 136.405 59.4261C136.31 59.6071 136.179 59.7542 136.012 59.8673C135.849 59.9805 135.659 60.0642 135.441 60.1185C135.229 60.1683 135.005 60.1932 134.769 60.1932C134.407 60.1932 134.05 60.1389 133.697 60.0303C133.344 59.9216 133.027 59.7678 132.747 59.5687L133.161 58.7609C133.201 58.8016 133.274 58.8559 133.378 58.9238C133.486 58.9871 133.613 59.0528 133.758 59.1206C133.903 59.184 134.063 59.2383 134.24 59.2836C134.416 59.3288 134.597 59.3514 134.783 59.3514C135.299 59.3514 135.557 59.1863 135.557 58.8559C135.557 58.7518 135.527 58.6636 135.469 58.5912C135.41 58.5188 135.326 58.4554 135.217 58.4011C135.109 58.3468 134.978 58.297 134.824 58.2518C134.67 58.2065 134.498 58.1567 134.308 58.1024C134.077 58.0391 133.876 57.9712 133.704 57.8988C133.536 57.8218 133.396 57.7336 133.283 57.634C133.17 57.5299 133.084 57.4123 133.025 57.281C132.971 57.1453 132.943 56.9846 132.943 56.7991C132.943 56.5547 132.989 56.3375 133.079 56.1474C133.17 55.9573 133.294 55.799 133.452 55.6722C133.615 55.5455 133.803 55.4505 134.016 55.3871C134.229 55.3193 134.457 55.2853 134.702 55.2853C135.041 55.2853 135.353 55.3396 135.638 55.4482C135.923 55.5523 136.172 55.6768 136.385 55.8216L135.971 56.5819Z" fill="black"/>
<path d="M143.781 55.3193H144.609L146.442 60.1389H145.478L145.03 58.9374H143.347L142.905 60.1389H141.942L143.781 55.3193ZM144.86 58.2789L144.195 56.385L143.503 58.2789H144.86Z" fill="black"/>
<path d="M152.198 60.1389V55.3193H153.134V59.3175H155.592V60.1389H152.198Z" fill="black"/>
<path d="M163.141 60.1728C162.788 60.1728 162.466 60.1049 162.177 59.9692C161.892 59.8289 161.645 59.6456 161.437 59.4193C161.233 59.1885 161.075 58.926 160.962 58.6319C160.849 58.3377 160.792 58.0368 160.792 57.7291C160.792 57.4078 160.851 57.1 160.968 56.8059C161.091 56.5117 161.256 56.2515 161.464 56.0252C161.677 55.799 161.928 55.6202 162.217 55.489C162.507 55.3532 162.822 55.2853 163.161 55.2853C163.509 55.2853 163.826 55.3577 164.111 55.5025C164.401 55.6428 164.648 55.8284 164.851 56.0592C165.055 56.29 165.213 56.5524 165.326 56.8466C165.44 57.1408 165.496 57.4394 165.496 57.7426C165.496 58.0639 165.437 58.3717 165.32 58.6658C165.202 58.9555 165.039 59.2134 164.831 59.4397C164.623 59.6614 164.374 59.8402 164.084 59.976C163.795 60.1072 163.48 60.1728 163.141 60.1728ZM161.742 57.7291C161.742 57.9372 161.774 58.1386 161.837 58.3332C161.901 58.5278 161.991 58.6998 162.109 58.8491C162.231 58.9985 162.378 59.1184 162.55 59.2089C162.727 59.2994 162.926 59.3447 163.147 59.3447C163.374 59.3447 163.573 59.2994 163.745 59.2089C163.921 59.1139 164.068 58.9894 164.186 58.8355C164.308 58.6817 164.399 58.5097 164.458 58.3196C164.521 58.125 164.553 57.9282 164.553 57.7291C164.553 57.5209 164.519 57.3195 164.451 57.1249C164.387 56.9303 164.295 56.7584 164.172 56.609C164.055 56.4597 163.908 56.342 163.731 56.256C163.559 56.1655 163.365 56.1203 163.147 56.1203C162.921 56.1203 162.72 56.1678 162.543 56.2628C162.367 56.3533 162.22 56.4755 162.102 56.6294C161.984 56.7787 161.894 56.9507 161.831 57.1453C161.772 57.3353 161.742 57.5299 161.742 57.7291Z" fill="black"/>
<path d="M172.378 57.0502V60.1389H171.442V55.3193H172.168L174.68 58.4826V55.326H175.616V60.1389H174.856L172.378 57.0502Z" fill="black"/>
</svg>
