<svg width="192" height="80" viewBox="0 0 192 80" fill="none" xmlns="http://www.w3.org/2000/svg">
<path d="M49.1994 32.903C49.1972 32.7432 49.2271 32.5846 49.2874 32.4367C49.3477 32.2888 49.4371 32.1544 49.5504 32.0417C49.6628 31.9301 49.7969 31.8426 49.9445 31.7848C50.092 31.7269 50.2498 31.6999 50.4082 31.7053H55.6499C59.1041 31.7053 61.8538 33.004 61.8538 37.1747C61.8538 40.034 60.5654 41.6691 58.7977 42.3625L61.8804 48.0066C61.966 48.1461 62.0088 48.3062 62.0071 48.4706C62.0071 49.4662 60.6784 50.5363 59.5356 50.5363C59.2758 50.5502 59.0177 50.4875 58.7933 50.3558C58.5689 50.2241 58.3882 50.0294 58.2737 49.7958L54.8127 43.0012H53.1519V49.1563C53.1519 49.9781 52.1623 50.3805 51.1589 50.3805C50.1556 50.3805 49.166 49.979 49.166 49.1571L49.1994 32.9038V32.903ZM53.1382 35.1767V39.933H55.6499C57.0581 39.933 57.9219 39.3415 57.9219 37.5583C57.9219 35.7751 57.0573 35.1767 55.6499 35.1767H53.1382ZM68.5414 39.5606H72.3595C73.1231 39.5606 73.5589 40.3071 73.5589 41.1349C73.5589 41.8129 73.2036 42.6544 72.3604 42.6544H68.5414V47.0375H75.3677C76.1314 47.0375 76.5602 47.8585 76.5602 48.8147C76.5602 49.6357 76.205 50.538 75.3677 50.538H66.3037C65.439 50.538 64.5753 50.1305 64.5753 49.3035V32.9389C64.5753 32.1119 65.4399 31.7045 66.3037 31.7045H75.3677C76.205 31.7045 76.5602 32.6068 76.5602 33.4277C76.5602 34.384 76.1322 35.2049 75.3677 35.2049H68.5414V39.5606ZM86.1739 45.9666C86.1739 42.7734 77.9128 43.3299 77.9128 37.1593C77.9128 33.2043 81.3542 31.7045 84.6039 31.7045C85.9804 31.7045 89.8088 31.9681 89.8088 34.0227C89.8088 34.7161 89.3405 36.1886 88.1908 36.1886C87.2474 36.1886 86.7526 35.1818 84.6039 35.1818C82.7513 35.1818 81.9946 35.9446 81.9946 36.7638C81.9946 39.4005 90.2565 38.9014 90.2565 45.5437C90.2574 49.3395 87.5034 51.3941 83.717 51.3941C80.273 51.3941 77.4163 49.7076 77.4163 47.9723C77.4163 47.0701 78.2013 45.7586 79.1927 45.7586C80.4185 45.7586 81.2036 47.7087 83.6408 47.7087C84.8393 47.6881 86.1748 47.2087 86.1748 45.9666H86.1739ZM91.1605 32.9201C91.1973 32.5605 91.3745 32.2309 91.6536 32.0041C91.7909 31.8922 91.9492 31.8088 92.1191 31.7589C92.289 31.7089 92.4672 31.6933 92.6432 31.713H97.9166C101.271 31.713 103.954 33.3062 103.954 37.6327V37.7612C103.954 42.0886 101.204 43.7434 97.688 43.7434H95.1387V49.3035C95.1387 50.1314 94.1456 50.538 93.1269 50.538C92.1065 50.538 91.1134 50.1314 91.1134 49.3035L91.1605 32.9201ZM95.1387 35.2118V40.6367H97.6615C99.0911 40.6367 99.9558 39.8097 99.9558 38.0599V37.7757C99.9558 36.0259 99.0911 35.1989 97.6615 35.1989L95.1387 35.2118ZM121.978 32.903C121.977 32.7429 122.008 32.5842 122.069 32.4363C122.13 32.2884 122.22 32.1542 122.334 32.0417C122.564 31.8157 122.874 31.6942 123.194 31.7053H128.416C131.87 31.7053 134.62 33.004 134.62 37.1747C134.62 40.034 133.338 41.6691 131.571 42.3625L134.646 48.0066C134.732 48.1461 134.775 48.3062 134.773 48.4706C134.773 49.4662 133.444 50.5363 132.302 50.5363C132.042 50.5502 131.784 50.4875 131.559 50.3558C131.335 50.2241 131.154 50.0294 131.04 49.7958L127.585 43.0012H125.918V49.1563C125.918 49.9781 124.934 50.3805 123.925 50.3805C122.915 50.3805 121.932 49.9781 121.932 49.1563L121.978 32.903ZM125.918 35.1767V39.933H128.416C129.831 39.933 130.688 39.3415 130.688 37.5583C130.688 35.7751 129.831 35.1767 128.416 35.1767H125.918ZM135.629 48.0622C135.638 47.9689 135.654 47.8765 135.678 47.7866L140.62 32.1924C140.913 31.2987 142.106 30.8484 143.321 30.8484C144.535 30.8484 145.735 31.2781 146.029 32.1924L150.984 47.7729C151.013 47.8628 151.031 47.9552 151.039 48.0485C151.038 48.9971 149.524 49.6819 148.386 49.6819C147.724 49.6819 147.193 49.4799 147.033 48.9423L146.132 45.7491H140.549L139.649 48.9423C139.495 49.4799 138.951 49.6819 138.302 49.6819C137.129 49.6819 135.629 48.9971 135.629 48.0622ZM145.253 42.6853L143.313 35.8427L141.379 42.6853H145.253ZM160.948 31.7045C161.804 31.7045 162.167 32.6273 162.167 33.4817C162.167 34.4593 161.729 35.3068 160.948 35.3068H157.36V49.3035C157.36 50.1305 156.339 50.538 155.305 50.538C154.271 50.538 153.25 50.1305 153.25 49.3035V35.3342H149.696C148.915 35.3342 148.47 34.4867 148.47 33.5091C148.47 32.6547 148.84 31.7319 149.696 31.7319L160.948 31.7045ZM166.983 39.5606H170.794C171.559 39.5606 171.995 40.3071 171.995 41.1349C171.995 41.8129 171.64 42.6544 170.794 42.6544H166.976V47.0375H173.814C174.578 47.0375 175.008 47.8585 175.008 48.8147C175.008 49.6357 174.653 50.538 173.814 50.538H164.754C163.89 50.538 163.023 50.1305 163.023 49.3035V32.9389C163.023 32.1119 163.889 31.7045 164.754 31.7045H173.814C174.653 31.7045 175.008 32.6068 175.008 33.4277C175.008 34.384 174.578 35.2049 173.814 35.2049H166.983V39.5606Z" fill="#135799"/>
<path d="M121.075 39.8739C120.756 44.632 118.997 49.6819 114.806 49.6819C110.615 49.6819 108.967 46.4263 108.807 42.8847C106.493 42.6947 102.725 40.0777 103.127 40.3165C104.228 40.9612 107.485 42.6271 108.807 42.4225C108.863 37.7809 111.543 32.5605 115.228 32.5605C116.385 32.5605 116.863 33.3353 116.863 34.4225C116.863 36.8495 114.391 41.0296 111.232 42.5312C111.28 45.7329 112.388 48.6487 115.284 48.6487C118.747 48.6487 120.389 44.1081 120.701 39.8739H121.075ZM111.232 41.9884C114.176 40.5948 116.081 36.6183 116.081 34.5115C116.081 33.6888 115.762 33.1521 115.187 33.1521C113.074 33.1589 111.28 37.7535 111.232 41.9876V41.9884Z" fill="#135799"/>
<path fill-rule="evenodd" clip-rule="evenodd" d="M179.277 33.1528C179.616 33.1682 179.906 32.8532 179.936 32.4371C179.927 32.1649 179.786 31.9252 179.579 31.8293C179.348 31.7316 179.098 31.6902 178.849 31.7086H178.432V34.2725H178.777V33.1862H178.92L179.732 34.2725H180.144L179.277 33.1528ZM178.777 31.992H178.865C179.206 31.992 179.617 32.0528 179.617 32.4508C179.617 32.8489 179.238 32.9234 178.887 32.9234H178.777V31.992Z" fill="#135799"/>
<path d="M178.859 35.1287C178.436 35.1287 178.022 35.0032 177.67 34.7681C177.318 34.5329 177.044 34.1986 176.882 33.8076C176.72 33.4165 176.677 32.9862 176.76 32.571C176.842 32.1559 177.046 31.7745 177.346 31.4752C177.645 31.1759 178.026 30.9721 178.441 30.8895C178.857 30.8069 179.287 30.8493 179.678 31.0113C180.069 31.1733 180.403 31.4476 180.638 31.7995C180.874 32.1515 180.999 32.5653 180.999 32.9886C180.997 33.5556 180.771 34.0989 180.37 34.4999C179.969 34.9009 179.426 35.1269 178.859 35.1287ZM178.859 31.196C178.383 31.196 177.928 31.3848 177.591 31.721C177.255 32.0572 177.066 32.5131 177.066 32.9886C177.066 33.464 177.255 33.92 177.591 34.2561C177.928 34.5923 178.383 34.7812 178.859 34.7812C179.334 34.7812 179.79 34.5923 180.126 34.2561C180.463 33.92 180.652 33.464 180.652 32.9886C180.652 32.5131 180.463 32.0572 180.126 31.721C179.79 31.3848 179.334 31.196 178.859 31.196Z" fill="#135799"/>
<path d="M44.0974 49.3097C41.845 48.6237 39.6511 47.7589 37.5364 46.7235C34.4905 45.3059 29.6769 41.6128 27.0984 38.8057C24.519 35.9987 22.7795 31.0728 22.7795 31.0728C22.7795 31.0728 22.2017 28.9738 21.177 28.8308C19.4306 28.592 15.1673 31.9246 12.6505 36.871C11.9057 38.3366 11.3929 39.5351 11 40.7028V30.1637C11 28.529 11.6494 26.9612 12.8053 25.8053C13.9612 24.6494 15.529 24 17.1637 24H37.9337C39.5684 24 41.1361 24.6494 42.2921 25.8053C43.448 26.9612 44.0974 28.529 44.0974 30.1637V49.3097ZM44.0974 49.7908V50.6298C44.0974 52.2645 43.448 53.8322 42.2921 54.9881C41.1361 56.1441 39.5684 56.7935 37.9337 56.7935H17.1637C16.3543 56.7935 15.5528 56.634 14.805 56.3243C14.0571 56.0145 13.3777 55.5605 12.8053 54.9881C11.6494 53.8322 11 52.2645 11 50.6298V44.3411C11.7986 42.0275 12.8067 39.7916 14.0117 37.6612C16.1364 34.2814 17.2647 33.5323 18.4957 32.7901C19.5821 32.1147 20.0427 32.8509 20.5589 33.5734C21.6132 35.3005 22.7847 36.9532 24.0653 38.5198C26.9606 42.0083 31.1074 44.4138 34.0848 46.096C36.592 47.5628 39.2968 48.6621 42.1164 49.3602C42.7733 49.519 43.4338 49.6626 44.0974 49.7908Z" fill="url(#paint0_linear)"/>
<defs>
<linearGradient id="paint0_linear" x1="27.552" y1="56.7935" x2="27.552" y2="24" gradientUnits="userSpaceOnUse">
<stop offset="0.18" stop-color="#00A1BC"/>
<stop offset="0.84" stop-color="#135799"/>
</linearGradient>
</defs>
</svg>
