<svg width="192" height="80" viewBox="0 0 192 80" fill="none" xmlns="http://www.w3.org/2000/svg">
<path d="M37.7163 27H11V53.7163H37.7163V27Z" fill="url(#paint0_radial)"/>
<path d="M36.2832 28.4331V52.2832H12.4331V28.4331H36.2832ZM37.7163 27H11V53.7163H37.7163V27Z" fill="white"/>
<path d="M181.001 27H39.0215V53.7163H181.001V27Z" fill="#2B2A6A"/>
<path d="M179.568 28.4331V52.2832H40.4546V28.4331H179.568ZM181.001 27H39.0215V53.7163H181.001V27Z" fill="white"/>
<path d="M30.0638 28.9204C29.5824 29.8955 29.0191 30.828 28.3799 31.7078C27.7424 32.5921 27.0546 33.439 26.3198 34.2443C25.6033 35.0504 24.8115 35.8172 24.009 36.5552C23.2065 37.2932 22.3717 37.9882 21.5011 38.6618L21.3112 37.1893C22.6288 37.6919 23.8936 38.3231 25.0874 39.0738C26.2993 39.8373 27.4 40.7644 28.3584 41.8289L26.9898 41.9937C27.5177 41.0933 28.0682 40.2095 28.6414 39.3425C29.2183 38.4719 29.8166 37.6156 30.4579 36.7916C31.0971 35.9608 31.7813 35.1654 32.5072 34.4091C33.2266 33.6471 34.0239 32.9627 34.8861 32.367C34.2315 33.1614 33.6181 33.989 33.0482 34.8462C32.4893 35.7025 31.9447 36.5659 31.436 37.4509C30.4077 39.2171 29.4368 41.0336 28.473 42.8249C28.4224 42.9229 28.3528 43.0099 28.2685 43.081C28.1841 43.1521 28.0865 43.2058 27.9813 43.2391C27.8762 43.2723 27.7655 43.2845 27.6556 43.275C27.5457 43.2654 27.4387 43.2342 27.3409 43.1832C27.2659 43.1418 27.1971 43.09 27.1367 43.0291L27.108 42.9969C26.211 42.0822 25.2093 41.2765 24.1236 40.5965C23.0207 39.9021 21.8647 39.2959 20.6663 38.7836H20.6341C20.5318 38.7396 20.4393 38.6758 20.3618 38.5959C20.2842 38.516 20.2232 38.4216 20.1823 38.318C20.1414 38.2145 20.1213 38.1039 20.1232 37.9926C20.1251 37.8813 20.1489 37.7715 20.1934 37.6694C20.2543 37.527 20.352 37.4034 20.4764 37.3111C22.1926 36.0715 23.8657 34.7817 25.4922 33.406C26.3019 32.7217 27.0758 32.0015 27.8461 31.2563C28.6164 30.5111 29.3472 29.7337 30.0638 28.9204Z" fill="white"/>
<path d="M14.7969 51.4519C15.189 50.3544 15.4862 49.2253 15.6854 48.077C15.8997 46.9517 16.0398 45.8135 16.1046 44.6698C16.1135 44.0314 16.1989 43.3963 16.3589 42.7782C16.5545 42.0579 16.9598 41.4119 17.5233 40.9223C18.1047 40.4491 18.8073 40.1487 19.5511 40.0553C20.2308 39.9736 20.9193 40.0026 21.5897 40.1413C22.25 40.2735 22.8882 40.4991 23.485 40.8113C23.6558 40.9026 23.8188 41.0081 23.9722 41.1265C24.1072 41.2393 24.2364 41.3589 24.3591 41.4848C24.6084 41.7155 24.8373 41.9673 25.0434 42.2372C25.4745 42.7974 25.7767 43.4457 25.9284 44.136C26.0818 44.854 26.022 45.6012 25.7564 46.2857C25.6318 46.6075 25.4707 46.9141 25.2763 47.1993C25.0869 47.4677 24.8735 47.7183 24.6386 47.948L24.2803 48.2777L23.9471 48.5643L23.2771 49.1411L21.9265 50.2696C21.7007 50.4559 21.475 50.6279 21.2565 50.8357C21.1454 50.9325 21.0344 51.0292 20.9305 51.1295C20.8203 51.2272 20.7355 51.3501 20.6833 51.4878C20.6872 51.3345 20.7344 51.1855 20.8194 51.0578C20.8911 50.9253 20.9699 50.7963 21.0523 50.6709C21.2135 50.4201 21.3891 50.1801 21.5646 49.9543C21.9229 49.4743 22.2812 49.0157 22.6394 48.55L23.2019 47.8692L23.485 47.511L23.725 47.1885C23.877 46.9788 24.0158 46.7598 24.1406 46.5329C24.2461 46.3147 24.3301 46.0867 24.3914 45.8522C24.4908 45.4031 24.4774 44.9363 24.3523 44.4937C24.2273 44.051 23.9945 43.6463 23.6748 43.3156C23.5136 43.1287 23.34 42.9527 23.1553 42.7889C23.0622 42.7065 22.9654 42.6313 22.8723 42.5596C22.7902 42.503 22.704 42.4528 22.6144 42.4092C22.1607 42.1862 21.6785 42.027 21.1813 41.9362C20.1889 41.7284 19.1678 41.7929 18.5336 42.2945C18.1932 42.5624 17.9339 42.9196 17.7848 43.3263C17.6134 43.8337 17.4934 44.357 17.4266 44.8884C17.2138 46.0761 16.8887 47.241 16.4557 48.3672C16.0554 49.4705 15.4966 50.5097 14.7969 51.4519Z" fill="white"/>
<path d="M48.3066 31.6396H53.6807C54.5074 31.6197 55.3343 31.6688 56.1528 31.7865C56.6283 31.8693 57.084 32.0406 57.4963 32.2916C58.0436 32.6406 58.4809 33.1375 58.7574 33.7247C59.0775 34.3614 59.242 35.065 59.2375 35.7776C59.2611 36.3642 59.1682 36.9496 58.964 37.5C58.7598 38.0504 58.4485 38.5548 58.048 38.9841C57.2527 39.8081 56.1158 40.3265 54.6373 40.539L58.6105 45.9632C59.1297 46.6824 59.7009 47.3626 60.3195 47.9982C60.8567 48.5419 61.4418 49.0359 62.0678 49.4743H58.1054L51.6816 40.3527V45.5513C51.6621 46.292 51.7428 47.032 51.9216 47.751C52.1013 48.3569 52.3602 48.9364 52.6919 49.4743H48.3066C48.624 48.9327 48.8731 48.3539 49.0483 47.751C49.2271 47.032 49.3078 46.292 49.2883 45.5513V35.5483C49.3081 34.8099 49.2274 34.0723 49.0483 33.3557C48.873 32.7552 48.6239 32.1787 48.3066 31.6396ZM51.6816 32.6391V39.8476H53.0394C54.1823 39.8476 55.0601 39.5251 55.6763 38.8874C56.2925 38.2497 56.6006 37.3468 56.6006 36.1753C56.6006 35.0037 56.3104 34.0902 55.7229 33.5026C55.1353 32.915 54.2432 32.6284 53.0394 32.6284L51.6816 32.6391Z" fill="white"/>
<path d="M66.1875 30.1921V38.0741C67.1431 37.6583 68.1202 37.2935 69.1146 36.9814C69.6537 36.8153 70.213 36.7237 70.7769 36.7091C71.2325 36.6808 71.6875 36.7713 72.0976 36.9716C72.5077 37.1719 72.8587 37.4753 73.1164 37.852C73.6276 38.6139 73.8843 39.7711 73.8867 41.3236V45.5655C73.8672 46.3063 73.948 47.0462 74.1268 47.7653C74.3041 48.3697 74.5582 48.9488 74.8827 49.4886H70.5835C70.906 48.933 71.1621 48.3413 71.3466 47.7259C71.5264 47.024 71.6096 46.3007 71.5938 45.5763V42.0939C71.5938 40.6608 71.3215 39.6827 70.7734 39.1417C70.2252 38.6008 69.2328 38.3285 67.7961 38.3285C67.531 38.3285 67.2623 38.3356 66.99 38.3499C66.7141 38.3499 66.4419 38.3858 66.1696 38.4216V45.7339C66.1522 46.4328 66.2306 47.1307 66.4024 47.8083C66.5761 48.4026 66.8279 48.9713 67.1512 49.4993H62.9165C63.24 48.9595 63.4928 48.3803 63.6688 47.7761C63.8412 47.056 63.9195 46.3165 63.9017 45.5763V34.7672C63.9039 34.1382 63.8108 33.5126 63.6258 32.9114C63.3999 32.2231 63.0907 31.565 62.7051 30.9517L66.1875 30.1921Z" fill="white"/>
<path d="M87.9645 42.6099H79.6168V42.6887C79.6168 44.5756 80.0682 45.9645 80.9711 46.8554C81.8739 47.7463 83.2926 48.1918 85.2273 48.1918C85.6764 48.1897 86.1251 48.161 86.5708 48.1058C87.0473 48.0485 87.5525 47.9661 88.0863 47.8622C87.3914 48.4845 86.5856 48.9707 85.711 49.2952C84.8091 49.6189 83.8567 49.779 82.8985 49.7681C81.1597 49.7681 79.7732 49.1937 78.739 48.0449C77.7048 46.896 77.1865 45.3578 77.1841 43.4303C77.1739 42.5481 77.3108 41.6702 77.589 40.8329C77.8499 40.0463 78.2585 39.3167 78.7928 38.6833C79.3236 38.0625 79.9775 37.5587 80.7131 37.2036C81.4209 36.8504 82.2006 36.6652 82.9917 36.6626C84.5609 36.6626 85.7695 37.1678 86.6174 38.1781C87.4653 39.1884 87.9143 40.6657 87.9645 42.6099ZM85.213 41.1768C85.213 40.016 85.0028 39.1442 84.5824 38.5615C84.3718 38.2727 84.0915 38.042 83.7676 37.891C83.4436 37.74 83.0867 37.6736 82.7302 37.698C82.3023 37.682 81.8771 37.7716 81.4921 37.9591C81.1072 38.1466 80.7744 38.4261 80.5232 38.7728C79.9834 39.4894 79.686 40.5176 79.6311 41.8575L85.213 41.1768Z" fill="white"/>
<path d="M93.3098 36.5874V44.1111C93.3098 45.74 93.5486 46.7993 94.0263 47.289C94.4993 47.7762 95.3878 48.0055 96.699 48.0055C96.9534 48.0055 97.2329 48.0055 97.5374 47.9804C97.8419 47.9553 98.2289 47.9267 98.7054 47.8729V40.3492C98.7024 39.848 98.6126 39.351 98.4402 38.8803C98.2327 38.3303 97.9558 37.8089 97.6162 37.329L100.991 36.5874V46.0135C100.99 46.5171 101.079 47.0169 101.253 47.4896C101.459 48.0304 101.739 48.5404 102.084 49.0051L98.7054 49.7753V48.113C97.9057 48.5779 97.0665 48.9711 96.1975 49.2881C95.5656 49.5134 94.9013 49.6344 94.2305 49.6464C93.0769 49.6464 92.2589 49.3311 91.7764 48.7005C91.2939 48.07 91.0551 46.9796 91.0598 45.4295V40.3492C91.0561 39.8474 90.9639 39.3502 90.7875 38.8803C90.5769 38.3331 90.3027 37.8124 89.9707 37.329L93.3098 36.5874Z" fill="white"/>
<path d="M107.87 36.5874V38.0885C108.726 37.6533 109.611 37.2762 110.518 36.96C111.035 36.7898 111.575 36.6992 112.119 36.6913C112.62 36.6859 113.113 36.8093 113.552 37.0495C113.987 37.2925 114.356 37.6381 114.627 38.0563C115.521 37.6315 116.441 37.2641 117.382 36.9564C117.939 36.786 118.516 36.6943 119.098 36.6841C120.324 36.6841 121.205 37.0424 121.746 37.759C122.287 38.4755 122.559 39.6542 122.559 41.2951V45.6946C122.542 46.3935 122.62 47.0914 122.792 47.769C122.965 48.364 123.219 48.9329 123.544 49.4601H119.302C119.626 48.9202 119.879 48.3411 120.055 47.7368C120.227 47.0167 120.306 46.2773 120.288 45.537V42.0546C120.288 40.6215 120.012 39.6327 119.467 39.0953C118.923 38.5579 117.912 38.2892 116.44 38.2892C116.201 38.2892 115.947 38.2963 115.677 38.3107C115.397 38.3107 115.1 38.3465 114.792 38.3823C114.969 38.6894 115.081 39.0296 115.121 39.3819C115.199 40.0166 115.232 40.6558 115.222 41.2951V45.537C115.202 46.2777 115.283 47.0177 115.462 47.7368C115.64 48.3433 115.899 48.9229 116.232 49.4601H111.933C112.264 48.9076 112.524 48.3154 112.707 47.6974C112.879 46.9942 112.958 46.2716 112.943 45.5478V42.0653C112.943 40.6705 112.677 39.6948 112.144 39.1383C111.612 38.5818 110.697 38.3023 109.4 38.2999C109.19 38.2999 108.96 38.3071 108.712 38.3214C108.465 38.3214 108.189 38.3572 107.881 38.3931V45.5585C107.862 46.299 107.942 47.0387 108.117 47.7583C108.298 48.3643 108.558 48.9438 108.891 49.4816H104.585C104.916 48.9292 105.176 48.3368 105.359 47.7189C105.531 47.0157 105.61 46.293 105.595 45.5692V40.3492C105.594 39.8478 105.504 39.3506 105.33 38.8803C105.124 38.3296 104.847 37.8081 104.506 37.329L107.87 36.5874Z" fill="white"/>
<path d="M125.83 31.6396H129.076L137.821 45.0031V35.5483C137.838 34.8241 137.756 34.101 137.578 33.3987C137.395 32.7821 137.137 32.1902 136.811 31.636H140.215C139.882 32.1736 139.623 32.7531 139.444 33.3593C139.268 34.0739 139.187 34.8088 139.204 35.5447V49.5997H138.008L128.23 34.71V45.7053C128.213 46.4042 128.292 47.1021 128.463 47.7797C128.636 48.3726 128.884 48.9409 129.201 49.4707H125.83C126.155 48.9316 126.408 48.3523 126.582 47.7475C126.755 47.0274 126.833 46.2879 126.815 45.5477V35.5483C126.833 34.8104 126.755 34.0733 126.582 33.3557C126.408 32.7532 126.155 32.1762 125.83 31.6396Z" fill="white"/>
<path d="M142.715 43.287C142.654 41.5433 143.282 39.8459 144.463 38.5614C145.021 37.9526 145.703 37.4705 146.464 37.1479C147.224 36.8252 148.044 36.6695 148.87 36.6912C149.677 36.6705 150.479 36.8273 151.219 37.1505C151.958 37.4736 152.618 37.9553 153.151 38.5614C154.276 39.8046 154.839 41.3918 154.839 43.3121C154.901 45.0516 154.276 46.7457 153.098 48.0269C152.537 48.6328 151.852 49.1118 151.091 49.4319C150.33 49.7519 149.509 49.9057 148.684 49.8828C147.875 49.9059 147.071 49.7518 146.328 49.4312C145.586 49.1106 144.922 48.6313 144.384 48.0269C143.271 46.7921 142.715 45.2121 142.715 43.287ZM148.684 37.698C148.19 37.6869 147.703 37.8084 147.273 38.0498C146.842 38.2911 146.485 38.6435 146.237 39.0701C145.653 39.9801 145.359 41.2592 145.359 42.8965C145.359 44.7499 145.674 46.2081 146.305 47.271C146.935 48.3458 147.788 48.8689 148.87 48.8689C149.363 48.8803 149.851 48.7589 150.281 48.5176C150.712 48.2762 151.069 47.9236 151.317 47.4967C151.901 46.5867 152.195 45.3077 152.195 43.6704C152.195 41.8241 151.878 40.3683 151.245 39.303C150.611 38.2354 149.755 37.698 148.684 37.698Z" fill="white"/>
<path d="M155.652 36.8667H160.532C160.297 37.1711 160.092 37.4974 159.919 37.8412C159.81 38.0449 159.747 38.2698 159.733 38.5004C159.737 38.5875 159.75 38.674 159.772 38.7583C159.801 38.8694 159.851 39.0557 159.934 39.3101L162.298 46.8338L165.623 36.8774H166.741L170.148 47.0129L172.355 39.3029C172.417 39.0641 172.467 38.8563 172.505 38.6795C172.54 38.535 172.56 38.3874 172.566 38.2389C172.555 38.0405 172.5 37.8471 172.405 37.6728C172.26 37.3933 172.087 37.1292 171.889 36.8846H175.583C174.866 37.6537 174.206 38.8479 173.602 40.4673L170.148 49.657H168.751L165.652 40.5067L162.542 49.657H161.026L157.476 39.6254C157.099 38.5725 156.473 37.6262 155.652 36.8667Z" fill="white"/>
<defs>
<radialGradient id="paint0_radial" cx="0" cy="0" r="1" gradientUnits="userSpaceOnUse" gradientTransform="translate(24.3599 40.3599) scale(13.3599)">
<stop stop-color="#4193D0"/>
<stop offset="1" stop-color="#2B286B"/>
</radialGradient>
</defs>
</svg>
