<svg width="192" height="80" viewBox="0 0 192 80" fill="none" xmlns="http://www.w3.org/2000/svg">
<path d="M63.1522 30.2385C62.62 29.9191 62.07 29.6353 61.5023 29.3869C61.0233 29.174 60.4822 28.9788 59.8789 28.8014C59.2935 28.6063 58.7169 28.5087 58.1492 28.5087C57.6879 28.5087 57.3153 28.5796 57.0315 28.7216C56.7653 28.8635 56.6323 29.103 56.6323 29.4401C56.6323 29.6885 56.7121 29.8925 56.8718 30.0522C57.0315 30.2119 57.2621 30.3627 57.5637 30.5046C57.8653 30.6288 58.229 30.753 58.6548 30.8772C59.0983 31.0014 59.5951 31.1522 60.1451 31.3296C61.0144 31.5957 61.795 31.8884 62.4869 32.2078C63.1966 32.5271 63.7998 32.9086 64.2966 33.3521C64.7933 33.7779 65.1748 34.3013 65.4409 34.9222C65.707 35.5432 65.8401 36.2972 65.8401 37.1842C65.8401 38.3197 65.6272 39.2777 65.2014 40.0584C64.7933 40.8212 64.2433 41.4333 63.5514 41.8946C62.8773 42.3559 62.1055 42.693 61.2362 42.9059C60.3846 43.101 59.5241 43.1986 58.6548 43.1986C57.9629 43.1986 57.2532 43.1454 56.5258 43.0389C55.7984 42.9325 55.071 42.7817 54.3436 42.5865C53.634 42.3913 52.9421 42.1607 52.2679 41.8946C51.6114 41.6285 50.9994 41.3269 50.4316 40.9898L52.6671 36.4391C53.288 36.8294 53.9356 37.1754 54.6097 37.477C55.1775 37.7431 55.8162 37.9826 56.5258 38.1955C57.2532 38.4084 57.9895 38.5148 58.7346 38.5148C59.3024 38.5148 59.6927 38.4439 59.9056 38.302C60.1362 38.1423 60.2515 37.9383 60.2515 37.6899C60.2515 37.4237 60.1362 37.202 59.9056 37.0246C59.6927 36.8294 59.3911 36.6609 59.0007 36.5189C58.6104 36.377 58.158 36.2351 57.6435 36.0931C57.1468 35.9512 56.6145 35.7827 56.0468 35.5875C55.213 35.3036 54.4944 35.002 53.8912 34.6827C53.288 34.3456 52.7913 33.973 52.4009 33.565C52.0106 33.1392 51.7179 32.6602 51.5227 32.1279C51.3453 31.5957 51.2566 30.9836 51.2566 30.2917C51.2566 29.245 51.4429 28.3224 51.8155 27.524C52.2058 26.7257 52.7292 26.0604 53.3856 25.5281C54.042 24.9959 54.7872 24.5967 55.621 24.3306C56.4726 24.0467 57.3685 23.9048 58.3088 23.9048C59.0007 23.9048 59.6749 23.9758 60.3314 24.1177C60.9878 24.2419 61.6176 24.4104 62.2208 24.6233C62.8418 24.8185 63.4184 25.0402 63.9506 25.2886C64.4828 25.5193 64.9619 25.741 65.3877 25.9539L63.1522 30.2385Z" fill="#231F20"/>
<path d="M66.5636 33.3521C66.5636 32.1989 66.7765 31.0634 67.2023 29.9457C67.6458 28.828 68.2845 27.8256 69.1184 26.9386C69.9522 26.0515 70.9635 25.333 72.1521 24.783C73.3408 24.233 74.698 23.958 76.2238 23.958C78.0512 23.958 79.6301 24.3394 80.9608 25.1023C82.3091 25.8475 83.3115 26.841 83.9679 28.0829L80.0027 30.9038C79.8253 30.4425 79.5858 30.0611 79.2842 29.7595C79.0003 29.4579 78.681 29.2183 78.3261 29.0409C77.9713 28.8635 77.5988 28.7393 77.2084 28.6684C76.8359 28.5974 76.4722 28.5619 76.1173 28.5619C75.3722 28.5619 74.7246 28.7127 74.1747 29.0143C73.6424 29.2982 73.1989 29.6796 72.8441 30.1586C72.507 30.6199 72.2497 31.1522 72.0723 31.7554C71.9126 32.3408 71.8328 32.9263 71.8328 33.5118C71.8328 34.1682 71.9304 34.798 72.1255 35.4012C72.3207 36.0044 72.6045 36.5367 72.9771 36.998C73.3497 37.4592 73.8021 37.8318 74.3343 38.1157C74.8843 38.3818 75.4964 38.5148 76.1706 38.5148C76.5254 38.5148 76.8891 38.4794 77.2617 38.4084C77.6342 38.3197 77.9891 38.1866 78.3261 38.0092C78.681 37.8141 78.9915 37.5746 79.2576 37.2907C79.5414 36.9891 79.7632 36.6254 79.9229 36.1996L84.1542 38.7277C83.8703 39.4197 83.4357 40.0406 82.8502 40.5906C82.2825 41.1406 81.6261 41.6019 80.8809 41.9744C80.1535 42.347 79.364 42.6309 78.5124 42.826C77.6786 43.0212 76.8625 43.1187 76.0641 43.1187C74.6625 43.1187 73.3763 42.8438 72.2054 42.2938C71.0522 41.726 70.0498 40.9809 69.1982 40.0584C68.3643 39.1358 67.7168 38.0891 67.2555 36.9181C66.7942 35.7472 66.5636 34.5585 66.5636 33.3521Z" fill="#231F20"/>
<path d="M90.0798 24.0645H94.8167L101.363 42.9591H96.0941L94.9498 39.26H89.9201L88.8024 42.9591H83.5066L90.0798 24.0645ZM94.1248 35.8004L92.4483 29.9457L90.6919 35.8004H94.1248Z" fill="#231F20"/>
<path d="M102.401 42.9591V24.0645H111.077C111.999 24.0645 112.851 24.2596 113.631 24.6499C114.412 25.0225 115.077 25.5193 115.627 26.1402C116.195 26.7434 116.638 27.4442 116.958 28.2426C117.277 29.0232 117.437 29.8127 117.437 30.611C117.437 31.711 117.197 32.74 116.718 33.6981C116.239 34.6383 115.574 35.4101 114.722 36.0133L118.714 42.9591H112.86L109.533 37.1576H107.59V42.9591H102.401ZM107.59 32.6336H110.864C111.183 32.6336 111.476 32.4562 111.742 32.1013C112.026 31.7465 112.168 31.2497 112.168 30.611C112.168 29.9546 112.008 29.4578 111.689 29.1208C111.369 28.7659 111.05 28.5885 110.731 28.5885H107.59V32.6336Z" fill="#231F20"/>
<path d="M119.827 42.9591V24.0645H125.016V38.435H133.585V42.9591H119.827Z" fill="#231F20"/>
<path d="M148.327 38.435V42.9591H134.862V24.0645H148.088V28.5885H140.051V31.2497H146.917V35.4545H140.051V38.435H148.327Z" fill="#231F20"/>
<path d="M164.925 28.5885H159.496V42.9591H154.307V28.5885H148.851V24.0645H164.925V28.5885Z" fill="#231F20"/>
<path d="M180.999 28.5885H175.57V42.9591H170.381V28.5885H164.925V24.0645H180.999V28.5885Z" fill="#231F20"/>
<path d="M60.2224 55.3371V56.2652H53.082V45.637H60.0877V46.5651H54.1299V50.3972H59.3242V51.2804H54.1299V55.3371H60.2224Z" fill="#231F20"/>
<path d="M63.2518 47.583V56.2652H62.204V45.637H63.0123L70.0479 54.4838V45.6519H71.0957V56.2652H70.1826L63.2518 47.583Z" fill="#231F20"/>
<path d="M81.3117 46.5651H77.5245V56.2652H76.4766V46.5651H72.6894V45.637H81.3117V46.5651Z" fill="#231F20"/>
<path d="M90.0441 55.3371V56.2652H82.9037V45.637H89.9094V46.5651H83.9516V50.3972H89.1459V51.2804H83.9516V55.3371H90.0441Z" fill="#231F20"/>
<path d="M92.0257 56.2652V45.637H96.5165C96.9755 45.637 97.3947 45.7368 97.7739 45.9363C98.1631 46.126 98.4974 46.3804 98.7768 46.6998C99.0563 47.0092 99.2708 47.3634 99.4205 47.7626C99.5802 48.1618 99.66 48.566 99.66 48.9751C99.66 49.3643 99.6002 49.7386 99.4804 50.0978C99.3706 50.4471 99.2109 50.7665 99.0014 51.0559C98.8018 51.3353 98.5573 51.5748 98.2679 51.7744C97.9785 51.964 97.6541 52.0937 97.2949 52.1636L99.8995 56.2652H98.717L96.2171 52.3432H93.0735V56.2652H92.0257ZM93.0735 51.4151H96.5464C96.8558 51.4151 97.1352 51.3503 97.3847 51.2205C97.6442 51.0808 97.8637 50.8962 98.0433 50.6667C98.223 50.4371 98.3627 50.1777 98.4625 49.8883C98.5623 49.5988 98.6122 49.2945 98.6122 48.9751C98.6122 48.6558 98.5523 48.3514 98.4325 48.062C98.3228 47.7626 98.1681 47.5031 97.9685 47.2836C97.7789 47.064 97.5494 46.8894 97.2799 46.7597C97.0204 46.6299 96.746 46.5651 96.4566 46.5651H93.0735V51.4151Z" fill="#231F20"/>
<path d="M109.189 46.5651H105.402V56.2652H104.354V46.5651H100.567V45.637H109.189V46.5651Z" fill="#231F20"/>
<path d="M113.022 45.637H113.905L118.321 56.2652H117.213L115.836 52.942H111.061L109.699 56.2652H108.576L113.022 45.637ZM115.597 52.1187L113.456 46.8644L111.285 52.1187H115.597Z" fill="#231F20"/>
<path d="M119.845 56.2652V45.637H120.892V56.2652H119.845Z" fill="#231F20"/>
<path d="M124.606 47.583V56.2652H123.558V45.637H124.366L131.402 54.4838V45.6519H132.45V56.2652H131.536L124.606 47.583Z" fill="#231F20"/>
<path d="M144.537 56.2652V47.5381L140.66 54.2892H140.046L136.169 47.5381V56.2652H135.121V45.637H136.199L140.345 52.9121L144.522 45.637H145.585V56.2652H144.537Z" fill="#231F20"/>
<path d="M155.389 55.3371V56.2652H148.248V45.637H155.254V46.5651H149.296V50.3972H154.491V51.2804H149.296V55.3371H155.389Z" fill="#231F20"/>
<path d="M158.418 47.583V56.2652H157.37V45.637H158.179L165.214 54.4838V45.6519H166.262V56.2652H165.349L158.418 47.583Z" fill="#231F20"/>
<path d="M176.478 46.5651H172.691V56.2652H171.643V46.5651H167.856V45.637H176.478V46.5651Z" fill="#231F20"/>
<rect x="46.7598" y="23" width="1.66326" height="34.0968" fill="#231F20"/>
<path fill-rule="evenodd" clip-rule="evenodd" d="M41.4255 49.7623C43.2183 47.1079 44.2652 43.9083 44.2652 40.4641C44.2652 31.2782 36.8185 23.8315 27.6326 23.8315C18.4467 23.8315 11 31.2782 11 40.4641C11 49.6501 18.4467 57.0967 27.6326 57.0967C29.9243 57.0967 32.1078 56.6332 34.0943 55.7949C33.7353 55.8201 33.3646 55.8327 32.9822 55.8327C31.2258 55.8327 29.5093 55.5532 27.8327 54.9944C26.1561 54.4355 24.7191 53.6372 23.5215 52.5993L25.5175 49.2462C26.7948 50.151 28.0323 50.8429 29.2298 51.3219C30.454 51.7743 31.6649 52.0005 32.8624 52.0005C33.9269 52.0005 34.7652 51.8009 35.3772 51.4017C35.9893 51.0026 36.2954 50.4304 36.2954 49.6853C36.2954 48.9401 35.9361 48.3946 35.2176 48.0486C34.499 47.7026 33.3281 47.3035 31.7048 46.8511C30.3476 46.4785 29.1899 46.1192 28.2319 45.7733C27.2739 45.4273 26.5021 45.0414 25.9166 44.6156C25.3312 44.1632 24.9054 43.6576 24.6393 43.0987C24.3731 42.5133 24.2401 41.8214 24.2401 41.023C24.2401 39.9585 24.4397 39.0005 24.8388 38.1489C25.2646 37.2973 25.8501 36.5788 26.5952 35.9933C27.3404 35.3812 28.2053 34.9155 29.1899 34.5962C30.2012 34.2768 31.2923 34.1172 32.4632 34.1172C34.0333 34.1172 35.497 34.3434 36.8542 34.7958C38.2381 35.2482 39.5021 35.98 40.6465 36.9913L38.4909 40.2246C37.4264 39.4263 36.3885 38.8408 35.3772 38.4682C34.3926 38.0957 33.408 37.9094 32.4233 37.9094C31.5185 37.9094 30.76 38.0957 30.148 38.4682C29.5359 38.8408 29.2298 39.4396 29.2298 40.2646C29.2298 40.6371 29.2964 40.9432 29.4294 41.1827C29.5891 41.4222 29.8286 41.6351 30.148 41.8214C30.4673 42.0077 30.8798 42.1939 31.3854 42.3802C31.9177 42.5399 32.5697 42.7129 33.3414 42.8992C34.7785 43.2717 36.0026 43.6443 37.0139 44.0169C38.0518 44.3894 38.8901 44.8152 39.5287 45.2943C40.194 45.7733 40.6731 46.3321 40.9658 46.9708C41.2851 47.5829 41.4448 48.328 41.4448 49.2062C41.4448 49.3952 41.4384 49.5805 41.4255 49.7623Z" fill="#C52128"/>
</svg>
