<svg width="192" height="80" viewBox="0 0 192 80" fill="none" xmlns="http://www.w3.org/2000/svg">
<path fill-rule="evenodd" clip-rule="evenodd" d="M37.1577 68.7411C35.8358 69.547 35.287 71.4338 35.3913 74.814C35.4523 76.7923 35.5274 77.307 35.8663 78.0765C36.3677 79.2145 37.0398 79.7942 38.0302 79.9427C39.5425 80.1694 40.5465 79.5006 41.0888 77.9052L41.4 76.9895L40.9718 76.8432C40.3351 76.6256 40.141 76.7755 39.9017 77.6703C39.7262 78.3266 39.5787 78.5254 39.1266 78.7155C38.3664 79.0352 37.6526 78.7343 37.2275 77.9152C36.5597 76.6285 36.4524 73.1187 37.018 71.0657C37.5985 68.9589 39.477 68.8977 40.0263 70.9677C40.2355 71.7558 40.2975 71.7934 40.9654 71.5395C41.3719 71.3849 41.3873 71.3347 41.2175 70.7164C40.9311 69.6734 40.5807 69.1154 39.9834 68.7513C39.251 68.3047 37.8813 68.2997 37.1577 68.7411ZM89.4827 68.7676C88.4425 69.434 87.9625 71.1799 88.4607 72.4846C88.8135 73.4083 89.2179 73.7509 90.9255 74.5721C92.3359 75.2505 92.8868 75.8894 92.8879 76.8483C92.8894 78.0767 92.1996 78.8437 91.0933 78.8437C90.2584 78.8437 89.6616 78.3859 89.3155 77.4796C89.0353 76.7458 88.9852 76.7044 88.496 76.8023C88.2096 76.8595 87.9387 76.9429 87.8942 76.9874C87.7166 77.165 88.4737 78.7513 88.9485 79.1965C90.3584 80.5182 92.917 80.1051 93.7784 78.4167C94.0626 77.8596 94.124 77.4737 94.0728 76.5674C93.9855 75.0232 93.6133 74.5367 91.8086 73.6083C90.1104 72.7347 89.6515 72.3514 89.5047 71.683C89.3626 71.0356 89.6969 70.0418 90.1677 69.7118C90.6041 69.4063 91.3794 69.3734 91.8766 69.6396C92.0698 69.743 92.3829 70.1778 92.5723 70.6058C92.8158 71.1564 92.9925 71.3548 93.1766 71.2841C93.3197 71.2292 93.5474 71.1843 93.6826 71.1843C94.3156 71.1843 93.5024 69.2982 92.6392 68.7648C91.8554 68.2803 90.241 68.2818 89.4827 68.7676ZM66.0286 70.3967V72.2082L65.6032 71.783C64.812 70.9916 63.2732 71.3262 62.5977 72.4365C61.3812 74.4354 61.7709 78.8208 63.2323 79.5765C64.0498 79.9994 65.0421 79.9274 65.6687 79.4001L66.2019 78.9515V79.4117C66.2019 79.8113 66.2645 79.8645 66.6785 79.8169L67.155 79.7621L67.2008 74.1735L67.2465 68.5849H66.6376H66.0286V70.3967ZM75.7329 69.4514C75.7329 70.1061 75.7965 70.3178 75.9928 70.3178C76.3196 70.3178 76.321 70.3029 75.9062 71.2709C75.4825 72.2594 75.4825 72.224 75.9081 72.224C76.3669 72.224 77.2925 70.2516 77.2925 69.2738V68.5849H76.5127H75.7329V69.4514ZM111.95 70.3178C111.95 71.2709 111.908 72.0507 111.857 72.0507C111.805 72.0507 111.595 71.8948 111.391 71.7042C110.881 71.2293 109.723 71.2377 109.11 71.7206C108.232 72.4108 107.902 73.3424 107.826 75.3455C107.741 77.5513 107.961 78.4935 108.743 79.2752C109.243 79.7758 109.43 79.8488 110.208 79.8488C110.928 79.8488 111.183 79.7654 111.533 79.4155C112.065 78.8832 112.131 78.878 112.078 79.3722C112.046 79.6814 112.136 79.7736 112.514 79.8169L112.99 79.8718V74.2283V68.5849H112.47H111.95V70.3178ZM119.354 74.1735L119.392 79.7621H119.96H120.528L120.577 77.466L120.625 75.1699H121.721C122.572 75.1699 122.944 75.083 123.389 74.78C124.416 74.0813 124.68 73.5559 124.743 72.0823C124.791 70.9491 124.739 70.6377 124.393 69.9894C123.783 68.8499 123.153 68.5849 121.051 68.5849H119.315L119.354 74.1735ZM136.846 69.3937C136.783 69.4571 136.731 69.964 136.731 70.5201C136.731 71.4827 136.71 71.5309 136.298 71.5309C135.951 71.5309 135.864 71.6175 135.864 71.9641C135.864 72.3069 135.952 72.3973 136.284 72.3973H136.703L136.761 75.568C136.825 79.1747 136.945 79.5698 138.028 79.773C139.021 79.9593 139.504 79.7562 139.504 79.1523C139.504 78.6785 139.454 78.6357 138.903 78.6357C138.487 78.6357 138.248 78.533 138.123 78.3006C138.021 78.1095 137.944 76.7691 137.944 75.1814V72.3973H138.637C139.261 72.3973 139.33 72.354 139.33 71.9641C139.33 71.5742 139.261 71.5309 138.637 71.5309H137.944V70.4045C137.944 69.2831 137.942 69.2781 137.453 69.2781C137.183 69.2781 136.91 69.3301 136.846 69.3937ZM122.754 69.9806C123.333 70.4364 123.639 71.4532 123.488 72.4233C123.295 73.6703 122.734 74.1302 121.406 74.1302H120.615V71.8774V69.6247H121.458C122.046 69.6247 122.438 69.7323 122.754 69.9806ZM44.0208 71.3567C43.3606 71.5172 42.5553 72.3457 42.3798 73.0447C42.2533 73.5488 42.2389 73.5291 42.8345 73.6717C43.2272 73.7658 43.3192 73.7108 43.4639 73.2956C43.7171 72.5692 44.1503 72.224 44.809 72.224C45.5395 72.224 45.879 72.6864 45.9542 73.7836L46.0078 74.5634L44.971 74.6646C42.9579 74.861 42.1159 75.6999 42.1159 77.5094C42.1159 78.8165 42.5255 79.5554 43.4122 79.8481C44.2863 80.1366 45.1264 79.9398 45.6433 79.3254L46.0738 78.8139L46.1875 79.3313C46.2831 79.7672 46.3842 79.8488 46.8271 79.8488H47.3532L47.2759 76.3397C47.1927 72.5574 47.0823 72.0358 46.2772 71.6194C45.642 71.2908 44.7287 71.1845 44.0208 71.3567ZM51.3662 71.3461C51.1651 71.4317 50.8335 71.714 50.6298 71.9731L50.2593 72.4441V71.9875C50.2593 71.5808 50.1927 71.5309 49.6496 71.5309H49.04L49.0864 75.6465L49.1329 79.7621H49.6528H50.1726L50.2593 76.5391C50.3265 74.0359 50.404 73.2426 50.6058 72.9867C50.9905 72.499 51.1645 72.4029 51.6678 72.3999C52.5226 72.3951 52.594 72.686 52.6552 76.4192L52.7117 79.8687L53.2617 79.8155L53.8117 79.7621L53.8597 77.0883C53.9162 73.9377 53.7129 72.1348 53.2485 71.6704C52.8697 71.2917 51.8901 71.1229 51.3662 71.3461ZM57.1221 71.4361C56.2951 71.7357 56.0709 71.9526 55.7224 72.7902C55.4526 73.4386 55.4538 73.444 55.9021 73.6145C56.3972 73.8027 56.671 73.7133 56.671 73.3636C56.671 72.8544 57.3822 72.224 57.9565 72.224C58.716 72.224 59.0846 72.6744 59.2132 73.7599L59.3187 74.6501H58.3687C57.1626 74.6501 56.0565 75.2048 55.5957 76.0407C55.3417 76.5017 55.2784 76.8982 55.3261 77.7312C55.3796 78.6659 55.4618 78.8927 55.9083 79.3393C56.8294 80.2605 58.4736 80.1827 58.9919 79.1937L59.2192 78.7596L59.4091 79.3043C59.5575 79.7302 59.6991 79.8488 60.0586 79.8488H60.5184L60.4575 76.2452C60.3832 71.8378 60.2728 71.56 58.4905 71.2947C58.0717 71.2323 57.5302 71.2883 57.1221 71.4361ZM70.883 71.3068C70.1743 71.4477 69.5516 72.002 69.247 72.7633C68.9214 73.5771 68.9042 73.5239 69.5405 73.6765C69.9531 73.7757 70.0452 73.7249 70.2025 73.3114C70.4879 72.5607 70.8856 72.224 71.4873 72.224C72.2201 72.224 72.544 72.6345 72.6838 73.7403L72.7989 74.6501H71.8765C70.6719 74.6501 69.5461 75.2147 69.1174 76.0336C68.7093 76.8133 68.6989 78.3223 69.0969 78.9962C69.7684 80.1328 71.4258 80.3134 72.2988 79.345L72.7639 78.8293L72.8758 79.3391C72.9696 79.7661 73.0729 79.8488 73.5116 79.8488H74.0355L73.9615 76.3397C73.9184 74.2931 73.8057 72.6354 73.6913 72.3623C73.3756 71.6094 71.9872 71.0876 70.883 71.3068ZM79.9495 71.369C79.0427 71.6404 78.5055 72.4384 78.5055 73.5136C78.5055 74.6729 78.8471 75.1296 80.3367 75.9626C81.5691 76.6519 81.9713 77.0985 81.9713 77.7776C81.9713 78.3427 81.3107 78.9823 80.7271 78.9823C80.1523 78.9823 79.4411 78.4151 79.2973 77.8417C79.1992 77.4508 79.1197 77.405 78.715 77.5066C78.0926 77.6627 78.0952 77.6574 78.3199 78.3387C78.81 79.8233 80.4909 80.4307 81.9912 79.6653C82.7738 79.266 83.1843 78.5205 83.1843 77.4983C83.1843 76.5708 82.7288 75.9553 81.5651 75.3114C79.6033 74.2253 79.1051 73.3911 79.9462 72.6008C80.6202 71.9677 81.4192 72.1757 81.7946 73.082C81.9803 73.5308 82.0779 73.5909 82.4681 73.4975C82.7191 73.4374 82.9561 73.3611 82.9948 73.3279C83.15 73.1946 82.4174 71.8689 82.0586 71.634C81.5315 71.2884 80.6068 71.1723 79.9495 71.369ZM96.9462 71.4248C95.6572 72 95.0725 73.5381 95.1708 76.0953C95.272 78.7243 95.9423 79.7959 97.591 79.964C98.5399 80.0605 99.4024 79.6415 99.9539 78.816C100.429 78.1046 100.399 77.6005 99.8683 77.4056C99.5299 77.2813 99.4422 77.3569 99.1445 78.0301C98.768 78.8811 98.1876 79.1627 97.4771 78.8388C96.8463 78.5515 96.5053 77.8847 96.4011 76.7358L96.3062 75.6898H98.4337H100.561L100.442 74.5253C100.29 73.0419 99.8236 71.9778 99.1795 71.6447C98.4051 71.2442 97.5414 71.1592 96.9462 71.4248ZM103.553 71.3054C102.867 71.4903 102.417 71.9346 101.947 72.8908C101.509 73.7826 101.467 74.041 101.469 75.7765C101.472 78.1434 101.85 79.1196 102.988 79.7004C104.202 80.3198 105.748 79.9224 106.293 78.8508C106.803 77.8485 106.801 77.6416 106.282 77.4659C105.83 77.3132 105.776 77.3485 105.452 78.0122C105.043 78.8496 104.406 79.1534 103.717 78.8397C103.17 78.5903 102.81 77.7811 102.735 76.6348L102.679 75.7765L104.765 75.7281L106.851 75.6798L106.743 74.5009C106.621 73.1686 106.178 72.1317 105.539 71.6809C105.064 71.3467 104.087 71.1617 103.553 71.3054ZM127.536 71.3432C126.645 71.6244 126.294 71.9232 125.956 72.6865C125.767 73.1151 125.637 73.4875 125.669 73.5136C125.701 73.54 125.943 73.6133 126.206 73.6765C126.619 73.7757 126.711 73.7249 126.868 73.3114C127.154 72.5607 127.551 72.224 128.153 72.224C128.892 72.224 129.231 72.6449 129.377 73.7412L129.497 74.6501H128.559C126.637 74.6501 125.468 75.721 125.467 77.4832C125.467 78.589 125.873 79.4086 126.59 79.7488C127.532 80.1957 128.403 80.0434 129.084 79.313L129.441 78.9293L129.616 79.389C129.744 79.7268 129.912 79.8488 130.25 79.8488H130.709L130.634 76.253C130.584 73.8874 130.486 72.5245 130.347 72.2691C129.956 71.5503 128.451 71.0545 127.536 71.3432ZM142.709 71.3813C142.519 71.4839 142.188 71.774 141.974 72.0259L141.585 72.484L141.584 72.0074C141.583 71.5936 141.515 71.5309 141.063 71.5309H140.543V75.7007V79.8708L141.059 79.8164L141.574 79.7621L141.629 76.7207C141.677 74.0512 141.727 73.6064 142.032 73.0816C142.449 72.3639 143.243 72.1843 143.711 72.7016C143.958 72.9745 144.008 73.5263 144.049 76.3923L144.096 79.7621L144.659 79.8164L145.222 79.8708V76.2901C145.222 72.2587 145.1 71.7035 144.143 71.3697C143.483 71.1396 143.154 71.1423 142.709 71.3813ZM148.58 71.4274C147.88 71.7399 147.213 72.6311 146.955 73.6015C146.709 74.5263 146.711 77.0377 146.959 77.9589C147.473 79.8659 149.646 80.6242 151.097 79.4029C151.626 78.9581 152.089 77.9121 151.896 77.5995C151.685 77.2581 150.97 77.4033 150.846 77.8126C150.544 78.808 149.523 79.2764 148.82 78.7425C148.372 78.4027 147.995 77.3654 147.995 76.4752V75.6898H150.074C152.133 75.6898 152.154 75.6858 152.154 75.2885C152.154 74.461 151.766 72.8118 151.45 72.2971C150.91 71.4175 149.536 71.0011 148.58 71.4274ZM132.872 71.4931L132.392 71.5544L132.439 75.6583L132.485 79.7621L133.048 79.8164L133.612 79.8708L133.613 77.217C133.614 73.7058 133.895 72.8009 135.022 72.6806C135.49 72.6307 135.518 72.586 135.518 71.8774C135.518 71.4499 135.447 71.3576 135.118 71.3576C134.659 71.3576 134.304 71.608 133.897 72.2193L133.612 72.6477V72.0996C133.612 71.4721 133.534 71.4085 132.872 71.4931ZM155.418 71.5742C155.271 71.6934 155.022 71.9837 154.865 72.2193L154.58 72.6477V72.0894C154.58 71.566 154.541 71.5309 153.97 71.5309H153.36L153.407 75.6465L153.453 79.7621L153.999 79.8152L154.545 79.8682L154.606 76.8384C154.661 74.0876 154.7 73.7635 155.03 73.3196C155.239 73.0374 155.661 72.7626 156.026 72.6701C156.596 72.5255 156.659 72.4515 156.659 71.9336C156.659 71.4179 156.608 71.3576 156.172 71.3576C155.905 71.3576 155.565 71.4551 155.418 71.5742ZM98.3394 72.3316C98.729 72.4812 99.0821 73.2249 99.1533 74.0458L99.2133 74.7367L97.7838 74.787C96.1852 74.8433 96.183 74.841 96.537 73.5658C96.8299 72.5117 97.5404 72.0251 98.3394 72.3316ZM104.8 72.489C105.178 72.7538 105.536 73.6968 105.538 74.4335C105.539 74.8053 105.475 74.8234 104.152 74.8234H102.766V74.2979C102.766 73.6025 103.175 72.6519 103.573 72.4204C104.018 72.1613 104.36 72.1805 104.8 72.489ZM150.174 72.6241C150.534 72.9347 150.658 73.2256 150.725 73.9238L150.811 74.8234H149.403C147.832 74.8234 147.829 74.8201 148.18 73.5558C148.537 72.2705 149.331 71.8994 150.174 72.6241ZM65.4999 72.7742C65.9777 73.2872 66.0784 73.973 66.0021 76.1977C65.9434 77.9147 65.898 78.1348 65.5195 78.5377C64.997 79.0937 64.4025 79.1048 63.8662 78.5685C63.329 78.0313 63.2104 77.333 63.283 75.1344C63.3551 72.9553 63.614 72.3973 64.5529 72.3973C64.9416 72.3973 65.2708 72.5283 65.4999 72.7742ZM111.5 72.9735C111.825 73.4104 111.864 73.6991 111.864 75.6671C111.864 78.0823 111.668 78.6993 110.834 78.9085C109.701 79.193 109.169 78.3839 109.044 76.1833C108.951 74.5563 109.188 73.2138 109.659 72.6921C110.087 72.2171 111.047 72.3635 111.5 72.9735ZM45.9598 76.4696C45.8863 77.6544 45.6246 78.4119 45.182 78.7219C44.2809 79.353 43.3277 78.7683 43.3277 77.5846C43.3277 76.2215 44.1491 75.4895 45.5804 75.5768C45.9891 75.6016 46.0105 75.6524 45.9598 76.4696ZM59.1508 76.588C59.0962 78.225 58.3406 79.178 57.3037 78.9177C56.4646 78.7071 56.2589 76.8096 57.0023 76.1369C57.3997 75.7772 58.1698 75.528 58.7505 75.5711C59.1622 75.6016 59.1821 75.6519 59.1508 76.588ZM72.6386 76.6429C72.5669 77.8506 72.2463 78.5737 71.6651 78.8385C70.6792 79.2877 69.8641 78.416 70.0718 77.1351C70.2479 76.0499 70.9958 75.5209 72.2671 75.5822C72.6861 75.6025 72.6982 75.6375 72.6386 76.6429ZM129.314 76.6244C129.254 77.8081 128.915 78.5723 128.331 78.8385C127.345 79.2877 126.53 78.416 126.738 77.1351C126.914 76.0499 127.662 75.5209 128.933 75.5822C129.35 75.6023 129.364 75.6415 129.314 76.6244Z" fill="#231F20"/>
<path fill-rule="evenodd" clip-rule="evenodd" d="M95.5307 63.3429C21.3906 63.3822 13 63.7093 13 63.7093V64.3464C13 64.3464 13.1312 64.0794 95.574 64.0794H178.147V63.6461C178.147 63.4079 178.127 63.2323 178.103 63.2561C178.079 63.2798 140.922 63.3188 95.5307 63.3429Z" fill="#F03D41"/>
<path fill-rule="evenodd" clip-rule="evenodd" d="M33.0377 0.222249C26.1037 1.65362 21.1329 6.24286 19.4864 12.7333C18.354 17.1975 18.9931 20.7204 21.4089 23.3299C22.7874 24.8188 24.0024 25.6463 27.5574 27.518C32.0461 29.8812 33.1387 30.731 34.0826 32.5938C34.9383 34.2822 34.585 37.0858 33.2553 39.1577C30.6537 43.212 23.7409 44.3413 20.1439 41.2996C18.9193 40.2638 17.8532 38.045 17.8532 36.5318C17.8532 35.8369 17.8495 35.8331 17.1867 35.8331H16.5201L15.8777 37.565C15.5243 38.5176 14.7315 40.4011 14.1158 41.7505C13.5001 43.1 13.0168 44.2217 13.042 44.2434C13.4339 44.5815 15.1194 45.4594 16.0458 45.8082C19.0043 46.9218 23.5591 47.2645 27.2236 46.6495C36.6248 45.0714 43.5112 37.9494 43.4975 29.8186C43.4924 26.8345 42.5699 24.5495 40.5432 22.5028C39.208 21.1544 37.4717 19.9591 34.2291 18.1564C30.0315 15.8227 28.6027 14.6654 27.8679 13.0043C27.3437 11.8192 27.4858 9.94658 28.219 8.37987C29.5158 5.60862 31.267 4.3968 34.6708 3.9154C37.0835 3.57419 39.207 4.16026 40.598 5.55126C41.3052 6.25845 42.2113 7.96397 42.3929 8.92989C42.4863 9.42585 42.5638 9.49204 43.0428 9.4839C43.5567 9.47523 43.6318 9.38183 44.4024 7.79432C44.851 6.87017 45.5825 5.42788 46.0279 4.58933L46.8375 3.0649L46.4252 2.62457C45.8592 2.02048 43.5086 0.909343 41.8445 0.459483C40.0559 -0.024169 34.9033 -0.162974 33.0377 0.222249ZM101.967 0.22069C96.8091 1.00309 92.2174 2.73391 88.3485 5.3544C86.0791 6.89148 82.5395 10.4588 81.0608 12.6989C79.5076 15.0522 78.2714 17.6024 77.3699 20.3121C76.2882 23.564 75.9034 25.5952 75.7916 28.6416C75.7096 30.8764 75.7486 31.4962 76.0702 33.0605C76.7483 36.3586 77.9976 38.7494 80.2375 41.036C82.4438 43.2882 84.6058 44.6115 87.8571 45.7001C93.2564 47.5077 101.512 47.3403 107.357 45.3045C110.242 44.3001 109.982 44.5515 111.402 41.3812C112.095 39.8334 112.638 38.5482 112.609 38.5254C112.077 38.1057 111.86 38.1523 110.839 38.9054C109.403 39.9635 105.612 41.7926 103.757 42.322C97.6081 44.0771 91.7966 42.4831 88.9984 38.2739C86.9785 35.2355 86.2708 31.1255 86.9161 26.1811C87.5803 21.0924 89.3172 16.3217 91.9826 12.2657C93.319 10.2318 96.3689 7.23304 98.2181 6.13472C101.301 4.3034 105.183 3.47455 108.202 4.00291C111.199 4.52712 114.202 6.51354 115.639 8.92088C116.126 9.73829 116.256 9.84763 116.688 9.80344C117.154 9.75579 117.253 9.57955 118.477 6.6338C119.19 4.91823 119.787 3.39761 119.803 3.25465C119.839 2.9585 117.836 1.90229 116.195 1.35175C113.19 0.343379 111.542 0.0959208 107.444 0.0371756C104.742 -0.00146807 103.061 0.0548511 101.967 0.22069ZM60.8724 13.8245C56.8905 14.3877 53.6427 15.9849 50.8418 18.7572C46.9276 22.6316 44.8374 28.0372 44.8417 34.2735C44.8448 38.8681 46.1758 42.0509 48.9587 44.1193C50.6999 45.4135 52.4144 46.0751 55.1105 46.4931C59.2088 47.1285 63.2069 46.4721 67.0105 44.5392L68.3672 43.8497L69.4646 41.9938C70.5184 40.2117 70.5501 40.1247 70.2609 39.8051C69.9642 39.4771 69.9517 39.4774 69.4234 39.8306C68.2906 40.5877 65.7094 41.738 64.3971 42.0707C62.795 42.4769 60.471 42.5266 59.1828 42.1826C56.7453 41.5314 55.1923 39.9157 54.5794 37.3927C54.2837 36.1757 54.2827 33.5537 54.5771 31.7175L54.8062 30.2879H64.2228H73.6392L73.83 29.5795C74.5923 26.7484 74.7454 22.9107 74.1836 20.7146C73.7102 18.8632 73.0767 17.7209 71.8539 16.5137C70.0162 14.6997 67.6808 13.8631 64.1216 13.7439C62.9302 13.7038 61.468 13.7402 60.8724 13.8245ZM131.618 13.7577C127.595 14.3651 124.558 15.4352 121.784 17.2234L120.614 17.9774V19.9736C120.614 21.8168 120.639 21.9699 120.942 21.9699C121.122 21.9699 121.314 21.8552 121.368 21.715C121.504 21.3605 123.453 19.9501 124.6 19.3761C126.514 18.4184 127.842 18.0803 129.712 18.0754C131.265 18.0714 131.537 18.1194 132.332 18.5393C134.754 19.8168 135.808 22.6593 134.676 24.8608C133.863 26.4413 132.829 26.9344 127.679 28.1968C119.966 30.0877 117.149 31.6724 115.438 35.084C114.304 37.3442 113.972 40.7386 114.701 42.6169C116.219 46.5284 121.946 47.9386 126.939 45.6306C128.339 44.9837 130.054 43.7353 130.898 42.7491L131.483 42.0658L131.848 43.0668C132.049 43.6173 132.404 44.3273 132.638 44.6442C133.695 46.0773 135.608 46.8656 137.617 46.6972C138.825 46.596 143.005 45.3119 143.286 44.9558C143.373 44.8468 143.496 44.4652 143.56 44.1077L143.677 43.4579H142.971C141.86 43.4579 141.134 43.0727 140.898 42.3591C140.647 41.5997 140.388 43.1274 143.408 27.6019C144.342 22.8033 144.541 21.4832 144.483 20.4875C144.246 16.4469 140.474 13.9497 134.304 13.7496C133.113 13.711 131.904 13.7146 131.618 13.7577ZM167.489 13.9274C165.824 14.3003 164.003 15.0857 162.413 16.116C161.181 16.9151 159.171 18.5133 158.87 18.9329C158.642 19.2524 158.745 18.2797 159.146 16.338L159.54 14.4318H155.156H150.773L150.601 15.2983C150.506 15.7748 149.916 18.8161 149.29 22.0566C148.663 25.2971 147.374 31.9376 146.426 36.8133C145.477 41.6889 144.701 45.7876 144.701 45.9214C144.701 46.1224 144.934 46.1376 146.044 46.0094C146.783 45.9241 148.81 45.8968 150.548 45.9486C153.703 46.0425 153.71 46.0418 153.795 45.6601C153.842 45.4497 154.55 41.8073 155.368 37.566C156.186 33.3248 157.05 29.0516 157.288 28.0701C158.657 22.4143 160.887 19.5614 164.179 19.254C166.322 19.0538 167.794 19.962 168.348 21.8256C168.66 22.8776 168.698 25.2502 168.43 27.0487C168.261 28.1808 165.083 44.7697 164.866 45.6509L164.774 46.0241L168.384 45.9974C170.37 45.9827 172.419 46.0058 172.939 46.0489L173.882 46.1271L174.603 42.4098C174.999 40.3652 175.937 35.5732 176.687 31.7608L178.05 24.8292L178.053 21.8833C178.056 19.2314 178.018 18.8414 177.669 17.976C176.537 15.1699 174.401 13.9011 170.526 13.7343C169.247 13.6792 168.34 13.7369 167.489 13.9274ZM64.2798 17.0771C65.7534 18.1662 66.1751 21.2929 65.4422 25.6957L65.2401 26.9087L60.3589 26.9546L55.4777 27.0007L55.8205 25.7416C57.0059 21.3884 58.3209 18.8975 60.113 17.6105C61.5246 16.5968 63.3192 16.3671 64.2798 17.0771ZM133.957 29.2812C133.957 29.8955 132.67 35.9404 132.298 37.0682C131.508 39.47 130.189 41.2431 128.629 42.0014C128.257 42.182 127.46 42.345 126.766 42.3825C125.712 42.4391 125.473 42.3937 124.946 42.0369C124.054 41.4326 123.751 40.6759 123.744 39.039C123.737 37.2629 124.099 35.7432 124.889 34.2403C125.96 32.2017 127.312 31.2732 131.185 29.9146C133.723 29.0242 133.957 28.9707 133.957 29.2812Z" fill="#221E1F"/>
<path fill-rule="evenodd" clip-rule="evenodd" d="M102.948 16.0631C102.344 17.041 101.736 17.8849 101.596 17.9383C101.457 17.9918 101 17.8691 100.581 17.6657L99.8198 17.2957V19.5251C99.8198 21.2654 99.7645 21.8002 99.5675 21.9638C99.2266 22.2466 99.0866 22.1324 98.3016 20.931L97.6266 19.898L97.2494 20.5692C97.0419 20.9384 96.7626 21.2824 96.6288 21.3337C96.495 21.3852 95.9691 21.3162 95.46 21.1807C94.951 21.0454 94.4783 20.9334 94.4095 20.9324C94.3407 20.9312 94.3017 21.5692 94.3229 22.3502L94.3612 23.7702L93.6942 24.1485L93.0273 24.5268L94.7727 26.0576C95.7327 26.8996 96.5626 27.704 96.6167 27.8451C96.6709 27.9863 96.5204 28.4772 96.2823 28.9363L95.8492 29.7709L96.2317 29.6847C96.9718 29.5177 99.2197 29.056 99.7733 28.9573C100.183 28.8841 100.361 28.9285 100.435 29.1221C100.491 29.2678 100.298 30.2152 100.005 31.2274C99.7125 32.2395 99.4732 33.1285 99.4732 33.2029C99.4732 33.277 99.6621 33.3379 99.8929 33.3379C100.295 33.3379 100.325 33.2545 100.608 31.3826C100.771 30.3072 101.001 29.2938 101.121 29.1306C101.341 28.8299 101.83 28.8999 105.115 29.7019C105.433 29.7795 105.463 29.7227 105.399 29.1723C105.257 27.9537 105.382 27.8101 108.072 26.1096C110.356 24.6659 110.574 24.4859 110.292 24.279C110.119 24.1528 109.923 24.0495 109.856 24.0495C109.478 24.0495 109.619 23.3804 110.238 22.2319C110.625 21.516 110.886 20.9303 110.82 20.9303C110.754 20.9303 110.234 21.0511 109.664 21.1989C108.485 21.5044 108.242 21.4072 108.073 20.5634L107.966 20.0313L106.743 21.0873C104.791 22.7712 104.647 22.4925 105.967 19.5854C106.494 18.4249 106.925 17.4408 106.925 17.3983C106.925 17.3559 106.544 17.482 106.078 17.6789C105.612 17.8755 105.114 17.9918 104.972 17.9371C104.799 17.8707 104.602 17.2451 104.38 16.0614L104.047 14.2852L102.948 16.0631Z" fill="#F03D41"/>
</svg>
