<svg width="192" height="80" viewBox="0 0 192 80" fill="none" xmlns="http://www.w3.org/2000/svg">
<path d="M65.248 33.9382V33.7704C65.248 33.297 65.4435 33.0461 66.1124 33.0461H67.3392V30.7325C67.3392 30.0637 67.6733 29.8682 68.1474 29.8682H68.3429C68.8162 29.8682 69.1233 30.0637 69.1233 30.7325V33.0461H72.6638C73.3334 33.0461 73.5281 33.2963 73.5281 33.7704V33.9382C73.5281 34.4115 73.3334 34.6624 72.6638 34.6624H69.1233V42.216C69.1233 44.1679 69.6252 45.0876 71.1022 45.0876C71.4983 45.0971 71.8911 45.0138 72.2493 44.8443C72.6074 44.6749 72.921 44.424 73.1649 44.1117C73.2203 44.0555 73.7806 44.3072 73.7806 45.0037C73.7806 45.7557 72.8047 46.6477 71.049 46.6477C68.4568 46.6477 67.3423 45.1707 67.3423 42.4145V34.6655H66.1155C65.4435 34.6624 65.248 34.4108 65.248 33.9382Z" fill="#1E1140"/>
<path d="M74.8014 39.7362C74.8014 35.6947 77.6446 32.7114 81.4914 32.7114C85.2266 32.7114 87.6795 35.3591 87.6795 39.4014V39.5684C87.6795 40.0702 87.484 40.1841 86.9268 40.1841H76.6132C76.6193 40.8358 76.7554 41.4798 77.0135 42.0782C77.2717 42.6766 77.6467 43.2175 78.1166 43.6691C78.5865 44.1207 79.1418 44.474 79.75 44.7082C80.3582 44.9424 81.007 45.0529 81.6584 45.0331C84.2507 45.0331 85.4213 43.9178 86.1995 42.6633C86.4744 42.6675 86.7372 42.7767 86.9342 42.9684C87.1313 43.1602 87.2476 43.4199 87.2593 43.6946C87.2593 44.6144 85.252 46.6486 81.6561 46.6486C80.7407 46.6874 79.8272 46.5347 78.9741 46.2002C78.1211 45.8658 77.3472 45.357 76.702 44.7064C76.0569 44.0558 75.5546 43.2777 75.2273 42.4218C74.9 41.566 74.755 40.6513 74.8014 39.7362ZM76.6686 38.6209H85.7554C85.5883 36.0041 83.9713 34.3008 81.4914 34.3008C80.2959 34.2994 79.1421 34.7396 78.2514 35.537C77.3607 36.3343 76.7959 37.4326 76.6656 38.6209H76.6686Z" fill="#1E1140"/>
<path d="M90.5371 45.5613V27.5241C90.5371 27.4679 90.8157 27.3293 91.1528 27.3293C91.7686 27.3293 92.352 27.6372 92.352 29.085V45.5559C92.352 46.2247 92.0172 46.4202 91.5431 46.4202H91.3483C90.8696 46.4256 90.5371 46.227 90.5371 45.5613Z" fill="#1E1140"/>
<path d="M95.1764 39.7362C95.1764 35.6947 98.0196 32.7114 101.866 32.7114C105.602 32.7114 108.055 35.3591 108.055 39.4014V39.5684C108.055 40.0702 107.86 40.1841 107.302 40.1841H96.9882C96.9944 40.8359 97.1306 41.4798 97.3888 42.0783C97.647 42.6767 98.0221 43.2176 98.4921 43.6692C98.962 44.1208 99.5174 44.474 100.126 44.7082C100.734 44.9424 101.383 45.0529 102.034 45.0331C104.626 45.0331 105.797 43.9178 106.575 42.6633C106.85 42.6677 107.113 42.777 107.31 42.9687C107.506 43.1604 107.623 43.4201 107.634 43.6946C107.634 44.6144 105.627 46.6486 102.031 46.6486C101.116 46.6874 100.202 46.5347 99.3491 46.2002C98.4961 45.8658 97.7222 45.357 97.0771 44.7064C96.4319 44.0558 95.9296 43.2777 95.6023 42.4218C95.275 41.566 95.13 40.6513 95.1764 39.7362ZM97.0437 38.6209H106.131C105.963 36.0041 104.347 34.3008 101.866 34.3008C100.671 34.3001 99.5184 34.7407 98.6283 35.538C97.7383 36.3353 97.174 37.4331 97.0437 38.6209Z" fill="#1E1140"/>
<path d="M112.659 35.1646C113.129 34.4001 113.79 33.7716 114.577 33.3414C115.364 32.9111 116.25 32.694 117.147 32.7116C120.659 32.7116 122.415 35.053 122.415 38.5658V45.562C122.415 46.2309 122.08 46.4264 121.606 46.4264H121.411C120.937 46.4264 120.603 46.2309 120.603 45.562V38.6774C120.603 36.0012 119.265 34.4126 117.035 34.4126C114.418 34.4126 112.659 36.1967 112.659 38.9537V45.5597C112.659 46.2286 112.325 46.4241 111.851 46.4241H111.656C111.182 46.4241 110.848 46.2286 110.848 45.5597V27.5241C110.848 27.4679 111.126 27.3293 111.463 27.3293C112.079 27.3293 112.663 27.6372 112.663 29.085L112.659 35.1646Z" fill="#1E1140"/>
<path d="M125.069 39.7362C125.069 35.6947 127.912 32.7114 131.759 32.7114C135.494 32.7114 137.947 35.3591 137.947 39.4014V39.5684C137.947 40.0702 137.752 40.1841 137.194 40.1841H126.881C126.887 40.8359 127.023 41.4798 127.281 42.0783C127.54 42.6767 127.915 43.2176 128.385 43.6692C128.855 44.1208 129.41 44.474 130.018 44.7082C130.626 44.9424 131.275 45.0529 131.927 45.0331C134.519 45.0331 135.69 43.9178 136.468 42.6633C136.743 42.6677 137.005 42.777 137.202 42.9687C137.399 43.1604 137.515 43.4201 137.527 43.6946C137.527 44.6144 135.52 46.6486 131.924 46.6486C131.009 46.6875 130.095 46.5348 129.242 46.2005C128.389 45.8661 127.615 45.3573 126.97 44.7067C126.325 44.056 125.822 43.2779 125.495 42.422C125.168 41.5661 125.023 40.6514 125.069 39.7362ZM126.936 38.6209H136.024C135.856 36.0041 134.24 34.3008 131.759 34.3008C130.564 34.3001 129.411 34.7407 128.521 35.538C127.631 36.3353 127.067 37.4331 126.936 38.6209Z" fill="#1E1140"/>
<path d="M139.801 42.9134C139.801 39.8193 142.895 38.5371 149.027 38.3985H149.306V37.9244C149.306 35.6385 147.968 34.3839 145.571 34.3839C144.705 34.3469 143.846 34.5581 143.096 34.9927C142.346 35.4272 141.736 36.0671 141.338 36.8369C141.062 36.8273 140.801 36.7117 140.609 36.5142C140.417 36.3167 140.308 36.0526 140.306 35.777C140.306 34.8303 142.202 32.7114 145.714 32.7114C149.087 32.7114 151.094 34.6625 151.094 37.8682V46.2299C151.094 46.2861 150.815 46.4254 150.478 46.4254C149.863 46.4254 149.335 46.1175 149.335 44.669V44.168C148.773 44.9528 148.027 45.5871 147.161 46.0149C146.296 46.4427 145.338 46.6508 144.373 46.6209C141.473 46.6209 139.801 45.1408 139.801 42.9134ZM149.306 41.0462V39.8193L148.526 39.847C143.985 40.0141 141.641 40.823 141.641 42.9134C141.641 44.2519 142.728 45.1154 144.54 45.1154C147.271 45.1154 149.306 43.4152 149.306 41.0462Z" fill="#1E1140"/>
<path d="M154.668 45.5613V27.5241C154.668 27.4679 154.947 27.3293 155.284 27.3293C155.899 27.3293 156.483 27.6372 156.483 29.085V45.5559C156.483 46.2247 156.148 46.4202 155.674 46.4202H155.479C155.003 46.4256 154.668 46.227 154.668 45.5613Z" fill="#1E1140"/>
<path d="M158.736 33.9382V33.7704C158.736 33.297 158.932 33.0461 159.601 33.0461H160.828V30.7325C160.828 30.0637 161.162 29.8682 161.636 29.8682H161.831C162.305 29.8682 162.612 30.0637 162.612 30.7325V33.0461H166.152C166.821 33.0461 167.016 33.2963 167.016 33.7704V33.9382C167.016 34.4115 166.821 34.6624 166.152 34.6624H162.612V42.216C162.612 44.1679 163.113 45.0876 164.59 45.0876C164.987 45.0971 165.379 45.0138 165.738 44.8443C166.096 44.6749 166.409 44.424 166.653 44.1117C166.709 44.0555 167.269 44.3072 167.269 45.0037C167.269 45.7557 166.293 46.6477 164.537 46.6477C161.945 46.6477 160.831 45.1707 160.831 42.4145V34.6655H159.604C158.93 34.6624 158.736 34.4108 158.736 33.9382Z" fill="#1E1140"/>
<path d="M171.245 35.1646C171.715 34.4001 172.376 33.7715 173.163 33.3413C173.95 32.911 174.836 32.694 175.733 32.7116C179.245 32.7116 181.001 35.053 181.001 38.5658V45.562C181.001 46.2309 180.666 46.4264 180.192 46.4264H179.997C179.522 46.4264 179.188 46.2309 179.188 45.562V38.6774C179.188 36.0012 177.851 34.4126 175.621 34.4126C173.004 34.4126 171.245 36.1967 171.245 38.9537V45.5597C171.245 46.2286 170.911 46.4241 170.436 46.4241H170.242C169.768 46.4241 169.434 46.2286 169.434 45.5597V27.5241C169.434 27.4679 169.711 27.3293 170.049 27.3293C170.665 27.3293 171.248 27.6372 171.248 29.085L171.245 35.1646Z" fill="#1E1140"/>
<path d="M20.0437 30.5218C20.0437 29.3226 20.5201 28.1724 21.3681 27.3244C22.2161 26.4764 23.3663 26 24.5655 26C25.7648 26 26.9149 26.4764 27.7629 27.3244C28.611 28.1724 29.0874 29.3226 29.0874 30.5218V35.0436H20.043L20.0437 30.5218Z" fill="#DA0041"/>
<path d="M29.0866 48.609C29.0866 49.8082 28.6102 50.9584 27.7622 51.8064C26.9142 52.6544 25.764 53.1308 24.5648 53.1308C23.3655 53.1308 22.2154 52.6544 21.3674 51.8064C20.5194 50.9584 20.043 49.8082 20.043 48.609V44.0872H29.0866V48.609Z" fill="#F27F32"/>
<path d="M15.5218 44.0873C14.928 44.0873 14.34 43.9704 13.7914 43.7431C13.2428 43.5159 12.7443 43.1828 12.3244 42.7629C11.9045 42.343 11.5714 41.8445 11.3442 41.2959C11.117 40.7473 11 40.1593 11 39.5655C11 38.9717 11.117 38.3837 11.3442 37.8351C11.5714 37.2865 11.9045 36.788 12.3244 36.3681C12.7443 35.9482 13.2428 35.6151 13.7914 35.3879C14.34 35.1607 14.928 35.0437 15.5218 35.0437H20.0436V44.0873H15.5218Z" fill="#E13349"/>
<path d="M47.1725 48.609C47.1725 49.8082 46.6961 50.9584 45.8481 51.8064C45.0001 52.6544 43.85 53.1308 42.6507 53.1308C41.4515 53.1308 40.3013 52.6544 39.4533 51.8064C38.6053 50.9584 38.1289 49.8082 38.1289 48.609V44.0872H47.1725V48.609Z" fill="#0AAEEA"/>
<path d="M38.127 30.5218C38.127 29.3226 38.6034 28.1724 39.4514 27.3244C40.2994 26.4764 41.4495 26 42.6488 26C43.848 26 44.9982 26.4764 45.8462 27.3244C46.6942 28.1724 47.1706 29.3226 47.1706 30.5218V35.0436H38.127V30.5218Z" fill="#4D1C70"/>
<path d="M51.6956 35.0437C52.8949 35.0437 54.045 35.5201 54.893 36.3681C55.741 37.2161 56.2174 38.3663 56.2174 39.5655C56.2174 40.7648 55.741 41.9149 54.893 42.7629C54.045 43.6109 52.8949 44.0873 51.6956 44.0873H47.1738V35.0437H51.6956Z" fill="#573E8B"/>
</svg>
