<svg width="192" height="80" viewBox="0 0 192 80" fill="none" xmlns="http://www.w3.org/2000/svg">
<path fill-rule="evenodd" clip-rule="evenodd" d="M17.018 35.9053H20.8291C20.9526 35.9053 21.04 35.8173 21.04 35.6938V34.3885C21.04 34.2644 20.9526 34.1589 20.8291 34.1589H11.2129C11.0894 34.1589 11 34.2644 11 34.3885V35.6938C11 35.8173 11.0894 35.9053 11.2129 35.9053H15.042V39.7372C15.6967 39.9113 16.3553 40.0728 17.018 40.2203V35.9053Z" fill="#0A6391"/>
<path fill-rule="evenodd" clip-rule="evenodd" d="M29.1428 41.5695C29.6547 41.4287 30.1125 41.2171 30.5722 40.8461C31.4711 40.1581 31.9476 39.1704 31.9476 37.9525C31.9476 36.5938 31.4184 35.5355 30.5369 34.9002C29.7421 34.3356 28.7184 34.1594 27.5546 34.1594H22.5963C22.4902 34.1594 22.3848 34.2649 22.3848 34.389V41.1377C24.6137 41.4106 26.8799 41.5635 29.1789 41.6215L29.1428 41.5695ZM27.2189 40.088H24.3614V35.8358H27.3777C28.0311 35.8358 28.6303 35.9058 29.1068 36.2235C29.6186 36.5411 29.9363 37.1057 29.9363 37.9706C29.9363 38.8528 29.5833 39.4173 29.0721 39.717C28.5776 40.0173 27.9783 40.088 27.2189 40.088Z" fill="#0A6391"/>
<path fill-rule="evenodd" clip-rule="evenodd" d="M38.6217 36.5057L40.3968 41.2551C41.0361 41.2038 41.6774 41.1477 42.3201 41.0876L39.8035 34.3356C39.7335 34.1768 39.6447 34.1067 39.4505 34.1067H37.8276C37.6507 34.1067 37.5446 34.1768 37.4926 34.3356L34.7559 41.5888C35.4145 41.5661 36.0752 41.5368 36.7378 41.5021L38.6217 36.5057Z" fill="#0A6391"/>
<path fill-rule="evenodd" clip-rule="evenodd" d="M56.0383 34.3887C56.0383 34.2646 55.9322 34.1592 55.808 34.1592H54.3613C54.2378 34.1592 54.1504 34.2646 54.1504 34.3887V39.6647C54.7783 39.5772 55.4083 39.4885 56.0383 39.3991V34.3887Z" fill="#0A6391"/>
<path fill-rule="evenodd" clip-rule="evenodd" d="M47.3573 37.4233L49.5955 40.2742C50.3429 40.1787 51.0917 40.0813 51.8418 39.9812L47.4627 34.389C47.3219 34.2121 47.2338 34.1594 47.0577 34.1594H45.681C45.5755 34.1594 45.4688 34.2649 45.4688 34.389V40.7667C46.0974 40.6973 46.7273 40.6252 47.3573 40.5498V37.4233Z" fill="#0A6391"/>
<path fill-rule="evenodd" clip-rule="evenodd" d="M59.584 37.2471C59.584 36.8059 59.7602 36.4529 60.0959 36.188C60.4482 35.8877 61.0308 35.7115 61.8243 35.7115C62.8826 35.7115 63.9243 36.0645 64.7705 36.5584C64.8946 36.6291 65.0007 36.5937 65.0708 36.4703L65.6881 35.1823C65.7415 35.0589 65.7241 34.9534 65.6007 34.8827C64.8066 34.4416 63.572 34.0005 61.931 34.0005C60.4836 34.0005 59.3898 34.3355 58.6484 34.9181C57.8903 35.5 57.502 36.3468 57.502 37.3351C57.502 38.0906 57.7202 38.6565 58.0759 39.1076C59.0528 38.9674 60.0305 38.826 61.0094 38.6852C60.1459 38.3635 59.584 37.9644 59.584 37.2471Z" fill="#0A6391"/>
<path fill-rule="evenodd" clip-rule="evenodd" d="M73.0264 35.7824C74.3136 35.7824 75.1965 36.1882 75.9366 36.5766C76.0434 36.6293 76.1668 36.6293 76.2195 36.4878L76.8368 35.1999C76.9069 35.0938 76.8722 34.971 76.7314 34.9002C75.9026 34.4418 74.7721 34 73.0791 34C70.4071 34 68.1428 35.5596 67.1992 37.8091C68.0294 37.6943 68.8582 37.5822 69.6857 37.4715C70.4731 36.4424 71.6917 35.7824 73.0264 35.7824Z" fill="#0A6391"/>
<path fill-rule="evenodd" clip-rule="evenodd" d="M80.3471 34.3887C80.3471 34.2646 80.241 34.1592 80.1355 34.1592H78.582C78.4759 34.1592 78.3711 34.2646 78.3711 34.3887V36.4501C79.0304 36.3861 79.6897 36.326 80.3471 36.2706V34.3887Z" fill="#0A6391"/>
<path fill-rule="evenodd" clip-rule="evenodd" d="M88.6589 34.3887C88.6589 34.2646 88.5702 34.1592 88.4474 34.1592H86.9125C86.7884 34.1592 86.6816 34.2646 86.6816 34.3887V35.8869C87.3423 35.8649 88.0016 35.8509 88.6589 35.8415V34.3887Z" fill="#0A6391"/>
<path fill-rule="evenodd" clip-rule="evenodd" d="M99.6294 35.9056C99.7536 35.9056 99.8416 35.8175 99.8416 35.694V34.3887C99.8416 34.2646 99.7536 34.1592 99.6294 34.1592H91.2311C91.125 34.1592 91.0195 34.2646 91.0195 34.3887V35.8375C91.8337 35.8475 92.6445 35.8716 93.4526 35.9056H99.6294Z" fill="#0A6391"/>
<path fill-rule="evenodd" clip-rule="evenodd" d="M103.37 34.3887C103.264 34.1765 103.158 34.1592 102.982 34.1592H101.411C101.305 34.1592 101.199 34.2646 101.199 34.3887V36.6663C102.537 36.8799 103.865 37.1361 105.183 37.4458L103.37 34.3887Z" fill="#0A6391"/>
<path fill-rule="evenodd" clip-rule="evenodd" d="M111.521 37.5993V39.3824C112.159 39.6246 112.794 39.8809 113.425 40.1531V34.3887C113.425 34.2646 113.338 34.1592 113.214 34.1592H111.644C111.468 34.1592 111.362 34.1765 111.238 34.3887L108.83 38.4488C109.44 38.641 110.047 38.8432 110.651 39.0594L111.521 37.5993Z" fill="#0A6391"/>
<path fill-rule="evenodd" clip-rule="evenodd" d="M15.043 45.963C15.043 46.0864 15.1317 46.1745 15.2545 46.1745H16.7894C16.9135 46.1745 17.0196 46.0864 17.0196 45.963V40.3748C16.3569 40.2093 15.6976 40.0311 15.043 39.8416V45.963Z" fill="#25A6DC"/>
<path fill-rule="evenodd" clip-rule="evenodd" d="M22.3848 45.9629C22.3848 46.0864 22.4902 46.1745 22.5963 46.1745H24.1492C24.2546 46.1745 24.3607 46.0864 24.3607 45.9629V41.7461H24.3981C23.7241 41.66 23.0521 41.5659 22.3848 41.4604V45.9629Z" fill="#25A6DC"/>
<path fill-rule="evenodd" clip-rule="evenodd" d="M29.8481 45.9453C29.9542 46.1388 30.0777 46.1742 30.2719 46.1742H31.9836C32.2305 46.1742 32.1951 45.9806 32.089 45.8038L29.6026 42.2302C28.8031 42.1822 28.0063 42.1235 27.2148 42.0527L29.8481 45.9453Z" fill="#25A6DC"/>
<path fill-rule="evenodd" clip-rule="evenodd" d="M34.4545 42.3935L33.1552 45.839C33.1365 45.9097 33.1191 45.9631 33.1191 46.0158C33.1191 46.1039 33.1725 46.1746 33.3133 46.1746H34.8308C35.0244 46.1746 35.1311 46.1039 35.1845 45.9451L36.1014 43.4753H41.1304L42.03 45.9451C42.0827 46.1039 42.1888 46.1746 42.383 46.1746H43.9352C44.0934 46.1746 44.1468 46.1039 44.1468 46.0158C44.1468 45.9631 44.1121 45.8923 44.0934 45.839L42.726 42.168C39.9393 42.3335 37.1785 42.4169 34.4545 42.3935Z" fill="#25A6DC"/>
<path fill-rule="evenodd" clip-rule="evenodd" d="M54.1531 42.9284L52.8552 41.2714C52.0937 41.3575 51.333 41.4402 50.5742 41.519L54.047 45.9454C54.1705 46.1396 54.2586 46.1749 54.4354 46.1749H55.8114C55.9349 46.1749 56.041 46.0862 56.041 45.9627V40.8923C55.411 40.9704 54.7817 41.0472 54.1531 41.1212V42.9284Z" fill="#25A6DC"/>
<path fill-rule="evenodd" clip-rule="evenodd" d="M45.4707 45.963C45.4707 46.0864 45.5761 46.1745 45.6822 46.1745H47.147C47.2698 46.1745 47.3593 46.0864 47.3593 45.963V41.8262C46.7286 41.8816 46.098 41.9336 45.4707 41.9817V45.963Z" fill="#25A6DC"/>
<path fill-rule="evenodd" clip-rule="evenodd" d="M59.9663 40.3822C60.8385 40.7366 61.7094 40.9241 62.4788 41.2344C63.3437 41.5694 63.9957 42.0285 63.9957 42.84C63.9957 43.3692 63.8015 43.863 63.3437 44.1987C62.9727 44.481 62.4074 44.6571 61.6667 44.6571C60.1679 44.6571 59.1088 44.0225 58.3327 43.5454C58.1912 43.4579 58.1025 43.51 58.0498 43.6161L57.4318 44.9214C57.3624 45.0455 57.3971 45.1516 57.5199 45.2217C58.4021 45.7682 59.7788 46.3508 61.684 46.3508C62.9553 46.3508 64.0671 46.0332 64.8432 45.4159C65.654 44.7806 66.1491 43.863 66.1491 42.6812C66.1491 41.3752 65.4785 40.5464 64.6663 40.0345C64.5269 39.9444 64.3827 39.8644 64.2352 39.7903C64.1265 39.8056 64.017 39.821 63.9083 39.837C62.5943 40.0225 61.2796 40.2047 59.9663 40.3822Z" fill="#25A6DC"/>
<path fill-rule="evenodd" clip-rule="evenodd" d="M66.7285 40.1576C66.7285 43.934 69.3037 46.3504 73.0268 46.3504C74.7558 46.3504 75.8863 45.9273 76.8032 45.4335C76.9447 45.3628 76.962 45.2747 76.9093 45.1512L76.2914 43.8279C76.2206 43.7045 76.1332 43.6864 76.0084 43.7572C75.2683 44.1809 74.3147 44.5693 73.0455 44.5693C70.6978 44.5693 68.7746 42.7689 68.7746 40.1576C68.7746 39.7999 68.8226 39.4549 68.9013 39.1226C68.1926 39.224 67.4846 39.3254 66.7752 39.4269C66.7465 39.6664 66.7285 39.9093 66.7285 40.1576Z" fill="#25A6DC"/>
<path fill-rule="evenodd" clip-rule="evenodd" d="M86.6826 39.2576H80.349V37.648C79.6904 37.7181 79.0324 37.7908 78.373 37.8676V45.963C78.373 46.0858 78.4785 46.1745 78.5839 46.1745H80.1368C80.2429 46.1745 80.349 46.0858 80.349 45.963V41.0221H86.6826V45.963C86.6826 46.0858 86.7888 46.1745 86.9129 46.1745H88.4477C88.5712 46.1745 88.6593 46.0858 88.6593 45.963V37.0081C88.0013 37.0361 87.3426 37.0695 86.6826 37.1095V39.2576Z" fill="#25A6DC"/>
<path fill-rule="evenodd" clip-rule="evenodd" d="M91.0215 36.9328V45.9631C91.0215 46.0859 91.1269 46.1747 91.233 46.1747H99.6314C99.7555 46.1747 99.8443 46.0859 99.8443 45.9631V44.6391C99.8443 44.5337 99.7555 44.4276 99.6314 44.4276H92.9975V41.0222H98.7145C98.8373 41.0222 98.9267 40.9168 98.9267 40.8106V39.4873C98.9267 39.3639 98.8373 39.2758 98.7145 39.2758H92.9975V36.9174C92.3415 36.9154 91.6821 36.9201 91.0215 36.9328Z" fill="#25A6DC"/>
<path fill-rule="evenodd" clip-rule="evenodd" d="M111.521 39.7151V45.9626C111.521 46.0861 111.627 46.1742 111.732 46.1742H113.215C113.339 46.1742 113.426 46.0861 113.426 45.9626V40.4118C112.795 40.1642 112.16 39.9326 111.521 39.7151Z" fill="#25A6DC"/>
<path fill-rule="evenodd" clip-rule="evenodd" d="M101.199 45.9629C101.199 46.0864 101.305 46.1745 101.411 46.1745H102.893C103.016 46.1745 103.105 46.0864 103.105 45.9629V37.6687C102.472 37.5706 101.837 37.4832 101.199 37.4058V45.9629Z" fill="#25A6DC"/>
<path fill-rule="evenodd" clip-rule="evenodd" d="M107.305 41.0224L105.579 38.1129C104.775 37.9494 103.966 37.8032 103.152 37.6758L106.441 43.0872C106.528 43.2453 106.599 43.2987 106.793 43.2987H107.905C108.081 43.2987 108.17 43.2453 108.257 43.0872L110.468 39.3701C109.851 39.1766 109.23 38.9958 108.607 38.8276L107.305 41.0224Z" fill="#25A6DC"/>
<path fill-rule="evenodd" clip-rule="evenodd" d="M127.178 35.1932C127.265 35.262 127.3 35.3147 127.265 35.4181L127.04 35.8866C126.988 35.9733 126.917 35.956 126.831 35.9213C126.138 35.5049 125.099 34.9503 123.52 34.9503C120.66 34.9503 118.303 37.3941 118.303 40.2543C118.303 43.5656 120.66 45.6109 123.52 45.6109C125.028 45.6109 126.433 45.039 127.265 44.2582V41.312H123.105C123.052 41.312 123 41.2426 123 41.1905V40.688C123 40.6186 123.052 40.5666 123.105 40.5666H127.907C127.975 40.5666 128.027 40.6186 128.027 40.688V46.044C128.027 46.1134 127.975 46.1655 127.907 46.1655H127.369C127.317 46.1655 127.265 46.1134 127.265 46.044V45.0731C126.414 45.7844 125.064 46.339 123.486 46.339C120.228 46.339 117.436 44.1548 117.436 40.2543C117.436 36.979 120.158 34.2056 123.52 34.2056C125.237 34.2056 126.363 34.7074 127.178 35.1932Z" fill="#4D5053"/>
<path fill-rule="evenodd" clip-rule="evenodd" d="M136.926 41.2947L140.635 45.9573C140.704 46.0614 140.704 46.1655 140.566 46.1655H139.908C139.769 46.1655 139.733 46.1482 139.665 46.044L135.938 41.312H132.574V46.044C132.574 46.1135 132.522 46.1655 132.454 46.1655H131.864C131.794 46.1655 131.742 46.1135 131.742 46.044V34.4825C131.742 34.4131 131.794 34.3611 131.864 34.3611H136.353C137.48 34.3611 138.363 34.4652 139.179 34.985C140.028 35.5049 140.582 36.4238 140.582 37.8452C140.582 39.2146 140.011 40.0988 139.179 40.6533C138.502 41.1038 137.844 41.26 136.926 41.2947ZM132.574 35.0718V40.6013H136.128C137.1 40.6013 137.879 40.5492 138.537 40.1675C139.232 39.7518 139.733 39.0411 139.733 37.8452C139.733 36.666 139.248 35.9213 138.572 35.5229C137.896 35.1412 137.134 35.0718 136.197 35.0718H132.574Z" fill="#4D5053"/>
<path fill-rule="evenodd" clip-rule="evenodd" d="M149.218 46.3387C145.855 46.3387 143.115 43.6347 143.115 40.2894C143.115 36.944 145.855 34.2053 149.218 34.2053C152.58 34.2053 155.319 36.944 155.319 40.2894C155.319 43.6347 152.58 46.3387 149.218 46.3387ZM149.218 34.9848C146.287 34.9848 144.001 37.4292 144.001 40.2894C144.001 43.1843 146.287 45.576 149.218 45.576C152.147 45.576 154.453 43.1669 154.453 40.2894C154.453 37.4292 152.147 34.9848 149.218 34.9848Z" fill="#4D5053"/>
<path fill-rule="evenodd" clip-rule="evenodd" d="M167.592 34.4823C167.592 34.4136 167.644 34.3608 167.713 34.3608H168.302C168.372 34.3608 168.425 34.4136 168.425 34.4823V41.5026C168.425 42.9067 168.026 44.0852 167.263 44.9C166.413 45.8189 165.131 46.3388 163.501 46.3388C161.873 46.3388 160.589 45.8189 159.757 44.9C158.995 44.0852 158.578 42.9067 158.578 41.5026V34.4823C158.578 34.4136 158.648 34.3608 158.7 34.3608H159.307C159.359 34.3608 159.411 34.4136 159.411 34.4823V41.3812C159.411 42.6638 159.775 43.7041 160.451 44.4322C161.162 45.195 162.184 45.5934 163.501 45.5934C164.836 45.5934 165.859 45.195 166.552 44.4322C167.229 43.7041 167.592 42.6638 167.592 41.3812V34.4823Z" fill="#4D5053"/>
<path fill-rule="evenodd" clip-rule="evenodd" d="M176.98 34.3611C178.02 34.3611 178.869 34.5519 179.649 35.1585C180.498 35.7998 181.001 36.8055 181.001 38.1228C181.001 39.4228 180.447 40.5152 179.545 41.1732C178.713 41.7631 177.725 41.8846 176.719 41.8846H173.184V46.044C173.184 46.1135 173.132 46.1655 173.062 46.1655H172.472C172.404 46.1655 172.352 46.1135 172.352 46.044V34.4825C172.352 34.4131 172.404 34.3611 172.472 34.3611H176.98ZM179.025 35.7131C178.401 35.2626 177.708 35.0891 176.824 35.0891H173.184V41.1565H176.58C177.431 41.1565 178.279 41.0698 178.939 40.6186C179.701 40.0988 180.169 39.1972 180.169 38.1228C180.169 37.0137 179.736 36.2163 179.025 35.7131Z" fill="#4D5053"/>
</svg>
