<svg width="192" height="80" viewBox="0 0 192 80" fill="none" xmlns="http://www.w3.org/2000/svg">
<path d="M69.2209 37.8875C69.6606 37.0775 70.0078 36.4526 70.2623 36.0129C70.54 35.5038 70.7483 35.1335 70.8872 34.9252C69.9846 34.9252 69.1746 35.0872 68.5035 35.4112C67.8092 35.7352 67.2075 36.1518 66.6983 36.6378C66.8372 36.2212 66.8835 35.8741 66.8372 35.5501C66.7909 35.2261 66.5595 35.0178 66.1892 34.9252C65.4949 34.7864 64.7544 34.8558 63.9907 35.1567C63.227 35.4575 62.4864 35.8972 61.7458 36.4989C61.0053 37.0775 60.311 37.7718 59.663 38.5586C59.015 39.3455 58.4133 40.1786 57.9041 41.0118C57.5801 41.5672 57.3024 42.1226 57.0479 42.6549C56.7239 43.2103 56.3999 43.7194 56.1222 44.1823C55.4279 45.2931 54.8493 46.1957 54.4096 46.8206C53.9699 47.4686 53.6227 47.9083 53.3682 48.1628C53.1136 48.4174 52.9053 48.5331 52.7433 48.5331C52.6276 48.5331 52.6507 48.348 52.7896 47.9546C52.9285 47.5611 53.1599 47.052 53.4607 46.4271C53.7616 45.8023 54.1319 45.0617 54.5716 44.2517C55.0113 43.4417 55.4742 42.5855 55.937 41.7523C57.0479 39.762 58.3207 37.4941 59.8018 34.9484C59.1538 34.9484 58.6216 34.9715 58.1587 34.9947C57.6959 35.0409 57.3024 35.1104 56.9784 35.2261C56.6313 35.3418 56.3304 35.5038 56.0759 35.7121C55.8213 35.9204 55.5667 36.1981 55.3122 36.5221C55.4047 36.1055 55.3816 35.7352 55.289 35.4112C55.1733 35.1104 54.8956 34.9484 54.4559 34.9484C53.7616 34.9484 53.0442 35.1567 52.3036 35.5732C51.563 35.9898 50.8456 36.5452 50.1282 37.2164C49.4108 37.8875 48.7396 38.6743 48.0916 39.5306C47.4436 40.3869 46.8882 41.2895 46.4022 42.192C46.2171 42.516 46.0782 42.84 45.9162 43.164C45.6848 43.5343 45.4765 43.8814 45.2682 44.2054C44.574 45.3163 43.9954 46.2189 43.5557 46.8437C43.116 47.4917 42.7688 47.9314 42.5143 48.186C42.2597 48.4405 42.0514 48.5563 41.8894 48.5563C41.7737 48.5563 41.7968 48.3711 41.9588 47.9777C42.1208 47.5843 42.3523 47.0751 42.6531 46.4503C42.954 45.8023 43.3474 45.0617 43.8102 44.2054C44.2731 43.3492 44.7591 42.4235 45.2682 41.4746C45.8005 40.5258 46.3328 39.5538 46.8882 38.5586C47.4436 37.5635 47.9991 36.5915 48.5314 35.6658H50.5448C50.6836 35.6658 50.7993 35.6427 50.8919 35.5732C50.9845 35.5038 51.0308 35.4344 51.0539 35.3649C51.077 35.2955 51.0539 35.2029 51.0076 35.1335C50.9613 35.0641 50.8456 35.0178 50.6836 35.0178H48.9942C49.4339 34.2541 49.8505 33.5367 50.2439 32.8887C50.6373 32.2407 50.9613 31.6621 51.239 31.1761C51.563 30.5976 51.8639 30.0884 52.1416 29.6024C51.4705 29.6024 50.8225 29.7413 50.2439 30.019C49.6422 30.2967 49.0636 30.667 48.5314 31.153C47.9759 31.639 47.4436 32.1944 46.9345 32.8655C46.4254 33.5135 45.9162 34.2541 45.4071 35.0178H44.6897C44.5277 35.0178 44.412 35.0641 44.3194 35.1335C44.2268 35.2029 44.1805 35.2724 44.1574 35.3649C44.1342 35.4344 44.1574 35.5269 44.2268 35.5732C44.2962 35.6427 44.412 35.6658 44.5508 35.6658H45.0137C44.4814 36.5452 43.9491 37.4709 43.4168 38.4198C42.9308 39.2761 42.4217 40.1555 41.9125 41.0349C40.8711 42.7706 39.9454 44.1823 39.1586 45.2469C38.1866 46.5197 37.3997 47.4223 36.798 47.9546C36.636 48.0934 36.5203 48.1628 36.474 48.1397C36.4277 48.1166 36.4046 48.0471 36.4277 47.9083C36.4509 47.7926 36.4972 47.6306 36.5897 47.4454C36.6592 47.2603 36.7749 47.0751 36.8674 46.89C37.0526 46.5428 37.2609 46.2189 37.4923 45.8717C37.7237 45.5246 37.9552 45.1774 38.1866 44.8071C38.418 44.4369 38.6726 44.0434 38.9271 43.6037C39.1817 43.1872 39.4363 42.7012 39.6909 42.192C40.2 41.3126 40.6628 40.4332 41.0794 39.5538C41.496 38.6975 41.82 37.9106 41.982 37.2395C42.1671 36.5452 42.1671 36.0129 42.0051 35.5732C41.8431 35.1567 41.4497 34.9484 40.8017 34.9484C40.1537 34.9484 39.4826 35.1798 38.8346 35.6195C38.1866 36.0824 37.5386 36.6841 36.9137 37.4246C36.2889 38.1652 35.664 39.0215 35.0855 39.9703C34.5069 40.9192 33.9283 41.8912 33.396 42.8863C33.7663 41.9375 34.1598 41.1043 34.5532 40.3638C34.9466 39.6232 35.3632 38.9521 35.7566 38.3272C36.15 37.7023 36.5666 37.1238 36.9832 36.5684C37.3997 36.0361 37.8163 35.4807 38.2329 34.9252C37.4229 34.9252 36.7286 35.0409 36.15 35.2492C35.5715 35.4575 35.016 35.8047 34.5069 36.3138C33.9978 36.7998 33.4886 37.4478 32.9795 38.2809C32.5166 39.0215 31.9612 39.9472 31.3826 41.0349C30.6421 42.2846 30.0172 43.326 29.4849 44.2054C28.7907 45.3163 28.2352 46.2189 27.7955 46.8437C27.3558 47.4917 27.0087 47.9314 26.731 48.186C26.4764 48.4405 26.2681 48.5563 26.1061 48.5563C25.9904 48.5563 26.0135 48.3711 26.1293 48.0008C26.245 47.6306 26.4532 47.1446 26.7541 46.5428C27.055 45.9411 27.4021 45.2469 27.8187 44.4832C28.2352 43.7194 28.6518 42.9326 29.0915 42.1226C30.1329 40.2249 31.3595 38.0726 32.7712 35.6658C31.7066 35.6658 30.8735 35.7352 30.2486 35.8741C29.6238 36.0129 29.1147 36.2675 28.6981 36.6841C28.2815 37.0775 27.865 37.6561 27.4484 38.3966C27.0318 39.1372 26.5227 40.1323 25.8515 41.3357C24.3473 44.1129 23.5604 46.1494 23.491 47.4686C23.4216 48.7877 24.139 49.4357 25.6201 49.4357C26.0367 49.4357 26.4764 49.2737 26.8698 48.9497C27.2864 48.6257 27.7492 48.0934 28.2815 47.3297C28.4667 47.052 28.6981 46.728 28.9064 46.3809C28.7675 46.8437 28.6749 47.2603 28.6518 47.6074C28.6055 48.2554 28.7675 48.7183 29.1147 48.996C29.4618 49.2737 29.9941 49.4125 30.7346 49.4125L30.9198 49.0654C32.1463 46.6123 33.2341 44.5757 34.1829 42.9557C35.1318 41.3357 35.9417 40.0398 36.5897 39.0678C37.2609 38.0958 37.7932 37.4015 38.2329 37.0081C38.6494 36.6146 38.9734 36.4064 39.1586 36.4064C39.2511 36.4064 39.2049 36.5452 39.066 36.8229C38.904 37.1006 38.6957 37.4709 38.3949 37.9338C38.094 38.3966 37.7469 38.9521 37.3534 39.5769C36.96 40.2018 36.5666 40.8498 36.1732 41.5209C35.5946 42.4929 35.0855 43.4649 34.6226 44.4137C34.1598 45.3626 33.8358 46.1957 33.6506 46.9594C33.4655 47.7 33.4655 48.3017 33.6506 48.7645C33.8358 49.2274 34.2986 49.4357 35.016 49.4357C35.4326 49.4357 35.9186 49.2737 36.4509 48.9497C36.9832 48.6257 37.5849 48.0934 38.256 47.3297C38.8114 46.7048 39.4363 45.8949 40.1074 44.9229C39.876 45.6171 39.7371 46.2651 39.6909 46.8437C39.6214 47.6074 39.7371 48.2323 40.0149 48.7183C40.2926 49.2043 40.8017 49.4357 41.5423 49.4357C41.9588 49.4357 42.3754 49.2737 42.792 48.9497C43.2085 48.6257 43.6714 48.0934 44.2037 47.3297C44.4814 46.9363 44.7591 46.4966 45.0831 45.9643C44.9905 46.3808 44.9442 46.7974 44.9442 47.1677C44.9442 47.8388 45.1062 48.3943 45.4302 48.8108C45.7542 49.2274 46.2865 49.4357 47.0039 49.4357C47.5825 49.4357 48.1611 49.0885 48.7628 48.3711C49.3645 47.6537 50.0356 46.7048 50.7299 45.5477C50.5911 46.1031 50.4985 46.6123 50.4753 47.0983C50.4522 47.5843 50.4985 48.0008 50.6142 48.348C50.7299 48.6951 50.9382 48.9728 51.2159 49.158C51.4936 49.3431 51.8639 49.4588 52.3268 49.4588C52.7433 49.4588 53.183 49.2968 53.5765 48.9728C53.993 48.6488 54.4559 48.1166 54.9882 47.3528C55.3816 46.7743 55.8444 46.0569 56.3536 45.2006C56.3304 45.4089 56.3073 45.6171 56.3073 45.8254C56.3073 46.4734 56.4924 47.0057 56.8164 47.4223C57.1636 47.8157 57.719 48.024 58.4827 48.024C59.0844 48.024 59.7093 47.7 60.3341 47.052C59.987 47.7231 59.5936 48.4405 59.2001 49.158C58.8067 49.8985 58.4133 50.5465 58.043 51.1714C57.6727 51.7731 57.3256 52.2822 57.0247 52.6757C56.7239 53.0691 56.4924 53.2542 56.3304 53.2542C56.1453 53.2542 56.0527 53.0922 56.099 52.7914C56.1453 52.4905 56.261 52.0971 56.4693 51.6342C56.6776 51.1714 56.9553 50.6622 57.2793 50.13C57.6264 49.5977 57.9967 49.0885 58.4364 48.6025C57.6727 48.2785 56.9784 48.186 56.3304 48.3248C55.7056 48.4637 55.1733 48.7183 54.7336 49.1117C54.2939 49.5051 53.993 49.968 53.7847 50.5234C53.5996 51.0557 53.5533 51.588 53.669 52.0739C53.7847 52.5831 54.0856 52.9997 54.5484 53.3468C55.0113 53.6939 55.7056 53.8559 56.585 53.8559H56.7007C57.4644 53.8559 58.1818 53.6708 58.8298 53.3005C59.4778 52.9302 60.149 52.3979 60.797 51.6805C61.445 50.9631 62.1161 50.0605 62.8104 48.9728C63.5047 47.8851 64.2452 46.6354 65.1015 45.2237L67.5083 41.1043C68.1795 39.762 68.7812 38.6743 69.2209 37.8875ZM52.2573 41.7755C52.1648 41.9375 52.0722 42.0995 51.9796 42.2615C51.6093 42.9095 51.1928 43.5806 50.7299 44.3212C50.2671 45.0617 49.8273 45.7329 49.3876 46.3577C48.9711 46.9826 48.5776 47.5148 48.2305 47.9083C47.8834 48.3248 47.6288 48.5331 47.4436 48.5331C47.3048 48.5331 47.2817 48.348 47.3974 47.9777C47.5131 47.6074 47.6982 47.1214 47.9759 46.5197C48.2536 45.918 48.5776 45.2237 48.9711 44.46C49.3645 43.6963 49.7811 42.9095 50.2439 42.0995C50.7068 41.2895 51.1465 40.5026 51.6093 39.7389C52.0722 38.9752 52.4888 38.2809 52.8822 37.6792C53.2756 37.0775 53.6227 36.5915 53.9236 36.2212C54.2245 35.8509 54.4096 35.6658 54.5253 35.6658C54.7104 35.6658 54.7799 35.8047 54.7567 36.1055C54.7336 36.4064 54.641 36.7535 54.5253 37.1701C54.3864 37.5866 54.2244 38.0032 54.0625 38.4198C53.8773 38.8363 53.7385 39.2066 53.5996 39.4843L52.535 41.3589C52.4193 41.4515 52.3268 41.6135 52.2573 41.7755ZM66.0041 36.2906C65.9578 36.4758 65.8884 36.7072 65.7958 36.9618C65.7032 37.2164 65.5875 37.4709 65.4718 37.7486C65.1709 38.3735 64.7775 39.0909 64.3147 39.8778C63.5047 41.22 62.741 42.4235 62.0235 43.488C61.7227 43.9277 61.4218 44.3674 61.121 44.8071C60.8201 45.2237 60.5193 45.6171 60.2647 45.9643C59.987 46.3114 59.7324 46.566 59.501 46.7743C59.2696 46.9826 59.0844 47.0751 58.9687 47.0751C58.8298 47.0751 58.8067 46.9131 58.8993 46.5891C58.9918 46.2651 59.177 45.8254 59.4316 45.2931C59.6861 44.7609 60.0101 44.1592 60.4035 43.4649C60.797 42.7706 61.1904 42.0763 61.607 41.3589C62.0235 40.6415 62.4632 39.924 62.9261 39.2529C63.3658 38.5586 63.7824 37.9569 64.1758 37.4246C64.5692 36.8924 64.8932 36.4526 65.1709 36.1286C65.4486 35.8047 65.6569 35.6427 65.7958 35.6427C65.9346 35.6427 66.0272 35.7121 66.0735 35.8278C66.0504 35.9204 66.0504 36.0824 66.0041 36.2906ZM130.966 39.8778C131.405 38.9521 131.729 38.1421 131.891 37.4015C132.076 36.6609 132.053 36.0592 131.868 35.6195C131.683 35.1567 131.197 34.9484 130.433 34.9484C129.808 34.9484 129.184 35.1798 128.536 35.6427C127.888 36.1055 127.263 36.7072 126.638 37.4246C126.013 38.1421 125.434 38.9289 124.879 39.7852C124.324 40.6415 123.814 41.4746 123.375 42.2615C123.652 41.6829 123.953 41.0349 124.3 40.3638C124.648 39.6695 125.041 38.9983 125.411 38.3503C125.805 37.7023 126.198 37.0544 126.615 36.4758C127.031 35.8741 127.448 35.3881 127.864 34.9715C126.985 34.9715 126.244 35.0409 125.689 35.1798C125.134 35.3187 124.624 35.5732 124.185 35.9898C123.745 36.3832 123.305 36.9386 122.866 37.6561C122.495 38.2809 122.056 39.0678 121.57 40.0398C120.574 41.7523 119.741 43.1409 119.047 44.2517C118.353 45.3626 117.774 46.2651 117.335 46.89C116.895 47.538 116.548 47.9777 116.293 48.2323C116.039 48.4868 115.83 48.6025 115.668 48.6025C115.553 48.6025 115.645 48.3017 115.9 47.6768C116.154 47.052 116.571 46.242 117.08 45.2237C117.612 44.2054 118.214 43.0483 118.931 41.7755C119.649 40.4795 120.389 39.1603 121.153 37.8181C122.912 34.6475 123.953 32.8192 126.291 28.7693C125.573 28.7693 124.972 28.7693 124.509 28.7924C124.023 28.7924 123.583 28.9081 123.166 29.1164C122.75 29.3247 122.333 29.695 121.894 30.2273C121.454 30.7596 120.922 31.5695 120.274 32.6341C119.626 33.6987 119.857 33.3052 118.908 34.9947C118.075 36.4989 117.034 38.3503 115.83 40.5258C114.974 42.0069 114.233 43.2334 113.609 44.2286C112.914 45.3394 112.336 46.242 111.896 46.8668C111.456 47.5148 111.109 47.9546 110.855 48.2091C110.6 48.4637 110.392 48.5794 110.23 48.5794C110.114 48.5794 110.207 48.2785 110.461 47.6537C110.716 47.0288 111.132 46.2189 111.641 45.2006C112.174 44.1823 112.775 43.0252 113.493 41.7523C114.21 40.4563 114.951 39.1372 115.715 37.7949C117.473 34.6244 118.515 32.7961 120.852 28.7461C120.135 28.7461 119.533 28.7461 119.07 28.7693C118.584 28.7693 118.145 28.885 117.728 29.0933C117.311 29.3016 116.895 29.6718 116.455 30.2041C116.015 30.7364 115.483 31.5464 114.835 32.611C114.187 33.6755 114.419 33.2821 113.47 34.9715C112.521 36.6609 111.364 38.7669 109.952 41.3126C109.281 42.4466 108.702 43.4186 108.193 44.2286C107.499 45.3394 106.92 46.242 106.481 46.8668C106.041 47.5148 105.694 47.9546 105.439 48.2091C105.185 48.4637 104.976 48.5794 104.814 48.5794C104.699 48.5794 104.722 48.3943 104.861 48.0008C104.999 47.6074 105.231 47.0983 105.532 46.4734C105.833 45.8486 106.203 45.108 106.643 44.298C107.082 43.488 107.545 42.6317 108.008 41.7986C109.119 39.8083 110.392 37.5404 111.873 34.9947C111.225 34.9947 110.693 35.0178 110.23 35.0409C109.767 35.0872 109.373 35.1567 109.049 35.2724C108.702 35.3881 108.401 35.5501 108.147 35.7584C107.892 35.9667 107.638 36.2444 107.383 36.5684C107.476 36.1518 107.453 35.7815 107.36 35.4575C107.244 35.1567 106.967 34.9947 106.527 34.9947C105.833 34.9947 105.115 35.2029 104.375 35.6195C103.727 35.9898 103.079 36.4526 102.454 37.0312C100.51 38.5355 100.116 38.2578 100.116 38.2578C99.9312 38.0958 100.001 36.9386 101.667 33.7912C101.829 33.5135 101.991 33.2127 102.176 32.8887C102.593 32.1713 102.963 31.5001 103.333 30.8753C103.356 30.829 103.379 30.8058 103.403 30.7595C103.403 30.7595 103.403 30.7595 103.403 30.7364C103.796 30.0653 103.634 30.343 103.935 29.8107C104.236 29.3016 104.444 28.9544 104.56 28.7693C103.727 28.7693 103.032 28.8156 102.523 28.885C101.991 28.9544 101.528 29.1164 101.158 29.371C100.764 29.6024 100.394 29.9496 100.07 30.3661C99.7461 30.7827 99.3527 31.3613 98.9361 32.0787C98.8898 32.1944 98.7278 32.449 98.4732 32.8887C98.2187 33.3052 97.9872 33.7218 97.6401 34.3004C97.293 34.8789 96.9227 35.5269 96.5293 36.1981C96.1358 36.8924 95.7424 37.5404 95.3953 38.1421C95.0481 38.7438 94.7241 39.2761 94.4696 39.7158C94.215 40.1555 94.0298 40.4563 93.9604 40.572C93.3818 41.5903 92.8264 42.5855 92.271 43.6037C91.7156 44.5989 91.1833 45.5246 90.7204 46.3346C90.2344 47.1446 89.8179 47.8157 89.4707 48.3248C89.1236 48.834 88.8459 49.0885 88.6607 49.0885C88.3599 49.0885 88.2673 48.7877 88.4062 48.186C88.545 47.5843 88.8227 46.7974 89.2625 45.8254C89.7022 44.8534 90.2344 43.7426 90.9056 42.516C91.5536 41.2895 92.271 40.0166 93.0116 38.7206C94.7473 35.6658 96.5524 32.6341 98.9824 28.7693C98.265 28.7693 97.6632 28.7924 97.1541 28.8156C96.645 28.8387 96.1821 28.9313 95.7887 29.1164C95.3721 29.2784 94.9787 29.5561 94.6084 29.9033C94.215 30.2504 93.7984 30.7595 93.3356 31.4307C92.8727 32.0787 92.3404 32.935 91.7156 33.9532C91.0907 34.9715 90.6047 35.8278 89.7485 37.3321C89.355 37.9801 89.0079 38.6512 88.6839 39.2992C87.6656 41.0118 86.8093 42.4697 86.1151 43.6732C85.4208 44.8766 84.8191 45.8717 84.3331 46.6123C83.8471 47.376 83.4305 47.9314 83.1296 48.2785C82.8288 48.6257 82.5279 48.7877 82.2965 48.7877C82.0419 48.7877 81.9957 48.51 82.1577 47.9314C82.3196 47.3528 82.6205 46.6123 83.0834 45.6634C83.5462 44.7146 84.1016 43.65 84.7496 42.4466C85.3976 41.2432 86.0919 40.0166 86.8325 38.7669C87.573 37.5172 88.2905 36.2675 89.031 35.0641C89.7716 33.8375 90.4427 32.7498 91.0444 31.7778C91.6461 30.8058 92.1321 30.019 92.5256 29.3941C92.919 28.7693 93.1273 28.4453 93.1736 28.3759C91.3453 28.237 89.7022 28.2833 88.2442 28.4916C86.7862 28.723 85.5133 29.047 84.4025 29.5098C83.3148 29.9727 82.3891 30.505 81.6485 31.1298C80.908 31.7547 80.6302 32.4027 80.2137 33.0738C79.7971 33.745 79.5425 34.3929 79.45 35.0409C79.3574 35.6889 79.4268 36.2444 79.6351 36.7535C79.8434 37.2626 79.9128 37.6329 80.3988 37.9106C80.908 38.1883 81.5328 38.2809 82.3196 38.2115C82.1345 37.3321 82.1345 36.4989 82.3428 35.7121C82.5511 34.9252 82.8982 34.1615 83.3611 33.4672C83.8239 32.773 84.3793 32.1481 85.0505 31.5695C85.6985 30.991 86.3928 30.5281 87.087 30.1347C87.7813 29.7413 88.4756 29.4404 89.1699 29.2553C89.8642 29.0701 90.4659 28.9776 90.9982 29.0238C90.165 29.4404 89.3087 30.0653 88.4525 30.8984C87.5962 31.7084 86.763 32.6572 85.9531 33.7218C85.1431 34.7864 84.3793 35.8972 83.6619 37.1006C82.9445 38.3041 82.3197 39.4843 81.7874 40.6646C81.2551 41.8449 80.8154 42.9789 80.5145 44.0897C80.1905 45.1774 79.8665 46.1494 79.8434 46.9826C79.8202 47.8157 80.098 48.4868 80.422 48.996C80.7228 49.5051 81.2551 49.7365 81.9725 49.7365C82.3196 49.7365 82.6436 49.6208 82.9676 49.4125C83.2916 49.2043 83.6619 48.8571 84.0322 48.3943C84.4256 47.9314 84.8422 47.3297 85.3051 46.5891C85.7679 45.8486 86.3002 44.946 86.9019 43.8814C86.6705 44.7146 86.5085 45.5014 86.439 46.1957C86.3696 46.9131 86.3928 47.5148 86.5085 48.0471C86.6242 48.5563 86.8788 48.9728 87.2259 49.2737C87.573 49.5745 88.0359 49.7365 88.6376 49.7365C89.5402 49.7365 90.4427 49.4357 91.299 48.834C92.1784 48.2323 93.0347 47.4223 93.8678 46.3809C94.7241 45.3626 95.5573 44.1823 96.3904 42.84C97.2235 41.4977 98.0798 40.1092 98.9361 38.6512C99.0287 38.5123 99.1907 38.2346 99.3989 37.8412C99.3758 38.3041 99.4684 38.6512 99.6767 38.8595C99.8387 38.9983 100.024 39.0678 100.278 39.0678C100.417 39.0678 100.556 39.0446 100.741 38.9983C100.579 39.2066 100.417 39.4149 100.255 39.6232C99.6072 40.4795 99.0518 41.382 98.5658 42.2846C98.0798 43.1872 97.7095 44.0666 97.4087 44.946C97.131 45.8023 96.9921 46.5891 96.9921 47.2603C96.9921 47.9314 97.1541 48.4868 97.4781 48.9034C97.8021 49.32 98.3344 49.5283 99.0518 49.5283C99.6304 49.5283 100.209 49.1811 100.811 48.4637C101.412 47.7463 102.083 46.7974 102.778 45.6403C102.639 46.1957 102.546 46.7048 102.523 47.1908C102.5 47.6768 102.546 48.0934 102.662 48.4405C102.778 48.7877 102.986 49.0654 103.264 49.2505C103.541 49.4357 103.912 49.5514 104.375 49.5514C104.791 49.5514 105.231 49.3894 105.624 49.0654C106.041 48.7414 106.504 48.2091 107.036 47.4454C107.383 46.9594 107.753 46.3577 108.17 45.6866C108.054 46.1494 107.962 46.5891 107.939 47.0057C107.869 47.7694 107.962 48.3943 108.239 48.8571C108.517 49.32 109.026 49.5745 109.744 49.5745C110.16 49.5745 110.6 49.4125 110.993 49.0885C111.41 48.7645 111.873 48.2323 112.405 47.4686C112.752 46.9594 113.169 46.3346 113.585 45.6171C113.447 46.1031 113.354 46.5891 113.331 47.0057C113.261 47.7694 113.354 48.3943 113.632 48.8571C113.909 49.32 114.419 49.5745 115.136 49.5745C115.553 49.5745 115.992 49.4125 116.386 49.0885C116.617 48.9034 116.849 48.6488 117.126 48.348C116.455 49.5514 115.853 50.6622 115.298 51.6574C114.719 52.6757 114.303 53.4625 114.025 54.0179C114.673 54.0179 115.229 53.9716 115.691 53.9022C116.131 53.8328 116.525 53.7171 116.849 53.5319C117.173 53.3468 117.473 53.1154 117.728 52.8145C117.983 52.5137 118.26 52.1202 118.561 51.6574C118.862 51.1945 119.186 50.6391 119.533 50.0142C119.88 49.3894 120.343 48.6488 120.875 47.7926C120.76 48.51 120.898 48.996 121.269 49.2737C121.639 49.5514 122.125 49.644 122.75 49.5283C123.375 49.4125 124.069 49.1348 124.81 48.6488C125.573 48.1628 126.268 47.5148 126.939 46.6817C127.378 46.1031 127.818 45.5014 128.258 44.8766C128.698 44.2286 129.114 43.5574 129.508 42.84C130.063 41.706 130.526 40.7803 130.966 39.8778ZM104.398 41.7755C104.305 41.9375 104.213 42.0995 104.12 42.2615C103.75 42.9095 103.333 43.5806 102.87 44.3212C102.407 45.0617 101.968 45.7329 101.528 46.3577C101.112 46.9826 100.718 47.5148 100.371 47.9083C100.024 48.3248 99.7692 48.5331 99.5841 48.5331C99.4452 48.5331 99.4221 48.348 99.5378 47.9777C99.6535 47.6074 99.8387 47.1214 100.116 46.5197C100.394 45.918 100.718 45.2237 101.112 44.46C101.505 43.6963 101.921 42.9095 102.384 42.0995C102.847 41.2895 103.287 40.5026 103.75 39.7389C104.213 38.9752 104.629 38.2809 105.023 37.6792C105.416 37.0775 105.763 36.5915 106.064 36.2212C106.365 35.8509 106.55 35.6658 106.666 35.6658C106.851 35.6658 106.92 35.8047 106.897 36.1055C106.874 36.4064 106.781 36.7535 106.666 37.1701C106.527 37.5866 106.365 38.0032 106.203 38.4198C106.018 38.8363 105.879 39.2066 105.74 39.4843L104.675 41.3589C104.583 41.4515 104.49 41.6135 104.398 41.7755ZM128.744 36.7766C128.628 37.0544 128.443 37.4478 128.165 37.9569C127.888 38.4661 127.564 39.0678 127.17 39.7852C126.777 40.5026 126.337 41.2895 125.851 42.1689C125.434 42.9095 125.041 43.6269 124.671 44.298C124.3 44.9691 123.953 45.5709 123.629 46.1031C123.051 47.052 122.611 47.6768 122.287 47.9777C121.963 48.2786 121.732 48.3711 121.616 48.2554C121.5 48.1397 121.477 47.862 121.57 47.4454C121.639 47.0288 121.824 46.5429 122.079 46.0106C122.171 45.8717 122.241 45.7329 122.31 45.594C122.38 45.4551 122.426 45.3394 122.495 45.2469C122.565 45.1311 122.634 45.0386 122.68 44.9229C123.56 43.326 124.416 41.8912 125.226 40.6415C125.573 40.1092 125.897 39.5769 126.244 39.0909C126.592 38.5818 126.916 38.1189 127.24 37.7255C127.564 37.3321 127.864 37.0081 128.119 36.7535C128.397 36.4989 128.605 36.3832 128.79 36.3832C128.883 36.3601 128.86 36.4989 128.744 36.7766ZM153.206 37.4015C153.391 36.6609 153.368 36.0592 153.183 35.6195C152.997 35.1567 152.511 34.9484 151.748 34.9484C151.123 34.9484 150.498 35.1798 149.85 35.6427C149.202 36.1055 148.577 36.7072 147.952 37.4246C147.327 38.1421 146.749 38.9289 146.193 39.7852C145.638 40.6415 145.129 41.4746 144.689 42.2615C144.967 41.6829 145.268 41.0349 145.615 40.3638C145.962 39.6695 146.355 38.9983 146.726 38.3503C147.119 37.7023 147.513 37.0544 147.929 36.4758C148.346 35.8741 148.762 35.3881 149.179 34.9715C148.299 34.9715 147.559 35.0409 147.003 35.1798C146.448 35.3187 145.939 35.5732 145.499 35.9898C145.059 36.3832 144.62 36.9386 144.18 37.6561C143.763 38.3503 143.254 39.2761 142.676 40.41C141.773 41.9375 141.009 43.2334 140.385 44.2517C139.69 45.3626 139.112 46.2651 138.672 46.89C138.232 47.538 137.885 47.9777 137.631 48.2323C137.376 48.4868 137.168 48.6025 137.006 48.6025C136.89 48.6025 136.913 48.4174 137.052 48.024C137.191 47.6306 137.422 47.1214 137.723 46.4966C138.024 45.8717 138.394 45.1311 138.834 44.3212C139.274 43.5112 139.737 42.6549 140.199 41.8217C141.31 39.8315 142.583 37.5635 144.064 35.0178C143.416 35.0178 142.884 35.0409 142.421 35.0641C141.958 35.1104 141.565 35.1798 141.241 35.2955C140.894 35.4112 140.593 35.5732 140.338 35.7815C140.084 35.9898 139.829 36.2675 139.575 36.5915C139.667 36.1749 139.644 35.8047 139.551 35.4807C139.436 35.1798 139.158 35.0178 138.718 35.0178C138.024 35.0178 137.307 35.2261 136.566 35.6427C135.826 36.0592 135.108 36.6146 134.391 37.2858C133.673 37.9569 133.002 38.7438 132.354 39.6C131.706 40.4563 131.151 41.3589 130.665 42.2615C130.179 43.164 129.808 44.0434 129.508 44.9229C129.23 45.7791 129.091 46.566 129.091 47.2371C129.091 47.9083 129.253 48.4637 129.577 48.8803C129.901 49.2968 130.433 49.5051 131.151 49.5051C131.729 49.5051 132.308 49.158 132.91 48.4405C133.511 47.7231 134.182 46.7743 134.877 45.6171C134.738 46.1726 134.645 46.6817 134.622 47.1677C134.599 47.6537 134.645 48.0703 134.761 48.4174C134.877 48.7645 135.085 49.0423 135.363 49.2274C135.64 49.4125 136.011 49.5283 136.474 49.5283C136.89 49.5283 137.33 49.3663 137.723 49.0423C137.931 48.8803 138.14 48.672 138.371 48.3943C137.723 49.5745 137.145 50.6391 136.589 51.6111C136.011 52.6294 135.594 53.4162 135.316 53.9716C135.964 53.9716 136.52 53.9254 136.983 53.8559C137.422 53.7865 137.816 53.6708 138.14 53.4856C138.464 53.3005 138.765 53.0691 139.019 52.7682C139.274 52.4674 139.551 52.0739 139.852 51.6111C140.153 51.1482 140.477 50.5928 140.824 49.968C141.171 49.3431 141.634 48.6025 142.167 47.7463C142.051 48.4637 142.19 48.9497 142.56 49.2274C142.93 49.5051 143.416 49.5977 144.041 49.482C144.666 49.3663 145.36 49.0885 146.101 48.6025C146.865 48.1166 147.559 47.4686 148.23 46.6354C148.67 46.0569 149.109 45.4551 149.549 44.8303C149.989 44.1823 150.405 43.5112 150.799 42.7937C151.308 41.868 151.771 40.9423 152.211 40.0398C152.72 38.9521 153.044 38.1189 153.206 37.4015ZM136.497 41.7755C136.404 41.9375 136.312 42.0995 136.219 42.2615C135.849 42.9095 135.432 43.5806 134.969 44.3212C134.506 45.0617 134.067 45.7329 133.627 46.3577C133.21 46.9826 132.817 47.5148 132.47 47.9083C132.123 48.3248 131.868 48.5331 131.683 48.5331C131.544 48.5331 131.521 48.348 131.637 47.9777C131.752 47.6074 131.938 47.1214 132.215 46.5197C132.493 45.918 132.817 45.2237 133.21 44.46C133.604 43.6963 134.02 42.9095 134.483 42.0995C134.946 41.2895 135.386 40.5026 135.849 39.7389C136.312 38.9752 136.728 38.2809 137.121 37.6792C137.515 37.0775 137.862 36.5915 138.163 36.2212C138.464 35.8509 138.649 35.6658 138.765 35.6658C138.95 35.6658 139.019 35.8047 138.996 36.1055C138.973 36.4064 138.88 36.7535 138.765 37.1701C138.626 37.5866 138.464 38.0032 138.302 38.4198C138.117 38.8363 137.978 39.2066 137.839 39.4843L136.774 41.3589C136.682 41.4515 136.589 41.6135 136.497 41.7755ZM150.058 36.7766C149.943 37.0544 149.757 37.4478 149.48 37.9569C149.202 38.4661 148.878 39.0678 148.485 39.7852C148.091 40.5026 147.651 41.2895 147.165 42.1689C146.749 42.9095 146.355 43.6269 145.985 44.298C145.615 44.9691 145.268 45.5709 144.944 46.1031C144.365 47.052 143.925 47.6768 143.601 47.9777C143.277 48.2786 143.046 48.3711 142.93 48.2554C142.815 48.1397 142.791 47.862 142.884 47.4454C142.953 47.0288 143.139 46.5429 143.393 46.0106C143.486 45.8717 143.555 45.7329 143.625 45.594C143.694 45.4551 143.74 45.3394 143.81 45.2469C143.879 45.1311 143.949 45.0386 143.995 44.9229C144.874 43.326 145.731 41.8912 146.541 40.6415C146.888 40.1092 147.212 39.5769 147.559 39.0909C147.906 38.5818 148.23 38.1189 148.554 37.7255C148.878 37.3321 149.179 37.0081 149.433 36.7535C149.711 36.4989 149.919 36.3832 150.105 36.3832C150.174 36.3601 150.174 36.4989 150.058 36.7766ZM180.583 35.8509C180.329 35.5038 179.912 35.2492 179.311 35.0872C178.732 34.9252 177.945 34.9715 176.996 35.1798C175.955 35.4344 175.122 35.8047 174.543 36.2906C173.965 36.7766 173.548 37.3552 173.27 38.0032C173.016 38.6049 172.9 39.2298 172.877 39.924C172.622 40.3406 172.368 40.734 172.044 41.1275C171.743 41.5209 171.419 41.868 171.118 42.1689C170.817 42.4697 170.516 42.7012 170.285 42.8863C170.03 43.0714 169.868 43.164 169.753 43.164C169.637 43.164 169.614 43.0483 169.73 42.8169C169.845 42.5855 170.007 42.2846 170.239 41.8912C170.47 41.4977 170.748 41.058 171.049 40.572C171.35 40.086 171.65 39.5769 171.951 39.0678C172.252 38.5586 172.507 38.0495 172.715 37.5635C172.923 37.0775 173.062 36.6378 173.108 36.2444C173.155 35.8509 173.085 35.5501 172.9 35.3187C172.715 35.0872 172.368 34.9715 171.882 34.9715C171.257 34.9715 170.655 35.1335 170.054 35.4575C169.452 35.7815 168.873 36.2444 168.295 36.8692C167.716 37.4941 167.138 38.2346 166.536 39.1141C165.934 39.9935 165.332 41.0118 164.708 42.1689C164.916 41.5209 165.217 40.8266 165.564 40.1092C165.934 39.3918 166.328 38.7206 166.744 38.0726C167.161 37.4246 167.577 36.8229 167.994 36.2906C168.41 35.7584 168.781 35.3187 169.105 34.9947C168.295 34.9947 167.6 35.1104 167.022 35.3187C166.443 35.5269 165.888 35.8741 165.379 36.3832C164.87 36.8692 164.36 37.5172 163.851 38.3503C163.342 39.1603 162.74 40.1786 162.092 41.4052C161.792 41.9375 161.537 42.4235 161.306 42.8863C160.935 43.488 160.565 44.0434 160.195 44.5063C159.315 45.6634 158.505 46.5429 157.788 47.1908C157.07 47.8388 156.446 48.2554 155.89 48.4637C155.358 48.672 154.941 48.7877 154.641 48.7877C154.34 48.7877 154.131 48.672 154.016 48.4637C153.9 48.2323 153.854 47.9314 153.9 47.538C153.946 47.1446 154.039 46.6817 154.201 46.1726C154.363 45.6403 154.594 45.0849 154.849 44.4832C156.122 44.2517 157.279 43.8583 158.274 43.3029C159.269 42.7475 160.102 42.1226 160.796 41.4283C161.491 40.734 162 39.9935 162.37 39.2529C162.74 38.5123 162.926 37.8181 162.926 37.1932C162.926 36.5684 162.74 36.0361 162.393 35.6427C162.046 35.2492 161.468 35.0409 160.704 35.0409C159.894 35.0409 159.061 35.2492 158.228 35.6658C157.394 36.0824 156.608 36.6378 155.844 37.3089C155.08 37.9801 154.386 38.7669 153.738 39.6232C153.09 40.4795 152.535 41.382 152.095 42.2846C151.655 43.1872 151.331 44.0666 151.1 44.946C150.891 45.8023 150.822 46.5891 150.938 47.2603C151.053 47.9314 151.331 48.4868 151.794 48.9034C152.257 49.32 152.974 49.5283 153.9 49.5283C154.802 49.5283 155.682 49.2968 156.538 48.8571C157.394 48.4174 158.204 47.7694 159.014 46.9594C159.338 46.6354 159.639 46.2651 159.963 45.8949C159.709 46.6123 159.547 47.2371 159.524 47.7231C159.477 48.3711 159.639 48.834 159.986 49.1117C160.334 49.3894 160.866 49.5283 161.606 49.5283C161.653 49.4357 161.722 49.32 161.792 49.2043C161.861 49.0654 161.954 48.9034 162.023 48.7183C163.226 46.3577 164.268 44.4137 165.17 42.84C166.073 41.2663 166.837 40.0166 167.462 39.0909C168.086 38.1652 168.619 37.4941 169.012 37.1006C169.406 36.7072 169.706 36.5221 169.915 36.5221C170.03 36.5221 169.984 36.7304 169.73 37.1701C169.475 37.5866 169.151 38.1421 168.758 38.7669C168.364 39.4149 167.948 40.1092 167.508 40.8729C167.068 41.6366 166.744 42.3309 166.49 42.9789C166.258 43.6269 166.166 44.1592 166.212 44.5757C166.258 44.9923 166.605 45.2237 167.207 45.2237C167.577 45.2237 168.04 45.108 168.619 44.8534C168.966 44.7146 169.313 44.5294 169.66 44.298C169.336 44.7377 169.105 45.1774 168.966 45.6171C168.781 46.1957 168.758 46.7743 168.896 47.3066C169.035 47.8388 169.29 48.3017 169.66 48.672C170.054 49.0423 170.54 49.2968 171.188 49.4357C171.812 49.5745 172.553 49.5514 173.386 49.3663C174.358 49.1348 175.122 48.7877 175.677 48.3017C176.233 47.8157 176.626 47.2603 176.857 46.6354C177.089 46.0106 177.205 45.3163 177.205 44.5989C177.205 43.8583 177.135 43.1409 177.019 42.4003C176.904 41.6597 176.742 40.9423 176.58 40.248C176.418 39.5538 176.279 38.9289 176.186 38.3503C176.094 37.7718 176.071 37.3089 176.117 36.9155C176.163 36.5221 176.325 36.2675 176.626 36.1518C176.904 36.0361 177.158 36.1055 177.39 36.4064C177.621 36.7072 177.783 37.1006 177.876 37.5866C177.968 38.0958 177.991 38.6281 177.945 39.2298C177.899 39.8315 177.737 40.3638 177.459 40.8729C178.153 40.7572 178.755 40.5026 179.287 40.1092C179.82 39.7158 180.213 39.2992 180.514 38.8132C180.815 38.3272 180.977 37.8412 181 37.3552C180.954 36.6378 180.861 36.2212 180.583 35.8509ZM156.029 42.0069C156.399 41.3589 156.77 40.7109 157.14 40.086C157.51 39.4612 157.88 38.8826 158.251 38.3272C158.621 37.7718 158.968 37.2858 159.269 36.8692C159.57 36.4526 159.871 36.1286 160.102 35.8741C160.357 35.6427 160.542 35.5038 160.658 35.5038C160.75 35.5038 160.727 35.6889 160.611 36.0361C160.496 36.3832 160.287 36.8229 160.033 37.3784C159.755 37.9106 159.431 38.5123 159.038 39.1835C158.644 39.8315 158.228 40.4795 157.788 41.1043C157.348 41.7292 156.885 42.3077 156.422 42.8169C155.96 43.326 155.497 43.6963 155.057 43.9277C155.335 43.3029 155.659 42.6549 156.029 42.0069ZM173.849 47.9314C173.779 48.3248 173.571 48.5563 173.201 48.6488C173.016 48.6951 172.854 48.6025 172.715 48.348C172.576 48.0934 172.437 47.7694 172.322 47.3528C172.206 46.9363 172.113 46.4734 172.044 45.9643C171.974 45.4551 171.928 44.946 171.905 44.4369C171.882 43.9277 171.859 43.488 171.882 43.0714C171.882 42.6549 171.928 42.3309 171.997 42.1226C171.951 42.1457 171.905 42.1689 171.859 42.192C171.905 42.1226 171.974 42.0763 172.021 42.0069C172.345 41.6597 172.622 41.2895 172.9 40.896C172.923 41.382 172.969 41.868 173.039 42.3309C173.155 43.0946 173.293 43.8352 173.455 44.5526C173.617 45.27 173.733 45.918 173.826 46.4966C173.918 47.0751 173.918 47.5611 173.849 47.9314ZM26.1755 37.4941C27.1707 35.5038 28.9295 32.2638 30.2024 29.6024C31.4984 26.8716 32.7249 25.7144 35.0855 26.3162C36.3583 26.6402 37.4229 28.5379 36.798 31.1067C36.1963 33.5367 34.6458 33.9301 33.558 33.907C33.8126 33.6987 34.044 33.4441 34.2292 33.097C34.854 32.0093 34.6689 30.7595 33.8358 30.2736C33.0026 29.8107 31.8455 30.2967 31.2206 31.3844C30.5958 32.4721 30.8041 33.7681 31.6372 34.231C31.7298 34.2772 31.8223 34.3235 31.9381 34.3467C33.7895 35.0641 37.1683 34.7632 38.3254 31.5001C39.3437 28.6304 38.3949 26.131 35.8955 25.3673C30.3875 23.701 27.6567 28.0519 25.8978 31.4307C24.9721 33.2127 23.2364 36.1518 23.2364 36.1518C22.843 36.8461 22.4727 37.4941 22.1256 38.0958C21.7784 38.6975 21.4776 39.2298 21.223 39.6695C20.9684 40.1092 20.8064 40.41 20.737 40.5258C20.1584 41.544 19.5567 42.5392 18.9319 43.5343C18.307 44.5294 17.7285 45.432 17.173 46.2189C16.6176 47.0057 16.1316 47.6537 15.6688 48.1628C15.2291 48.672 14.8819 48.9034 14.6505 48.9034C14.3496 48.9034 14.2571 48.6025 14.3959 48.024C14.5348 47.4454 14.8125 46.6586 15.2522 45.7097C15.6919 44.7377 16.2242 43.65 16.8722 42.4235C17.5202 41.1969 18.2145 39.924 18.9319 38.6512C20.6444 35.6195 22.681 32.1944 25.0647 28.3527C23.2364 28.2139 21.5933 28.2601 20.1353 28.4684C18.6773 28.6999 17.4045 29.0238 16.2936 29.4867C15.2059 29.9496 14.2802 30.4818 13.5396 31.1067C12.7991 31.7315 12.2205 32.3795 11.8039 33.0507C11.3874 33.7218 11.1328 34.3698 11.0402 35.0178C10.9477 35.6658 11.0171 36.2212 11.2254 36.7304C11.4337 37.2395 11.8039 37.6098 12.3131 37.8875C12.8222 38.1652 13.4702 38.2578 14.2571 38.1883C14.0719 37.3089 14.0719 36.4758 14.2802 35.6658C14.4885 34.8558 14.8125 34.0921 15.2985 33.3978C15.7613 32.7035 16.3399 32.0555 16.9879 31.5001C17.6359 30.9215 18.3302 30.4587 19.0476 30.0653C19.765 29.6718 20.4593 29.3941 21.1536 29.209C21.8479 29.0238 22.4496 28.9544 22.9587 29.0007C22.1487 29.4404 21.2924 30.0884 20.4593 30.8984C19.603 31.639 18.7699 32.5647 17.983 33.6061C17.1962 34.6475 16.4325 35.7815 15.7382 36.9849C15.0439 38.1883 14.4191 39.3686 13.8868 40.572C13.3545 41.7523 12.9379 42.8863 12.6371 43.9972C12.3594 45.0849 12.1974 46.0337 12.2205 46.8668C12.2205 47.7 12.4056 48.348 12.7528 48.8571C13.0999 49.3663 13.6554 49.5977 14.4422 49.5977C15.3448 49.5977 16.2936 49.2968 17.2425 48.6951C18.2145 48.0934 19.1633 47.2834 20.1122 46.242C21.061 45.2237 22.0099 44.0434 22.9356 42.7012C23.8613 41.3589 24.7407 39.9703 25.597 38.5123C25.6895 38.3503 25.921 38.0263 26.1755 37.4941ZM76.5803 34.9252C75.7703 34.9252 74.9371 35.1335 74.104 35.5501C73.2709 35.9666 72.484 36.5221 71.7203 37.1932C70.9566 37.8643 70.2623 38.6512 69.6143 39.5075C68.9663 40.3638 68.4109 41.2663 67.9712 42.1689C67.5315 43.0714 67.2075 43.9509 66.9761 44.8303C66.7678 45.6866 66.6983 46.4734 66.8141 47.1446C66.9298 47.8157 67.2075 48.3711 67.6703 48.7877C68.1332 49.2043 68.8506 49.4125 69.7763 49.4125C70.6789 49.4125 71.5583 49.1811 72.4146 48.7414C73.2709 48.3017 74.0809 47.6537 74.8909 46.8437C75.7008 46.0106 76.4646 45.0154 77.2051 43.8583C77.344 43.65 77.4828 43.4186 77.6217 43.1872H76.9274C76.6266 43.65 76.3257 44.0666 76.048 44.4369C75.1686 45.594 74.3586 46.4734 73.6412 47.1214C72.9237 47.7694 72.2989 48.186 71.7435 48.3943C71.2112 48.6025 70.7946 48.7183 70.4937 48.7183C70.1929 48.7183 69.9846 48.6025 69.8689 48.3943C69.7532 48.1628 69.7069 47.862 69.7532 47.4686C69.7995 47.0751 69.892 46.6123 70.054 46.1031C70.216 45.5709 70.4475 45.0154 70.702 44.4137C71.9749 44.1823 73.132 43.7889 74.1271 43.2334C75.1223 42.678 75.9554 42.0532 76.6497 41.3589C77.344 40.6646 77.8531 39.924 78.2234 39.1835C78.5937 38.4429 78.7788 37.7486 78.7788 37.1238C78.7788 36.4989 78.5937 35.9667 78.2465 35.5732C77.8994 35.1104 77.344 34.9252 76.5803 34.9252ZM76.5108 36.0361C76.3951 36.3832 76.1868 36.8229 75.9323 37.3784C75.6546 37.9106 75.3306 38.5123 74.9371 39.1835C74.5437 39.8315 74.1272 40.4795 73.6874 41.1043C73.2477 41.7292 72.7849 42.3077 72.322 42.8169C71.8592 43.326 71.3963 43.6963 70.9566 43.9277C71.2343 43.3029 71.5583 42.6549 71.9286 42.0069C72.2989 41.3589 72.6692 40.7109 73.0394 40.086C73.4097 39.4612 73.78 38.8826 74.1503 38.3272C74.5206 37.7718 74.8677 37.2858 75.1686 36.8692C75.4694 36.4526 75.7703 36.1286 76.0017 35.8741C76.2563 35.6427 76.4414 35.5038 76.5571 35.5038C76.6497 35.5038 76.6497 35.6889 76.5108 36.0361Z" fill="#E65A24"/>
</svg>
