<svg width="183" height="50" viewBox="0 0 183 50" fill="none" xmlns="http://www.w3.org/2000/svg">
<g clip-path="url(#clip0_445_1939)">
<mask id="mask0_445_1939" style="mask-type:luminance" maskUnits="userSpaceOnUse" x="0" y="0" width="183" height="50">
<path d="M183 0H0V50H183V0Z" fill="white"/>
</mask>
<g mask="url(#mask0_445_1939)">
<path d="M0 0H183L160.421 50H0V0Z" fill="black"/>
<path d="M41.8509 25.0625L48.8989 37.9054L41.7261 36.2844L39.2936 43.1423L32.9316 31.671" stroke="white" stroke-width="2" stroke-linecap="round" stroke-linejoin="round"/>
<path d="M19.3979 25.1875L12.4746 37.9057L19.6474 36.2848L21.9552 43.1426L28.1924 31.6713" stroke="white" stroke-width="2" stroke-linecap="round" stroke-linejoin="round"/>
<path d="M30.6238 30.9223C37.272 30.9223 42.6616 25.5351 42.6616 18.8898C42.6616 12.2445 37.272 6.85742 30.6238 6.85742C23.9755 6.85742 18.5859 12.2445 18.5859 18.8898C18.5859 25.5351 23.9755 30.9223 30.6238 30.9223Z" stroke="white" stroke-width="2"/>
<path d="M30.5631 10.0996L32.4955 16.0445H38.7492L33.6899 19.7186L35.6223 25.6635L30.5631 21.9894L25.5038 25.6635L27.4362 19.7186L22.377 16.0445H28.6306L30.5631 10.0996Z" fill="white"/>
<path opacity="0.5" d="M56.2261 10.0156L40.7578 44.9283" stroke="white" stroke-width="1.6"/>
<path opacity="0.5" d="M54.355 10.0156L38.8867 44.9283" stroke="white" stroke-width="1.6"/>
<path opacity="0.5" d="M52.4839 10.0156L37.0156 44.9283" stroke="white" stroke-width="1.6"/>
<path opacity="0.5" d="M50.6128 10.0156L35.1445 44.9283" stroke="white" stroke-width="1.6"/>
<path opacity="0.5" d="M48.7417 10.0156L33.2734 44.9283" stroke="white" stroke-width="1.6"/>
<path opacity="0.5" d="M46.8706 10.0156L31.4023 44.9283" stroke="white" stroke-width="1.6"/>
<path opacity="0.5" d="M44.9996 10.0156L29.5312 44.9283" stroke="white" stroke-width="1.6"/>
<path opacity="0.5" d="M43.1285 10.0156L27.6602 44.9283" stroke="white" stroke-width="1.6"/>
<path opacity="0.5" d="M41.2574 10.0156L25.7891 44.9283" stroke="white" stroke-width="1.6"/>
<path opacity="0.5" d="M39.3863 10.0156L23.918 44.9283" stroke="white" stroke-width="1.6"/>
<path opacity="0.5" d="M37.5152 10.0156L22.0469 44.9283" stroke="white" stroke-width="1.6"/>
<path opacity="0.5" d="M35.6441 10.0156L20.1758 44.9283" stroke="white" stroke-width="1.6"/>
<path opacity="0.5" d="M46.6551 14.4629H58.5058L43.0375 48.3781L31.8105 47.817L46.6551 14.4629Z" fill="white"/>
<path d="M70.7831 8.81749C71.2843 8.81749 71.7522 9.01838 72.0864 9.35319C72.22 8.9849 72.4206 8.65008 72.6211 8.38224C72.1199 7.98047 71.4849 7.74609 70.7831 7.74609C69.1121 7.74609 67.7754 9.11882 67.7754 10.7929C67.7754 12.4669 69.1121 13.8396 70.7831 13.8396C71.4849 13.8396 72.1199 13.6052 72.6211 13.2035C72.3872 12.9021 72.22 12.5673 72.0864 12.2326C71.7522 12.5673 71.2843 12.7682 70.7831 12.7682C69.7137 12.7682 68.8783 11.8978 68.8783 10.8264C68.8448 9.72148 69.7137 8.81749 70.7831 8.81749Z" fill="white"/>
<path d="M64.5336 6.60938C64.3666 6.60938 64.1995 6.7433 64.0993 6.91071L61.125 13.6069H62.328L62.7291 12.6359H66.3382L66.7727 13.6069H67.9757L64.9681 6.91071C64.9013 6.7433 64.7342 6.60938 64.5336 6.60938ZM63.2303 11.5646L64.5671 8.58476L65.9038 11.5646H63.2303Z" fill="white"/>
<path d="M78.8041 10.7929C78.8041 9.11882 77.5342 7.81306 75.9301 7.74609C75.9301 7.74609 75.9301 7.74609 75.8967 7.74609C75.8299 7.74609 75.8299 7.77959 75.8633 7.81306C75.8633 7.81306 75.8633 7.81306 75.8633 7.84654C75.9636 8.08091 76.2309 8.61661 76.7321 9.01838C77.3336 9.5206 77.7347 10.0898 77.7347 10.8264C77.7347 11.7638 77.0329 12.7682 75.8299 12.7682C74.6602 12.7682 73.925 11.7638 73.925 10.8264C73.925 10.0898 74.2926 9.5206 74.9276 9.01838C75.4288 8.61661 75.6962 8.04743 75.7964 7.84654C75.8299 7.81306 75.7964 7.77959 75.763 7.77959C74.1256 7.81306 72.8223 9.18578 72.8223 10.8264C72.8223 12.1991 73.9584 13.7727 75.7964 13.7727C76.632 13.7727 77.3002 13.5048 77.835 13.1031L78.4031 13.6387H80.0406L78.5034 12.1321C78.7038 11.7303 78.8041 11.2616 78.8041 10.7929Z" fill="white"/>
<path d="M87.2242 7.84766H86.0879V13.6063H87.2242V7.84766Z" fill="white"/>
<path d="M83.883 10.727C83.883 11.9324 83.2814 12.6689 82.3123 12.6689C81.3432 12.6689 80.7416 11.9324 80.7416 10.727V7.84766H79.6055V10.727C79.6055 12.5015 80.7416 13.7738 82.3123 13.7738C83.883 13.7738 85.0191 12.5015 85.0191 10.727V7.84766H83.883V10.727Z" fill="white"/>
<path d="M92.6706 7.84737V8.71788L92.47 8.4835C91.9354 7.94781 91.3673 7.64648 90.6989 7.64648C89.9302 7.64648 89.2953 7.94781 88.7941 8.517C88.2927 9.08617 88.0254 9.82276 88.0254 10.6933C88.0254 11.5638 88.2927 12.3338 88.7941 12.9029C89.2953 13.4721 89.9637 13.7735 90.7323 13.7735C91.3339 13.7735 91.9354 13.5057 92.47 13.0034L92.6706 12.8026V13.6061H93.8068V7.84737H92.6706ZM92.2696 12.1999C91.9354 12.5682 91.5009 12.769 90.9328 12.769C90.4316 12.769 89.9971 12.5682 89.6629 12.1664C89.3287 11.7981 89.1617 11.2959 89.1617 10.6933C89.1617 10.1241 89.3287 9.65535 89.6629 9.25358C89.9971 8.8518 90.4316 8.68439 90.9328 8.68439C91.4675 8.68439 91.9019 8.88529 92.2361 9.25358C92.5703 9.65535 92.7374 10.1241 92.7374 10.7267C92.7374 11.3294 92.5703 11.8316 92.2696 12.1999Z" fill="white"/>
<path d="M63.2006 20.1084H66.9299C67.4171 20.1084 67.8497 20.1839 68.2277 20.335C68.614 20.4778 68.9332 20.6793 69.1852 20.9395C69.4372 21.1998 69.6136 21.5105 69.7144 21.8715C69.8152 22.2241 69.8278 22.6061 69.7522 23.0175C69.6849 23.4036 69.5422 23.7353 69.3238 24.0123C69.1138 24.2894 68.8493 24.5203 68.53 24.705C68.8324 24.9317 69.0508 25.2256 69.1852 25.5865C69.3195 25.9392 69.3406 26.3799 69.2482 26.9089C69.1054 27.6813 68.719 28.2732 68.0891 28.6845C67.4675 29.0959 66.6318 29.3016 65.5818 29.3016H61.5879L63.2006 20.1084ZM64.3849 25.5865L64.0699 27.3748H65.6448C66.09 27.3748 66.4217 27.2993 66.6402 27.1481C66.8586 26.997 66.9929 26.7913 67.0433 26.5311C67.0937 26.254 67.0307 26.0273 66.8543 25.851C66.678 25.6747 66.3504 25.5865 65.8716 25.5865H64.3849ZM65.0149 22.0226L64.7251 23.6597H66.363C66.783 23.6597 67.0811 23.5842 67.2575 23.433C67.4423 23.2819 67.5557 23.1056 67.5977 22.9041C67.6565 22.6354 67.6061 22.4213 67.4465 22.2618C67.2953 22.1024 67.0224 22.0226 66.6276 22.0226H65.0149ZM71.4688 20.1084H75.2611C75.7651 20.1084 76.2271 20.1965 76.647 20.3728C77.067 20.5408 77.4198 20.7842 77.7054 21.1032C77.991 21.4138 78.1926 21.7875 78.3101 22.2241C78.4361 22.6522 78.453 23.1266 78.3605 23.6471C78.2682 24.1761 78.0288 24.6672 77.6424 25.1206C77.256 25.5656 76.7437 25.9097 76.1053 26.1532L77.7306 29.3016H75.2737L73.9382 26.4807H72.5523L72.0609 29.3016H69.8561L71.4688 20.1084ZM73.3208 22.0729L72.8925 24.5287H74.3918C74.8454 24.5287 75.2192 24.4363 75.5131 24.2516C75.8155 24.0585 76.0004 23.7731 76.0675 23.3953C76.1012 23.2106 76.1012 23.0384 76.0675 22.8789C76.0339 22.7195 75.9626 22.5809 75.8533 22.4633C75.7525 22.3458 75.6098 22.2535 75.4249 22.1863C75.2485 22.1107 75.0302 22.0729 74.7698 22.0729H73.3208ZM83.3834 29.4276C82.6611 29.4276 82.01 29.289 81.4305 29.012C80.8509 28.7266 80.368 28.3488 79.9816 27.8786C79.6036 27.4 79.3307 26.8501 79.1626 26.2288C79.0031 25.6075 78.9821 24.9526 79.0996 24.2642C79.2004 23.6597 79.402 23.0973 79.7044 22.5767C80.0153 22.0478 80.3932 21.5944 80.8383 21.2166C81.2919 20.8304 81.8043 20.5282 82.3754 20.3099C82.9466 20.0915 83.5471 19.9824 84.1771 19.9824C84.8911 19.9824 85.5337 20.1252 86.1048 20.4106C86.6843 20.6877 87.1674 21.0655 87.5537 21.544C87.9401 22.0142 88.2131 22.5599 88.3726 23.1812C88.5407 23.8025 88.5659 24.4574 88.4482 25.1458C88.3474 25.7503 88.1458 26.317 87.8435 26.8459C87.5496 27.3665 87.18 27.8198 86.7347 28.206C86.298 28.5838 85.794 28.8818 85.2228 29.1001C84.6518 29.3185 84.0385 29.4276 83.3834 29.4276ZM83.5597 27.2615C83.9125 27.2615 84.236 27.2027 84.5299 27.0852C84.8323 26.9676 85.1011 26.8039 85.3362 26.594C85.5715 26.3842 85.7646 26.1407 85.9158 25.8636C86.067 25.5782 86.172 25.2717 86.2308 24.9443C86.298 24.5748 86.2896 24.2222 86.2056 23.8864C86.13 23.5421 85.9914 23.2441 85.7898 22.9923C85.5882 22.732 85.3321 22.5263 85.0212 22.3752C84.7189 22.2157 84.3703 22.1359 83.9755 22.1359C83.6227 22.1359 83.2952 22.1989 82.9928 22.3248C82.6989 22.4424 82.4343 22.6061 82.199 22.816C81.9722 23.0175 81.7791 23.261 81.6195 23.5464C81.4683 23.8318 81.3634 24.1383 81.3045 24.4657C81.2374 24.8352 81.2415 25.1878 81.3171 25.5236C81.4012 25.8594 81.5439 26.1575 81.7455 26.4177C81.947 26.6696 82.199 26.8753 82.5014 27.0348C82.8123 27.1859 83.165 27.2615 83.5597 27.2615ZM90.4907 20.1084H92.6577L95.4169 25.8132L96.4249 20.1084H98.5919L96.9792 29.3016H94.8752L92.053 23.5086L91.0324 29.3016H88.878L90.4907 20.1084ZM98.3144 29.3016L98.6546 27.337L103.757 22.0729H99.7129L100.053 20.1084H106.781L106.441 22.0604L101.376 27.2993H105.609L105.257 29.3016H98.3144ZM108.159 20.1084H114.635L114.27 22.1359H109.998L109.734 23.6849H114.005L113.64 25.7251H109.368L109.104 27.2741H113.375L113.022 29.3016H106.546L108.159 20.1084ZM118.777 20.1084H120.982L119.735 27.1985H123.363L122.998 29.3016H117.165L118.777 20.1084ZM125.778 20.1084H132.255L131.889 22.1359H127.618L127.354 23.6849H131.625L131.259 25.7251H126.988L126.724 27.2741H130.995L130.642 29.3016H124.165L125.778 20.1084ZM134.577 29.3016L132.827 20.1084H135.019L136.077 26.3296L139.365 20.1084H141.747L136.694 29.3016H134.577ZM142.524 20.1084H148.999L148.635 22.1359H144.364L144.099 23.6849H148.369L148.005 25.7251H143.734L143.469 27.2741H147.739L147.387 29.3016H140.911L142.524 20.1084ZM150.288 20.1084H152.492L151.245 27.1985H154.873L154.508 29.3016H148.675L150.288 20.1084ZM63.2006 33.9488H66.8669C67.3037 33.9488 67.7279 34.0412 68.1395 34.2258C68.551 34.4021 68.9038 34.654 69.1978 34.9814C69.4918 35.3089 69.7101 35.7035 69.853 36.1652C69.9958 36.6269 70.0167 37.1392 69.916 37.7016C69.8404 38.1802 69.6975 38.6209 69.4876 39.0239C69.2776 39.4186 69.0046 39.7627 68.6686 40.0566C68.3411 40.3505 67.9547 40.5813 67.5095 40.7493C67.0643 40.9087 66.5646 40.9885 66.0102 40.9885H64.1707L63.7927 43.142H61.5879L63.2006 33.9488ZM65.0527 35.9385L64.5235 38.9358H66.0984C66.5688 38.9358 66.9425 38.8015 67.2197 38.5328C67.4969 38.2641 67.6775 37.9074 67.7615 37.4623C67.795 37.2525 67.7867 37.0551 67.7363 36.8705C67.6943 36.6858 67.6145 36.5262 67.4969 36.3919C67.3878 36.2491 67.2492 36.14 67.0811 36.0645C66.9131 35.9806 66.7241 35.9385 66.5142 35.9385H65.0527ZM73.6031 33.9488H75.7198L77.4711 43.142H75.3544L75.1024 41.7064H71.6125L70.8565 43.142H68.5509L73.6031 33.9488ZM72.633 39.7921H74.7749L74.2583 36.7193L72.633 39.7921ZM79.8355 33.9488H83.6279C84.1318 33.9488 84.5937 34.0369 85.0138 34.2132C85.4337 34.3812 85.7864 34.6246 86.0721 34.9436C86.3576 35.2542 86.5592 35.6279 86.6769 36.0645C86.8028 36.4926 86.8196 36.967 86.7273 37.4875C86.6348 38.0165 86.3954 38.5076 86.0091 38.961C85.6226 39.406 85.1103 39.7501 84.472 39.9936L86.0973 43.142H83.6405L82.3049 40.3211H80.919L80.4277 43.142H78.2228L79.8355 33.9488ZM81.6876 35.9133L81.2592 38.3691H82.7585C83.2121 38.3691 83.5858 38.2767 83.8798 38.092C84.1822 37.8989 84.367 37.6135 84.4342 37.2357C84.4678 37.051 84.4678 36.8788 84.4342 36.7193C84.4005 36.5599 84.3292 36.4213 84.22 36.3037C84.1192 36.1862 83.9764 36.0939 83.7916 36.0267C83.6153 35.9511 83.3968 35.9133 83.1365 35.9133H81.6876ZM88.5866 43.142L89.8339 35.9889H87.3644L87.7298 33.9488H94.8484L94.4956 35.9889H92.0135L90.7662 43.142H88.5866ZM96.0028 33.9488H98.1698L100.929 39.6536L101.937 33.9488H104.104L102.491 43.142H100.387L97.565 37.349L96.5445 43.142H94.39L96.0028 33.9488ZM105.501 33.9488H111.977L111.612 35.9763H107.341L107.076 37.5253H111.347L110.982 39.5655H106.711L106.446 41.1145H110.717L110.365 43.142H103.889L105.501 33.9488ZM113.265 33.9488H117.057C117.561 33.9488 118.023 34.0369 118.443 34.2132C118.863 34.3812 119.216 34.6246 119.502 34.9436C119.787 35.2542 119.989 35.6279 120.106 36.0645C120.232 36.4926 120.249 36.967 120.157 37.4875C120.064 38.0165 119.825 38.5076 119.439 38.961C119.052 39.406 118.54 39.7501 117.902 39.9936L119.527 43.142H117.07L115.735 40.3211H114.349L113.857 43.142H111.652L113.265 33.9488ZM115.117 35.9133L114.689 38.3691H116.188C116.642 38.3691 117.015 38.2767 117.309 38.092C117.612 37.8989 117.797 37.6135 117.864 37.2357C117.897 37.051 117.897 36.8788 117.864 36.7193C117.83 36.5599 117.759 36.4213 117.65 36.3037C117.549 36.1862 117.406 36.0939 117.221 36.0267C117.045 35.9511 116.826 35.9133 116.566 35.9133H115.117Z" fill="white"/>
</g>
</g>
<defs>
<clipPath id="clip0_445_1939">
<rect width="183" height="50" fill="white"/>
</clipPath>
</defs>
</svg>
