<svg width="163" height="140" viewBox="0 0 163 140" fill="none" xmlns="http://www.w3.org/2000/svg">
<g clip-path="url(#clip0_445_1993)">
<mask id="mask0_445_1993" style="mask-type:luminance" maskUnits="userSpaceOnUse" x="0" y="0" width="163" height="140">
<path d="M163 0H0V140H163V0Z" fill="white"/>
</mask>
<g mask="url(#mask0_445_1993)">
<path fill-rule="evenodd" clip-rule="evenodd" d="M25.8329 90.4459H3.5L11.3799 78.4837L3.5 65.8828H25.8329V90.4459Z" fill="black"/>
<path fill-rule="evenodd" clip-rule="evenodd" d="M136.775 90.4459H159.108L151.228 78.4837L159.108 65.8828H136.775V90.4459Z" fill="black"/>
<path d="M150.178 73.6735L135.338 81.9237L140.604 68.4863H150.178V73.6735Z" fill="black"/>
<path d="M141.097 36.9986V102.973L81.6771 136L22.2285 102.973V36.9986L81.6771 4L141.097 36.9986Z" stroke="black" stroke-width="4"/>
<path d="M137.788 38.4676V101.81L81.4675 133.496L25.1152 101.81V38.4676L81.4675 6.78125L137.788 38.4676Z" stroke="black" stroke-width="4" stroke-miterlimit="10"/>
<path fill-rule="evenodd" clip-rule="evenodd" d="M15.0254 83.2213C15.0254 83.3008 15.0902 83.3658 15.1695 83.3658H147.438C147.517 83.3658 147.582 83.3008 147.582 83.2213V58.9472C147.582 58.8678 147.517 58.8027 147.438 58.8027H15.1695C15.0902 58.8027 15.0254 58.8678 15.0254 58.9472V83.2213Z" fill="black"/>
<path d="M71.3615 33.3711H68.9121V46.8085H71.3615V33.3711Z" fill="black"/>
<path d="M79.5044 42.7323C79.5044 44.8346 77.5852 44.9921 77.0334 44.9921C75.6675 44.9921 75.326 43.7567 75.326 43.0213V37.8457H73.3809V43.0213C73.3809 44.3087 73.7756 45.3851 74.5105 46.122C75.1675 46.752 76.0867 47.0944 77.1645 47.0944C78.0059 47.0944 78.6889 46.8314 79.5029 46.359V46.7274H81.7362V37.8486H79.5029V42.7352L79.5044 42.7323Z" fill="black"/>
<path d="M86.2796 34.8184H83.8258V37.961H82.457V39.6891H83.8258V46.8109H86.2796V39.6891H87.9322V37.961H86.2796V34.8184Z" fill="black"/>
<path d="M95.128 44.2187C94.605 44.6622 93.9523 44.8963 93.2736 44.8703C91.706 44.8703 90.5317 43.7491 90.5317 42.2363C90.5317 40.7235 91.6556 39.6543 93.2736 39.6543C93.9523 39.6543 94.6323 39.8883 95.1539 40.3059L95.4939 40.5934L97.0083 39.1327L96.6164 38.7931C95.7029 38.01 94.5012 37.5664 93.2477 37.5664C90.4266 37.5664 88.3633 39.5228 88.3633 42.2363C88.3633 44.9498 90.4784 46.9582 93.2477 46.9582C94.5012 46.9842 95.7029 46.5406 96.6437 45.7315L97.0097 45.3919L95.468 43.9311L95.128 44.2187Z" fill="black"/>
<path d="M105.132 38.7663C104.477 38.1378 103.535 37.7968 102.46 37.7968C101.621 37.7968 100.731 38.0583 100.103 38.5308V33.3711H97.875V46.8085H100.103V42.1459C100.103 40.0508 101.883 39.8933 102.434 39.8933C103.769 39.8933 104.006 41.1243 104.006 41.8583V46.8085H106.233V41.8583C106.207 40.5493 105.893 39.4743 105.132 38.7677V38.7663Z" fill="black"/>
<path d="M93.1902 43.919C94.1051 43.919 94.8471 43.2081 94.8471 42.3296C94.8471 41.4511 94.1051 40.7402 93.1902 40.7402C92.2752 40.7402 91.5332 41.4511 91.5332 42.3296C91.5332 43.2081 92.2752 43.919 93.1902 43.919Z" fill="black"/>
<path d="M66.2165 43.693C65.3505 44.5325 64.1705 45.031 62.9386 45.0036C60.3941 45.0036 58.5585 43.0891 58.5585 40.4681C58.5585 37.847 60.3941 35.9066 62.9386 35.9066C64.1705 35.9066 65.352 36.379 66.1905 37.2171L66.532 37.5581L68.0535 36.0901L67.7121 35.7491C66.4528 34.4906 64.7223 33.8086 62.9127 33.8086C59.1881 33.8086 56.3828 36.6666 56.3828 40.4681C56.3828 44.2696 59.1895 47.1015 62.9127 47.1015C64.7223 47.1015 66.4528 46.4195 67.7121 45.161L68.0535 44.8201L66.558 43.326L66.2165 43.693Z" fill="black"/>
<path d="M69.7466 102.624C68.3245 102.624 67.6588 101.653 67.5781 100.237L68.5867 99.9638C68.6472 100.844 68.8691 101.724 69.7466 101.724C70.3315 101.724 70.6442 101.39 70.6442 100.763C70.6442 100.025 70.271 99.6402 69.7567 99.185L68.385 97.9713C67.8404 97.496 67.5983 96.9801 67.5983 96.1609C67.5983 94.9573 68.3346 94.2695 69.5146 94.2695C70.8157 94.2695 71.441 94.9472 71.5721 96.3834L70.6039 96.6464C70.5434 95.8372 70.3618 95.1495 69.5146 95.1495C68.9498 95.1495 68.617 95.4529 68.617 96.0496C68.617 96.5452 68.7682 96.8284 69.1515 97.1622L70.5333 98.3759C71.1485 98.9221 71.7032 99.6503 71.7032 100.672C71.7032 101.886 70.8863 102.624 69.7466 102.624ZM72.5873 102.533V94.3403H74.6146C76.077 94.3403 76.6317 95.1798 76.6317 96.6059C76.6317 97.9106 75.956 98.7198 74.6246 98.7198H73.727V102.533H72.5873ZM73.727 97.9005H74.2515C75.2298 97.9005 75.5525 97.6274 75.5525 96.616C75.5525 95.4529 75.4013 95.1596 74.2616 95.1596H73.727V97.9005ZM77.4333 102.533V94.3403H79.0772C80.7111 94.3403 81.4777 94.9573 81.4777 96.5149C81.4777 97.4757 81.1953 98.1837 80.4691 98.4265L81.629 102.533H80.5296L79.4605 98.6894H78.573V102.533H77.4333ZM78.573 97.8702H79.0066C79.9648 97.8702 80.3783 97.5668 80.3783 96.5149C80.3783 95.554 80.1161 95.1596 79.0772 95.1596H78.573V97.8702ZM82.7238 102.533V94.3403H83.8434V102.533H82.7238ZM85.165 102.533V94.3403H85.9416L88.2614 99.7818V94.3403H89.2094V102.533H88.4833L86.1333 96.9397V102.533H85.165ZM92.4401 102.634C90.907 102.634 90.3422 101.612 90.3422 99.8425V97.1015C90.3422 95.3113 90.8062 94.2695 92.5309 94.2695C94.0639 94.2695 94.659 95.0382 94.659 96.6565V96.9599H93.5899V96.7071C93.5899 95.6451 93.4688 95.1596 92.551 95.1596C91.5424 95.1596 91.4819 95.9181 91.4819 96.9296V99.9638C91.4819 101.147 91.6836 101.724 92.5813 101.724C93.4688 101.724 93.6907 101.086 93.6907 99.8526V99.2862H92.6519V98.477H94.7195V102.533H94.0034L93.8924 101.592C93.6705 102.199 93.2469 102.634 92.4401 102.634Z" fill="black"/>
<path d="M73.1562 119.893V119.234L74.9371 116.452C75.3261 115.827 75.6892 115.403 75.6892 114.614C75.6892 113.972 75.5077 113.573 74.989 113.573C74.3233 113.573 74.1591 114.198 74.1591 114.865V115.099H73.2341V114.856C73.2341 113.599 73.7009 112.811 74.9458 112.811C76.0696 112.811 76.6229 113.487 76.6229 114.622C76.6229 115.524 76.2598 116.027 75.8535 116.651L74.2455 119.113H76.4586V119.893H73.1562ZM79.1691 119.971C77.9761 119.971 77.4315 119.104 77.4315 117.899V114.874C77.4315 113.643 77.9502 112.811 79.1691 112.811C80.3708 112.811 80.8981 113.643 80.8981 114.874V117.899C80.8981 119.113 80.3621 119.971 79.1691 119.971ZM79.1691 119.208C79.8175 119.208 79.9645 118.558 79.9645 117.908V114.865C79.9645 114.189 79.8348 113.565 79.1691 113.565C78.4948 113.565 78.3651 114.189 78.3651 114.865V117.908C78.3651 118.558 78.5208 119.208 79.1691 119.208ZM81.7505 119.893V119.234L83.5314 116.452C83.9204 115.827 84.2835 115.403 84.2835 114.614C84.2835 113.972 84.102 113.573 83.5833 113.573C82.9176 113.573 82.7533 114.198 82.7533 114.865V115.099H81.8283V114.856C81.8283 113.599 82.2952 112.811 83.54 112.811C84.6639 112.811 85.2172 113.487 85.2172 114.622C85.2172 115.524 84.8541 116.027 84.4478 116.651L82.8398 119.113H85.0529V119.893H81.7505ZM87.6252 119.963C86.363 119.963 85.9308 119.2 85.9308 117.925H86.8558C86.8558 118.558 86.9509 119.226 87.6425 119.226C88.3946 119.226 88.4378 118.506 88.4378 117.553C88.4378 116.608 88.3514 116.053 87.6511 116.053C87.2708 116.053 87.0028 116.33 86.8731 116.634H86.0864V112.871H89.1035V113.799H86.925L86.8645 115.741C87.0979 115.498 87.435 115.351 87.8759 115.351C89.0084 115.351 89.3629 116.226 89.3629 117.431C89.3629 118.87 88.9998 119.963 87.6252 119.963Z" fill="black"/>
<path d="M63.8869 76.862C61.6531 76.862 60.8301 75.3735 60.8301 72.7944V68.8004C60.8301 66.1918 61.5061 64.6738 64.0192 64.6738C66.2531 64.6738 67.1202 65.7939 67.1202 68.152V68.5941H65.5623V68.2256C65.5623 66.6782 65.386 65.9708 64.0486 65.9708C62.579 65.9708 62.4908 67.0761 62.4908 68.5499V72.9712C62.4908 74.6955 62.7847 75.5356 64.0927 75.5356C65.386 75.5356 65.7093 74.6071 65.7093 72.8091V71.9838H64.1956V70.8048H67.2083V76.7146H66.1649L66.0032 75.344C65.6799 76.2283 65.0627 76.862 63.8869 76.862ZM68.9154 76.7146V64.777H70.5761V75.5209H73.6183V76.7146H68.9154ZM77.7127 76.8473C75.2878 76.8473 74.4501 75.344 74.4501 72.9712V68.4467C74.4501 66.0887 75.3025 64.6738 77.7127 64.6738C80.1082 64.6738 80.9606 66.1034 80.9606 68.4467V72.986C80.9606 75.3293 80.1082 76.8473 77.7127 76.8473ZM77.7127 75.5356C79.0354 75.5356 79.2852 74.6661 79.2852 73.3397V68.1077C79.2852 66.7813 79.0354 65.9708 77.7127 65.9708C76.3753 65.9708 76.1255 66.7813 76.1255 68.1077V73.3397C76.1255 74.6661 76.3753 75.5356 77.7127 75.5356ZM82.5929 76.7146V64.777H85.3265C87.4722 64.777 88.5009 65.7202 88.5009 67.7688C88.5009 69.2426 87.9572 70.1268 86.7961 70.2889C88.2217 70.6279 88.8242 71.6153 88.8242 73.3102C88.8242 75.3735 87.8984 76.7146 85.7674 76.7146H82.5929ZM84.2536 69.7584H85.2383C86.6345 69.7584 87.0607 69.1836 87.0607 67.7688C87.0607 66.1329 86.3405 66.015 84.6504 66.015H84.2536V69.7584ZM84.2536 75.5209H85.3706C86.8549 75.5209 87.237 74.8577 87.237 73.3102C87.237 71.8217 86.6933 71.0258 85.2383 71.0258H84.2536V75.5209ZM89.6533 76.7146L92.1811 64.777H93.783L96.3255 76.7146H94.753L94.2092 73.7081H91.7843L91.2111 76.7146H89.6533ZM92.0047 72.5143H93.9888L92.9894 67.135L92.0047 72.5143ZM97.5333 76.7146V64.777H99.194V75.5209H102.236V76.7146H97.5333Z" fill="white"/>
</g>
</g>
<defs>
<clipPath id="clip0_445_1993">
<rect width="163" height="140" fill="white"/>
</clipPath>
</defs>
</svg>
