<svg width="105" height="140" viewBox="0 0 105 140" fill="none" xmlns="http://www.w3.org/2000/svg">
<path d="M4.21401 31.8178L51.5337 4.0672C51.7684 3.92955 52.0591 3.92804 52.2952 4.06323L100.778 31.8192C101.014 31.954 101.159 32.2045 101.159 32.4756V107.792C101.159 108.065 101.012 108.317 100.774 108.451L52.2913 135.833C52.0572 135.965 51.7703 135.962 51.5375 135.829L4.21789 108.452C3.98389 108.317 3.83984 108.067 3.83984 107.797V32.4703C3.83984 32.202 3.9822 31.9538 4.21401 31.8178Z" stroke="black" stroke-width="4"/>
<path fill-rule="evenodd" clip-rule="evenodd" d="M43.1602 37.7944H44.9818V26.8477H43.1602V37.7944Z" fill="black"/>
<path fill-rule="evenodd" clip-rule="evenodd" d="M51.1374 34.3382C51.1374 36.0102 49.7029 36.1429 49.2764 36.1429C48.2104 36.1429 48.0161 35.1647 48.0161 34.5754V30.3945H46.2324V34.5662C46.2324 35.6016 46.5643 36.4562 47.1463 37.0265C47.66 37.5297 48.4296 37.8057 49.2632 37.8057C49.8543 37.8057 50.6915 37.6249 51.1374 37.2262V37.8226H52.9212V30.3945H51.1374V34.3382Z" fill="black"/>
<path fill-rule="evenodd" clip-rule="evenodd" d="M56.4769 27.7695H54.6933V30.3924H53.3555V32.1403H54.6933V37.8227H56.4769V32.1403H57.8146V30.3924H56.4769V27.7695Z" fill="black"/>
<path fill-rule="evenodd" clip-rule="evenodd" d="M63.4409 35.5974C63.0521 35.9393 62.5369 36.13 61.9732 36.13C60.7285 36.13 59.8147 35.2364 59.8147 34.0093C59.8147 32.7829 60.6994 31.9274 61.9732 31.9274C62.5272 31.9274 63.0521 32.1082 63.4507 32.4502L63.7224 32.6783L64.9282 31.4993L64.6266 31.2329C63.9173 30.6056 62.9743 30.2539 61.9732 30.2539C59.7371 30.2539 58.1133 31.832 58.1133 34.0001C58.1133 36.1583 59.7759 37.7938 61.9732 37.7938C62.9938 37.7938 63.9464 37.4419 64.6459 36.8046L64.9379 36.5391L63.7134 35.36L63.4409 35.5974Z" fill="black"/>
<path fill-rule="evenodd" clip-rule="evenodd" d="M71.2854 31.0273C70.7709 30.523 70.1678 30.2465 69.3332 30.2465C68.7404 30.2465 68.0694 30.4275 67.6227 30.8271V26.875H65.8359V37.8218H67.6227V33.7212C67.6227 32.0457 68.8367 31.912 69.264 31.912C70.3318 31.912 70.3028 32.893 70.3028 33.4829V37.8218H72.0895V33.4927C72.0895 32.4552 71.868 31.598 71.2854 31.0273Z" fill="black"/>
<path fill-rule="evenodd" clip-rule="evenodd" d="M61.9086 32.7695C62.622 32.7695 63.2002 33.3381 63.2002 34.0402C63.2002 34.7422 62.622 35.3107 61.9086 35.3107C61.1954 35.3107 60.6172 34.7422 60.6172 34.0402C60.6172 33.3381 61.1954 32.7695 61.9086 32.7695Z" fill="black"/>
<path fill-rule="evenodd" clip-rule="evenodd" d="M40.6091 35.0869C39.9307 35.7732 39.0096 36.1451 38.04 36.1451C36.0518 36.1451 34.6072 34.61 34.6072 32.5034C34.6072 30.3868 36.0518 28.8519 38.04 28.8519C38.9992 28.8519 39.9107 29.2237 40.5994 29.9003L40.8705 30.1673L42.0635 28.9949L41.802 28.7279C40.8125 27.727 39.4743 27.1836 38.04 27.1836C35.1113 27.1836 32.9102 29.4716 32.9102 32.5126C32.9102 35.5444 35.1211 37.8232 38.04 37.8232C39.4847 37.8232 40.8229 37.2699 41.8117 36.2691L42.0731 36.0021L40.8906 34.8106L40.6091 35.0869Z" fill="black"/>
<path d="M35.2078 45.8218V49.7678H34.6919V45.8218H35.2078ZM36.4786 45.8218V46.2501H33.4238V45.8218H36.4786ZM40.0331 47.6701V47.9195C40.0331 48.2158 39.996 48.4813 39.9217 48.7162C39.8475 48.9511 39.7407 49.1508 39.6013 49.3152C39.4619 49.4797 39.2945 49.6052 39.0991 49.692C38.9053 49.7786 38.6881 49.822 38.4473 49.822C38.2138 49.822 37.9992 49.7786 37.8038 49.692C37.6101 49.6052 37.4417 49.4797 37.2987 49.3152C37.1575 49.1508 37.048 48.9511 36.9702 48.7162C36.8923 48.4813 36.8534 48.2158 36.8534 47.9195V47.6701C36.8534 47.3738 36.8914 47.1091 36.9674 46.876C37.0452 46.6411 37.1548 46.4416 37.296 46.2771C37.4372 46.1109 37.6046 45.9844 37.7984 45.8978C37.9938 45.811 38.2084 45.7676 38.4418 45.7676C38.6826 45.7676 38.8999 45.811 39.0936 45.8978C39.289 45.9844 39.4565 46.1109 39.5959 46.2771C39.7371 46.4416 39.8449 46.6411 39.9191 46.876C39.995 47.1091 40.0331 47.3738 40.0331 47.6701ZM39.5145 47.9195V47.6647C39.5145 47.4298 39.49 47.222 39.4412 47.0414C39.3941 46.8608 39.3244 46.709 39.232 46.5861C39.1398 46.4633 39.0266 46.3702 38.8927 46.307C38.7605 46.2437 38.6102 46.2121 38.4418 46.2121C38.2789 46.2121 38.1314 46.2437 37.9992 46.307C37.8689 46.3702 37.7567 46.4633 37.6625 46.5861C37.5703 46.709 37.4987 46.8608 37.4481 47.0414C37.3974 47.222 37.372 47.4298 37.372 47.6647V47.9195C37.372 48.1561 37.3974 48.3658 37.4481 48.5482C37.4987 48.729 37.5712 48.8816 37.6653 49.0062C37.7612 49.1291 37.8744 49.2222 38.0047 49.2854C38.1369 49.3486 38.2844 49.3803 38.4473 49.3803C38.6175 49.3803 38.7687 49.3486 38.9008 49.2854C39.033 49.2222 39.1443 49.1291 39.2348 49.0062C39.3271 48.8816 39.3968 48.729 39.4439 48.5482C39.4909 48.3658 39.5145 48.1561 39.5145 47.9195ZM42.276 48.2204H41.2197V47.7949H42.276C42.4806 47.7949 42.6462 47.7623 42.7729 47.6972C42.8997 47.6323 42.992 47.5418 43.0499 47.4263C43.1096 47.3106 43.1395 47.1786 43.1395 47.0305C43.1395 46.8951 43.1096 46.7677 43.0499 46.6485C42.992 46.5291 42.8997 46.4334 42.7729 46.3611C42.6462 46.287 42.4806 46.2501 42.276 46.2501H41.342V49.7678H40.8178V45.8218H42.276C42.5748 45.8218 42.8273 45.8733 43.0336 45.9763C43.2399 46.0793 43.3965 46.2221 43.5033 46.4045C43.6101 46.5851 43.6636 46.792 43.6636 47.0251C43.6636 47.278 43.6101 47.494 43.5033 47.6729C43.3965 47.8518 43.2399 47.9881 43.0336 48.0821C42.8273 48.1742 42.5748 48.2204 42.276 48.2204ZM48.0924 48.513H48.6137C48.5866 48.7624 48.515 48.9854 48.3993 49.1825C48.2834 49.3794 48.1196 49.5357 47.9077 49.6512C47.6959 49.7651 47.4316 49.822 47.1148 49.822C46.8831 49.822 46.6722 49.7786 46.4822 49.692C46.2939 49.6052 46.1319 49.4823 45.9961 49.3234C45.8604 49.1625 45.7553 48.9702 45.6811 48.7461C45.6087 48.5202 45.5725 48.269 45.5725 47.9927V47.5997C45.5725 47.3232 45.6087 47.0731 45.6811 46.849C45.7553 46.6231 45.8613 46.4298 45.9988 46.269C46.1382 46.1082 46.3056 45.9844 46.5012 45.8978C46.6967 45.811 46.9166 45.7676 47.161 45.7676C47.4597 45.7676 47.7122 45.8236 47.9186 45.9356C48.125 46.0476 48.2851 46.203 48.3993 46.4018C48.515 46.5988 48.5866 46.8273 48.6137 47.0874H48.0924C48.067 46.9031 48.02 46.7451 47.9512 46.6131C47.8823 46.4795 47.7846 46.3765 47.6579 46.3042C47.5312 46.2319 47.3655 46.1958 47.161 46.1958C46.9854 46.1958 46.8307 46.2293 46.6967 46.2961C46.5645 46.363 46.4531 46.4578 46.3626 46.5807C46.2739 46.7036 46.2069 46.8508 46.1617 47.0225C46.1164 47.194 46.0938 47.3846 46.0938 47.5943V47.9927C46.0938 48.186 46.1138 48.3676 46.1536 48.5374C46.1952 48.7073 46.2577 48.8563 46.3409 48.9845C46.4242 49.1128 46.5301 49.214 46.6586 49.2881C46.7872 49.3603 46.9392 49.3965 47.1148 49.3965C47.3375 49.3965 47.5149 49.3613 47.647 49.2908C47.7792 49.2203 47.8788 49.1191 47.9458 48.9873C48.0145 48.8554 48.0635 48.6973 48.0924 48.513ZM52.3718 47.6701V47.9195C52.3718 48.2158 52.3348 48.4813 52.2604 48.7162C52.1863 48.9511 52.0795 49.1508 51.9401 49.3152C51.8006 49.4797 51.6332 49.6052 51.4378 49.692C51.244 49.7786 51.0268 49.822 50.786 49.822C50.5526 49.822 50.3379 49.7786 50.1426 49.692C49.9488 49.6052 49.7804 49.4797 49.6374 49.3152C49.4962 49.1508 49.3867 48.9511 49.3089 48.7162C49.231 48.4813 49.1921 48.2158 49.1921 47.9195V47.6701C49.1921 47.3738 49.2301 47.1091 49.3061 46.876C49.384 46.6411 49.4935 46.4416 49.6347 46.2771C49.7759 46.1109 49.9434 45.9844 50.1371 45.8978C50.3325 45.811 50.5471 45.7676 50.7806 45.7676C51.0213 45.7676 51.2386 45.811 51.4323 45.8978C51.6277 45.9844 51.7952 46.1109 51.9346 46.2771C52.0758 46.4416 52.1836 46.6411 52.2578 46.876C52.3338 47.1091 52.3718 47.3738 52.3718 47.6701ZM51.8532 47.9195V47.6647C51.8532 47.4298 51.8287 47.222 51.7799 47.0414C51.7328 46.8608 51.6631 46.709 51.5707 46.5861C51.4785 46.4633 51.3654 46.3702 51.2314 46.307C51.0992 46.2437 50.9489 46.2121 50.7806 46.2121C50.6176 46.2121 50.4701 46.2437 50.3379 46.307C50.2076 46.3702 50.0954 46.4633 50.0012 46.5861C49.909 46.709 49.8374 46.8608 49.7868 47.0414C49.7361 47.222 49.7108 47.4298 49.7108 47.6647V47.9195C49.7108 48.1561 49.7361 48.3658 49.7868 48.5482C49.8374 48.729 49.9099 48.8816 50.004 49.0062C50.1 49.1291 50.2131 49.2222 50.3434 49.2854C50.4756 49.3486 50.6231 49.3803 50.786 49.3803C50.9562 49.3803 51.1074 49.3486 51.2395 49.2854C51.3717 49.2222 51.483 49.1291 51.5735 49.0062C51.6658 48.8816 51.7356 48.729 51.7826 48.5482C51.8296 48.3658 51.8532 48.1561 51.8532 47.9195ZM53.3222 45.8218H53.8299L55.1252 49.0388L56.4178 45.8218H56.9282L55.3207 49.7678H54.9243L53.3222 45.8218ZM53.1565 45.8218H53.6046L53.6779 48.2284V49.7678H53.1565V45.8218ZM56.6431 45.8218H57.0912V49.7678H56.5698V48.2284L56.6431 45.8218ZM59.4698 48.2204H58.4136V47.7949H59.4698C59.6744 47.7949 59.84 47.7623 59.9668 47.6972C60.0935 47.6323 60.1858 47.5418 60.2437 47.4263C60.3035 47.3106 60.3333 47.1786 60.3333 47.0305C60.3333 46.8951 60.3035 46.7677 60.2437 46.6485C60.1858 46.5291 60.0935 46.4334 59.9668 46.3611C59.84 46.287 59.6744 46.2501 59.4698 46.2501H58.5358V49.7678H58.0116V45.8218H59.4698C59.7686 45.8218 60.0211 45.8733 60.2274 45.9763C60.4338 46.0793 60.5904 46.2221 60.6972 46.4045C60.804 46.5851 60.8574 46.792 60.8574 47.0251C60.8574 47.278 60.804 47.494 60.6972 47.6729C60.5904 47.8518 60.4338 47.9881 60.2274 48.0821C60.0211 48.1742 59.7686 48.2204 59.4698 48.2204ZM62.6088 46.1714L61.3 49.7678H60.765L62.2721 45.8218H62.617L62.6088 46.1714ZM63.7058 49.7678L62.3943 46.1714L62.3862 45.8218H62.731L64.2435 49.7678H63.7058ZM63.638 48.307V48.7353H61.4168V48.307H63.638ZM67.8142 45.8218V49.7678H67.2875L65.2971 46.7243V49.7678H64.7729V45.8218H65.2971L67.2955 48.8734V45.8218H67.8142ZM68.8487 45.8218L69.8751 47.8029L70.9043 45.8218H71.499L70.1359 48.2935V49.7678H69.6117V48.2935L68.2486 45.8218H68.8487Z" fill="black"/>
<path d="M36.7012 100.096H68.2984V111.449H36.7012V100.096Z" fill="black"/>
<path d="M1.94531 76.127H103.056V100.095H1.94531V76.127Z" fill="black"/>
<path d="M25.2986 90.1301H24.2031L24.21 89.3231H25.2986C25.5705 89.3231 25.7998 89.2621 25.9864 89.1403C26.173 89.016 26.3135 88.8355 26.4081 88.5987C26.5048 88.3618 26.5532 88.0755 26.5532 87.7398V87.495C26.5532 87.2374 26.5255 87.0108 26.4703 86.8154C26.4173 86.6199 26.3378 86.4555 26.2318 86.3222C26.1258 86.1887 25.9957 86.0887 25.8412 86.0221C25.6869 85.9531 25.5094 85.9185 25.309 85.9185H24.1824V85.108H25.309C25.6454 85.108 25.9529 85.1654 26.2318 85.2805C26.5129 85.3931 26.7559 85.5552 26.961 85.7668C27.166 85.9783 27.3239 86.2314 27.4345 86.5257C27.5473 86.8177 27.6038 87.143 27.6038 87.5018V87.7398C27.6038 88.0962 27.5473 88.4216 27.4345 88.7159C27.3239 89.0104 27.166 89.2633 26.961 89.4748C26.7583 89.6841 26.5151 89.8462 26.2318 89.9611C25.9507 90.0739 25.6396 90.1301 25.2986 90.1301ZM24.7907 85.108V90.1301H23.7539V85.108H24.7907ZM29.2902 87.212V90.1301H28.2949V86.398H29.2316L29.2902 87.212ZM30.4169 86.3739L30.3997 87.2949C30.3513 87.288 30.2925 87.2822 30.2234 87.2776C30.1566 87.2707 30.0955 87.2673 30.0402 87.2673C29.8997 87.2673 29.7776 87.2857 29.674 87.3224C29.5725 87.357 29.4873 87.4087 29.4182 87.4777C29.3513 87.5467 29.3006 87.6306 29.2661 87.7295C29.2339 87.8284 29.2154 87.941 29.2107 88.0675L29.0104 88.0054C29.0104 87.7639 29.0346 87.542 29.083 87.3397C29.1314 87.1351 29.2016 86.9568 29.2938 86.8051C29.3882 86.6533 29.5035 86.536 29.6393 86.4533C29.7753 86.3704 29.9308 86.329 30.1058 86.329C30.1612 86.329 30.2177 86.3337 30.2752 86.3429C30.3328 86.3497 30.3801 86.36 30.4169 86.3739ZM33.0987 89.2368V86.398H34.094V90.1301H33.1575L33.0987 89.2368ZM33.2093 88.4711L33.503 88.4641C33.503 88.7125 33.4743 88.9436 33.4167 89.1574C33.3591 89.369 33.2726 89.553 33.1575 89.7093C33.0424 89.8635 32.8971 89.9842 32.7221 90.0715C32.5469 90.1566 32.3408 90.1991 32.1034 90.1991C31.9214 90.1991 31.7532 90.1739 31.5989 90.1232C31.4468 90.0704 31.3155 89.9887 31.2049 89.8784C31.0966 89.7657 31.0114 89.622 30.9491 89.4472C30.8892 89.2701 30.8592 89.0574 30.8592 88.8092V86.398H31.8545V88.816C31.8545 88.9263 31.8673 89.0194 31.8926 89.0954C31.9203 89.1713 31.9583 89.2334 32.0067 89.2817C32.055 89.3299 32.1115 89.3644 32.176 89.3851C32.2428 89.4058 32.3165 89.4162 32.3971 89.4162C32.6023 89.4162 32.7635 89.3748 32.8811 89.292C33.0008 89.2092 33.0849 89.0965 33.1334 88.954C33.184 88.8092 33.2093 88.6481 33.2093 88.4711ZM35.8497 87.1155V91.5651H34.8544V86.398H35.7772L35.8497 87.1155ZM38.217 88.2227V88.2951C38.217 88.5664 38.1847 88.8182 38.1203 89.0506C38.058 89.2828 37.9658 89.4852 37.8437 89.6576C37.7216 89.8278 37.5696 89.9611 37.3876 90.0577C37.2079 90.152 37.0005 90.1991 36.7655 90.1991C36.5374 90.1991 36.3393 90.1531 36.1711 90.0611C36.0029 89.9692 35.8612 89.8404 35.7461 89.6749C35.6331 89.507 35.5421 89.3127 35.4729 89.092C35.4038 88.8712 35.3508 88.6343 35.3141 88.3814V88.1917C35.3508 87.9203 35.4038 87.6719 35.4729 87.4467C35.5421 87.219 35.6331 87.0223 35.7461 86.8568C35.8612 86.6889 36.0017 86.559 36.1676 86.467C36.3358 86.375 36.5328 86.329 36.7586 86.329C36.9959 86.329 37.2045 86.3739 37.3841 86.4636C37.5662 86.5533 37.7182 86.6821 37.8403 86.8499C37.9647 87.0178 38.058 87.2178 38.1203 87.4501C38.1847 87.6823 38.217 87.9399 38.217 88.2227ZM37.2182 88.2951V88.2227C37.2182 88.064 37.2045 87.9181 37.1768 87.7846C37.1514 87.649 37.1099 87.5305 37.0523 87.4294C36.9971 87.3282 36.9234 87.25 36.8311 87.1949C36.7412 87.1373 36.6319 87.1086 36.5029 87.1086C36.3669 87.1086 36.2506 87.1304 36.1538 87.1742C36.0594 87.2178 35.9822 87.281 35.9222 87.3638C35.8623 87.4467 35.8175 87.5455 35.7875 87.6605C35.7576 87.7755 35.7391 87.9053 35.7322 88.0503V88.5297C35.7437 88.6999 35.7759 88.8528 35.829 88.9884C35.8819 89.1219 35.9637 89.2276 36.0743 89.3058C36.1849 89.384 36.3301 89.4231 36.5097 89.4231C36.6411 89.4231 36.7517 89.3943 36.8415 89.3368C36.9313 89.277 37.004 89.1954 37.0592 89.092C37.1169 88.9884 37.1572 88.8688 37.1802 88.7332C37.2056 88.5975 37.2182 88.4515 37.2182 88.2951ZM40.8539 89.2885V87.626C40.8539 87.5064 40.8344 87.404 40.7952 87.319C40.756 87.2316 40.6949 87.1638 40.612 87.1155C40.5313 87.0672 40.4265 87.0431 40.2975 87.0431C40.1869 87.0431 40.0913 87.0625 40.0107 87.1016C39.93 87.1385 39.8677 87.1925 39.824 87.2639C39.7803 87.3327 39.7584 87.4145 39.7584 87.5087H38.7631C38.7631 87.35 38.7999 87.1994 38.8737 87.0569C38.9474 86.9143 39.0545 86.7889 39.1951 86.6808C39.3356 86.5704 39.5026 86.4843 39.6961 86.4222C39.892 86.36 40.1109 86.329 40.3528 86.329C40.6431 86.329 40.9011 86.3773 41.1269 86.4739C41.3527 86.5704 41.5301 86.7154 41.6592 86.9085C41.7905 87.1016 41.8561 87.3431 41.8561 87.6328V89.2299C41.8561 89.4346 41.8688 89.6025 41.8941 89.7335C41.9195 89.8622 41.9563 89.975 42.0047 90.0715V90.1301H40.999C40.9506 90.029 40.9138 89.9025 40.8884 89.7507C40.8654 89.5967 40.8539 89.4427 40.8539 89.2885ZM40.9853 87.8571L40.9921 88.4194H40.4357C40.3044 88.4194 40.1904 88.4342 40.0936 88.4641C39.9968 88.494 39.9173 88.5365 39.8551 88.5918C39.7929 88.6447 39.7468 88.7067 39.7168 88.778C39.6893 88.8494 39.6754 88.9275 39.6754 89.0126C39.6754 89.0976 39.695 89.1747 39.7341 89.2437C39.7733 89.3103 39.8298 89.3633 39.9035 89.4024C39.9772 89.4391 40.0636 89.4575 40.1627 89.4575C40.3125 89.4575 40.4427 89.4276 40.5533 89.3679C40.6639 89.3081 40.749 89.2345 40.8089 89.1471C40.8711 89.0597 40.9034 88.9769 40.9058 88.8987L41.1684 89.3195C41.1315 89.4139 41.0808 89.5117 41.0163 89.6128C40.9542 89.714 40.8747 89.8094 40.7779 89.8991C40.681 89.9865 40.5648 90.0589 40.4288 90.1164C40.2929 90.1715 40.1316 90.1991 39.945 90.1991C39.7077 90.1991 39.4922 90.152 39.2987 90.0577C39.1075 89.9611 38.9555 89.8289 38.8426 89.661C38.7319 89.4908 38.6766 89.2977 38.6766 89.0816C38.6766 88.8861 38.7135 88.7125 38.7872 88.5608C38.8609 88.409 38.9692 88.2814 39.1121 88.1779C39.2573 88.0721 39.4381 87.9927 39.6546 87.9399C39.8713 87.8846 40.1224 87.8571 40.408 87.8571H40.9853ZM43.6739 84.832V90.1301H42.6752V84.832H43.6739ZM47.866 90.1301H46.7705L46.7774 89.3231H47.866C48.1379 89.3231 48.3671 89.2621 48.5537 89.1403C48.7404 89.016 48.8809 88.8355 48.9753 88.5987C49.0721 88.3618 49.1205 88.0755 49.1205 87.7398V87.495C49.1205 87.2374 49.0928 87.0108 49.0376 86.8154C48.9845 86.6199 48.905 86.4555 48.7991 86.3222C48.6931 86.1887 48.5629 86.0887 48.4086 86.0221C48.2543 85.9531 48.0768 85.9185 47.8764 85.9185H46.7497V85.108H47.8764C48.2128 85.108 48.5203 85.1654 48.7991 85.2805C49.0802 85.3931 49.3233 85.5552 49.5283 85.7668C49.7334 85.9783 49.8911 86.2314 50.0017 86.5257C50.1147 86.8177 50.1711 87.143 50.1711 87.5018V87.7398C50.1711 88.0962 50.1147 88.4216 50.0017 88.7159C49.8911 89.0104 49.7334 89.2633 49.5283 89.4748C49.3255 89.6841 49.0825 89.8462 48.7991 89.9611C48.518 90.0739 48.207 90.1301 47.866 90.1301ZM47.3579 85.108V90.1301H46.3211V85.108H47.3579ZM52.5833 90.1991C52.293 90.1991 52.0327 90.1531 51.8024 90.0611C51.572 89.9669 51.3761 89.837 51.2148 89.6714C51.0558 89.5059 50.9337 89.3139 50.8485 89.0954C50.7632 88.8746 50.7206 88.6401 50.7206 88.3917V88.2537C50.7206 87.9709 50.7609 87.7122 50.8416 87.4777C50.9222 87.2431 51.0373 87.0396 51.1871 86.8671C51.3392 86.6947 51.5236 86.5625 51.7401 86.4704C51.9567 86.3762 52.2009 86.329 52.4727 86.329C52.7378 86.329 52.9727 86.3728 53.1777 86.4601C53.3829 86.5475 53.5545 86.6717 53.6928 86.8327C53.8333 86.9937 53.9392 87.1868 54.0106 87.4121C54.0821 87.6352 54.1178 87.8835 54.1178 88.1572V88.5711H51.1457V87.9088H53.1398V87.8329C53.1398 87.6949 53.1144 87.5719 53.0637 87.4638C53.0153 87.3534 52.9416 87.2661 52.8426 87.2017C52.7435 87.1373 52.6168 87.1052 52.4624 87.1052C52.3311 87.1052 52.2182 87.1339 52.1238 87.1913C52.0292 87.2489 51.952 87.3293 51.8922 87.4328C51.8346 87.5363 51.7908 87.6582 51.7608 87.7985C51.7332 87.9365 51.7193 88.0882 51.7193 88.2537V88.3917C51.7193 88.5412 51.7401 88.6792 51.7815 88.8056C51.8254 88.9321 51.8864 89.0414 51.9648 89.1333C52.0454 89.2253 52.1421 89.2966 52.2551 89.3472C52.3702 89.3977 52.5004 89.4231 52.6455 89.4231C52.8252 89.4231 52.9923 89.3885 53.1466 89.3195C53.3034 89.2483 53.4381 89.1414 53.551 88.9987L54.0349 89.5231C53.9565 89.6358 53.8494 89.7439 53.7135 89.8473C53.5798 89.9508 53.4185 90.0359 53.2297 90.1025C53.0407 90.167 52.8252 90.1991 52.5833 90.1991ZM55.908 89.4058L56.7374 86.398H57.7777L56.5162 90.1301H55.8873L55.908 89.4058ZM55.3377 86.398L56.1706 89.4092L56.1879 90.1301H55.5555L54.294 86.398H55.3377ZM59.8962 90.1991C59.6059 90.1991 59.3455 90.1531 59.1151 90.0611C58.8847 89.9669 58.6889 89.837 58.5277 89.6714C58.3687 89.5059 58.2466 89.3139 58.1613 89.0954C58.0761 88.8746 58.0333 88.6401 58.0333 88.3917V88.2537C58.0333 87.9709 58.0737 87.7122 58.1543 87.4777C58.2349 87.2431 58.3502 87.0396 58.5 86.8671C58.652 86.6947 58.8363 86.5625 59.0529 86.4704C59.2694 86.3762 59.5137 86.329 59.7856 86.329C60.0505 86.329 60.2855 86.3728 60.4906 86.4601C60.6956 86.5475 60.8672 86.6717 61.0055 86.8327C61.1461 86.9937 61.252 87.1868 61.3235 87.4121C61.3949 87.6352 61.4306 87.8835 61.4306 88.1572V88.5711H58.4585V87.9088H60.4526V87.8329C60.4526 87.6949 60.4272 87.5719 60.3765 87.4638C60.3282 87.3534 60.2544 87.2661 60.1553 87.2017C60.0563 87.1373 59.9296 87.1052 59.7752 87.1052C59.6439 87.1052 59.5309 87.1339 59.4365 87.1913C59.3421 87.2489 59.2649 87.3293 59.205 87.4328C59.1473 87.5363 59.1036 87.6582 59.0737 87.7985C59.046 87.9365 59.0322 88.0882 59.0322 88.2537V88.3917C59.0322 88.5412 59.0529 88.6792 59.0944 88.8056C59.1381 88.9321 59.1992 89.0414 59.2775 89.1333C59.3582 89.2253 59.455 89.2966 59.5678 89.3472C59.683 89.3977 59.8132 89.4231 59.9584 89.4231C60.1381 89.4231 60.3051 89.3885 60.4595 89.3195C60.6161 89.2483 60.751 89.1414 60.8638 88.9987L61.3476 89.5231C61.2693 89.6358 61.1622 89.7439 61.0262 89.8473C60.8926 89.9508 60.7314 90.0359 60.5424 90.1025C60.3535 90.167 60.1381 90.1991 59.8962 90.1991ZM63.048 84.832V90.1301H62.0492V84.832H63.048ZM63.7115 88.302V88.2296C63.7115 87.9559 63.7507 87.7041 63.829 87.4742C63.9074 87.2419 64.0214 87.0407 64.1712 86.8705C64.3209 86.7004 64.5052 86.5682 64.7241 86.4739C64.943 86.3773 65.1942 86.329 65.4775 86.329C65.7609 86.329 66.0132 86.3773 66.2343 86.4739C66.4555 86.5682 66.6411 86.7004 66.7907 86.8705C66.9429 87.0407 67.058 87.2419 67.1364 87.4742C67.2147 87.7041 67.2538 87.9559 67.2538 88.2296V88.302C67.2538 88.5734 67.2147 88.8252 67.1364 89.0574C67.058 89.2874 66.9429 89.4886 66.7907 89.661C66.6411 89.8312 66.4567 89.9635 66.2378 90.0577C66.019 90.152 65.7678 90.1991 65.4844 90.1991C65.201 90.1991 64.9487 90.152 64.7275 90.0577C64.5086 89.9635 64.3232 89.8312 64.1712 89.661C64.0214 89.4886 63.9074 89.2874 63.829 89.0574C63.7507 88.8252 63.7115 88.5734 63.7115 88.302ZM64.7068 88.2296V88.302C64.7068 88.4585 64.7207 88.6044 64.7483 88.7402C64.7759 88.8758 64.8197 88.9953 64.8796 89.0988C64.9419 89.2 65.0225 89.2793 65.1215 89.3368C65.2206 89.3943 65.3415 89.4231 65.4844 89.4231C65.6226 89.4231 65.7413 89.3943 65.8404 89.3368C65.9395 89.2793 66.019 89.2 66.0789 89.0988C66.1388 88.9953 66.1825 88.8758 66.2102 88.7402C66.2402 88.6044 66.2551 88.4585 66.2551 88.302V88.2296C66.2551 88.0779 66.2402 87.9352 66.2102 87.8019C66.1825 87.6663 66.1375 87.5467 66.0753 87.4431C66.0154 87.3374 65.9359 87.2547 65.837 87.1949C65.7379 87.1351 65.6181 87.1052 65.4775 87.1052C65.337 87.1052 65.2172 87.1351 65.1181 87.1949C65.0213 87.2547 64.9419 87.3374 64.8796 87.4431C64.8197 87.5467 64.7759 87.6663 64.7483 87.8019C64.7207 87.9352 64.7068 88.0779 64.7068 88.2296ZM68.8608 87.1155V91.5651H67.8655V86.398H68.7883L68.8608 87.1155ZM71.2282 88.2227V88.2951C71.2282 88.5664 71.196 88.8182 71.1314 89.0506C71.0692 89.2828 70.9771 89.4852 70.855 89.6576C70.7329 89.8278 70.5807 89.9611 70.3987 90.0577C70.219 90.152 70.0117 90.1991 69.7766 90.1991C69.5486 90.1991 69.3505 90.1531 69.1822 90.0611C69.0141 89.9692 68.8723 89.8404 68.7572 89.6749C68.6443 89.507 68.5533 89.3127 68.4842 89.092C68.4151 88.8712 68.3621 88.6343 68.3252 88.3814V88.1917C68.3621 87.9203 68.4151 87.6719 68.4842 87.4467C68.5533 87.219 68.6443 87.0223 68.7572 86.8568C68.8723 86.6889 69.0129 86.559 69.1788 86.467C69.347 86.375 69.544 86.329 69.7698 86.329C70.0071 86.329 70.2156 86.3739 70.3953 86.4636C70.5773 86.5533 70.7294 86.6821 70.8515 86.8499C70.9759 87.0178 71.0692 87.2178 71.1314 87.4501C71.196 87.6823 71.2282 87.9399 71.2282 88.2227ZM70.2294 88.2951V88.2227C70.2294 88.064 70.2156 87.9181 70.1879 87.7846C70.1626 87.649 70.1212 87.5305 70.0635 87.4294C70.0082 87.3282 69.9345 87.25 69.8424 87.1949C69.7525 87.1373 69.643 87.1086 69.514 87.1086C69.3781 87.1086 69.2617 87.1304 69.165 87.1742C69.0705 87.2178 68.9933 87.281 68.9335 87.3638C68.8736 87.4467 68.8286 87.5455 68.7986 87.6605C68.7687 87.7755 68.7502 87.9053 68.7434 88.0503V88.5297C68.7549 88.6999 68.7871 88.8528 68.8401 88.9884C68.8932 89.1219 68.975 89.2276 69.0856 89.3058C69.1961 89.384 69.3412 89.4231 69.521 89.4231C69.6523 89.4231 69.7629 89.3943 69.8527 89.3368C69.9426 89.277 70.0151 89.1954 70.0705 89.092C70.128 88.9884 70.1683 88.8688 70.1915 88.7332C70.2167 88.5975 70.2294 88.4515 70.2294 88.2951ZM73.5679 90.1991C73.2776 90.1991 73.0173 90.1531 72.7868 90.0611C72.5564 89.9669 72.3605 89.837 72.1993 89.6714C72.0404 89.5059 71.9182 89.3139 71.833 89.0954C71.7477 88.8746 71.7051 88.6401 71.7051 88.3917V88.2537C71.7051 87.9709 71.7454 87.7122 71.826 87.4777C71.9067 87.2431 72.0219 87.0396 72.1717 86.8671C72.3238 86.6947 72.508 86.5625 72.7247 86.4704C72.9412 86.3762 73.1854 86.329 73.4572 86.329C73.7223 86.329 73.9572 86.3728 74.1623 86.4601C74.3673 86.5475 74.539 86.6717 74.6772 86.8327C74.8178 86.9937 74.9237 87.1868 74.9951 87.4121C75.0666 87.6352 75.1023 87.8835 75.1023 88.1572V88.5711H72.1301V87.9088H74.1243V87.8329C74.1243 87.6949 74.0989 87.5719 74.0482 87.4638C73.9998 87.3534 73.9261 87.2661 73.827 87.2017C73.7279 87.1373 73.6013 87.1052 73.4468 87.1052C73.3155 87.1052 73.2027 87.1339 73.1083 87.1913C73.0137 87.2489 72.9366 87.3293 72.8767 87.4328C72.8191 87.5363 72.7753 87.6582 72.7454 87.7985C72.7177 87.9365 72.7039 88.0882 72.7039 88.2537V88.3917C72.7039 88.5412 72.7247 88.6792 72.7661 88.8056C72.8098 88.9321 72.8709 89.0414 72.9493 89.1333C73.0299 89.2253 73.1267 89.2966 73.2396 89.3472C73.3547 89.3977 73.4849 89.4231 73.6301 89.4231C73.8098 89.4231 73.9768 89.3885 74.1312 89.3195C74.2878 89.2483 74.4227 89.1414 74.5356 88.9987L75.0194 89.5231C74.941 89.6358 74.8338 89.7439 74.698 89.8473C74.5644 89.9508 74.4031 90.0359 74.2142 90.1025C74.0252 90.167 73.8098 90.1991 73.5679 90.1991ZM76.6645 87.212V90.1301H75.669V86.398H76.6057L76.6645 87.212ZM77.7911 86.3739L77.7738 87.2949C77.7254 87.288 77.6666 87.2822 77.5975 87.2776C77.5307 87.2707 77.4697 87.2673 77.4143 87.2673C77.2738 87.2673 77.1517 87.2857 77.048 87.3224C76.9467 87.357 76.8614 87.4087 76.7922 87.4777C76.7255 87.5467 76.6748 87.6306 76.6402 87.7295C76.608 87.8284 76.5895 87.941 76.585 88.0675L76.3845 88.0054C76.3845 87.7639 76.4086 87.542 76.4571 87.3397C76.5055 87.1351 76.5757 86.9568 76.6679 86.8051C76.7623 86.6533 76.8775 86.536 77.0134 86.4533C77.1494 86.3704 77.3049 86.329 77.48 86.329C77.5353 86.329 77.5918 86.3337 77.6493 86.3429C77.7069 86.3497 77.7542 86.36 77.7911 86.3739ZM80.2827 89.0988C80.2827 89.0275 80.262 88.9632 80.2205 88.9057C80.1791 88.8481 80.1019 88.7953 79.989 88.747C79.8784 88.6964 79.7183 88.6505 79.5086 88.6091C79.3198 88.5676 79.1434 88.5159 78.9799 88.4538C78.8186 88.3895 78.6781 88.3124 78.5583 88.2227C78.4407 88.133 78.3486 88.0273 78.2817 87.9053C78.215 87.7812 78.1815 87.6398 78.1815 87.4811C78.1815 87.3248 78.215 87.1776 78.2817 87.0396C78.3509 86.9016 78.4488 86.7797 78.5756 86.674C78.7045 86.5659 78.8612 86.482 79.0455 86.4222C79.2322 86.36 79.4419 86.329 79.6745 86.329C79.9994 86.329 80.2782 86.3808 80.5108 86.4843C80.7458 86.5877 80.9255 86.7303 81.05 86.9119C81.1767 87.0913 81.2401 87.296 81.2401 87.526H80.2448C80.2448 87.4294 80.2241 87.3431 80.1825 87.2673C80.1434 87.1891 80.0811 87.1281 79.9959 87.0845C79.913 87.0384 79.8047 87.0155 79.6711 87.0155C79.5605 87.0155 79.4649 87.035 79.3842 87.0741C79.3036 87.1109 79.2414 87.1614 79.1975 87.2259C79.1561 87.288 79.1354 87.357 79.1354 87.4328C79.1354 87.4903 79.1469 87.542 79.17 87.5881C79.1953 87.6317 79.2356 87.6719 79.2909 87.7088C79.3462 87.7456 79.4176 87.7801 79.5052 87.8122C79.595 87.8421 79.7056 87.8697 79.8369 87.895C80.1065 87.9502 80.3473 88.0226 80.5593 88.1123C80.7712 88.1997 80.9394 88.3193 81.0638 88.4711C81.1882 88.6206 81.2505 88.8171 81.2505 89.0609C81.2505 89.2264 81.2136 89.3782 81.1399 89.5162C81.0661 89.6542 80.9602 89.7749 80.8219 89.8784C80.6836 89.9795 80.5178 90.0589 80.3243 90.1164C80.1331 90.1715 79.9176 90.1991 79.6779 90.1991C79.3301 90.1991 79.0351 90.1371 78.7932 90.0128C78.5536 89.8887 78.3716 89.7312 78.2472 89.5403C78.1251 89.3472 78.0641 89.1494 78.0641 88.947H79.0076C79.0121 89.0828 79.0466 89.192 79.1112 89.2748C79.1781 89.3575 79.2621 89.4173 79.3635 89.4541C79.4671 89.4908 79.5789 89.5093 79.6987 89.5093C79.8277 89.5093 79.9349 89.4921 80.0201 89.4575C80.1054 89.4207 80.1699 89.3725 80.2137 89.3127C80.2597 89.2507 80.2827 89.1793 80.2827 89.0988Z" fill="white"/>
<path d="M49.7068 106.608V106.945H47.5897V106.65L48.6493 105.472C48.7797 105.328 48.8803 105.205 48.9515 105.104C49.024 105.002 49.0745 104.911 49.1025 104.832C49.1322 104.75 49.147 104.667 49.147 104.583C49.147 104.477 49.1248 104.381 49.0803 104.295C49.0374 104.208 48.9737 104.138 48.8893 104.087C48.8049 104.035 48.7026 104.009 48.5827 104.009C48.439 104.009 48.319 104.037 48.2227 104.093C48.1279 104.148 48.0569 104.225 48.0095 104.324C47.9621 104.423 47.9384 104.537 47.9384 104.665H47.5273C47.5273 104.483 47.5674 104.317 47.6474 104.166C47.7273 104.015 47.8458 103.896 48.0028 103.807C48.1598 103.717 48.3532 103.672 48.5827 103.672C48.7871 103.672 48.9619 103.708 49.107 103.78C49.2522 103.851 49.3633 103.952 49.4402 104.082C49.5187 104.211 49.558 104.361 49.558 104.534C49.558 104.629 49.5417 104.725 49.5091 104.823C49.478 104.919 49.4343 105.015 49.3781 105.111C49.3232 105.207 49.2589 105.302 49.1848 105.395C49.1121 105.488 49.0344 105.58 48.9515 105.67L48.085 106.608H49.7068ZM52.1773 105.073V105.565C52.1773 105.83 52.1537 106.053 52.1063 106.235C52.0589 106.417 51.9908 106.563 51.9019 106.674C51.8131 106.785 51.7056 106.866 51.5797 106.916C51.4553 106.965 51.3146 106.989 51.1576 106.989C51.0332 106.989 50.9184 106.973 50.8132 106.942C50.708 106.911 50.6133 106.862 50.5288 106.794C50.4459 106.724 50.3749 106.634 50.3156 106.523C50.2563 106.413 50.2112 106.278 50.1801 106.12C50.149 105.962 50.1334 105.777 50.1334 105.565V105.073C50.1334 104.809 50.1571 104.587 50.2045 104.408C50.2534 104.229 50.3223 104.086 50.4112 103.978C50.5 103.868 50.6067 103.79 50.731 103.743C50.8569 103.695 50.9976 103.672 51.1532 103.672C51.2791 103.672 51.3946 103.687 51.4997 103.718C51.6064 103.748 51.7012 103.796 51.7841 103.862C51.867 103.928 51.9374 104.015 51.9952 104.124C52.0545 104.232 52.0996 104.364 52.1307 104.521C52.1618 104.678 52.1773 104.862 52.1773 105.073ZM51.7642 105.632V105.004C51.7642 104.86 51.7553 104.733 51.7375 104.623C51.7212 104.512 51.6968 104.418 51.6642 104.339C51.6316 104.261 51.5901 104.197 51.5397 104.149C51.4909 104.1 51.4339 104.064 51.3687 104.042C51.305 104.019 51.2332 104.007 51.1532 104.007C51.0554 104.007 50.9688 104.025 50.8932 104.062C50.8178 104.098 50.7541 104.155 50.7021 104.233C50.6518 104.311 50.6133 104.414 50.5866 104.541C50.5599 104.668 50.5466 104.823 50.5466 105.004V105.632C50.5466 105.777 50.5547 105.905 50.571 106.016C50.5889 106.127 50.6148 106.223 50.6489 106.304C50.6829 106.384 50.7244 106.449 50.7733 106.501C50.8222 106.553 50.8784 106.591 50.9421 106.616C51.0073 106.64 51.0791 106.652 51.1576 106.652C51.2583 106.652 51.3464 106.633 51.422 106.594C51.4975 106.556 51.5604 106.496 51.6108 106.415C51.6627 106.332 51.7012 106.226 51.7264 106.098C51.7515 105.968 51.7642 105.812 51.7642 105.632ZM54.8255 106.608V106.945H52.7084V106.65L53.768 105.472C53.8985 105.328 53.9991 105.205 54.0702 105.104C54.1428 105.002 54.1932 104.911 54.2213 104.832C54.251 104.75 54.2658 104.667 54.2658 104.583C54.2658 104.477 54.2435 104.381 54.199 104.295C54.1562 104.208 54.0925 104.138 54.0081 104.087C53.9236 104.035 53.8214 104.009 53.7014 104.009C53.5577 104.009 53.4378 104.037 53.3415 104.093C53.2467 104.148 53.1757 104.225 53.1283 104.324C53.0809 104.423 53.0571 104.537 53.0571 104.665H52.6461C52.6461 104.483 52.6862 104.317 52.7662 104.166C52.846 104.015 52.9646 103.896 53.1216 103.807C53.2785 103.717 53.4719 103.672 53.7014 103.672C53.9058 103.672 54.0806 103.708 54.2257 103.78C54.3709 103.851 54.482 103.952 54.559 104.082C54.6375 104.211 54.6768 104.361 54.6768 104.534C54.6768 104.629 54.6605 104.725 54.6279 104.823C54.5968 104.919 54.5531 105.015 54.4968 105.111C54.442 105.207 54.3776 105.302 54.3036 105.395C54.2309 105.488 54.1532 105.58 54.0702 105.67L53.2037 106.608H54.8255ZM55.7853 105.408L55.4566 105.324L55.6188 103.716H57.2784V104.095H55.9676L55.8698 104.973C55.929 104.939 56.0039 104.908 56.0942 104.878C56.186 104.849 56.2911 104.834 56.4097 104.834C56.5592 104.834 56.6933 104.86 56.8117 104.911C56.9303 104.962 57.031 105.034 57.1139 105.129C57.1984 105.223 57.2628 105.337 57.3072 105.47C57.3517 105.603 57.3739 105.752 57.3739 105.916C57.3739 106.071 57.3524 106.214 57.3095 106.344C57.268 106.474 57.2051 106.588 57.1206 106.685C57.0362 106.781 56.9295 106.856 56.8006 106.909C56.6734 106.962 56.5229 106.989 56.3497 106.989C56.2194 106.989 56.0956 106.971 55.9787 106.936C55.8631 106.899 55.7594 106.843 55.6677 106.77C55.5773 106.694 55.5032 106.601 55.4455 106.49C55.3891 106.378 55.3536 106.246 55.3388 106.095H55.7299C55.7476 106.217 55.7832 106.319 55.8365 106.401C55.8897 106.484 55.9594 106.547 56.0453 106.59C56.1327 106.631 56.2341 106.652 56.3497 106.652C56.4475 106.652 56.5341 106.635 56.6096 106.601C56.6851 106.567 56.7488 106.518 56.8006 106.455C56.8526 106.391 56.8917 106.314 56.9184 106.224C56.9466 106.134 56.9606 106.033 56.9606 105.92C56.9606 105.818 56.9466 105.724 56.9184 105.636C56.8902 105.549 56.848 105.473 56.7918 105.408C56.7371 105.343 56.6696 105.293 56.5897 105.257C56.5097 105.22 56.4178 105.202 56.3142 105.202C56.1764 105.202 56.072 105.22 56.0008 105.257C55.9313 105.294 55.8594 105.344 55.7853 105.408Z" fill="white"/>
<path d="M59.1992 63.6387H96.4839" stroke="black" stroke-width="2"/>
<path d="M8.51562 63.6387H45.8003" stroke="black" stroke-width="2"/>
<path d="M52.5006 60.8414L53.4553 61.4223L53.2021 60.3267L54.0594 59.5937L52.9332 59.4961L52.5006 58.4668L52.0603 59.4961L50.9419 59.5937L51.7913 60.3267L51.5264 61.4223L52.5006 60.8414ZM49.383 63.1807L50.3377 63.7618L50.0844 62.6661L50.9419 61.933L49.8156 61.8355L49.383 60.8062L48.9426 61.8355L47.8242 61.933L48.6738 62.6661L48.4088 63.7618L49.383 63.1807ZM55.6182 62.011L56.573 62.592L56.3197 61.4963L57.177 60.7633L56.0507 60.6659L55.6182 59.6365L55.1779 60.6659L54.0594 60.7633L54.9089 61.4963L54.6439 62.592L55.6182 62.011ZM53.6697 67.0447H51.3315V61.9759H53.6697V67.0447ZM50.5521 67.0447H48.2139V64.7053H50.5521V67.0447ZM56.7873 67.0447H54.4491V63.1457H56.7873V67.0447Z" fill="black"/>
</svg>
