<svg width="170" height="140" viewBox="0 0 170 140" fill="none" xmlns="http://www.w3.org/2000/svg">
<path d="M157.886 102.442L169.701 85.7344H135.432V102.442V119.228H169.701L157.886 102.442Z" fill="black"/>
<path d="M11.8923 102.442L0 85.7344H34.2687V102.442V119.228H0L11.8923 102.442Z" fill="black"/>
<path d="M135.432 119.228L153.974 107.306V77.8125H135.432V94.5201V119.228Z" fill="black"/>
<path d="M34.2691 119.228L15.8047 107.306V77.8125H34.2691V119.228Z" fill="black"/>
<path d="M146.229 72.0852C146.229 72.0852 147.246 71.4576 148.184 70.7517C149.202 70.0458 150.14 69.3398 150.14 69.3398C150.14 69.3398 151.079 70.1241 152.018 70.8301C152.957 71.6145 153.895 72.399 153.895 72.399C153.895 72.399 153.662 72.6343 153.27 72.8695C152.878 73.1833 152.33 73.4971 151.861 73.8109C150.845 74.5168 149.828 75.1444 149.828 75.1444C149.828 75.1444 148.889 74.2815 148.028 73.5754C147.558 73.1833 147.089 72.7911 146.776 72.5557C146.463 72.2421 146.229 72.0852 146.229 72.0852Z" fill="black"/>
<path d="M145.76 77.5763C145.76 77.5763 146.855 77.0271 147.872 76.3997C148.42 76.0859 148.968 75.7721 149.281 75.5368C149.672 75.3014 149.907 75.1445 149.907 75.1445C149.907 75.1445 150.141 75.3799 150.454 75.6937C150.845 76.0074 151.236 76.478 151.706 76.8703C152.567 77.7332 153.427 78.596 153.427 78.596C153.427 78.596 153.115 78.7527 152.723 78.9881C152.331 79.2234 151.784 79.5372 151.236 79.851C150.141 80.4785 149.046 81.0276 149.046 81.0276C149.046 81.0276 148.185 80.0862 147.403 79.3019C147.012 78.8313 146.542 78.4391 146.229 78.1253C145.995 77.8115 145.76 77.5763 145.76 77.5763Z" fill="black"/>
<path d="M144.82 82.9887C144.82 82.9887 145.916 82.518 147.011 82.0475C148.106 81.4983 149.202 80.9492 149.202 80.9492C149.202 80.9492 150.062 81.8906 150.845 82.7534C151.627 83.6946 152.409 84.6359 152.409 84.6359C152.409 84.6359 151.314 85.185 150.141 85.6556C149.593 85.8909 148.967 86.1262 148.576 86.3616C148.106 86.5185 147.872 86.6754 147.872 86.6754C147.872 86.6754 147.637 86.44 147.402 86.0478C147.089 85.6557 146.776 85.185 146.385 84.7143C145.603 83.93 144.82 82.9887 144.82 82.9887Z" fill="black"/>
<path d="M143.334 88.3231C143.334 88.3231 143.647 88.2445 144.038 88.0876C144.508 87.9308 145.055 87.7739 145.603 87.5386C146.698 87.1465 147.872 86.6758 147.872 86.6758C147.872 86.6758 148.654 87.617 149.359 88.6367C149.75 89.1859 150.063 89.6564 150.376 90.0487C150.61 90.4409 150.845 90.6761 150.845 90.6761C150.845 90.6761 149.671 91.1468 148.498 91.539C147.872 91.7744 147.324 91.9313 146.933 92.088C146.464 92.2449 146.151 92.3234 146.151 92.3234C146.151 92.3234 145.994 92.088 145.76 91.6958C145.525 91.3037 145.134 90.7547 144.821 90.284C143.96 89.3426 143.334 88.3231 143.334 88.3231Z" fill="black"/>
<path d="M141.377 93.4993C141.377 93.4993 141.455 93.4993 141.612 93.4208C141.768 93.3424 141.925 93.3424 142.159 93.2639C142.629 93.107 143.176 93.0286 143.724 92.8717C144.898 92.5579 146.071 92.2441 146.071 92.2441C146.071 92.2441 146.697 93.2639 147.323 94.3621C147.636 94.9111 147.949 95.4602 148.184 95.8523C148.34 96.0878 148.418 96.2446 148.497 96.4015C148.575 96.5584 148.575 96.6368 148.575 96.6368C148.575 96.6368 147.323 96.9506 146.15 97.2644C144.976 97.578 143.802 97.8134 143.802 97.8134C143.802 97.8134 143.255 96.7152 142.629 95.6956C142.003 94.519 141.377 93.4993 141.377 93.4993Z" fill="black"/>
<path d="M138.953 98.5191C138.953 98.5191 140.127 98.3622 141.3 98.1269C142.474 97.8915 143.726 97.6562 143.726 97.6562C143.726 97.6562 144.273 98.7543 144.821 99.8526C145.369 100.951 145.838 102.127 145.838 102.127C145.838 102.127 145.525 102.206 145.056 102.284C144.586 102.363 143.96 102.441 143.334 102.598C142.083 102.755 140.909 102.912 140.909 102.912C140.909 102.912 140.44 101.735 139.97 100.715C139.735 100.166 139.422 99.6172 139.266 99.225C139.11 98.7543 138.953 98.5191 138.953 98.5191Z" fill="black"/>
<path d="M136.137 103.226C136.137 103.226 137.31 103.148 138.484 103.069C139.11 102.991 139.736 102.991 140.127 102.912C140.596 102.834 140.909 102.834 140.909 102.834C140.909 102.834 141.066 103.148 141.222 103.54C141.379 104.011 141.613 104.56 141.848 105.109C142.318 106.285 142.631 107.462 142.631 107.462C142.631 107.462 141.379 107.619 140.127 107.619C138.875 107.697 137.701 107.697 137.701 107.697C137.701 107.697 137.31 106.521 136.919 105.422C136.606 104.324 136.137 103.226 136.137 103.226Z" fill="black"/>
<path d="M132.928 107.697C132.928 107.697 134.101 107.776 135.353 107.776C135.979 107.776 136.605 107.854 136.996 107.776C137.466 107.776 137.779 107.776 137.779 107.776C137.779 107.776 137.857 108.089 138.013 108.56C138.17 109.031 138.326 109.58 138.483 110.207C138.796 111.384 139.109 112.639 139.109 112.639C139.109 112.639 138.796 112.639 138.326 112.639C137.857 112.639 137.231 112.639 136.605 112.56C135.353 112.482 134.18 112.404 134.18 112.404C134.18 112.404 133.945 111.227 133.632 110.05C133.475 109.423 133.319 108.874 133.162 108.482C133.006 108.011 132.928 107.697 132.928 107.697Z" fill="black"/>
<path d="M129.25 111.854C129.25 111.854 130.424 112.01 131.597 112.167C132.223 112.246 132.771 112.324 133.24 112.324C133.71 112.403 134.023 112.403 134.023 112.403C134.023 112.403 134.101 112.716 134.179 113.187C134.257 113.658 134.414 114.285 134.492 114.834C134.727 116.011 134.883 117.266 134.883 117.266C134.883 117.266 133.631 117.109 132.458 117.03C131.206 116.874 130.032 116.638 130.032 116.638C130.032 116.638 129.876 115.383 129.719 114.285C129.485 113.03 129.25 111.854 129.25 111.854Z" fill="black"/>
<path d="M125.262 115.697C125.262 115.697 125.575 115.776 125.966 115.854C126.435 115.933 126.983 116.089 127.609 116.246C128.783 116.482 129.956 116.717 129.956 116.717C129.956 116.717 130.112 117.972 130.191 119.149C130.269 119.776 130.269 120.404 130.347 120.874C130.425 121.345 130.425 121.659 130.425 121.659C130.425 121.659 129.174 121.423 128 121.188C127.374 121.031 126.826 120.874 126.357 120.796C125.888 120.639 125.575 120.56 125.575 120.56C125.575 120.56 125.575 120.247 125.496 119.776C125.496 119.305 125.418 118.756 125.418 118.129C125.418 116.874 125.262 115.697 125.262 115.697Z" fill="black"/>
<path d="M120.957 119.148C120.957 119.148 121.27 119.227 121.661 119.384C122.131 119.541 122.679 119.697 123.226 119.854C124.4 120.168 125.573 120.482 125.573 120.482C125.573 120.482 125.652 121.737 125.652 122.914C125.652 123.541 125.652 124.169 125.573 124.639C125.495 125.11 125.495 125.424 125.495 125.424C125.495 125.424 124.243 125.11 123.148 124.718C121.974 124.325 120.801 123.933 120.801 123.933C120.801 123.933 120.879 122.757 120.957 121.502C120.957 120.325 120.957 119.148 120.957 119.148Z" fill="black"/>
<path d="M116.419 122.209C116.419 122.209 116.732 122.366 117.123 122.523C117.514 122.68 118.062 122.915 118.61 123.15C119.705 123.621 120.879 124.013 120.879 124.013C120.879 124.013 120.8 125.19 120.644 126.445C120.566 127.072 120.487 127.7 120.409 128.17C120.331 128.641 120.253 128.955 120.253 128.955C120.253 128.955 119.079 128.484 117.984 128.014C117.436 127.778 116.81 127.543 116.419 127.308C116.028 127.151 115.715 126.994 115.715 126.994C115.715 126.994 115.793 126.68 115.871 126.209C115.95 125.739 116.028 125.111 116.106 124.562C116.262 123.386 116.419 122.209 116.419 122.209Z" fill="black"/>
<path d="M111.568 124.797C111.568 124.797 112.585 125.346 113.68 125.895C114.776 126.444 115.871 126.993 115.871 126.993C115.871 126.993 115.636 128.17 115.402 129.425C115.167 130.68 114.854 131.856 114.854 131.856C114.854 131.856 113.68 131.307 112.663 130.68C111.568 130.131 110.551 129.503 110.551 129.503C110.551 129.503 110.864 128.327 111.098 127.15C111.333 125.973 111.568 124.797 111.568 124.797Z" fill="black"/>
<path d="M106.483 126.992C106.483 126.992 107.5 127.698 108.517 128.326C109.065 128.639 109.534 128.953 109.925 129.189C110.16 129.345 110.316 129.424 110.395 129.502C110.551 129.581 110.629 129.659 110.629 129.659C110.629 129.659 110.629 129.738 110.551 129.894C110.473 130.051 110.473 130.208 110.395 130.443C110.238 130.914 110.082 131.463 109.925 132.091C109.534 133.267 109.221 134.444 109.221 134.444C109.221 134.444 108.908 134.287 108.517 134.052C108.126 133.816 107.578 133.424 107.03 133.11C106.013 132.404 104.996 131.698 104.996 131.698C104.996 131.698 105.387 130.522 105.779 129.424C105.935 128.796 106.17 128.247 106.248 127.855C106.404 127.306 106.483 126.992 106.483 126.992Z" fill="black"/>
<path d="M101.241 128.719C101.241 128.719 102.18 129.503 103.119 130.209C103.588 130.601 104.136 130.993 104.449 131.229C104.84 131.542 105.075 131.699 105.075 131.699C105.075 131.699 104.918 132.013 104.84 132.405C104.683 132.876 104.449 133.425 104.214 133.974C103.745 135.151 103.275 136.249 103.275 136.249C103.275 136.249 103.04 136.014 102.649 135.778C102.258 135.464 101.789 135.151 101.319 134.759C100.302 133.974 99.4414 133.19 99.4414 133.19C99.4414 133.19 99.9891 132.092 100.38 130.993C100.615 130.444 100.85 129.895 101.006 129.425C101.084 128.954 101.241 128.719 101.241 128.719Z" fill="black"/>
<path d="M95.8433 129.895C95.8433 129.895 96.7039 130.757 97.5645 131.542C98.4251 132.326 99.3639 133.11 99.3639 133.11C99.3639 133.11 98.8163 134.209 98.3468 135.307C97.7992 136.405 97.1732 137.503 97.1732 137.503C97.1732 137.503 96.2344 136.64 95.3738 135.856C94.9043 135.464 94.4348 134.993 94.122 134.679C93.809 134.366 93.5742 134.13 93.5742 134.13C93.5742 134.13 93.7307 133.817 93.9655 133.424C94.2002 133.032 94.5132 132.483 94.7478 131.934C95.3738 130.993 95.8433 129.895 95.8433 129.895Z" fill="black"/>
<path d="M90.3653 130.602C90.3653 130.602 90.5999 130.837 90.8346 131.151C91.1476 131.543 91.5389 131.935 91.93 132.406C92.7907 133.269 93.573 134.131 93.573 134.131C93.573 134.131 92.9471 135.229 92.3212 136.249C92.0082 136.798 91.6952 137.347 91.3824 137.661C91.1476 138.053 90.9129 138.289 90.9129 138.289C90.9129 138.289 90.0523 137.347 89.2698 136.485C88.8787 136.014 88.4875 135.543 88.1746 135.229C87.8616 134.837 87.7051 134.602 87.7051 134.602C87.7051 134.602 87.8616 134.367 88.1746 133.974C88.4092 133.582 88.8005 133.033 89.1133 132.563C89.8175 131.7 90.3653 130.602 90.3653 130.602Z" fill="black"/>
<path d="M84.889 130.916C84.889 130.916 85.5931 131.857 86.2973 132.799C87.0796 133.74 87.7839 134.681 87.7839 134.681C87.7839 134.681 87.0796 135.701 86.3754 136.642C85.6713 137.583 84.889 138.603 84.889 138.603C84.889 138.603 84.1065 137.583 83.4024 136.642C82.62 135.622 81.9941 134.681 81.9941 134.681C81.9941 134.681 82.7764 133.74 83.4806 132.799C84.1849 131.857 84.889 130.916 84.889 130.916Z" fill="black"/>
<path d="M79.3346 130.602C79.3346 130.602 79.9606 131.621 80.5866 132.641C80.8994 133.19 81.2907 133.661 81.5254 134.053C81.76 134.445 81.9948 134.68 81.9948 134.68C81.9948 134.68 81.76 134.916 81.5254 135.308C81.2124 135.7 80.8212 136.092 80.4301 136.563C79.5695 137.504 78.787 138.367 78.787 138.367C78.787 138.367 78.6305 138.132 78.3175 137.74C78.0829 137.347 77.6917 136.798 77.3787 136.328C76.7528 135.229 76.127 134.21 76.127 134.21C76.127 134.21 76.9876 133.347 77.7699 132.484C78.161 132.014 78.5523 131.621 78.8653 131.229C79.1781 130.837 79.3346 130.602 79.3346 130.602Z" fill="black"/>
<path d="M73.8568 129.895C73.8568 129.895 74.4044 130.993 74.952 132.091C75.265 132.64 75.4997 133.189 75.7345 133.581C75.9692 133.973 76.1257 134.287 76.1257 134.287C76.1257 134.287 75.891 134.522 75.578 134.836C75.265 135.15 74.7956 135.621 74.3261 136.013C73.3873 136.876 72.5267 137.66 72.5267 137.66C72.5267 137.66 71.9007 136.562 71.3531 135.464C70.8054 134.366 70.3359 133.267 70.3359 133.267C70.3359 133.267 71.2749 132.483 72.1355 131.699C73.0743 130.757 73.8568 129.895 73.8568 129.895Z" fill="black"/>
<path d="M68.5367 128.719C68.5367 128.719 68.6932 129.032 68.8497 129.425C69.0062 129.817 69.2409 130.444 69.4757 130.993C69.9452 132.092 70.4145 133.19 70.4145 133.19C70.4145 133.19 69.4757 133.974 68.5367 134.759C68.0674 135.151 67.5196 135.543 67.2066 135.778C66.8155 136.092 66.5808 136.249 66.5808 136.249C66.5808 136.249 66.1113 135.072 65.6419 133.974C65.4072 133.425 65.1725 132.797 65.0161 132.405C64.8596 131.935 64.7812 131.699 64.7812 131.699C64.7812 131.699 65.0161 131.542 65.4072 131.229C65.7984 130.993 66.2678 130.601 66.7373 130.209C67.5979 129.425 68.5367 128.719 68.5367 128.719Z" fill="black"/>
<path d="M63.2951 126.992C63.2951 126.992 63.3732 127.306 63.5297 127.698C63.6862 128.169 63.8427 128.718 63.9992 129.267C64.3904 130.443 64.7817 131.542 64.7817 131.542C64.7817 131.542 63.7645 132.248 62.7474 132.954C62.1996 133.346 61.7303 133.66 61.2608 133.895C60.8697 134.13 60.5567 134.287 60.5567 134.287C60.5567 134.287 60.1656 133.11 59.8526 131.934C59.6961 131.306 59.5396 130.757 59.3831 130.287C59.3049 130.051 59.2266 129.894 59.2266 129.738C59.1484 129.581 59.1484 129.502 59.1484 129.502C59.1484 129.502 59.2266 129.424 59.3831 129.345C59.5396 129.267 59.6961 129.189 59.8526 129.032C60.2437 128.796 60.7914 128.483 61.2608 128.169C62.278 127.62 63.2951 126.992 63.2951 126.992Z" fill="black"/>
<path d="M58.2094 124.797C58.2094 124.797 58.444 125.973 58.6788 127.15C58.9135 128.327 59.2265 129.503 59.2265 129.503C59.2265 129.503 58.1312 130.131 57.1141 130.68C56.0187 131.307 54.9234 131.778 54.9234 131.778C54.9234 131.778 54.6104 130.523 54.3757 129.346C54.1409 128.17 53.9062 126.915 53.9062 126.915C53.9062 126.915 55.0015 126.366 56.097 125.817C57.1923 125.346 58.2094 124.797 58.2094 124.797Z" fill="black"/>
<path d="M53.3581 122.209C53.3581 122.209 53.4363 123.386 53.5928 124.562C53.6711 125.19 53.7493 125.739 53.8276 126.209C53.9057 126.68 53.9841 126.994 53.9841 126.994C53.9841 126.994 53.6711 127.151 53.2799 127.308C52.8886 127.464 52.2628 127.778 51.715 128.014C50.5416 128.484 49.4461 128.955 49.4461 128.955C49.4461 128.955 49.368 128.641 49.2896 128.17C49.2115 127.7 49.1331 127.072 49.055 126.445C48.8985 125.19 48.8203 124.013 48.8203 124.013C48.8203 124.013 49.9938 123.621 51.0892 123.15C51.6368 122.915 52.1845 122.68 52.5756 122.523C53.0451 122.288 53.3581 122.209 53.3581 122.209Z" fill="black"/>
<path d="M48.7433 119.148C48.7433 119.148 48.7433 120.325 48.7433 121.58C48.7433 122.835 48.8997 124.012 48.8997 124.012C48.8997 124.012 47.7261 124.482 46.5525 124.796C45.3789 125.11 44.2053 125.502 44.2053 125.502C44.2053 125.502 44.2053 125.188 44.1271 124.718C44.0488 124.247 44.0488 123.619 44.0488 122.992C44.0488 121.737 44.1271 120.56 44.1271 120.56C44.1271 120.56 45.3008 120.247 46.4742 119.933C47.022 119.776 47.6478 119.541 48.0391 119.462C48.5084 119.227 48.7433 119.148 48.7433 119.148Z" fill="black"/>
<path d="M44.4392 115.697C44.4392 115.697 44.2827 116.874 44.2045 118.129C44.1262 118.756 44.1262 119.384 44.1262 119.776C44.1262 120.247 44.048 120.56 44.048 120.56C44.048 120.56 43.7351 120.639 43.2656 120.796C42.7963 120.953 42.1703 121.109 41.6227 121.188C40.449 121.423 39.1973 121.659 39.1973 121.659C39.1973 121.659 39.1973 121.345 39.2754 120.874C39.3538 120.404 39.3538 119.776 39.4319 119.149C39.5884 117.893 39.6666 116.717 39.6666 116.717C39.6666 116.717 40.8402 116.482 42.0138 116.246C42.6398 116.089 43.1874 116.011 43.6569 115.854C44.1262 115.776 44.4392 115.697 44.4392 115.697Z" fill="black"/>
<path d="M40.4496 111.854C40.4496 111.854 40.215 113.03 39.9802 114.207C39.8237 115.383 39.6672 116.56 39.6672 116.56C39.6672 116.56 38.4936 116.795 37.2418 116.952C35.99 117.109 34.8164 117.187 34.8164 117.187C34.8164 117.187 34.9729 115.932 35.2076 114.756C35.2859 114.128 35.4424 113.501 35.5205 113.108C35.5989 112.638 35.677 112.324 35.677 112.324C35.677 112.324 35.99 112.246 36.4595 112.246C36.9288 112.167 37.4766 112.167 38.1024 112.089C39.276 112.01 40.4496 111.854 40.4496 111.854Z" fill="black"/>
<path d="M36.8508 107.697C36.8508 107.697 36.7726 108.011 36.6161 108.403C36.4596 108.874 36.3031 109.423 36.1467 109.972C35.8337 111.149 35.599 112.325 35.599 112.325C35.599 112.325 34.3472 112.404 33.1736 112.482C32.5477 112.56 31.9217 112.56 31.4524 112.56C30.9829 112.56 30.6699 112.56 30.6699 112.56C30.6699 112.56 30.9829 111.305 31.2959 110.129C31.4524 109.501 31.6089 108.952 31.7652 108.482C31.9217 108.011 32 107.697 32 107.697C32 107.697 32.313 107.697 32.7823 107.697C33.2518 107.697 33.8778 107.697 34.4254 107.697C35.6772 107.776 36.8508 107.697 36.8508 107.697Z" fill="black"/>
<path d="M33.6423 103.226C33.6423 103.226 33.173 104.324 32.7817 105.501C32.3905 106.677 31.9994 107.775 31.9994 107.775C31.9994 107.775 30.7474 107.697 29.5738 107.697C28.322 107.618 27.1484 107.54 27.1484 107.54C27.1484 107.54 27.5397 106.363 27.9309 105.187C28.1656 104.559 28.4004 104.01 28.5569 103.618C28.7132 103.147 28.8697 102.912 28.8697 102.912C28.8697 102.912 29.1827 102.99 29.6521 102.99C30.1216 103.069 30.7474 103.069 31.2952 103.147C32.4687 103.226 33.6423 103.226 33.6423 103.226Z" fill="black"/>
<path d="M30.7484 98.5191C30.7484 98.5191 30.5919 98.8329 30.4355 99.225C30.2006 99.6172 29.966 100.166 29.7313 100.715C29.2618 101.813 28.7924 102.912 28.7924 102.912C28.7924 102.912 27.6188 102.755 26.367 102.598C25.741 102.519 25.1152 102.363 24.6457 102.284C24.1763 102.206 23.8633 102.127 23.8633 102.127C23.8633 102.127 24.4111 100.951 24.8804 99.8526C25.4282 98.7543 25.9758 97.6562 25.9758 97.6562C25.9758 97.6562 27.2276 97.8915 28.4012 98.1269C29.5748 98.3622 30.7484 98.5191 30.7484 98.5191Z" fill="black"/>
<path d="M28.4011 93.4998C28.4011 93.4998 27.7751 94.5195 27.2275 95.5392C26.6015 96.6374 26.0538 97.6571 26.0538 97.6571C26.0538 97.6571 24.8802 97.4217 23.7066 97.1081C22.533 96.7943 21.2812 96.4805 21.2812 96.4805C21.2812 96.4805 21.3596 96.402 21.3596 96.2451C21.4377 96.0884 21.5159 95.9315 21.6724 95.6961C21.9072 95.3039 22.2202 94.7549 22.533 94.2058C23.159 93.1076 23.785 92.0879 23.785 92.0879C23.785 92.0879 24.9586 92.4802 26.132 92.7155C26.758 92.8723 27.3056 93.0292 27.6969 93.1076C27.9316 93.1861 28.0881 93.1861 28.2446 93.2645C28.3227 93.4998 28.4011 93.4998 28.4011 93.4998Z" fill="black"/>
<path d="M26.4444 88.3231C26.4444 88.3231 25.7402 89.2643 25.0361 90.284C24.6449 90.833 24.332 91.3037 24.0973 91.6958C23.8625 92.088 23.706 92.3234 23.706 92.3234C23.706 92.3234 23.3932 92.2449 22.9237 92.088C22.4542 91.9313 21.9066 91.7744 21.3589 91.539C20.1853 91.1468 19.0117 90.6761 19.0117 90.6761C19.0117 90.6761 19.1682 90.3623 19.4812 90.0487C19.7159 89.6564 20.107 89.1074 20.4983 88.6367C21.2024 87.617 21.9847 86.6758 21.9847 86.6758C21.9847 86.6758 23.1584 87.1465 24.2538 87.5386C24.8014 87.7739 25.3491 87.9308 25.8185 88.0876C26.1315 88.2445 26.4444 88.3231 26.4444 88.3231Z" fill="black"/>
<path d="M24.9584 82.9884C24.9584 82.9884 24.176 83.8512 23.3935 84.7924C23.0024 85.2631 22.6112 85.7338 22.3764 86.1259C22.1417 86.5181 21.9071 86.7535 21.9071 86.7535C21.9071 86.7535 21.5941 86.5966 21.2029 86.4397C20.7335 86.2828 20.1858 86.0476 19.638 85.7338C18.5427 85.1847 17.3691 84.7141 17.3691 84.7141C17.3691 84.7141 18.1516 83.6943 18.9339 82.8315C19.7945 81.8902 20.577 81.0273 20.577 81.0273C20.577 81.0273 21.6723 81.5764 22.7677 82.1256C23.863 82.5177 24.9584 82.9884 24.9584 82.9884Z" fill="black"/>
<path d="M24.0192 77.5763C24.0192 77.5763 23.7844 77.8115 23.4714 78.1253C23.1586 78.4391 22.6891 78.9096 22.298 79.3019C21.4373 80.1648 20.6549 81.0276 20.6549 81.0276C20.6549 81.0276 19.5596 80.4785 18.4642 79.851C17.9165 79.5372 17.3689 79.2234 16.9776 78.9881C16.5864 78.7527 16.2734 78.596 16.2734 78.596C16.2734 78.596 17.1341 77.6546 17.9947 76.8703C18.4642 76.3997 18.8553 76.0074 19.2466 75.6937C19.6378 75.3799 19.7943 75.1445 19.7943 75.1445C19.7943 75.1445 20.0289 75.3014 20.4202 75.5368C20.8114 75.7721 21.359 76.0859 21.8285 76.3997C22.9238 77.0271 24.0192 77.5763 24.0192 77.5763Z" fill="black"/>
<path d="M23.5503 72.0852C23.5503 72.0852 23.3157 72.3205 22.9245 72.5557C22.5332 72.7911 22.142 73.2618 21.6726 73.5754C20.7338 74.3599 19.8732 75.1444 19.8732 75.1444C19.8732 75.1444 18.856 74.5168 17.8389 73.8109C17.2913 73.4186 16.8218 73.1049 16.4307 72.8695C16.0393 72.5557 15.8047 72.399 15.8047 72.399C15.8047 72.399 16.7436 71.5362 17.6824 70.8301C18.6214 70.0458 19.5602 69.3398 19.5602 69.3398C19.5602 69.3398 20.5773 70.1241 21.5162 70.7517C22.5332 71.4576 23.5503 72.0852 23.5503 72.0852Z" fill="black"/>
<path d="M23.5503 66.5943C23.5503 66.5943 22.5332 67.2217 21.5944 67.9278C20.5772 68.6337 19.6383 69.3397 19.6383 69.3397C19.6383 69.3397 18.6995 68.5552 17.7606 67.8493C16.8218 67.065 15.8828 66.2805 15.8828 66.2805C15.8828 66.2805 16.1176 66.0453 16.5088 65.8098C16.8999 65.4961 17.4476 65.1824 17.917 64.8687C18.9342 64.1627 19.9513 63.5352 19.9513 63.5352C19.9513 63.5352 20.8902 64.398 21.7508 65.1039C22.2202 65.4961 22.6896 65.8884 23.0026 66.1236C23.2373 66.3589 23.5503 66.5943 23.5503 66.5943Z" fill="black"/>
<path d="M24.019 61.0255C24.019 61.0255 22.9236 61.5746 21.9066 62.2021C21.3588 62.5159 20.8112 62.8297 20.4982 63.065C20.107 63.3002 19.8724 63.4571 19.8724 63.4571C19.8724 63.4571 19.6376 63.2218 19.3246 62.9081C18.9334 62.5943 18.5423 62.1238 18.0728 61.7315C17.2122 60.8686 16.3516 60.0058 16.3516 60.0058C16.3516 60.0058 16.6645 59.8489 17.0557 59.6137C17.4468 59.3784 17.9946 59.0646 18.5423 58.7508C19.6376 58.1233 20.733 57.5742 20.733 57.5742C20.733 57.5742 21.5936 58.5156 22.3759 59.2999C22.7672 59.7705 23.2366 60.1627 23.5495 60.4765C23.7844 60.7903 24.019 61.0255 24.019 61.0255Z" fill="black"/>
<path d="M24.9584 55.6125C24.9584 55.6125 23.863 56.0832 22.7677 56.5537C21.6723 57.1029 20.577 57.6519 20.577 57.6519C20.577 57.6519 19.7164 56.7106 18.9339 55.8478C18.1516 54.9066 17.3691 53.9652 17.3691 53.9652C17.3691 53.9652 18.4646 53.4162 19.638 52.9455C20.1858 52.7102 20.8116 52.475 21.2029 52.2396C21.6723 52.0827 21.9071 51.9258 21.9071 51.9258C21.9071 51.9258 22.1417 52.1612 22.3764 52.5534C22.6894 52.9455 23.0024 53.4162 23.3935 53.8868C24.176 54.7497 24.9584 55.6125 24.9584 55.6125Z" fill="black"/>
<path d="M26.4446 50.2796C26.4446 50.2796 26.1316 50.3582 25.7404 50.5151C25.2709 50.6719 24.7233 50.8287 24.1757 51.0641C23.0802 51.4563 21.9068 51.9269 21.9068 51.9269C21.9068 51.9269 21.1243 50.9856 20.4202 49.9659C20.029 49.4168 19.716 48.9461 19.4031 48.554C19.1684 48.1618 18.9336 47.9264 18.9336 47.9264C18.9336 47.9264 20.1072 47.4559 21.2808 47.0636C21.9068 46.8283 22.4544 46.6714 22.8456 46.5146C23.315 46.3577 23.628 46.2793 23.628 46.2793C23.628 46.2793 23.7845 46.5146 24.0192 46.9069C24.2538 47.299 24.6451 47.8481 24.958 48.3187C25.7404 49.3384 26.4446 50.2796 26.4446 50.2796Z" fill="black"/>
<path d="M28.4011 45.1028C28.4011 45.1028 28.3229 45.1028 28.1664 45.1813C28.01 45.2597 27.8535 45.2597 27.6187 45.3382C27.1493 45.4951 26.6017 45.5735 26.0539 45.7304C24.8803 46.0441 23.7068 46.3579 23.7068 46.3579C23.7068 46.3579 23.0809 45.3382 22.4549 44.24C22.1419 43.6909 21.8291 43.1419 21.5943 42.7496C21.4378 42.5143 21.3596 42.3574 21.2813 42.2791C21.2031 42.1222 21.2031 42.0436 21.2031 42.0436C21.2031 42.0436 22.4549 41.73 23.6285 41.4162C24.8021 41.1024 25.9757 40.8672 25.9757 40.8672C25.9757 40.8672 26.5234 41.9653 27.1493 42.985C27.7751 44.0831 28.4011 45.1028 28.4011 45.1028Z" fill="black"/>
<path d="M30.7484 40.1622C30.7484 40.1622 29.5748 40.3191 28.4012 40.5543C27.2276 40.7897 25.9758 41.025 25.9758 41.025C25.9758 41.025 25.4282 39.9269 24.8804 38.8287C24.3328 37.7306 23.8633 36.554 23.8633 36.554C23.8633 36.554 24.1763 36.4756 24.6457 36.3971C25.1152 36.3187 25.741 36.2402 26.367 36.0833C27.6188 35.9264 28.7924 35.7695 28.7924 35.7695C28.7924 35.7695 29.2618 36.9461 29.7313 37.9659C29.966 38.5149 30.2006 39.0641 30.4355 39.4562C30.5919 39.8484 30.7484 40.1622 30.7484 40.1622Z" fill="black"/>
<path d="M33.6423 35.3753C33.6423 35.3753 32.4687 35.4537 31.2952 35.5322C30.6693 35.6106 30.0433 35.6106 29.6521 35.6891C29.1827 35.7675 28.8697 35.7675 28.8697 35.7675C28.8697 35.7675 28.7132 35.4537 28.5569 35.0615C28.4004 34.5909 28.1656 34.0418 27.9309 33.4928C27.4614 32.3162 27.1484 31.1396 27.1484 31.1396C27.1484 31.1396 28.4004 30.9827 29.6521 30.9827C30.9039 30.9043 32.0775 30.9043 32.0775 30.9043C32.0775 30.9043 32.4687 32.0808 32.86 33.179C33.173 34.2771 33.6423 35.3753 33.6423 35.3753Z" fill="black"/>
<path d="M36.8508 30.9046C36.8508 30.9046 35.6772 30.8261 34.4254 30.8261C33.7994 30.8261 33.1736 30.7477 32.7823 30.8261C32.313 30.8261 32 30.8261 32 30.8261C32 30.8261 31.9217 30.5123 31.7652 30.0418C31.6089 29.5711 31.4524 29.022 31.2959 28.3945C30.9829 27.2179 30.6699 25.9629 30.6699 25.9629C30.6699 25.9629 30.9829 25.9629 31.4524 25.9629C31.9217 25.9629 32.5477 25.9629 33.1736 26.0413C34.4254 26.1198 35.599 26.1982 35.599 26.1982C35.599 26.1982 35.8337 27.3748 36.1467 28.5514C36.3031 29.1789 36.4596 29.728 36.6161 30.1201C36.7726 30.5908 36.8508 30.9046 36.8508 30.9046Z" fill="black"/>
<path d="M40.4496 26.7483C40.4496 26.7483 39.276 26.5914 38.1024 26.4345C37.4766 26.356 36.9288 26.2776 36.4595 26.2776C35.99 26.1993 35.677 26.1993 35.677 26.1993C35.677 26.1993 35.5989 25.8855 35.5205 25.4148C35.4424 24.9441 35.2859 24.3167 35.2076 23.7675C34.9729 22.5909 34.8164 21.3359 34.8164 21.3359C34.8164 21.3359 36.0682 21.4928 37.2418 21.5714C38.4936 21.7281 39.6672 21.9635 39.6672 21.9635C39.6672 21.9635 39.8237 23.2185 39.9802 24.3167C40.215 25.5717 40.4496 26.7483 40.4496 26.7483Z" fill="black"/>
<path d="M44.4391 22.9829C44.4391 22.9829 44.1262 22.9044 43.735 22.826C43.2655 22.7475 42.7179 22.5906 42.0919 22.4337C40.9183 22.1984 39.7449 21.9632 39.7449 21.9632C39.7449 21.9632 39.5884 20.708 39.5101 19.5316C39.4319 18.904 39.4319 18.2765 39.3536 17.8058C39.2754 17.3353 39.2754 17.0215 39.2754 17.0215C39.2754 17.0215 40.5272 17.2567 41.7008 17.4922C42.3267 17.6491 42.8744 17.8058 43.3439 17.8843C43.8132 18.0412 44.1262 18.1196 44.1262 18.1196C44.1262 18.1196 44.1262 18.4334 44.2045 18.904C44.2045 19.3747 44.2827 19.9237 44.2827 20.5512C44.3608 21.7278 44.4391 22.9829 44.4391 22.9829Z" fill="black"/>
<path d="M48.7433 19.4529C48.7433 19.4529 48.4303 19.3744 48.0391 19.2175C47.5696 19.0606 47.022 18.9037 46.4742 18.747C45.3008 18.4332 44.1271 18.1194 44.1271 18.1194C44.1271 18.1194 44.0488 16.8644 44.0488 15.6878C44.0488 15.0603 44.0488 14.4328 44.1271 13.9621C44.2053 13.4915 44.2053 13.1777 44.2053 13.1777C44.2053 13.1777 45.4571 13.4915 46.5525 13.8837C47.7261 14.2759 48.8997 14.6681 48.8997 14.6681C48.8997 14.6681 48.8214 15.8447 48.7433 17.0997C48.7433 18.3547 48.7433 19.4529 48.7433 19.4529Z" fill="black"/>
<path d="M53.36 16.3942C53.36 16.3942 53.047 16.2373 52.6559 16.0804C52.2646 15.9235 51.7169 15.6883 51.1693 15.4529C50.0738 14.9823 48.9004 14.5901 48.9004 14.5901C48.9004 14.5901 48.9786 13.4135 49.1351 12.1585C49.2132 11.531 49.2915 10.9035 49.3697 10.4328C49.448 9.96219 49.5262 9.64844 49.5262 9.64844C49.5262 9.64844 50.6998 10.1191 51.7952 10.5897C52.3429 10.825 52.9687 11.0603 53.36 11.2957C53.7512 11.4525 54.0641 11.6094 54.0641 11.6094C54.0641 11.6094 53.9858 11.9232 53.9077 12.3938C53.8293 12.8644 53.7512 13.492 53.673 14.041C53.4382 15.2961 53.36 16.3942 53.36 16.3942Z" fill="black"/>
<path d="M58.2094 13.8056C58.2094 13.8056 57.1923 13.2566 56.097 12.7075C55.0015 12.1584 53.9062 11.6093 53.9062 11.6093C53.9062 11.6093 54.1409 10.4327 54.3757 9.17771C54.6104 7.92269 54.9234 6.74609 54.9234 6.74609C54.9234 6.74609 56.097 7.29517 57.1141 7.84424C58.2094 8.39332 59.2265 9.02084 59.2265 9.02084C59.2265 9.02084 58.9135 10.1974 58.6788 11.374C58.444 12.629 58.2094 13.8056 58.2094 13.8056Z" fill="black"/>
<path d="M63.295 11.6096C63.295 11.6096 62.2779 10.9037 61.2608 10.2761C60.7131 9.96239 60.2437 9.64862 59.8525 9.41332C59.6177 9.25644 59.4614 9.17799 59.3831 9.09955C59.3049 9.09955 59.2266 9.02112 59.2266 9.02112C59.2266 9.02112 59.2266 8.94267 59.3049 8.7858C59.3831 8.62892 59.3831 8.47204 59.4614 8.23672C59.6177 7.76609 59.7742 7.21702 59.9307 6.5895C60.322 5.41291 60.6348 4.23633 60.6348 4.23633C60.6348 4.23633 60.9478 4.3932 61.3391 4.62853C61.7303 4.86383 62.2779 5.25603 62.8256 5.5698C63.8427 6.27575 64.8598 6.9817 64.8598 6.9817C64.8598 6.9817 64.4686 8.15828 64.0775 9.25644C63.921 9.88394 63.6862 10.433 63.608 10.8252C63.3732 11.3743 63.295 11.6096 63.295 11.6096Z" fill="black"/>
<path d="M68.5368 9.9618C68.5368 9.9618 67.598 9.1774 66.659 8.47145C66.1896 8.07926 65.6419 7.68706 65.3289 7.45175C64.9378 7.13798 64.7031 6.98111 64.7031 6.98111C64.7031 6.98111 64.8596 6.66736 64.9378 6.27516C65.0943 5.80451 65.3289 5.25544 65.5638 4.70637C66.0332 3.52979 66.5025 2.43164 66.5025 2.43164C66.5025 2.43164 66.7374 2.66695 67.1285 2.90227C67.5197 3.21602 67.9891 3.52979 68.4586 3.92199C69.4757 4.70637 70.3363 5.49076 70.3363 5.49076C70.3363 5.49076 69.7886 6.58891 69.3974 7.68706C69.1627 8.23613 68.9279 8.78521 68.7716 9.25585C68.6151 9.64805 68.5368 9.9618 68.5368 9.9618Z" fill="black"/>
<path d="M73.8568 8.70626C73.8568 8.70626 72.9961 7.84343 72.1355 7.05904C71.2749 6.27464 70.3359 5.49025 70.3359 5.49025C70.3359 5.49025 70.8836 4.3921 71.3531 3.29395C71.9007 2.1958 72.5267 1.09766 72.5267 1.09766C72.5267 1.09766 73.4655 1.96048 74.4044 2.74488C74.8739 3.13708 75.3432 3.6077 75.6562 3.92147C75.9692 4.23522 76.2038 4.47055 76.2038 4.47055C76.2038 4.47055 76.0473 4.7843 75.8127 5.1765C75.578 5.56869 75.265 6.11777 75.0302 6.66684C74.4044 7.60811 73.8568 8.70626 73.8568 8.70626Z" fill="black"/>
<path d="M79.3346 8.00149C79.3346 8.00149 79.1 7.76618 78.8653 7.45241C78.5523 7.06023 78.161 6.66803 77.7699 6.19739C76.9093 5.33456 76.127 4.47174 76.127 4.47174C76.127 4.47174 76.7528 3.37357 77.3787 2.35387C77.6917 1.8048 78.0047 1.25572 78.3175 0.941968C78.5523 0.549772 78.787 0.314453 78.787 0.314453C78.787 0.314453 79.6476 1.25572 80.4301 2.11855C80.8212 2.58919 81.2124 3.05982 81.5254 3.37358C81.8383 3.76577 81.9948 4.00109 81.9948 4.00109C81.9948 4.00109 81.8383 4.23642 81.5254 4.62861C81.2907 5.02081 80.8994 5.56989 80.5866 6.04051C79.9606 6.98179 79.3346 8.00149 79.3346 8.00149Z" fill="black"/>
<path d="M84.889 7.68703C84.889 7.68703 84.1849 6.74576 83.4806 5.80449C82.6983 4.86323 81.9941 3.92196 81.9941 3.92196C81.9941 3.92196 82.6983 2.90225 83.4024 1.96097C84.1849 0.94127 84.889 0 84.889 0C84.889 0 85.6713 1.01971 86.3754 1.96097C87.1579 2.98069 87.7839 3.92196 87.7839 3.92196C87.7839 3.92196 87.0014 4.86323 86.2973 5.80449C85.5931 6.74576 84.889 7.68703 84.889 7.68703Z" fill="black"/>
<path d="M90.3653 8.0018C90.3653 8.0018 89.7393 6.9821 89.1133 5.96238C88.8005 5.41331 88.4092 4.94268 88.1746 4.55048C87.9399 4.15828 87.7051 3.92296 87.7051 3.92296C87.7051 3.92296 87.9399 3.68766 88.1746 3.29546C88.4875 2.90326 88.8787 2.51106 89.2698 2.04044C90.1305 1.09916 90.9129 0.236328 90.9129 0.236328C90.9129 0.236328 91.0694 0.550086 91.3824 0.863843C91.617 1.25604 92.0082 1.80511 92.3212 2.27574C92.9471 3.37389 93.573 4.39361 93.573 4.39361C93.573 4.39361 92.7123 5.25643 91.93 6.11927C91.5389 6.5899 91.1476 6.9821 90.8346 7.3743C90.5999 7.7665 90.3653 8.0018 90.3653 8.0018Z" fill="black"/>
<path d="M95.8433 8.70689C95.8433 8.70689 95.2955 7.60874 94.7478 6.51059C94.4348 5.96152 94.2002 5.41244 93.9655 5.02025C93.7307 4.62805 93.5742 4.3143 93.5742 4.3143C93.5742 4.3143 93.809 4.07897 94.122 3.76522C94.4348 3.45145 94.9043 2.98083 95.3738 2.58863C96.3126 1.7258 97.1732 0.941406 97.1732 0.941406C97.1732 0.941406 97.7992 2.03955 98.3468 3.1377C98.8945 4.23585 99.3639 5.334 99.3639 5.334C99.3639 5.334 98.4251 6.11839 97.5645 6.90279C96.7039 7.84406 95.8433 8.70689 95.8433 8.70689Z" fill="black"/>
<path d="M101.241 9.9618C101.241 9.9618 101.085 9.64805 100.928 9.25585C100.772 8.78521 100.537 8.23613 100.302 7.68706C99.8328 6.58891 99.3633 5.49076 99.3633 5.49076C99.3633 5.49076 100.302 4.70637 101.241 3.92199C101.71 3.52979 102.258 3.13759 102.571 2.90227C102.962 2.58852 103.197 2.43164 103.197 2.43164C103.197 2.43164 103.666 3.60822 104.136 4.70637C104.371 5.25544 104.605 5.88296 104.762 6.27516C104.918 6.74579 104.997 6.98111 104.997 6.98111C104.997 6.98111 104.762 7.13798 104.371 7.45175C103.979 7.68706 103.51 8.07926 103.04 8.47145C102.18 9.1774 101.241 9.9618 101.241 9.9618Z" fill="black"/>
<path d="M106.483 11.6093C106.483 11.6093 106.404 11.2955 106.248 10.9033C106.092 10.4327 105.935 9.88364 105.779 9.33456C105.387 8.15797 104.996 7.05982 104.996 7.05982C104.996 7.05982 106.013 6.35387 107.03 5.64792C107.578 5.25572 108.047 4.94196 108.517 4.70665C108.908 4.47133 109.221 4.31445 109.221 4.31445C109.221 4.31445 109.612 5.49105 109.925 6.66762C110.082 7.29514 110.238 7.84422 110.395 8.31485C110.473 8.55017 110.551 8.70704 110.551 8.86392C110.629 9.0208 110.629 9.09924 110.629 9.09924C110.629 9.09924 110.551 9.17767 110.395 9.25612C110.238 9.33456 110.082 9.41299 109.925 9.56987C109.534 9.80519 108.986 10.1189 108.517 10.4327C107.421 10.9818 106.483 11.6093 106.483 11.6093Z" fill="black"/>
<path d="M111.568 13.8053C111.568 13.8053 111.333 12.6287 111.098 11.4521C110.864 10.2756 110.551 9.09896 110.551 9.09896C110.551 9.09896 111.646 8.47144 112.663 7.92237C113.759 7.29486 114.854 6.82422 114.854 6.82422C114.854 6.82422 115.167 8.07924 115.402 9.25584C115.636 10.5109 115.871 11.6875 115.871 11.6875C115.871 11.6875 114.776 12.2365 113.68 12.7856C112.585 13.2562 111.568 13.8053 111.568 13.8053Z" fill="black"/>
<path d="M116.419 16.3942C116.419 16.3942 116.341 15.2176 116.184 14.041C116.106 13.4135 116.028 12.8644 115.949 12.3938C115.871 11.9232 115.793 11.6094 115.793 11.6094C115.793 11.6094 116.106 11.4525 116.497 11.2957C116.888 11.1388 117.514 10.825 118.062 10.5897C119.235 10.1191 120.331 9.64844 120.331 9.64844C120.331 9.64844 120.409 9.96219 120.487 10.4328C120.566 10.9035 120.644 11.531 120.722 12.1585C120.879 13.4135 120.957 14.5901 120.957 14.5901C120.957 14.5901 119.783 14.9823 118.688 15.4529C118.14 15.6883 117.593 15.9235 117.201 16.0804C116.654 16.3157 116.419 16.3942 116.419 16.3942Z" fill="black"/>
<path d="M120.957 19.5313C120.957 19.5313 120.957 18.3547 120.957 17.0997C120.957 15.8447 120.801 14.6681 120.801 14.6681C120.801 14.6681 121.974 14.1974 123.148 13.8837C124.322 13.5699 125.495 13.1777 125.495 13.1777C125.495 13.1777 125.495 13.4915 125.573 13.9621C125.652 14.4328 125.652 15.0603 125.652 15.6878C125.652 16.9428 125.573 18.1194 125.573 18.1194C125.573 18.1194 124.4 18.4332 123.226 18.747C122.6 18.9037 122.053 19.1391 121.661 19.2175C121.27 19.3744 120.957 19.5313 120.957 19.5313Z" fill="black"/>
<path d="M125.262 22.9829C125.262 22.9829 125.418 21.8063 125.496 20.5512C125.575 19.9237 125.575 19.2962 125.575 18.904C125.575 18.4334 125.653 18.1196 125.653 18.1196C125.653 18.1196 125.966 18.0412 126.435 17.8843C126.905 17.7274 127.531 17.5705 128.078 17.4922C129.252 17.2567 130.504 17.0215 130.504 17.0215C130.504 17.0215 130.504 17.3353 130.425 17.8058C130.347 18.2765 130.347 18.904 130.269 19.5316C130.112 20.7866 130.034 21.9632 130.034 21.9632C130.034 21.9632 128.861 22.1984 127.687 22.4337C127.061 22.5906 126.513 22.6691 126.044 22.826C125.575 22.9044 125.262 22.9829 125.262 22.9829Z" fill="black"/>
<path d="M129.25 26.7479C129.25 26.7479 129.485 25.5713 129.719 24.3948C129.876 23.2182 130.032 22.0416 130.032 22.0416C130.032 22.0416 131.206 21.8062 132.458 21.6495C133.71 21.4926 134.883 21.4141 134.883 21.4141C134.883 21.4141 134.727 22.6692 134.492 23.8456C134.414 24.4732 134.257 25.1008 134.179 25.4929C134.101 25.8851 134.023 26.2774 134.023 26.2774C134.023 26.2774 133.71 26.3558 133.24 26.3558C132.771 26.4341 132.223 26.4341 131.597 26.5127C130.424 26.591 129.25 26.7479 129.25 26.7479Z" fill="black"/>
<path d="M132.928 30.9042C132.928 30.9042 133.006 30.5904 133.162 30.1983C133.319 29.7276 133.475 29.1785 133.632 28.6295C133.945 27.4529 134.18 26.2763 134.18 26.2763C134.18 26.2763 135.431 26.1979 136.605 26.1194C137.231 26.041 137.857 26.041 138.326 26.041C138.796 26.041 139.109 26.041 139.109 26.041C139.109 26.041 138.796 27.296 138.483 28.4726C138.326 29.1002 138.17 29.6492 138.013 30.1199C137.857 30.5904 137.779 30.9042 137.779 30.9042C137.779 30.9042 137.466 30.9042 136.996 30.9042C136.527 30.9042 135.901 30.9042 135.353 30.9042C134.101 30.8258 132.928 30.9042 132.928 30.9042Z" fill="black"/>
<path d="M136.137 35.3756C136.137 35.3756 136.606 34.2775 136.997 33.1009C137.388 31.9243 137.78 30.8262 137.78 30.8262C137.78 30.8262 139.031 30.9045 140.205 30.9045C141.457 30.9829 142.709 31.0614 142.709 31.0614C142.709 31.0614 142.318 32.238 141.926 33.4146C141.692 34.0421 141.457 34.5911 141.3 34.9834C141.144 35.4541 140.987 35.6893 140.987 35.6893C140.987 35.6893 140.675 35.6108 140.205 35.6108C139.736 35.5325 139.11 35.5325 138.562 35.4541C137.31 35.3756 136.137 35.3756 136.137 35.3756Z" fill="black"/>
<path d="M138.953 40.1622C138.953 40.1622 139.11 39.8484 139.266 39.4562C139.501 39.0641 139.735 38.5149 139.97 37.9659C140.44 36.8678 140.909 35.7695 140.909 35.7695C140.909 35.7695 142.083 35.9264 143.334 36.0833C143.96 36.1618 144.586 36.3187 145.056 36.3971C145.525 36.4756 145.838 36.554 145.838 36.554C145.838 36.554 145.29 37.7306 144.821 38.8287C144.273 39.9269 143.726 41.025 143.726 41.025C143.726 41.025 142.474 40.7897 141.3 40.5543C140.127 40.3191 138.953 40.1622 138.953 40.1622Z" fill="black"/>
<path d="M141.377 45.1026C141.377 45.1026 142.003 44.0828 142.551 43.0631C143.176 41.965 143.724 40.9453 143.724 40.9453C143.724 40.9453 144.898 41.1806 146.071 41.4944C147.245 41.8081 148.497 42.1218 148.497 42.1218C148.497 42.1218 148.418 42.2003 148.418 42.3572C148.34 42.5141 148.262 42.671 148.105 42.9062C147.871 43.2984 147.558 43.8476 147.245 44.3966C146.619 45.4947 145.993 46.5144 145.993 46.5144C145.993 46.5144 144.819 46.1223 143.646 45.8869C143.02 45.7301 142.472 45.5732 142.081 45.4947C141.846 45.4163 141.69 45.4163 141.533 45.3378C141.455 45.1026 141.377 45.1026 141.377 45.1026Z" fill="black"/>
<path d="M143.334 50.2796C143.334 50.2796 144.038 49.3384 144.742 48.3187C145.134 47.7697 145.447 47.299 145.681 46.9069C145.916 46.5146 146.072 46.2793 146.072 46.2793C146.072 46.2793 146.385 46.3577 146.855 46.5146C147.324 46.6714 147.872 46.8283 148.42 47.0636C149.593 47.4559 150.767 47.9264 150.767 47.9264C150.767 47.9264 150.61 48.2402 150.297 48.554C150.063 48.9461 149.671 49.4953 149.28 49.9659C148.576 50.9856 147.794 51.9269 147.794 51.9269C147.794 51.9269 146.62 51.4563 145.525 51.0641C144.977 50.8287 144.429 50.6719 143.96 50.5151C143.569 50.3582 143.334 50.2796 143.334 50.2796Z" fill="black"/>
<path d="M144.82 55.6127C144.82 55.6127 145.603 54.7499 146.385 53.8087C146.776 53.338 147.168 52.8674 147.402 52.4752C147.715 52.0831 147.872 51.8477 147.872 51.8477C147.872 51.8477 148.185 52.0045 148.576 52.1614C149.045 52.3183 149.593 52.5537 150.141 52.8674C151.236 53.4166 152.409 53.8871 152.409 53.8871C152.409 53.8871 151.627 54.9068 150.845 55.7696C149.984 56.711 149.202 57.5738 149.202 57.5738C149.202 57.5738 148.106 57.0248 147.011 56.4756C145.916 56.0834 144.82 55.6127 144.82 55.6127Z" fill="black"/>
<path d="M145.76 61.0255C145.76 61.0255 145.995 60.7903 146.308 60.4765C146.62 60.1627 147.09 59.692 147.481 59.2999C148.342 58.437 149.124 57.5742 149.124 57.5742C149.124 57.5742 150.22 58.1233 151.315 58.7508C151.862 59.0646 152.41 59.3784 152.802 59.6137C153.192 59.8489 153.506 60.0058 153.506 60.0058C153.506 60.0058 152.646 60.9472 151.784 61.7315C151.315 62.2021 150.924 62.5943 150.532 62.9081C150.141 63.2218 149.985 63.4571 149.985 63.4571C149.985 63.4571 149.75 63.3002 149.359 63.065C148.968 62.8297 148.42 62.5159 147.95 62.2021C146.777 61.5746 145.76 61.0255 145.76 61.0255Z" fill="black"/>
<path d="M146.229 66.5943C146.229 66.5943 146.463 66.3589 146.854 66.1236C147.246 65.8884 147.637 65.4177 148.106 65.1039C149.045 64.3196 149.906 63.5352 149.906 63.5352C149.906 63.5352 150.923 64.1627 151.94 64.8687C152.488 65.2608 152.957 65.5746 153.349 65.8098C153.739 66.1236 153.974 66.2805 153.974 66.2805C153.974 66.2805 153.035 67.1434 152.097 67.8493C151.157 68.6337 150.219 69.3397 150.219 69.3397C150.219 69.3397 149.202 68.5552 148.263 67.9278C147.246 67.2217 146.229 66.5943 146.229 66.5943Z" fill="black"/>
<path d="M84.8112 27.7681C107.501 27.7681 125.965 46.2798 125.965 69.027C125.965 91.7744 107.501 110.286 84.8112 110.286C62.122 110.286 43.6576 91.7744 43.6576 69.027C43.5793 46.2798 62.0437 27.7681 84.8112 27.7681ZM84.7331 24.2383C60.0878 24.2383 40.0586 44.3187 40.0586 69.027C40.0586 93.7353 60.0878 113.816 84.7331 113.816C109.378 113.816 129.408 93.7353 129.408 69.027C129.408 44.3187 109.457 24.2383 84.7331 24.2383Z" fill="black"/>
<path d="M84.7334 97.3422C71.0416 97.3422 59.9316 86.2038 59.9316 72.477C59.9316 60.8679 67.6774 53.024 74.4841 46.1997C79.1002 41.6504 83.4035 37.2577 84.6553 32.3945C85.9854 37.3362 90.2885 41.6504 94.8263 46.1997C101.711 53.1025 109.379 60.7894 109.379 72.477C109.535 86.2822 98.4253 97.3422 84.7334 97.3422Z" fill="black"/>
<path d="M88.9572 51.4556C87.3925 49.8869 85.6712 48.1612 84.1848 46.4355C82.7764 48.0043 81.2899 49.4947 79.8034 50.9066C79.4122 51.2203 79.1774 51.6909 78.9427 52.1616C78.6298 52.8675 78.5516 53.6519 78.6298 54.4362C78.6298 54.5148 78.6298 54.5931 78.6298 54.6717C78.7862 55.0638 78.9427 55.5345 79.2557 55.8483C79.3339 55.9266 79.3339 56.0052 79.4122 56.0835C80.351 57.3385 82.6982 59.5348 84.0283 60.7898L91.6956 68.7123L93.9647 71.1439C95.8424 73.1048 97.5637 75.2227 99.0502 77.4974C99.2066 77.8112 99.5196 78.0465 99.8325 78.2034H99.989C100.38 78.125 100.693 77.8896 100.771 77.4974C101.241 75.9287 101.554 74.203 101.554 72.5557C101.476 68.7123 100.302 64.8687 98.0331 61.8095C95.3729 58.123 92.3999 54.6717 89.1137 51.6125L88.9572 51.4556Z" fill="white"/>
<path d="M91.0708 77.1044C89.193 74.7512 87.3153 72.7117 84.4988 69.5742C82.0734 72.3196 79.8043 74.5159 78.0049 76.7121C74.7971 80.2419 74.9536 85.7327 78.4744 88.9487C81.9951 92.1646 87.4718 92.0079 90.6796 88.478C93.418 85.4974 93.731 80.9478 91.4621 77.6534C91.3056 77.4965 91.2273 77.2613 91.0708 77.1044Z" fill="white"/>
<path d="M79.8824 65.8101C80.1171 65.5748 80.1171 65.1827 79.8824 64.9473L74.2492 59.2213L72.9974 58.123C72.0585 59.2213 71.1197 60.4763 70.2589 61.6529C68.9289 63.6138 67.9118 65.8101 67.2859 68.0848C66.5817 70.7518 66.6599 73.4972 67.5205 76.1642L67.677 76.3994C67.8335 76.7132 67.99 76.9485 68.1465 77.1839C68.1465 77.1839 68.8506 78.2035 69.3983 78.282H69.6331C69.8677 78.2035 69.9461 78.1251 70.0242 77.8898C70.5719 76.7916 71.1978 75.7719 71.9803 74.7521L74.0144 72.2422L79.8824 65.8101Z" fill="white"/>
<path d="M15.5703 73.8906C15.5703 73.8906 44.2841 87.2253 84.8901 87.2253C125.496 87.2253 154.21 73.8906 154.21 73.8906V107.698C154.21 107.698 125.966 121.033 84.8901 121.033C43.8146 121.033 15.5703 107.698 15.5703 107.698V73.8906Z" fill="black"/>
<path d="M30.1217 97.4225C30.2 97.6577 30.2782 97.893 30.4346 98.0499C30.5911 98.2068 30.7476 98.3637 30.9823 98.5205C31.2171 98.6774 31.4518 98.7558 31.6866 98.8343C31.8429 98.9127 32.0777 98.9127 32.2342 98.9912C32.3907 99.0696 32.6254 99.0696 32.86 98.9912C33.0948 98.9127 33.2513 98.8343 33.4078 98.7558C33.5643 98.5989 33.7207 98.4422 33.7207 98.2853C33.799 98.0499 33.799 97.8146 33.6425 97.6577C33.486 97.4225 33.3295 97.2656 33.173 97.1087C32.9383 96.9518 32.7037 96.7949 32.3907 96.5596C32.0777 96.4027 31.7647 96.1673 31.5301 96.0104C31.2171 95.8535 30.9041 95.6183 30.6695 95.383C30.3565 95.1476 30.1217 94.9123 29.9653 94.6771C29.7305 94.3633 29.6523 94.1279 29.574 93.8143C29.4958 93.5005 29.4958 93.1082 29.6523 92.716C29.8088 92.2453 30.0435 91.9317 30.2781 91.6179C30.5911 91.3042 30.9041 91.1473 31.2953 90.9904C31.6866 90.8335 32.0777 90.7551 32.4689 90.8335C32.9383 90.912 33.3295 90.912 33.7207 91.0689C34.1901 91.2256 34.5814 91.3825 34.9726 91.6179C35.3637 91.8532 35.6767 92.167 35.9114 92.4808C36.1462 92.7945 36.3808 93.1867 36.459 93.5788C36.5373 93.971 36.5373 94.4417 36.3808 94.9907L34.5031 94.4417C34.5813 94.1279 34.5814 93.971 34.5814 93.7357C34.5031 93.5005 34.4249 93.3436 34.3466 93.1867C34.1901 93.0298 34.0336 92.8729 33.8771 92.7945C33.6425 92.716 33.486 92.5591 33.2513 92.5591C33.0948 92.4808 32.9383 92.4808 32.7819 92.4808C32.6254 92.4808 32.4689 92.4808 32.3124 92.5591C32.1559 92.6377 31.9994 92.716 31.9212 92.7945C31.7647 92.8729 31.6866 93.0298 31.6082 93.2651C31.5301 93.422 31.5301 93.5788 31.5301 93.7357C31.6082 93.8926 31.6866 94.0495 31.8429 94.1279C31.9994 94.2848 32.2342 94.4417 32.5472 94.6771C32.86 94.9123 33.2513 95.1476 33.799 95.383C33.9555 95.4614 34.1901 95.6183 34.4249 95.7752C34.7378 95.9321 34.9726 96.1673 35.2072 96.4811C35.4421 96.7949 35.5984 97.1087 35.7549 97.4225C35.9114 97.7361 35.9114 98.2068 35.6767 98.7558C35.5202 99.1481 35.3637 99.5403 35.1291 99.7755C34.8943 100.089 34.5814 100.325 34.1901 100.481C33.799 100.638 33.4078 100.717 32.86 100.717C32.3124 100.717 31.8429 100.638 31.2171 100.481C30.7476 100.325 30.2781 100.168 29.887 99.854C29.4175 99.5403 29.1045 99.305 28.8699 98.9127C28.5569 98.5205 28.4004 98.1284 28.3222 97.7361C28.2439 97.2656 28.2439 96.7949 28.4787 96.2458L30.3565 96.7949C30.1217 96.8733 30.1217 97.187 30.1217 97.4225Z" fill="white"/>
<path d="M40.2929 102.442L40.5277 101.579H40.4494C40.1364 101.893 39.7452 102.128 39.3541 102.207C38.9628 102.285 38.5716 102.285 38.1805 102.128C37.711 101.971 37.3199 101.814 37.085 101.658C36.7722 101.422 36.6157 101.187 36.4592 100.952C36.3027 100.638 36.3027 100.402 36.3027 100.01C36.3027 99.6181 36.3809 99.3044 36.4592 98.9122L37.398 94.9902L39.1193 95.4609L38.2586 99.0691C38.1022 99.6181 38.1022 100.01 38.1805 100.324C38.337 100.638 38.5716 100.873 38.9628 100.952C39.4323 101.109 39.8236 101.03 40.1364 100.795C40.4494 100.559 40.6842 100.089 40.8405 99.4613L41.7013 96.1668L43.4225 96.6374L41.8576 102.991C41.936 102.834 40.2929 102.442 40.2929 102.442Z" fill="white"/>
<path d="M46.4738 97.1864L46.3175 98.0492H46.3956C46.7086 97.7354 47.0216 97.5002 47.4127 97.4216C47.8039 97.3433 48.1952 97.3433 48.5863 97.4216C49.134 97.5785 49.5251 97.7354 49.8381 97.9707C50.1511 98.2845 50.4641 98.5982 50.6206 98.912C50.7771 99.3042 50.9336 99.6965 50.9336 100.167C51.0117 100.638 50.9336 101.03 50.8552 101.5C50.7771 101.971 50.6206 102.363 50.3858 102.677C50.1511 103.069 49.9164 103.383 49.6035 103.618C49.2905 103.932 48.9775 104.089 48.5863 104.168C48.1952 104.324 47.7257 104.324 47.2563 104.246C46.8651 104.167 46.4738 104.011 46.161 103.775C45.848 103.54 45.6132 103.226 45.4567 102.912H45.3785L44.7525 105.972L42.9531 105.579L44.7525 96.9511C44.7525 96.7942 46.4738 97.1864 46.4738 97.1864ZM47.7257 102.677C47.9604 102.599 48.1169 102.442 48.2734 102.285C48.4299 102.128 48.5864 101.893 48.6645 101.657C48.821 101.422 48.821 101.187 48.8993 100.873C48.9775 100.638 48.9775 100.324 48.9775 100.089C48.9775 99.7749 48.8993 99.5396 48.821 99.3827C48.7428 99.1473 48.5863 98.9904 48.4299 98.8337C48.2734 98.6768 48.0387 98.5199 47.7257 98.5199C47.4127 98.4414 47.1781 98.4414 46.9433 98.5982C46.7086 98.6768 46.5521 98.8337 46.3956 98.9904C46.2391 99.1473 46.0826 99.3827 46.0045 99.618C45.848 99.8532 45.848 100.089 45.7697 100.402C45.6915 100.638 45.6915 100.951 45.6915 101.187C45.6915 101.5 45.7697 101.657 45.848 101.893C45.9262 102.128 46.0826 102.285 46.2391 102.442C46.3956 102.599 46.6303 102.755 46.9433 102.755C47.2563 102.755 47.4909 102.755 47.7257 102.677Z" fill="white"/>
<path d="M53.9852 98.5967L53.8287 99.4596H53.907C54.2198 99.1458 54.5328 98.9104 54.8458 98.832C55.237 98.6751 55.6283 98.6751 56.0194 98.7536C56.5671 98.832 56.9582 98.9889 57.2712 99.3027C57.5842 99.5379 57.8972 99.8517 58.0536 100.244C58.2883 100.636 58.3666 101.028 58.4448 101.42C58.5231 101.891 58.5231 102.283 58.3666 102.754C58.2883 103.225 58.1318 103.617 57.9753 104.009C57.8188 104.401 57.506 104.715 57.2712 105.029C57.0365 105.342 56.6454 105.499 56.2541 105.656C55.8629 105.813 55.3935 105.813 54.9241 105.735C54.5328 105.656 54.1417 105.499 53.8287 105.264C53.5157 105.029 53.2811 104.715 53.1246 104.401H53.0464L52.5769 107.46L50.7773 107.147L52.1858 98.3613L53.9852 98.5967ZM55.4718 104.087C55.7064 104.009 55.8629 103.852 56.0194 103.695C56.1759 103.538 56.3324 103.303 56.4106 103.068C56.4889 102.832 56.5671 102.597 56.6454 102.283C56.7236 101.97 56.7236 101.734 56.7236 101.499C56.7236 101.264 56.6454 100.95 56.5671 100.793C56.4889 100.558 56.3324 100.401 56.1759 100.244C56.0194 100.087 55.7848 100.009 55.4718 99.9301C55.1588 99.8517 54.9241 99.8517 54.6893 100.009C54.4547 100.087 54.2982 100.244 54.1417 100.401C53.9852 100.558 53.8287 100.793 53.7505 101.028C53.6722 101.264 53.594 101.577 53.5157 101.813C53.4375 102.126 53.4375 102.362 53.4375 102.597C53.4375 102.832 53.5157 103.068 53.594 103.303C53.6722 103.538 53.8287 103.695 53.9852 103.852C54.2198 104.009 54.3763 104.087 54.6893 104.166C55.0023 104.166 55.237 104.166 55.4718 104.087Z" fill="white"/>
<path d="M59.6965 101.343C59.9312 100.951 60.166 100.559 60.4788 100.324C60.7918 100.01 61.1831 99.8529 61.6524 99.7745C62.1219 99.6176 62.5914 99.6176 63.0608 99.696C63.6085 99.7745 63.9996 99.9314 64.3908 100.088C64.7821 100.324 65.0949 100.559 65.4079 100.951C65.7209 101.265 65.8774 101.657 65.9556 102.128C66.112 102.598 66.112 103.069 66.0339 103.54C65.9555 104.01 65.7992 104.559 65.6427 104.951C65.4079 105.344 65.1732 105.657 64.8603 105.971C64.5473 106.285 64.1561 106.442 63.6867 106.52C63.2172 106.677 62.7479 106.677 62.2784 106.599C61.7307 106.52 61.3394 106.363 60.9483 106.206C60.5571 105.971 60.2442 105.736 59.9312 105.344C59.6182 104.951 59.4617 104.638 59.3835 104.167C59.227 103.696 59.227 103.226 59.3054 102.755C59.3835 102.284 59.4617 101.735 59.6965 101.343ZM61.0266 103.697C61.1048 103.932 61.1048 104.167 61.1831 104.402C61.2613 104.638 61.4178 104.795 61.6524 104.951C61.8872 105.108 62.1219 105.187 62.4349 105.265C62.7479 105.344 62.9825 105.265 63.2172 105.187C63.452 105.108 63.6085 104.951 63.765 104.795C63.9215 104.559 64.0778 104.402 64.1561 104.167C64.2343 103.932 64.3126 103.697 64.3126 103.383C64.3908 103.069 64.3908 102.834 64.3126 102.598C64.2343 102.363 64.2343 102.128 64.1561 101.892C64.0778 101.657 63.9215 101.5 63.6867 101.343C63.452 101.186 63.2172 101.108 62.9044 101.03C62.5914 100.951 62.3566 101.029 62.1219 101.108C61.8872 101.186 61.7307 101.343 61.5743 101.5C61.4178 101.735 61.3394 101.892 61.1831 102.128C61.1048 102.363 61.0266 102.677 61.0266 102.912C61.0266 103.226 61.0266 103.461 61.0266 103.697Z" fill="white"/>
<path d="M69.2417 100.479L69.0853 101.735H69.1636C69.3201 101.499 69.3982 101.342 69.5547 101.185C69.7112 101.029 69.8677 100.872 70.1024 100.793C70.337 100.636 70.4935 100.558 70.7283 100.558C70.963 100.558 71.1978 100.479 71.4325 100.479C71.589 100.479 71.6671 100.558 71.8236 100.558L71.6671 102.205C71.589 102.127 71.4325 102.127 71.3542 102.127C71.1978 102.048 71.1195 102.048 70.963 102.048C70.65 101.97 70.337 102.048 70.1024 102.127C69.8677 102.205 69.6329 102.362 69.4764 102.519C69.3201 102.676 69.1636 102.911 69.0853 103.146C69.0071 103.382 68.9288 103.695 68.9288 104.009L68.6941 106.911L66.8945 106.755L67.4423 100.244L69.2417 100.479Z" fill="white"/>
<path d="M75.9691 101.029L75.891 102.205L74.5609 102.127L74.3262 105.343C74.3262 105.657 74.4044 105.892 74.4827 105.97C74.5609 106.127 74.7955 106.127 75.1085 106.206C75.265 106.206 75.3433 106.206 75.4215 106.206C75.4998 106.206 75.6563 106.206 75.7345 106.127L75.6563 107.539C75.4998 107.539 75.3433 107.617 75.1085 107.539C74.8739 107.539 74.7174 107.539 74.5609 107.461C74.2479 107.461 74.0132 107.382 73.7786 107.304C73.5438 107.225 73.3091 107.147 73.1526 106.99C72.9178 106.833 72.8396 106.676 72.6831 106.519C72.5266 106.284 72.5266 106.049 72.5266 105.735L72.7615 101.891L71.666 101.813L71.7443 100.636L72.8396 100.715L72.9961 98.7539L74.7957 98.9108L74.6392 100.872L75.9691 101.029Z" fill="white"/>
<path d="M78.6301 101.108L78.3172 107.618L76.5176 107.54L76.8306 101.03L78.6301 101.108ZM76.9087 100.01L76.9871 98.5195L78.7865 98.598L78.7083 100.088L76.9087 100.01Z" fill="white"/>
<path d="M81.7586 101.186V102.127H81.8369C82.0716 101.735 82.3846 101.5 82.7757 101.265C83.1669 101.108 83.5582 101.029 83.8712 101.029C84.3405 101.029 84.7318 101.108 85.0446 101.265C85.3576 101.421 85.5924 101.578 85.7489 101.814C85.9054 102.049 86.0617 102.363 86.14 102.676C86.2182 102.99 86.2965 103.383 86.2182 103.775L86.14 107.775H84.3405L84.4188 104.088C84.4188 103.539 84.3405 103.147 84.184 102.833C84.0276 102.52 83.7147 102.441 83.2452 102.441C82.7757 102.441 82.3846 102.598 82.1499 102.912C81.9151 103.226 81.7586 103.696 81.7586 104.324L81.6804 107.775H79.8809L79.9592 101.265L81.7586 101.186Z" fill="white"/>
<path d="M93.8083 108.009C93.7301 108.402 93.5736 108.715 93.3388 108.951C93.1042 109.264 92.7912 109.5 92.3217 109.735C91.8524 109.97 91.3046 110.127 90.5223 110.127C90.2093 110.127 89.8963 110.127 89.5052 110.049C89.1922 109.97 88.8792 109.813 88.5662 109.656C88.2534 109.5 88.0186 109.264 87.8621 109.029C87.6274 108.715 87.5491 108.402 87.4709 108.088L89.2704 108.009C89.3487 108.323 89.5833 108.558 89.8182 108.715C90.0528 108.872 90.3658 108.951 90.6788 108.872C91.2264 108.872 91.5394 108.637 91.7741 108.402C92.0087 108.088 92.0871 107.696 92.0871 107.225L92.0087 106.362H92.1652C91.9306 106.754 91.6959 106.99 91.3829 107.147C90.9918 107.303 90.6788 107.46 90.2875 107.46C89.8182 107.46 89.3487 107.382 89.0357 107.225C88.6446 107.068 88.3316 106.833 88.0969 106.519C87.8621 106.205 87.7056 105.891 87.5491 105.499C87.3926 105.107 87.3145 104.636 87.3145 104.244C87.3145 103.774 87.3926 103.381 87.4709 102.989C87.6274 102.597 87.7839 102.205 88.0186 101.891C88.2533 101.577 88.5662 101.342 88.8792 101.107C89.1922 100.871 89.6617 100.793 90.0528 100.793C90.5223 100.793 90.8353 100.871 91.2264 101.028C91.5394 101.185 91.8524 101.42 92.0871 101.813H92.1652L92.0871 100.95L93.8083 100.871L94.043 106.99C93.8865 107.382 93.8865 107.696 93.8083 108.009ZM91.3046 105.97C91.5394 105.813 91.6959 105.735 91.7741 105.499C91.9306 105.342 92.0087 105.107 92.0871 104.872C92.1652 104.636 92.1652 104.401 92.1652 104.166C92.1652 103.852 92.0871 103.617 92.0087 103.381C91.9306 103.146 91.8524 102.911 91.6959 102.754C91.5394 102.519 91.3829 102.44 91.2264 102.283C90.9918 102.126 90.757 102.126 90.444 102.126C90.2093 102.126 89.9747 102.205 89.8182 102.283C89.6617 102.44 89.5052 102.519 89.3487 102.754C89.1922 102.989 89.114 103.146 89.114 103.381C89.0357 103.617 89.0357 103.852 89.0357 104.087C89.0357 104.323 89.114 104.558 89.114 104.793C89.1922 105.029 89.2704 105.264 89.4269 105.421C89.5833 105.656 89.7398 105.735 89.8963 105.891C90.131 106.048 90.3658 106.048 90.6005 106.048C90.9134 106.127 91.0699 106.048 91.3046 105.97Z" fill="white"/>
<path d="M102.57 97.814C103.118 97.7355 103.666 97.814 104.057 97.9709C104.448 98.1278 104.839 98.2847 105.074 98.52C105.309 98.7552 105.543 99.069 105.7 99.3828C105.856 99.6966 105.935 100.089 106.013 100.481C106.091 100.873 106.013 101.187 105.935 101.579C105.856 101.971 105.7 102.285 105.465 102.599C105.23 102.913 104.917 103.148 104.526 103.383C104.135 103.619 103.666 103.697 103.118 103.775L101.006 104.011L101.318 107.227L99.3626 107.462L98.502 98.4416L102.57 97.814ZM102.492 102.128C102.727 102.05 102.962 102.05 103.118 101.971C103.353 101.893 103.509 101.814 103.666 101.736C103.822 101.579 103.979 101.422 104.057 101.265C104.135 101.03 104.213 100.795 104.135 100.559C104.057 100.246 104.057 100.01 103.901 99.8534C103.744 99.6966 103.666 99.5397 103.431 99.4611C103.275 99.3828 103.04 99.3044 102.883 99.3044C102.649 99.3044 102.414 99.3044 102.179 99.3044L100.614 99.4611L100.849 102.128H102.492Z" fill="white"/>
<path d="M107.265 100.793C107.422 100.48 107.656 100.244 107.891 100.009C108.204 99.7737 108.439 99.6168 108.83 99.5384C109.221 99.3815 109.534 99.3031 109.926 99.3031C110.238 99.2246 110.63 99.2246 110.943 99.2246C111.334 99.2246 111.647 99.3031 111.881 99.3815C112.194 99.4599 112.429 99.6168 112.664 99.8522C112.899 100.087 113.055 100.401 113.055 100.793L113.525 104.166C113.603 104.48 113.603 104.715 113.681 105.029C113.759 105.343 113.837 105.5 113.994 105.657L112.194 105.892C112.116 105.814 112.116 105.657 112.038 105.578C111.96 105.421 111.96 105.343 111.96 105.264C111.725 105.578 111.412 105.892 111.021 106.049C110.63 106.206 110.238 106.363 109.847 106.441C109.534 106.52 109.221 106.52 108.987 106.441C108.674 106.363 108.439 106.284 108.204 106.206C107.969 106.049 107.813 105.892 107.656 105.657C107.5 105.421 107.422 105.107 107.344 104.794C107.265 104.402 107.265 104.088 107.422 103.853C107.5 103.617 107.656 103.382 107.891 103.225C108.126 103.068 108.282 102.911 108.595 102.754C108.83 102.598 109.143 102.519 109.378 102.441C109.613 102.362 109.926 102.284 110.16 102.205C110.395 102.127 110.63 102.049 110.864 101.97C111.099 101.892 111.256 101.813 111.334 101.656C111.49 101.499 111.49 101.342 111.49 101.186C111.412 100.95 111.412 100.793 111.334 100.715C111.256 100.636 111.177 100.48 111.021 100.48C110.864 100.401 110.786 100.401 110.63 100.401C110.473 100.401 110.317 100.401 110.16 100.48C109.769 100.558 109.534 100.636 109.378 100.872C109.143 101.029 109.065 101.342 109.143 101.656L107.344 101.892C107.109 101.499 107.109 101.107 107.265 100.793ZM111.177 102.833C111.021 102.911 110.943 102.99 110.786 102.99C110.63 103.068 110.473 103.068 110.395 103.147C110.238 103.225 110.082 103.225 109.926 103.303C109.769 103.382 109.613 103.382 109.534 103.46C109.378 103.539 109.3 103.617 109.221 103.696C109.143 103.774 109.065 103.931 108.987 104.009C108.908 104.166 108.908 104.323 108.908 104.48C108.987 104.637 108.987 104.794 109.065 104.872C109.143 105.029 109.221 105.029 109.378 105.107C109.534 105.186 109.613 105.186 109.769 105.186C109.926 105.186 110.082 105.186 110.238 105.186C110.63 105.108 110.864 105.029 111.021 104.872C111.177 104.715 111.334 104.558 111.412 104.402C111.49 104.245 111.568 104.009 111.568 103.853C111.568 103.696 111.568 103.539 111.49 103.46L111.412 102.754C111.334 102.754 111.256 102.754 111.177 102.833Z" fill="white"/>
<path d="M115.715 98.5985L115.95 99.7751H116.028C116.107 99.5396 116.185 99.3044 116.263 99.1475C116.42 98.9122 116.498 98.7553 116.654 98.5985C116.811 98.4416 117.045 98.2847 117.202 98.2063C117.358 98.1278 117.593 98.0494 117.828 97.9709C117.984 97.8925 118.062 97.8925 118.219 97.9709L118.532 99.6182C118.454 99.6182 118.297 99.6182 118.219 99.6182C118.062 99.6182 117.984 99.6965 117.828 99.6965C117.515 99.7751 117.202 99.8534 117.045 100.01C116.811 100.167 116.654 100.324 116.576 100.559C116.498 100.795 116.42 101.03 116.341 101.265C116.341 101.579 116.341 101.814 116.42 102.128L116.889 105.03L115.089 105.344L113.994 98.9122L115.715 98.5985Z" fill="white"/>
<path d="M122.365 97.3428L122.6 98.5195L121.27 98.7547L121.896 101.892C121.974 102.206 122.052 102.363 122.209 102.441C122.365 102.52 122.522 102.52 122.835 102.52C122.991 102.52 123.07 102.441 123.148 102.441C123.226 102.363 123.304 102.363 123.383 102.363L123.695 103.775C123.539 103.853 123.383 103.932 123.226 103.932C122.991 104.01 122.835 104.01 122.678 104.089C122.365 104.167 122.131 104.167 121.896 104.167C121.661 104.167 121.427 104.167 121.192 104.089C120.957 104.01 120.801 103.853 120.644 103.696C120.488 103.54 120.409 103.226 120.331 102.912L119.549 99.1469L118.453 99.3821L118.219 98.2057L119.314 97.9703L118.923 96.0093L120.722 95.6172L121.114 97.5781L122.365 97.3428Z" fill="white"/>
<path d="M124.869 96.7929L125.104 97.6558H125.182C125.339 97.1852 125.574 96.8714 125.887 96.636C126.2 96.4008 126.591 96.1655 126.904 96.087C127.373 95.9301 127.764 95.9301 128.077 96.0086C128.39 96.087 128.703 96.2439 128.938 96.4008C129.173 96.636 129.329 96.8714 129.486 97.1852C129.642 97.4989 129.798 97.8912 129.877 98.2833L130.815 102.205L129.094 102.597L128.234 98.9893C128.077 98.4402 127.921 98.0481 127.686 97.8912C127.451 97.6557 127.138 97.5774 126.747 97.6558C126.278 97.8126 125.965 97.9695 125.808 98.3617C125.652 98.6755 125.652 99.2247 125.808 99.8521L126.591 103.225L124.869 103.617L123.383 97.2636L124.869 96.7929Z" fill="white"/>
<path d="M133.633 99.7744C133.946 100.01 134.415 100.01 134.885 99.8528C135.276 99.7744 135.511 99.539 135.745 99.3037C135.98 99.0685 136.058 98.833 136.058 98.5978L137.623 98.1271C137.545 98.9899 137.31 99.6175 136.919 100.088C136.45 100.559 135.902 100.872 135.198 101.108C134.65 101.265 134.259 101.265 133.789 101.265C133.32 101.186 132.929 101.029 132.616 100.872C132.225 100.637 131.912 100.323 131.677 100.01C131.364 99.6175 131.208 99.2252 131.051 98.7547C130.895 98.284 130.895 97.8133 130.895 97.3427C130.973 96.8721 131.051 96.4798 131.286 96.0877C131.52 95.6955 131.755 95.3817 132.146 95.068C132.538 94.7542 132.929 94.5973 133.398 94.4404C133.946 94.2837 134.415 94.2837 134.885 94.362C135.354 94.4405 135.745 94.6758 136.137 94.9111C136.528 95.2249 136.763 95.5386 136.997 95.9308C137.232 96.4015 137.388 96.7936 137.545 97.3427L133.007 98.5978C133.007 99.2252 133.32 99.6175 133.633 99.7744ZM134.65 95.9308C134.337 95.7739 134.024 95.6955 133.633 95.8524C133.32 95.9308 133.164 96.0877 133.007 96.1662C132.851 96.3231 132.694 96.4798 132.616 96.6367C132.538 96.7936 132.459 97.029 132.459 97.1859C132.459 97.3427 132.459 97.4995 132.538 97.6564L135.354 96.8721C135.119 96.4015 134.885 96.0877 134.65 95.9308Z" fill="white"/>
<path d="M139.032 93.0288L139.423 94.2055H139.501C139.579 93.9702 139.579 93.7348 139.657 93.5779C139.736 93.3426 139.892 93.1857 140.049 93.0288C140.205 92.872 140.362 92.7151 140.518 92.5582C140.753 92.4013 140.909 92.3229 141.144 92.2445C141.3 92.166 141.379 92.166 141.535 92.166L142.083 93.7348C142.005 93.7348 141.848 93.8133 141.77 93.8133C141.613 93.8133 141.535 93.8917 141.457 93.8917C141.144 93.9702 140.909 94.1271 140.675 94.2838C140.44 94.4407 140.362 94.6761 140.283 94.9114C140.205 95.1466 140.127 95.3821 140.205 95.6173C140.205 95.9311 140.283 96.1664 140.362 96.4802L141.222 99.304L139.501 99.8531L137.545 93.5779L139.032 93.0288Z" fill="white"/>
<path d="M33.4072 36.9452C33.7984 36.3961 34.1895 36.004 34.659 35.6118C35.1284 35.2195 35.6761 35.0626 36.2237 34.9057C36.7715 34.749 37.3973 34.8274 38.0233 34.9843C38.6491 35.1412 39.2751 35.4549 39.9792 35.9255C40.6052 36.3178 41.0747 36.7883 41.4658 37.259C41.857 37.7296 42.1699 38.2787 42.3264 38.8277C42.4829 39.3769 42.5611 39.926 42.4046 40.5534C42.2483 41.1809 42.0134 41.8085 41.6223 42.3575L39.2751 45.8088L31.2165 40.3181C31.06 40.475 33.4072 36.9452 33.4072 36.9452ZM39.901 41.4947C40.0575 41.2595 40.214 40.9457 40.2922 40.6319C40.3705 40.3181 40.3705 40.0043 40.3705 39.6905C40.2922 39.3769 40.1357 39.0631 39.901 38.7493C39.6662 38.4356 39.3534 38.1218 38.8839 37.808C38.4928 37.4944 38.1015 37.3375 37.7103 37.1806C37.3192 37.0237 36.9279 36.9452 36.615 36.9452C36.2237 37.0237 35.9108 37.1021 35.5979 37.3375C35.2849 37.5727 34.972 37.8865 34.659 38.3572L33.7984 39.6122L38.8839 43.0635L39.901 41.4947Z" fill="black"/>
<path d="M40.6834 32.0032L41.7005 32.866V32.7877C41.544 32.5524 41.544 32.317 41.4659 32.0817C41.3876 31.8463 41.3876 31.6111 41.4659 31.3758C41.544 31.1404 41.6224 30.9051 41.7005 30.6699C41.7789 30.4345 41.9353 30.1992 42.0918 30.0423C42.17 29.9638 42.3265 29.807 42.4047 29.7285L43.7348 30.9835C43.6566 31.062 43.5783 31.1404 43.5001 31.2189C43.4218 31.2973 43.2653 31.3758 43.1871 31.5327C42.9525 31.8463 42.796 32.0817 42.7176 32.317C42.6395 32.6308 42.6395 32.866 42.6395 33.1014C42.7176 33.3367 42.796 33.572 42.9525 33.8074C43.109 34.0426 43.3436 34.2781 43.5783 34.5133L45.9255 36.6311L44.6737 38.0431L39.4316 33.3367L40.6834 32.0032Z" fill="black"/>
<path d="M51.637 31.2197L51.0111 30.4354L50.9329 30.5138C51.0111 30.9844 51.0111 31.4551 50.7764 31.8473C50.6199 32.2394 50.3069 32.5532 50.0723 32.867C49.6811 33.2591 49.2898 33.416 48.9768 33.5729C48.5857 33.7298 48.2727 33.7298 47.9599 33.6514C47.6469 33.5729 47.3339 33.416 47.0209 33.1808C46.7079 32.9453 46.3949 32.6317 46.1603 32.3179L43.3438 29.0235L44.8302 27.7684L47.4121 30.7492C47.8034 31.2197 48.1945 31.4551 48.5075 31.5335C48.8205 31.612 49.2116 31.5335 49.5246 31.2197C49.9158 30.8275 50.1504 30.5138 50.0723 30.1216C49.9939 29.7294 49.7593 29.2588 49.2898 28.7097L46.8644 25.8858L48.351 24.6309L52.9671 29.9647C53.0453 29.9647 51.637 31.2197 51.637 31.2197Z" fill="black"/>
<path d="M51.7151 22.2763L52.1844 23.0606H52.2627C52.2627 22.59 52.4192 22.1978 52.5757 21.884C52.7321 21.5702 53.1234 21.2566 53.4364 21.0212C53.9057 20.7074 54.3751 20.5505 54.8446 20.4721C55.3141 20.3938 55.7052 20.4721 56.1747 20.629C56.5659 20.7859 56.957 21.0212 57.3482 21.335C57.7395 21.6488 58.0525 22.0409 58.2871 22.4331C58.5218 22.8254 58.7566 23.296 58.8348 23.6882C58.9913 24.1589 58.9913 24.551 58.9913 25.0217C58.9131 25.4922 58.8348 25.8845 58.6001 26.1981C58.3653 26.5905 58.0525 26.9042 57.583 27.2179C57.1918 27.4533 56.8005 27.6102 56.4094 27.6885C56.0182 27.7671 55.6269 27.6885 55.2358 27.5316H55.1576L56.957 30.3555L55.3141 31.3753L50.2285 23.296L51.7151 22.2763ZM56.8789 25.7276C57.0353 25.4922 57.0353 25.257 57.0353 25.0217C57.0353 24.7863 56.957 24.4725 56.8789 24.2372C56.7224 23.9235 56.644 23.6882 56.4876 23.4528C56.3312 23.2175 56.1747 22.9823 55.9399 22.7468C55.7052 22.5116 55.5488 22.3547 55.3141 22.2763C55.0793 22.1978 54.8446 22.1194 54.6098 22.1194C54.3752 22.1194 54.0622 22.1978 53.8275 22.3547C53.5145 22.5116 53.358 22.7468 53.2799 22.9823C53.1234 23.2175 53.1234 23.4528 53.1234 23.6882C53.1234 23.9235 53.2015 24.2372 53.2799 24.4725C53.4364 24.7863 53.5145 25.0217 53.671 25.257C53.8275 25.4922 53.984 25.7276 54.2187 25.9629C54.4535 26.1981 54.6098 26.355 54.8446 26.4336C55.0793 26.5905 55.3141 26.5905 55.5488 26.5905C55.7834 26.5905 56.0964 26.5119 56.3312 26.2767C56.5659 26.1198 56.7224 25.8845 56.8789 25.7276Z" fill="black"/>
<path d="M58.6018 19.4533C58.6801 19.0611 58.8366 18.7474 58.9931 18.4336C59.2278 18.1199 59.4624 17.8845 59.7754 17.6493C60.0884 17.4139 60.4795 17.1786 60.7925 17.0217C61.1055 16.8648 61.4967 16.7079 61.8096 16.6295C62.2008 16.4727 62.5138 16.4727 62.8268 16.4727C63.1397 16.4727 63.4527 16.551 63.7656 16.7079C64.0785 16.8648 64.3133 17.1786 64.4698 17.5707L65.9563 20.9437C66.1128 21.2575 66.2693 21.4927 66.4257 21.8065C66.5822 22.0418 66.7387 22.2772 66.8952 22.3555L65.0957 23.14C64.861 23.14 64.7827 23.0615 64.7827 22.9046C64.7045 22.8262 64.6263 22.6693 64.548 22.591C64.3915 23.0615 64.1569 23.3753 63.8439 23.689C63.5309 24.0028 63.1397 24.2381 62.7486 24.395C62.4356 24.5519 62.1226 24.6302 61.8096 24.7088C61.4967 24.7871 61.1837 24.7871 60.949 24.6302C60.636 24.5519 60.4014 24.395 60.1666 24.2381C59.9319 24.0028 59.7754 23.7674 59.6189 23.4538C59.4624 23.0615 59.3843 22.7477 59.3843 22.4341C59.4624 22.1203 59.5408 21.8849 59.6189 21.6496C59.7754 21.4144 59.9319 21.1789 60.1666 21.022C60.4014 20.7868 60.636 20.6299 60.8708 20.473C61.1055 20.3161 61.4185 20.1592 61.6532 20.0023C61.888 19.8456 62.1226 19.6887 62.2791 19.5318C62.4356 19.3749 62.5921 19.218 62.6703 19.0611C62.7486 18.9042 62.7486 18.7474 62.5921 18.5905C62.5138 18.3552 62.3573 18.2767 62.2791 18.1983C62.1226 18.1199 62.0443 18.0414 61.888 18.0414C61.7315 18.0414 61.575 18.0414 61.4185 18.1198C61.262 18.1983 61.1055 18.1983 60.949 18.2767C60.5579 18.4336 60.3231 18.669 60.2449 18.9042C60.0884 19.1395 60.0884 19.4533 60.2449 19.8456L58.4453 20.6299C58.6018 20.2377 58.5236 19.8456 58.6018 19.4533ZM63.2179 20.3946C63.1397 20.473 62.9832 20.5515 62.9049 20.6299C62.7486 20.7084 62.6703 20.7868 62.5138 20.8653C62.3573 20.9437 62.2008 21.022 62.1226 21.1006C62.0443 21.1789 61.888 21.2575 61.7315 21.4144C61.575 21.5712 61.4967 21.6496 61.4185 21.7281C61.3402 21.8849 61.262 21.9634 61.262 22.1203C61.262 22.2772 61.3402 22.4341 61.3402 22.591C61.4185 22.7477 61.4967 22.9046 61.6532 22.9831C61.8096 23.0615 61.888 23.14 62.0443 23.14C62.2008 23.14 62.3573 23.14 62.4356 23.0615C62.5921 22.9831 62.7486 22.9831 62.9049 22.9046C63.2962 22.7479 63.5309 22.591 63.6874 22.3555C63.8439 22.1203 63.922 21.9634 63.922 21.7281C63.922 21.4927 63.922 21.3358 63.8439 21.1789C63.7657 21.022 63.6874 20.8653 63.6874 20.7868L63.3744 20.0809C63.3744 20.2377 63.2962 20.3161 63.2179 20.3946Z" fill="black"/>
<path d="M66.659 12.2363L69.6322 21.5706L67.7544 22.1981L64.7812 12.8638L66.659 12.2363Z" fill="black"/>
<path d="M78.1608 9.88281L83.0118 19.1386L80.821 19.4524L79.8039 17.4129L76.2049 17.8836L75.7354 20.0799L73.623 20.3937L76.0484 10.1966L78.1608 9.88281ZM79.0215 15.8442L77.3785 12.4713H77.3002L76.5179 16.158C76.5961 16.158 79.0215 15.8442 79.0215 15.8442Z" fill="black"/>
<path d="M85.0462 17.4913C85.1244 17.6482 85.2809 17.8051 85.3592 17.8836C85.5157 18.0404 85.6722 18.0404 85.8286 18.1189C85.985 18.1973 86.2198 18.1973 86.3763 18.1973C86.5328 18.1973 86.6893 18.1973 86.8456 18.1189C87.0021 18.0404 87.1586 18.0404 87.2369 17.962C87.3934 17.8836 87.4716 17.8051 87.5499 17.6482C87.6281 17.4913 87.7064 17.413 87.7064 17.1776C87.7064 16.8639 87.4716 16.6285 87.1586 16.4716C86.7674 16.3147 86.2198 16.1578 85.5157 16.0011C85.2027 15.9226 84.968 15.8442 84.655 15.7657C84.3421 15.6873 84.1072 15.5304 83.9509 15.3735C83.7161 15.2166 83.5596 15.0598 83.4814 14.8244C83.3249 14.5891 83.2466 14.3538 83.3249 14.04C83.3249 13.5694 83.4814 13.1772 83.6379 12.9419C83.8726 12.6281 84.1072 12.3928 84.3421 12.2359C84.655 12.0791 84.968 11.9222 85.3592 11.9222C85.7503 11.8437 86.1415 11.8438 86.4545 11.8438C86.8456 11.8438 87.2369 11.9222 87.5499 12.0006C87.941 12.0791 88.254 12.2359 88.4887 12.3928C88.8017 12.6281 89.0363 12.8635 89.1928 13.0988C89.4276 13.4125 89.5058 13.8047 89.5058 14.1969L87.6281 14.1185C87.6281 13.7263 87.4716 13.491 87.2369 13.3341C87.0021 13.1772 86.6893 13.0988 86.298 13.0988C86.1415 13.0988 86.0633 13.0988 85.9068 13.0988C85.7503 13.0988 85.6722 13.1772 85.5157 13.1772C85.3592 13.2557 85.2809 13.3341 85.2027 13.4125C85.1244 13.491 85.0462 13.6478 85.0462 13.8047C85.0462 13.9616 85.1244 14.1185 85.2809 14.2754C85.4373 14.4322 85.5938 14.5107 85.7503 14.5891C85.985 14.6676 86.2198 14.746 86.4545 14.8244C86.7674 14.9029 87.0021 14.9813 87.2369 15.0598C87.5499 15.1382 87.7846 15.2166 88.0975 15.295C88.4105 15.3735 88.6452 15.5304 88.8017 15.6873C89.0363 15.8442 89.1928 16.0795 89.2712 16.3147C89.4276 16.5501 89.5058 16.8639 89.4276 17.1776C89.4276 17.6482 89.2712 18.0404 89.1147 18.3542C88.8798 18.6679 88.6452 18.9034 88.3322 19.1386C88.0192 19.3739 87.6281 19.4524 87.3151 19.5308C86.9239 19.6093 86.5328 19.6093 86.1415 19.6093C85.7503 19.6093 85.3592 19.5308 84.968 19.4524C84.5767 19.3739 84.1856 19.217 83.9509 18.9817C83.6379 18.7465 83.4031 18.5111 83.1685 18.1973C82.9338 17.8836 82.8555 17.4913 82.8555 17.0208L84.7332 17.0992C84.8897 17.1776 84.968 17.3344 85.0462 17.4913Z" fill="black"/>
<path d="M92.2442 18.0408C92.3223 18.1977 92.4007 18.3546 92.5571 18.5115C92.7136 18.6684 92.8701 18.7468 93.0265 18.8253C93.183 18.9037 93.4178 18.9822 93.5743 18.9822C93.7308 19.0606 93.8872 19.0606 94.0436 19.0606C94.2001 19.0606 94.3566 18.9822 94.5131 18.9822C94.6695 18.9037 94.7479 18.8253 94.9042 18.7468C95.0607 18.5899 95.0607 18.5115 95.139 18.3546C95.2172 18.0408 94.9825 17.8056 94.6695 17.5703C94.2784 17.3349 93.8089 17.0997 93.1048 16.8642C92.7918 16.7073 92.5571 16.629 92.3223 16.4721C92.0877 16.3152 91.853 16.1583 91.6182 16.0014C91.3835 15.8445 91.3052 15.6093 91.1487 15.374C91.0706 15.1386 90.9924 14.8249 91.0706 14.5896C91.1489 14.1189 91.3052 13.8052 91.54 13.4914C91.7747 13.1777 92.0095 13.0208 92.3223 12.9423C92.6353 12.8639 93.0265 12.707 93.3394 12.707C93.7308 12.707 94.1219 12.707 94.4349 12.7855C94.826 12.8639 95.2172 12.9423 95.5302 13.0992C95.9213 13.2561 96.1561 13.413 96.4691 13.6483C96.7038 13.8836 96.9384 14.1189 97.0949 14.4327C97.2514 14.7465 97.3297 15.1386 97.2514 15.5309L95.452 15.2171C95.5302 14.8249 95.3737 14.5896 95.139 14.3543C94.9042 14.1189 94.5914 14.0405 94.2784 13.9621C94.1219 13.9621 94.0436 13.8836 93.8872 13.8836C93.7308 13.8836 93.6524 13.8836 93.4959 13.9621C93.3394 14.0405 93.2613 14.0405 93.183 14.1189C93.1048 14.1974 93.0265 14.3543 93.0265 14.4327C92.9483 14.5896 93.0266 14.7465 93.183 14.9033C93.3394 15.0602 93.4959 15.1386 93.6524 15.2955C93.8872 15.4524 94.0436 15.5309 94.3566 15.6093C94.5914 15.6878 94.9042 15.8445 95.139 15.923C95.452 16.0799 95.6867 16.1583 95.9213 16.3152C96.1561 16.4721 96.3908 16.629 96.5473 16.7859C96.7819 17.0211 96.8603 17.178 96.9384 17.4134C97.0168 17.6487 97.0949 17.9625 97.0168 18.2763C96.9384 18.7468 96.7819 19.1391 96.5473 19.3743C96.3126 19.6881 95.9996 19.845 95.6867 20.0019C95.3737 20.1588 94.9825 20.2372 94.5914 20.2372C94.2001 20.2372 93.8089 20.2372 93.4178 20.1588C93.0265 20.0803 92.6353 20.0019 92.2442 19.845C91.853 19.6881 91.54 19.5312 91.3052 19.296C90.9924 19.0606 90.8359 18.7468 90.6794 18.4332C90.5229 18.0408 90.4446 17.6487 90.5229 17.178L92.3223 17.4918C92.1658 17.6487 92.1658 17.884 92.2442 18.0408Z" fill="black"/>
<path d="M98.8171 15.8445C99.1301 15.4524 99.5213 15.1386 99.9124 14.9033C100.304 14.668 100.773 14.5111 101.243 14.5111C101.712 14.4327 102.26 14.5895 102.729 14.7464C103.277 14.9033 103.746 15.1386 104.059 15.4524C104.45 15.7662 104.763 16.1583 104.92 16.5505C105.076 16.9428 105.233 17.4133 105.311 17.884C105.389 18.3546 105.233 18.9037 105.076 19.4527C104.92 20.0018 104.685 20.4725 104.372 20.8646C104.059 21.2569 103.746 21.5707 103.277 21.806C102.886 22.0412 102.416 22.1197 101.947 22.1981C101.477 22.2766 100.93 22.1197 100.46 21.9628C99.9124 21.806 99.443 21.5707 99.1301 21.2569C98.7388 20.9431 98.4258 20.6293 98.2695 20.1587C98.0347 19.7665 97.9565 19.2958 97.8782 18.8253C97.8 18.3546 97.9565 17.8056 98.113 17.2564C98.2695 16.7074 98.5042 16.2367 98.8171 15.8445ZM99.7559 18.6684C99.6778 18.9821 99.7559 19.2175 99.8343 19.4527C99.9124 19.6881 100.069 19.9234 100.225 20.0803C100.382 20.3156 100.617 20.3941 100.93 20.551C101.243 20.6293 101.556 20.7079 101.79 20.6293C102.025 20.551 102.26 20.4725 102.494 20.3156C102.729 20.1587 102.886 19.9234 102.964 19.6881C103.12 19.4527 103.198 19.139 103.277 18.9037C103.355 18.5899 103.433 18.3546 103.433 18.0409C103.433 17.7271 103.433 17.4918 103.355 17.2564C103.277 17.0211 103.12 16.7859 102.964 16.629C102.807 16.4721 102.494 16.2367 102.26 16.1583C101.947 16.08 101.634 16.0014 101.399 16.08C101.164 16.1583 100.93 16.2367 100.695 16.3936C100.46 16.5505 100.304 16.7859 100.225 17.0211C100.069 17.2564 99.9907 17.5702 99.9124 17.8056C99.8343 18.0409 99.7559 18.3546 99.7559 18.6684Z" fill="black"/>
<path d="M110.395 19.4533C110.082 19.2964 109.847 19.218 109.613 19.2964C109.378 19.3749 109.143 19.4533 108.908 19.6102C108.674 19.7671 108.517 19.924 108.283 20.1592C108.126 20.3946 107.97 20.6299 107.813 20.8652C107.657 21.1006 107.579 21.3358 107.5 21.6496C107.422 21.9634 107.422 22.1987 107.422 22.4339C107.422 22.6693 107.5 22.9046 107.657 23.14C107.813 23.3753 107.97 23.5322 108.283 23.689C108.752 23.9243 109.065 23.9243 109.456 23.8459C109.847 23.7674 110.082 23.4536 110.317 23.0615L112.038 23.9243C111.49 24.7088 110.865 25.1793 110.082 25.4147C109.3 25.65 108.517 25.4931 107.657 25.0225C107.187 24.7871 106.796 24.4733 106.483 24.1597C106.17 23.7674 105.935 23.3753 105.779 22.9831C105.622 22.5124 105.544 22.1203 105.622 21.6496C105.701 21.1789 105.779 20.7083 106.014 20.2377C106.248 19.7671 106.561 19.2964 106.874 18.9826C107.266 18.5905 107.657 18.3552 108.048 18.1983C108.517 18.0414 108.909 17.9629 109.456 17.9629C109.926 18.0414 110.473 18.1198 110.943 18.3552C111.334 18.5905 111.647 18.7473 111.96 19.0611C112.273 19.3749 112.508 19.6102 112.664 20.0023C112.82 20.3161 112.977 20.7083 112.977 21.1006C113.055 21.4927 112.899 21.8849 112.742 22.3555L111.021 21.4927C111.412 20.3161 111.178 19.7671 110.395 19.4533Z" fill="black"/>
<path d="M116.967 21.6496L113.29 27.6894L111.646 26.6697L115.324 20.6299C115.402 20.6299 116.967 21.6496 116.967 21.6496ZM115.95 19.7671L116.81 18.4336L118.453 19.4533L117.593 20.7868L115.95 19.7671Z" fill="black"/>
<path d="M118.298 23.7663C118.689 23.6094 119.002 23.6094 119.393 23.6094C119.785 23.6094 120.098 23.7663 120.489 23.9232C120.88 24.08 121.193 24.3153 121.506 24.5506C121.819 24.786 122.054 25.0212 122.288 25.2567C122.523 25.5703 122.758 25.8057 122.914 26.1195C123.071 26.4331 123.149 26.7469 123.149 27.0607C123.149 27.3745 122.992 27.7666 122.758 28.0804L120.332 30.9827C120.098 31.2179 119.941 31.5317 119.785 31.7671C119.628 32.0024 119.55 32.2376 119.55 32.3945L117.985 31.2179C118.063 31.061 118.063 30.9827 118.142 30.9043C118.22 30.7474 118.298 30.6689 118.298 30.5905C117.829 30.6689 117.438 30.5905 117.046 30.4336C116.655 30.2767 116.264 30.0415 115.873 29.806C115.56 29.5708 115.403 29.3354 115.169 29.1001C114.934 28.8649 114.856 28.5511 114.777 28.3157C114.699 28.002 114.699 27.7666 114.777 27.4528C114.856 27.1392 115.012 26.9038 115.247 26.59C115.482 26.2764 115.794 26.041 116.029 25.8841C116.342 25.7272 116.577 25.7272 116.89 25.7272C117.203 25.7272 117.438 25.8057 117.751 25.9626C118.063 26.1195 118.298 26.1979 118.533 26.3547C118.846 26.5116 119.081 26.6685 119.315 26.8254C119.55 26.9823 119.785 27.1392 120.019 27.2176C120.254 27.2961 120.411 27.3745 120.567 27.3745C120.724 27.3745 120.88 27.2959 121.037 27.1392C121.193 26.9823 121.271 26.8254 121.271 26.6685C121.35 26.5116 121.271 26.3547 121.193 26.2764C121.115 26.1195 121.037 26.041 120.958 25.8841C120.802 25.7272 120.724 25.6488 120.567 25.5703C120.254 25.335 119.941 25.1781 119.706 25.1781C119.472 25.1781 119.159 25.335 118.924 25.5703L117.359 24.3938C117.594 24.08 117.907 23.8446 118.298 23.7663ZM119.628 28.2373C119.472 28.1589 119.393 28.1589 119.237 28.0804C119.081 28.002 118.924 27.9235 118.846 27.8451C118.689 27.7666 118.533 27.6882 118.455 27.6097C118.298 27.5314 118.142 27.4528 118.063 27.4528C117.907 27.3745 117.751 27.3745 117.672 27.3745C117.516 27.3745 117.438 27.4528 117.281 27.4528C117.125 27.5314 117.046 27.6097 116.89 27.7666C116.733 27.9235 116.733 28.0804 116.655 28.1589C116.577 28.3157 116.655 28.4726 116.733 28.5511C116.812 28.708 116.89 28.7863 116.968 28.9432C117.046 29.1001 117.203 29.1785 117.281 29.257C117.594 29.4923 117.907 29.6492 118.142 29.6492C118.376 29.7277 118.611 29.6492 118.768 29.5708C119.002 29.4923 119.159 29.3354 119.237 29.257C119.393 29.1001 119.472 29.0217 119.55 28.9432L120.019 28.3942C119.863 28.3157 119.785 28.3157 119.628 28.2373Z" fill="black"/>
<path d="M127.998 30.7479L127.06 31.6891L126.042 30.6694L123.617 33.1795C123.382 33.4148 123.226 33.6502 123.226 33.8069C123.226 33.9638 123.382 34.1992 123.617 34.4345C123.695 34.513 123.774 34.5914 123.852 34.6699C123.93 34.7483 124.008 34.8266 124.086 34.8266L122.991 35.9249C122.835 35.8463 122.678 35.6894 122.522 35.5327C122.365 35.3758 122.209 35.2189 122.052 35.1404C121.817 34.9051 121.661 34.6699 121.504 34.513C121.348 34.2776 121.192 34.0423 121.113 33.8069C121.035 33.5716 121.035 33.3364 121.113 33.101C121.192 32.8657 121.348 32.6304 121.583 32.3167L124.478 29.3359L123.617 28.4731L124.556 27.5319L125.416 28.3947L126.903 26.9043L128.311 28.2378L126.825 29.7282L127.998 30.7479Z" fill="black"/>
<path d="M130.111 33.2575L124.791 37.9637L123.539 36.4733L128.859 31.7671L130.111 33.2575ZM129.72 31.0611L130.894 29.9629L132.145 31.4533L130.972 32.5514L129.72 31.0611Z" fill="black"/>
<path d="M129.878 35.9249C130.348 35.768 130.817 35.768 131.286 35.8465C131.756 35.9249 132.147 36.0818 132.538 36.3956C132.929 36.7093 133.321 37.0231 133.634 37.4938C133.947 37.9643 134.181 38.435 134.26 38.9057C134.338 39.3762 134.416 39.8469 134.338 40.3175C134.26 40.7882 134.025 41.1804 133.79 41.5725C133.477 41.9648 133.164 42.357 132.695 42.6708C132.225 42.9845 131.756 43.2198 131.286 43.3767C130.817 43.5336 130.348 43.5336 129.878 43.4551C129.409 43.3767 129.017 43.2198 128.626 42.906C128.235 42.5922 127.844 42.2784 127.531 41.8079C127.218 41.3373 126.983 40.8666 126.905 40.3959C126.749 39.9254 126.749 39.4547 126.827 38.984C126.905 38.5134 127.14 38.1212 127.375 37.7291C127.687 37.3369 128 36.9446 128.47 36.6308C128.939 36.3172 129.409 36.0818 129.878 35.9249ZM129.017 38.7488C128.783 38.984 128.704 39.2194 128.548 39.3762C128.391 39.6116 128.391 39.8469 128.391 40.0823C128.47 40.3175 128.548 40.6313 128.704 40.8666C128.861 41.102 129.096 41.3372 129.33 41.4156C129.565 41.5725 129.8 41.5725 130.035 41.5725C130.269 41.5725 130.582 41.4941 130.817 41.3372C131.052 41.1804 131.286 41.102 131.521 40.9451C131.756 40.7882 131.991 40.5528 132.147 40.3959C132.382 40.1606 132.538 39.9254 132.616 39.7685C132.695 39.5331 132.773 39.2978 132.773 39.0626C132.773 38.8271 132.616 38.5134 132.46 38.2781C132.225 37.9643 132.069 37.8074 131.834 37.7291C131.599 37.6505 131.365 37.5722 131.13 37.5722C130.895 37.5722 130.582 37.6505 130.348 37.8074C130.113 37.9643 129.8 38.0428 129.643 38.1997C129.409 38.3566 129.174 38.5134 129.017 38.7488Z" fill="black"/>
<path d="M137.387 43.9264L136.527 44.3971V44.4755C136.996 44.554 137.387 44.7109 137.779 44.9461C138.17 45.2599 138.405 45.5737 138.561 45.8875C138.796 46.358 138.952 46.7503 138.952 47.1425C138.952 47.5346 138.874 47.8484 138.796 48.0837C138.639 48.3974 138.405 48.6329 138.17 48.8681C137.857 49.1034 137.544 49.3388 137.153 49.4957L133.319 51.4566L132.458 49.7309L135.979 47.9268C136.527 47.6131 136.84 47.3777 136.996 47.0639C137.153 46.7503 137.153 46.4365 136.918 45.9659C136.683 45.4952 136.37 45.1814 135.979 45.103C135.588 45.0247 135.04 45.1814 134.414 45.4952L131.128 47.1425L130.268 45.4168L136.605 42.2793L137.387 43.9264Z" fill="black"/>
</svg>
