<svg width="142" height="140" viewBox="0 0 142 140" fill="none" xmlns="http://www.w3.org/2000/svg">
<path d="M140.129 69.9988C140.129 71.1228 140.104 72.2434 140.046 73.3672C139.988 74.491 139.908 75.6086 139.795 76.726C139.686 77.8434 139.548 78.9576 139.384 80.0686C139.217 81.1796 139.028 82.2842 138.809 83.3856C138.591 84.487 138.344 85.582 138.071 86.6704C137.798 87.7622 137.499 88.8442 137.172 89.9168C136.844 90.9924 136.494 92.0584 136.115 93.115C135.737 94.1714 135.332 95.2214 134.902 96.2586C134.471 97.2956 134.015 98.3232 133.537 99.3378C133.059 100.356 132.551 101.358 132.025 102.347C131.495 103.339 130.939 104.315 130.365 105.278C129.79 106.242 129.186 107.189 128.563 108.123C127.94 109.058 127.295 109.976 126.624 110.875C125.953 111.777 125.262 112.664 124.549 113.531C123.837 114.397 123.104 115.248 122.35 116.08C121.595 116.912 120.821 117.727 120.028 118.52C119.235 119.314 118.42 120.091 117.588 120.842C116.756 121.597 115.905 122.329 115.038 123.042C114.171 123.754 113.285 124.445 112.383 125.116C111.481 125.784 110.562 126.429 109.631 127.055C108.697 127.678 107.749 128.282 106.786 128.857C105.823 129.431 104.847 129.987 103.854 130.517C102.865 131.047 101.864 131.551 100.846 132.029C99.831 132.508 98.8066 132.964 97.7664 133.394C96.7292 133.824 95.6824 134.229 94.6228 134.608C93.5664 134.986 92.5002 135.34 91.4246 135.664C90.3522 135.992 89.27 136.29 88.1782 136.563C87.0898 136.836 85.9948 137.083 84.8934 137.302C83.792 137.52 82.6842 137.713 81.5764 137.876C80.4654 138.04 79.3512 138.178 78.2338 138.287C77.1164 138.397 75.9956 138.48 74.875 138.538C73.7544 138.596 72.6306 138.621 71.5066 138.621C70.3828 138.621 69.2622 138.596 68.1416 138.538C67.021 138.48 65.9002 138.4 64.7828 138.287C63.6654 138.178 62.5512 138.04 61.4402 137.876C60.3292 137.709 59.2214 137.52 58.1232 137.302C57.0218 137.083 55.9268 136.836 54.8384 136.563C53.7466 136.29 52.6644 135.992 51.592 135.664C50.5196 135.336 49.4502 134.986 48.3938 134.608C47.3374 134.229 46.2874 133.824 45.2502 133.394C44.2132 132.964 43.1856 132.508 42.171 132.029C41.1562 131.551 40.1544 131.043 39.1622 130.517C38.1732 129.987 37.1938 129.431 36.2306 128.857C35.2672 128.282 34.32 127.678 33.3856 127.055C32.4512 126.432 31.5328 125.787 30.6338 125.116C29.7314 124.445 28.8452 123.754 27.9782 123.042C27.1112 122.329 26.2604 121.597 25.4288 120.842C24.597 120.087 23.7814 119.314 22.9884 118.52C22.1952 117.727 21.4182 116.912 20.6668 116.08C19.9122 115.248 19.1801 114.397 18.4672 113.531C17.7544 112.664 17.064 111.777 16.3961 110.875C15.7282 109.973 15.0828 109.054 14.4567 108.123C13.8305 107.189 13.2301 106.242 12.6553 105.278C12.0805 104.315 11.525 103.339 10.9952 102.347C10.4654 101.358 9.96126 100.356 9.48282 99.3378C9.00438 98.3232 8.54522 97.2988 8.11494 96.2586C7.68466 95.2214 7.28328 94.1746 6.90438 93.115C6.52548 92.0584 6.17229 90.9924 5.84797 89.9168C5.52044 88.8442 5.22183 87.7622 4.94889 86.6704C4.67595 85.582 4.4287 84.487 4.21035 83.3856C3.992 82.2842 3.79935 81.1764 3.63559 80.0686C3.46861 78.9576 3.33374 77.8434 3.22136 76.726C3.11218 75.6086 3.0287 74.4878 2.97412 73.3672C2.91952 72.2466 2.89062 71.1228 2.89062 69.9988C2.89062 68.875 2.91632 67.7544 2.97412 66.6338C3.0319 65.513 3.11218 64.3924 3.22136 63.275C3.33054 62.1576 3.46861 61.0434 3.63559 59.9324C3.80257 58.8214 3.992 57.7136 4.21035 56.6154C4.4287 55.514 4.67595 54.419 4.94889 53.3306C5.22183 52.2388 5.52044 51.1566 5.84797 50.0842C6.17549 49.0118 6.52548 47.9424 6.90438 46.886C7.28328 45.8296 7.68466 44.7796 8.11494 43.7424C8.54522 42.7052 9.00118 41.6778 9.48282 40.663C9.96126 39.6484 10.4686 38.6466 10.9952 37.6544C11.525 36.6654 12.0805 35.686 12.6553 34.7228C13.2301 33.7594 13.8337 32.8122 14.4567 31.8778C15.0796 30.9434 15.725 30.025 16.3961 29.126C17.064 28.2236 17.7544 27.3374 18.4672 26.4704C19.1801 25.6034 19.9154 24.7526 20.6668 23.9208C21.4214 23.0892 22.1952 22.2736 22.9884 21.4806C23.7814 20.6874 24.597 19.9103 25.4288 19.159C26.2604 18.4044 27.1112 17.6723 27.9782 16.9594C28.8452 16.2466 29.7314 15.5562 30.6338 14.8883C31.536 14.2204 32.4544 13.575 33.3856 12.9489C34.32 12.3227 35.2672 11.7223 36.2306 11.1475C37.1938 10.5727 38.17 10.0172 39.1622 9.4874C40.1544 8.95758 41.1562 8.45346 42.171 7.97502C43.1888 7.49658 44.2132 7.0374 45.2502 6.60712C46.2874 6.17684 47.3342 5.77548 48.3938 5.39658C49.4502 5.01768 50.5164 4.66446 51.592 4.34016C52.6676 4.01262 53.7498 3.714 54.8384 3.44106C55.9268 3.16814 57.0218 2.92088 58.1232 2.70254C59.2246 2.48418 60.3324 2.29152 61.4402 2.12776C62.5512 1.96079 63.6654 1.82593 64.7828 1.71355C65.9002 1.60437 67.021 1.52089 68.1416 1.4663C69.2622 1.41171 70.386 1.38281 71.5066 1.38281C72.6274 1.38281 73.7512 1.4085 74.875 1.4663C75.9988 1.5241 77.1164 1.60437 78.2338 1.71355C79.3512 1.82272 80.4654 1.96079 81.5764 2.12776C82.6874 2.29474 83.792 2.48418 84.8934 2.70254C85.9948 2.92088 87.0898 3.16814 88.1782 3.44106C89.27 3.714 90.3522 4.01262 91.4246 4.34016C92.5002 4.66768 93.5664 5.01768 94.6228 5.39658C95.6792 5.77548 96.7292 6.17684 97.7664 6.60712C98.8034 7.0374 99.831 7.49336 100.846 7.97502C101.864 8.45346 102.865 8.9608 103.854 9.4874C104.847 10.0172 105.823 10.5727 106.786 11.1475C107.749 11.7223 108.697 12.3259 109.631 12.9489C110.565 13.5718 111.484 14.2172 112.383 14.8883C113.285 15.5562 114.171 16.2466 115.038 16.9594C115.905 17.6723 116.756 18.4076 117.588 19.159C118.42 19.9135 119.235 20.6874 120.028 21.4806C120.821 22.2736 121.598 23.0892 122.35 23.9208C123.104 24.7526 123.837 25.6034 124.549 26.4704C125.262 27.3374 125.953 28.2236 126.624 29.126C127.292 30.0282 127.937 30.9466 128.563 31.8778C129.186 32.8122 129.79 33.7594 130.365 34.7228C130.939 35.686 131.495 36.6622 132.025 37.6544C132.554 38.6466 133.059 39.6484 133.537 40.663C134.015 41.681 134.471 42.7052 134.902 43.7424C135.332 44.7796 135.737 45.8264 136.115 46.886C136.494 47.9424 136.848 49.0086 137.172 50.0842C137.499 51.1598 137.798 52.242 138.071 53.3306C138.344 54.419 138.591 55.514 138.809 56.6154C139.028 57.7168 139.22 58.8246 139.384 59.9324C139.548 61.0434 139.686 62.1576 139.795 63.275C139.904 64.3924 139.988 65.513 140.046 66.6338C140.104 67.7544 140.129 68.8782 140.129 69.9988Z" fill="black"/>
<path d="M71.4844 140C52.7834 140 35.1968 132.721 21.9802 119.504C8.76374 106.291 1.48438 88.7042 1.48438 70C1.48438 51.2958 8.76374 33.7124 21.9802 20.4958C35.1968 7.27936 52.7834 0 71.4844 0C90.1852 0 107.775 7.27936 120.989 20.4958C134.205 33.7124 141.484 51.2958 141.484 70C141.484 88.7042 134.205 106.291 120.989 119.504C107.772 132.717 90.1886 140 71.4844 140ZM71.4844 2.74542C53.5092 2.74542 36.6256 9.74542 23.9422 22.4578C11.2587 35.1702 4.22978 52.0248 4.22978 70C4.22978 87.9752 11.2298 104.862 23.9422 117.545C36.6546 130.229 53.538 137.258 71.4844 137.258C89.4308 137.258 106.346 130.258 119.03 117.545C131.713 104.833 138.742 87.9496 138.742 70C138.742 52.0504 131.742 35.1412 119.03 22.4578C106.317 9.77432 89.4596 2.74542 71.4844 2.74542Z" fill="black"/>
<path d="M71.5174 69.973L131.101 91.9234C133.622 85.0904 134.993 77.7276 134.993 70.0276C134.993 34.973 106.572 6.52344 71.4886 6.52344C36.405 6.52344 7.98438 34.944 7.98438 69.9986C7.98438 77.6986 9.35547 85.0936 11.8761 91.9234L71.5142 69.973H71.5174Z" fill="black"/>
<path d="M71.344 135.016C54.011 135.016 37.715 128.267 25.4812 116.004C13.244 103.741 6.46875 87.4738 6.46875 70.1408C6.46875 52.8078 13.2183 36.5152 25.4812 24.278C37.744 12.0441 54.011 5.26562 71.344 5.26562C88.677 5.26562 104.97 12.0152 117.207 24.278C129.441 36.5408 136.219 52.811 136.219 70.1408C136.219 87.4706 129.47 103.77 117.207 116.004C104.944 128.241 88.6738 135.016 71.344 135.016ZM71.344 8.00783C54.7398 8.00783 39.144 14.4748 27.411 26.2078C15.6779 37.9408 9.21095 53.5368 9.21095 70.1408C9.21095 86.745 15.6811 102.341 27.411 114.074C39.1408 125.807 54.7366 132.274 71.344 132.274C87.9514 132.274 103.544 125.804 115.277 114.074C127.01 102.341 133.477 86.745 133.477 70.1408C133.477 53.5368 127.01 37.9408 115.277 26.2078C103.544 14.4748 87.9482 8.00783 71.344 8.00783Z" fill="white"/>
<path d="M104.632 69.9974C104.632 70.54 104.619 71.0828 104.594 71.6254C104.568 72.1679 104.526 72.7108 104.472 73.247C104.417 73.7864 104.35 74.3258 104.273 74.862C104.192 75.3984 104.099 75.9346 103.996 76.4644C103.891 76.9974 103.772 77.524 103.64 78.0506C103.508 78.5772 103.364 79.1006 103.207 79.6208C103.049 80.1378 102.879 80.6548 102.696 81.1654C102.513 81.6758 102.317 82.1832 102.108 82.681C101.9 83.1818 101.681 83.6796 101.45 84.1708C101.219 84.6622 100.975 85.147 100.718 85.6254C100.461 86.1038 100.195 86.5758 99.9151 87.0414C99.6359 87.507 99.3469 87.9662 99.0449 88.4158C98.7431 88.8686 98.4317 89.3116 98.1073 89.7484C97.7831 90.185 97.4523 90.612 97.1087 91.0296C96.7651 91.447 96.4087 91.858 96.0459 92.2626C95.6799 92.664 95.3073 93.0556 94.9253 93.441C94.5431 93.8264 94.1483 94.1988 93.7469 94.5616C93.3423 94.9276 92.9345 95.281 92.5139 95.6244C92.0931 95.968 91.6661 96.302 91.2327 96.6232C90.7959 96.9474 90.3527 97.2588 89.9001 97.5608C89.4505 97.8626 88.9913 98.1516 88.5257 98.431C88.0601 98.7102 87.5881 98.9768 87.1097 99.2336C86.6313 99.4906 86.1463 99.7346 85.6551 99.9658C85.1639 100.197 84.6693 100.419 84.1651 100.624C83.6643 100.833 83.1569 101.029 82.6495 101.212C82.1391 101.395 81.6221 101.565 81.1051 101.722C80.5849 101.88 80.0647 102.024 79.5349 102.156C79.0083 102.287 78.4785 102.406 77.9487 102.512C77.4157 102.618 76.8827 102.708 76.3463 102.788C75.8101 102.865 75.2707 102.933 74.7313 102.987C74.1917 103.042 73.6523 103.08 73.1097 103.109C72.5671 103.135 72.0243 103.148 71.4817 103.148C70.9391 103.148 70.3963 103.135 69.8569 103.109C69.3143 103.084 68.7717 103.042 68.2321 102.987C67.6927 102.933 67.1565 102.865 66.6171 102.788C66.0807 102.708 65.5445 102.615 65.0147 102.512C64.4817 102.406 63.9551 102.287 63.4285 102.156C62.9019 102.024 62.3785 101.88 61.8583 101.722C61.3413 101.565 60.8243 101.395 60.3139 101.212C59.8033 101.029 59.2959 100.833 58.7983 100.624C58.2973 100.415 57.7995 100.197 57.3083 99.9658C56.8171 99.7346 56.3321 99.4906 55.8537 99.2336C55.3753 98.9768 54.9033 98.7102 54.4377 98.431C53.9721 98.1516 53.5129 97.8626 53.0633 97.5608C52.6139 97.2588 52.1675 96.9474 51.7339 96.6232C51.2973 96.2988 50.8703 95.968 50.4527 95.6244C50.0353 95.281 49.6243 94.9244 49.2197 94.5616C48.8183 94.1956 48.4267 93.8232 48.0413 93.441C47.6561 93.0588 47.2835 92.664 46.9207 92.2626C46.5547 91.858 46.2015 91.4502 45.8579 91.0296C45.5143 90.6088 45.1803 90.1818 44.8561 89.7484C44.5317 89.3116 44.2203 88.8686 43.9183 88.4158C43.6165 87.9662 43.3275 87.507 43.0483 87.0414C42.7689 86.5758 42.5023 86.1038 42.2455 85.6254C41.9885 85.147 41.7445 84.6622 41.5133 84.1708C41.2821 83.6796 41.0605 83.185 40.8519 82.681C40.6431 82.18 40.4505 81.6726 40.2675 81.1654C40.0845 80.6548 39.9143 80.1378 39.7569 79.6208C39.5995 79.1006 39.4551 78.5804 39.3235 78.0506C39.1917 77.524 39.0729 76.9942 38.9671 76.4644C38.8611 75.9314 38.7711 75.3984 38.6909 74.862C38.6105 74.3258 38.5463 73.7864 38.4917 73.247C38.4371 72.7076 38.3987 72.1679 38.3697 71.6254C38.3409 71.0828 38.3281 70.54 38.3281 69.9974C38.3281 69.4548 38.3409 68.9119 38.3697 68.3726C38.3987 67.8332 38.4371 67.2874 38.4917 66.7478C38.5463 66.2084 38.6105 65.6722 38.6909 65.1328C38.7711 64.5932 38.8643 64.0602 38.9671 63.5304C39.0729 62.9974 39.1917 62.4708 39.3235 61.9442C39.4551 61.4176 39.5995 60.8942 39.7569 60.374C39.9143 59.857 40.0845 59.34 40.2675 58.8296C40.4505 58.319 40.6463 57.8116 40.8519 57.314C41.0605 56.813 41.2789 56.3154 41.5133 55.824C41.7445 55.3328 41.9885 54.8478 42.2455 54.3694C42.5023 53.891 42.7689 53.419 43.0483 52.9534C43.3243 52.4878 43.6165 52.0286 43.9183 51.579C44.2203 51.1296 44.5317 50.6832 44.8561 50.2498C45.1803 49.813 45.5143 49.386 45.8579 48.9686C46.2015 48.551 46.5579 48.14 46.9207 47.7354C47.2835 47.3342 47.6593 46.9424 48.0413 46.557C48.4267 46.175 48.8183 45.7992 49.2197 45.4364C49.6243 45.0704 50.0321 44.7172 50.4527 44.3736C50.8735 44.03 51.3005 43.696 51.7339 43.3718C52.1675 43.0474 52.6139 42.736 53.0633 42.4342C53.5161 42.1322 53.9721 41.8432 54.4377 41.564C54.9033 41.2846 55.3753 41.018 55.8537 40.7612C56.3321 40.5042 56.8171 40.2602 57.3083 40.029C57.7995 39.7977 58.2941 39.5764 58.7949 39.3676C59.2959 39.1588 59.8033 38.9662 60.3139 38.7831C60.8243 38.6001 61.3413 38.4299 61.8583 38.2725C62.3785 38.1153 62.8987 37.9707 63.4285 37.8391C63.9551 37.7075 64.4849 37.5888 65.0147 37.4827C65.5477 37.3767 66.0807 37.2868 66.6171 37.2066C67.1533 37.1264 67.6927 37.0619 68.2321 37.0075C68.7717 36.9529 69.3143 36.9143 69.8569 36.8853C70.3995 36.8565 70.9423 36.8438 71.4817 36.8438C72.0211 36.8438 72.5671 36.8565 73.1097 36.8853C73.6523 36.9143 74.1949 36.9529 74.7313 37.0075C75.2707 37.0619 75.8101 37.1264 76.3463 37.2066C76.8827 37.2868 77.4189 37.3799 77.9487 37.4827C78.4817 37.5888 79.0083 37.7075 79.5349 37.8391C80.0615 37.9707 80.5849 38.1153 81.1051 38.2725C81.6221 38.4299 82.1391 38.6001 82.6495 38.7831C83.1601 38.9662 83.6675 39.162 84.1651 39.3676C84.6661 39.5764 85.1639 39.7946 85.6551 40.029C86.1463 40.2602 86.6313 40.5042 87.1097 40.7612C87.5881 41.018 88.0601 41.2846 88.5257 41.564C88.9913 41.84 89.4505 42.1322 89.9001 42.4342C90.3527 42.736 90.7959 43.0474 91.2327 43.3718C91.6693 43.696 92.0963 44.03 92.5139 44.3736C92.9313 44.7172 93.3423 45.0736 93.7469 45.4364C94.1483 45.7992 94.5399 46.175 94.9253 46.557C95.3105 46.9392 95.6831 47.3342 96.0459 47.7354C96.4119 48.14 96.7651 48.5478 97.1087 48.9686C97.4523 49.3892 97.7863 49.8162 98.1073 50.2498C98.4317 50.6832 98.7431 51.1296 99.0449 51.579C99.3469 52.0318 99.6359 52.4878 99.9151 52.9534C100.195 53.419 100.461 53.891 100.718 54.3694C100.975 54.8478 101.219 55.3328 101.45 55.824C101.681 56.3154 101.903 56.8098 102.108 57.3108C102.317 57.8116 102.513 58.319 102.696 58.8296C102.879 59.34 103.049 59.857 103.207 60.374C103.364 60.8942 103.508 61.4144 103.64 61.9442C103.772 62.4708 103.891 63.0006 103.996 63.5304C104.102 64.0634 104.192 64.5966 104.273 65.1328C104.35 65.669 104.417 66.2084 104.472 66.7478C104.526 67.2874 104.565 67.83 104.594 68.3726C104.619 68.9154 104.632 69.458 104.632 69.9974Z" fill="black"/>
<path d="M71.4935 104.526C52.4553 104.526 36.9688 89.0426 36.9688 70.0014C36.9688 50.96 52.4521 35.4766 71.4935 35.4766C90.5348 35.4766 106.018 50.96 106.018 70.0014C106.018 89.0426 90.5348 104.526 71.4935 104.526ZM71.4935 38.222C53.9677 38.222 39.7141 52.4756 39.7141 70.0014C39.7141 87.527 53.9677 101.781 71.4935 101.781C89.0191 101.781 103.273 87.527 103.273 70.0014C103.273 52.4756 89.0191 38.222 71.4935 38.222Z" fill="white"/>
<path d="M20.3236 58.9748C20.4714 57.9826 20.786 57.1444 21.2678 56.467C21.7462 55.7894 22.3594 55.3078 23.1076 55.022C23.8558 54.7362 24.7002 54.6656 25.638 54.8004C26.5756 54.9384 27.3558 55.2532 27.9852 55.7444C28.6146 56.2326 29.0544 56.8684 29.3112 57.6582C29.5682 58.445 29.626 59.3344 29.4782 60.3266L29.0576 63.178L19.9062 61.8262L20.3268 58.9748H20.3236ZM28.4924 60.1788C28.6658 58.9972 28.486 58.05 27.9498 57.3372C27.4136 56.6242 26.582 56.1844 25.4548 56.0206C24.3182 55.8504 23.3838 56.0334 22.6516 56.5696C21.9196 57.1028 21.4668 57.9536 21.2934 59.1256L21.0526 60.7858L28.2516 61.8422L28.4924 60.182V60.1788Z" fill="white"/>
<path d="M32.4778 49.0824L28.1686 49.8176L27.6548 51.1888L31.1934 52.5148L30.7726 53.6452L22.1094 50.3924L23.153 47.5956C23.4002 46.9406 23.718 46.43 24.1098 46.064C24.5016 45.698 24.9318 45.4764 25.4006 45.396C25.8694 45.3158 26.348 45.3672 26.8328 45.5502C27.43 45.7782 27.8924 46.1474 28.2168 46.6612C28.5442 47.1686 28.6502 47.798 28.5442 48.5492L32.985 47.7338L32.4778 49.0856V49.0824ZM26.746 50.8484L27.369 49.1818C27.6002 48.5718 27.6226 48.0548 27.4364 47.6374C27.2502 47.2136 26.9034 46.9052 26.3992 46.7126C25.8888 46.5232 25.4328 46.5264 25.041 46.7254C24.646 46.9214 24.3282 47.3324 24.0906 47.9488L23.4676 49.6154L26.746 50.8452V50.8484Z" fill="white"/>
<path d="M26.7299 39.8975L31.6683 43.0345C32.3651 43.4809 32.9881 43.6415 33.5405 43.5163C34.0927 43.3877 34.5615 43.0185 34.9469 42.4117C35.3257 41.8209 35.4541 41.2461 35.3353 40.6937C35.2133 40.1415 34.8055 39.6405 34.1119 39.1943L29.1735 36.0571L29.8221 35.0391L34.7509 38.1699C35.4027 38.5841 35.8651 39.0657 36.1413 39.6085C36.4239 40.1479 36.5267 40.7099 36.4561 41.2943C36.3885 41.8787 36.1831 42.4469 35.8331 42.9993C35.4799 43.5515 35.0527 43.9819 34.5551 44.2901C34.0605 44.5951 33.5083 44.7331 32.9015 44.7043C32.2913 44.6787 31.6619 44.4571 31.0069 44.0429L26.0781 40.9121L26.7267 39.8943L26.7299 39.8975Z" fill="white"/>
<path d="M38.761 29.1922C39.3134 29.7284 39.5894 30.361 39.5894 31.0932C39.5894 31.8252 39.2106 32.5798 38.4592 33.3538L37.223 34.6316L39.994 37.3226L39.1592 38.1862L32.5156 31.745L34.59 29.6032C35.3188 28.855 36.0542 28.4602 36.7992 28.4184C37.5408 28.3766 38.196 28.6368 38.7674 29.1954L38.761 29.1922ZM37.7432 32.657C38.212 32.1752 38.4528 31.7194 38.4656 31.2858C38.4784 30.8556 38.2922 30.451 37.9036 30.0752C37.0848 29.2822 36.2148 29.356 35.3028 30.2968L34.0666 31.5748L36.507 33.935L37.7432 32.657Z" fill="white"/>
<path d="M48.2394 27.7721L44.9064 30.0391L45.449 32.1583L44.3926 32.8743L41.9844 23.3891L43.1404 22.6055L51.0684 28.3373L50.0118 29.0533L48.2394 27.7689V27.7721ZM47.411 27.1555L43.3972 24.2239L44.6496 29.0341L47.411 27.1555Z" fill="white"/>
<path d="M53.5281 26.2128L56.492 24.9092L56.8868 25.8116L52.8186 27.5968L49.0938 19.1262L50.1983 18.6445L53.5313 26.2096L53.5281 26.2128Z" fill="white"/>
<path d="M70.9125 13.8672L71.8629 23.0058L70.6651 23.1342L69.9555 16.3172L67.6275 23.4488L66.7831 23.5356L63.0165 17.0332L63.7261 23.8566L62.5285 23.9786L61.5781 14.8401L62.8689 14.7053L67.0303 21.9108L69.6313 14.002L70.9093 13.8672H70.9125Z" fill="white"/>
<path d="M76.286 14.2181L75.557 23.4434L74.3594 23.3502L75.0882 14.125L76.286 14.2181Z" fill="white"/>
<path d="M86.5284 18.9309C86.4128 18.3433 86.156 17.8456 85.7578 17.4378C85.3596 17.0268 84.8492 16.741 84.2262 16.5805C83.5968 16.4199 82.9964 16.4199 82.4184 16.5805C81.8404 16.741 81.3426 17.0525 80.9188 17.5181C80.4982 17.9837 80.1996 18.5681 80.0166 19.2713C79.8368 19.9681 79.8238 20.62 79.9684 21.2236C80.1192 21.8304 80.4114 22.341 80.8386 22.7552C81.2656 23.1694 81.7954 23.4584 82.4248 23.619C83.295 23.8406 84.0784 23.7634 84.7784 23.3846C85.4784 23.0056 85.9922 22.386 86.3166 21.519L82.7362 20.6102L82.9836 19.6534L87.8064 20.8832L87.572 21.7856C87.312 22.508 86.9106 23.1244 86.3614 23.6318C85.8124 24.1424 85.1702 24.4956 84.4348 24.6882C83.6996 24.8778 82.9386 24.8744 82.155 24.6754C81.3202 24.4602 80.6106 24.0686 80.0262 23.5034C79.4418 22.9382 79.0372 22.2576 78.8092 21.4644C78.5844 20.668 78.5844 19.8332 78.8092 18.963C79.0372 18.0864 79.4386 17.3479 80.0134 16.7539C80.5914 16.1566 81.2752 15.7488 82.062 15.5369C82.8454 15.3185 83.6546 15.3153 84.4894 15.5305C85.44 15.7777 86.2202 16.2305 86.8304 16.8887C87.4404 17.5438 87.8064 18.3465 87.9284 19.2906L86.522 18.9277L86.5284 18.9309Z" fill="white"/>
<path d="M92.5816 28.7612L92.3408 24.3942L91.0436 23.7326L89.3256 27.0978L88.25 26.5488L92.4564 18.3125L95.112 19.6708C95.7348 19.9886 96.21 20.3644 96.5312 20.7946C96.8522 21.2216 97.0256 21.6744 97.0546 22.1464C97.0834 22.6184 96.9808 23.0872 96.74 23.5528C96.4478 24.1212 96.0302 24.5354 95.4812 24.8052C94.9354 25.0684 94.2996 25.1038 93.5738 24.9112L93.8756 29.4194L92.5848 28.7644L92.5816 28.7612ZM91.4834 22.869L93.0634 23.678C93.6478 23.9768 94.1582 24.057 94.595 23.919C95.038 23.7776 95.3784 23.463 95.6256 22.9814C95.8762 22.49 95.9244 22.0372 95.7734 21.623C95.6256 21.2088 95.2564 20.8524 94.6624 20.5538L93.0826 19.7446L91.4834 22.869Z" fill="white"/>
<path d="M101.17 32.3813L98.0329 29.8445L96.1609 30.9749L95.1719 30.1721L103.553 25.1211L104.644 26.0043L101.446 35.2487L100.451 34.4459L101.173 32.3781L101.17 32.3813ZM101.517 31.4051L103.154 26.7235L98.9193 29.3051L101.514 31.4051H101.517Z" fill="white"/>
<path d="M113.404 35.1238L112.65 35.753L111.038 33.8136L104.677 39.0926L103.906 38.155L110.267 32.876L108.649 30.9302L109.403 30.3008L113.404 35.1238Z" fill="white"/>
<path d="M115.865 38.9814L108.004 43.8588L107.375 42.8346L115.236 37.957L115.865 38.9814Z" fill="white"/>
<path d="M110.921 49.9031C110.6 49.1003 110.494 48.2943 110.606 47.4883C110.715 46.6855 111.03 45.9567 111.544 45.3081C112.061 44.6563 112.735 44.1617 113.57 43.8213C114.408 43.4875 115.236 43.3751 116.058 43.4875C116.883 43.5997 117.612 43.9081 118.251 44.4121C118.887 44.9163 119.369 45.5681 119.69 46.3709C120.014 47.1673 120.12 47.9699 120.011 48.7791C119.905 49.5915 119.594 50.3173 119.08 50.9595C118.566 51.6049 117.885 52.0993 117.041 52.4365C116.196 52.7801 115.368 52.8957 114.552 52.7833C113.737 52.6773 113.008 52.3691 112.366 51.8585C111.727 51.3511 111.245 50.6961 110.921 49.8997V49.9031ZM111.897 49.5145C112.141 50.1117 112.5 50.5933 112.966 50.9595C113.438 51.3255 113.99 51.5407 114.62 51.6081C115.249 51.6787 115.901 51.5759 116.578 51.2997C117.269 51.0237 117.815 50.6415 118.216 50.1567C118.617 49.6751 118.861 49.1387 118.945 48.5511C119.035 47.9667 118.955 47.3695 118.711 46.7659C118.463 46.1525 118.107 45.6645 117.641 45.3017C117.172 44.9387 116.627 44.7269 116.004 44.6595C115.377 44.5887 114.722 44.6915 114.029 44.9677C113.351 45.2439 112.809 45.6227 112.404 46.1043C111.996 46.5893 111.749 47.1287 111.662 47.7227C111.576 48.3135 111.656 48.9141 111.897 49.5145Z" fill="white"/>
<path d="M114.15 63.1538L113.977 61.9562L120.553 56.0768L113.267 57.146L113.094 55.9548L122.258 54.6094L122.431 55.8006L115.868 61.6736L123.141 60.6108L123.314 61.8084L114.15 63.1538Z" fill="white"/>
<path d="M44.4103 111.616C44.0443 111.789 43.6011 111.86 43.0777 111.824C42.5607 111.783 42.0085 111.629 41.4177 111.356L39.9245 110.665L38.2645 114.252L36.4375 113.407L40.5989 104.41L43.9159 105.942C44.9529 106.423 45.6337 107.056 45.9549 107.836C46.2759 108.613 46.2727 109.352 45.9485 110.058C45.6209 110.765 45.1071 111.282 44.4039 111.616H44.4103ZM40.5699 109.281L42.0631 109.972C42.5191 110.184 42.9205 110.225 43.2673 110.1C43.6173 109.972 43.8901 109.705 44.0763 109.304C44.2627 108.899 44.2915 108.52 44.1567 108.173C44.0251 107.827 43.7361 107.547 43.2801 107.339L41.7869 106.648L40.5699 109.284V109.281Z" fill="white"/>
<path d="M52.3679 119.458L52.2747 117.483L48.569 116.397L47.4324 117.997L45.4062 117.402L51.5811 108.852L53.8545 109.519L54.397 120.048L52.371 119.454L52.3679 119.458ZM49.5037 115.081L52.2201 115.877L52.0275 111.51L49.5069 115.084L49.5037 115.081Z" fill="white"/>
<path d="M60.0865 117L59.5503 120.914L57.5625 120.647L58.9081 110.828L62.5203 111.323C63.6571 111.474 64.4951 111.875 65.0281 112.527C65.5677 113.179 65.7795 113.924 65.6639 114.762C65.5773 115.378 65.3107 115.93 64.8613 116.415C64.4149 116.897 63.7727 117.183 62.9411 117.273L64.8869 121.649L62.5461 121.328L60.7255 117.093L60.0833 117.006L60.0865 117ZM60.6901 112.61L60.2951 115.487L61.9199 115.715C62.4145 115.783 62.8125 115.706 63.1113 115.481C63.4099 115.259 63.5865 114.925 63.6475 114.485C63.7085 114.039 63.6281 113.673 63.4003 113.381C63.1723 113.085 62.8127 112.906 62.3149 112.838L60.6901 112.61Z" fill="white"/>
<path d="M67.9127 113.457L67.9062 111.926L75.2531 111.906L75.2595 113.438L72.5783 113.444L72.5977 121.825L70.6035 121.831L70.5843 113.451L67.9159 113.457H67.9127Z" fill="white"/>
<path d="M83.5562 110.806L85.5438 110.504L87.037 120.33L85.0494 120.631L79.5906 114.505L80.6214 121.303L78.6338 121.604L77.1406 111.779L79.1282 111.477L84.587 117.597L83.5562 110.806Z" fill="white"/>
<path d="M93.4436 108.179L93.8929 109.643L90.3351 110.729L91.0897 113.223L94.2397 112.26L94.6829 113.724L91.5329 114.688L92.3293 117.311L95.8871 116.226L96.3365 117.69L90.8585 119.357L87.9688 109.842L93.4467 108.176L93.4436 108.179Z" fill="white"/>
<path d="M100.106 111.958L101.753 115.544L99.9327 116.379L95.7969 107.369L99.1139 105.844C100.151 105.369 101.073 105.259 101.875 105.523C102.681 105.783 103.259 106.297 103.609 107.061C103.873 107.629 103.943 108.236 103.824 108.888C103.702 109.536 103.314 110.118 102.652 110.641L106.653 113.297L104.499 114.279L100.694 111.685L100.106 111.958ZM98.2599 107.925L99.4703 110.561L100.97 109.87C101.426 109.665 101.715 109.389 101.846 109.042C101.981 108.695 101.952 108.316 101.766 107.912C101.583 107.507 101.313 107.241 100.963 107.115C100.617 106.99 100.215 107.032 99.7593 107.237L98.2599 107.928V107.925Z" fill="white"/>
<mask id="mask0_445_2054" style="mask-type:luminance" maskUnits="userSpaceOnUse" x="32" y="30" width="79" height="80">
<path d="M110.622 30.8281H32.3281V109.122H110.622V30.8281Z" fill="white"/>
</mask>
<g mask="url(#mask0_445_2054)">
<mask id="mask1_445_2054" style="mask-type:luminance" maskUnits="userSpaceOnUse" x="32" y="30" width="79" height="80">
<path d="M71.4924 30.8281C49.8726 30.8281 32.3438 48.3537 32.3438 69.9767C32.3438 91.5995 49.8694 109.125 71.4924 109.125C93.1154 109.125 110.641 91.5995 110.641 69.9767C110.641 48.3537 93.1154 30.8281 71.4924 30.8281Z" fill="white"/>
</mask>
<g mask="url(#mask1_445_2054)">
<path d="M32.3438 30.8281H110.638V109.122H32.3438V30.8281Z" fill="white"/>
</g>
</g>
<mask id="mask2_445_2054" style="mask-type:luminance" maskUnits="userSpaceOnUse" x="32" y="30" width="79" height="80">
<path d="M110.677 30.8281H32.3281V109.177H110.677V30.8281Z" fill="white"/>
</mask>
<g mask="url(#mask2_445_2054)">
<mask id="mask3_445_2054" style="mask-type:luminance" maskUnits="userSpaceOnUse" x="32" y="30" width="79" height="80">
<path d="M71.5179 30.8301C49.8821 30.8301 32.3438 48.3685 32.3438 70.0043C32.3438 91.6401 49.8821 109.179 71.5179 109.179C93.1537 109.179 110.692 91.6401 110.692 70.0043C110.692 48.3685 93.1537 30.8301 71.5179 30.8301Z" fill="white"/>
</mask>
<g mask="url(#mask3_445_2054)">
<path d="M71.5142 110.78C49.0274 110.78 30.7344 92.4871 30.7344 70.0005C30.7344 47.5137 49.0274 29.2207 71.5142 29.2207C94.0008 29.2207 112.294 47.5137 112.294 70.0005C112.294 92.4871 94.0008 110.78 71.5142 110.78ZM71.5142 32.4317C50.8 32.4317 33.9454 49.2831 33.9454 70.0005C33.9454 90.7179 50.7968 107.569 71.5142 107.569C92.2316 107.569 109.083 90.7179 109.083 70.0005C109.083 49.2831 92.2316 32.4317 71.5142 32.4317Z" fill="black"/>
</g>
</g>
<path d="M71.6929 92.1166C67.2435 92.108 62.9787 90.3254 59.8325 87.1594C56.6863 83.9932 54.9149 79.7015 54.9062 75.2239C54.9062 67.3214 60.1711 62.0266 64.7799 57.3594C67.8805 54.2686 70.8117 51.2894 71.6929 47.9688C72.5741 51.3189 75.5052 54.2686 78.6058 57.3594C83.244 62.0266 88.4795 67.2951 88.4795 75.2239C88.4824 77.4431 88.0503 79.6411 87.2077 81.6922C86.3653 83.743 85.1288 85.6063 83.5694 87.1755C82.01 88.7447 80.1583 89.9889 78.1203 90.8369C76.0823 91.6847 73.8981 92.1195 71.6929 92.1166Z" fill="black"/>
<path d="M74.9154 60.8826C73.835 59.7954 72.6992 58.6492 71.7038 57.4766C70.7638 58.5638 69.7682 59.5392 68.7434 60.541C68.497 60.7726 68.3032 61.0548 68.1754 61.3688C67.955 61.8522 67.8856 62.3918 67.9762 62.9158V63.0866C68.061 63.3754 68.1958 63.6466 68.3744 63.888C68.4072 63.9334 68.4356 63.9818 68.4594 64.0326C69.4332 65.1488 70.4684 66.2092 71.5602 67.2088L76.7368 72.6218L78.274 74.264C79.5472 75.5964 80.7006 77.0396 81.7208 78.5766C81.844 78.7856 82.0338 78.9464 82.2594 79.0332H82.3736C82.495 79.0096 82.6084 78.9554 82.7032 78.8756C82.798 78.7956 82.871 78.6928 82.9154 78.5766C83.2532 77.4922 83.426 76.3628 83.4278 75.2264C83.4062 72.593 82.57 70.0316 81.0354 67.8984C79.249 65.3842 77.2198 63.054 74.9774 60.9418L74.9154 60.8826Z" fill="white"/>
<path d="M76.3526 78.3444C75.0732 76.771 73.8198 75.339 71.8874 73.25C70.236 75.1386 68.728 76.597 67.4778 78.0882C66.727 78.9076 66.2216 79.924 66.02 81.0202C65.8184 82.1162 65.9288 83.2474 66.3386 84.283C66.7484 85.3186 67.4406 86.2166 68.3356 86.8732C69.2308 87.53 70.292 87.9188 71.3972 87.9946C72.5024 88.0704 73.6062 87.8304 74.5816 87.302C75.557 86.7736 76.364 85.9786 76.9098 85.0086C77.4554 84.0386 77.7176 82.933 77.6658 81.8196C77.6138 80.706 77.2504 79.63 76.617 78.7156C76.5528 78.5762 76.4632 78.4502 76.3526 78.3444Z" fill="white"/>
<path d="M68.7894 70.6695C68.8588 70.5907 68.8972 70.4891 68.8972 70.3837C68.8972 70.2783 68.8588 70.1767 68.7894 70.0979L64.977 66.1761L64.1546 65.4141C63.497 66.1843 62.8794 66.9879 62.3038 67.8217C61.3928 69.1577 60.71 70.6375 60.2834 72.2001C59.8196 74.0003 59.8694 75.8957 60.4272 77.6689L60.512 77.8397C60.603 78.0317 60.7122 78.2143 60.8384 78.3849C60.8384 78.3849 61.292 79.1009 61.6642 79.1273H61.8012C61.8676 79.1157 61.9296 79.0855 61.9798 79.0403C62.03 78.9949 62.0666 78.9363 62.0852 78.8711C62.4502 78.1161 62.8992 77.4055 63.4234 76.7525L64.8172 75.0643L68.7894 70.6695Z" fill="white"/>
</svg>
