<svg width="140" height="140" viewBox="0 0 140 140" fill="none" xmlns="http://www.w3.org/2000/svg">
<g clip-path="url(#clip0_506_3373)">
<path d="M140 70C140 108.659 108.661 140 70 140C31.3392 140 0 108.659 0 70C0 31.3411 31.3392 0 70 0C108.661 0 140 31.3392 140 70ZM136.862 70C136.862 33.0732 106.927 3.13589 69.998 3.13589C33.0692 3.13589 3.13589 33.0712 3.13589 70C3.13589 106.929 33.0712 136.864 70 136.864C106.929 136.864 136.864 106.929 136.864 70H136.862Z" fill="black"/>
<path d="M115.47 70.1501C115.47 95.263 95.1126 115.621 69.9997 115.621C44.8869 115.621 24.5293 95.263 24.5293 70.1501C24.5293 45.0373 44.8869 24.6797 69.9997 24.6797C95.1126 24.6797 115.47 45.0373 115.47 70.1501ZM114.07 69.9999C114.07 45.6601 94.3395 25.9273 69.9978 25.9273C45.656 25.9273 25.9252 45.6581 25.9252 69.9999C25.9252 94.3416 45.656 114.072 69.9978 114.072C94.3395 114.072 114.07 94.3416 114.07 69.9999Z" fill="black"/>
<path d="M53.9077 119.461L50.6532 129.519L48.1797 128.835L52.1361 116.104L56.055 117.118L56.0807 126.567L61.0436 118.292L64.7667 119.067L62.396 132.295L59.6338 131.7L61.8048 121.238L56.2745 130.427L53.9077 129.826V119.461Z" fill="black"/>
<path d="M100.877 108.82L107.811 120.047L105.033 121.54L95.5718 116.104L100.677 124.302L98.338 125.777L91.4434 114.621L94.4349 112.775L103.467 117.88L98.5515 110.246C98.5199 109.927 100.586 108.65 100.877 108.82Z" fill="black"/>
<path d="M110.475 23.1133C114.894 26.5458 119.349 31.91 113.431 36.5268C108.575 40.3172 103.749 36.3153 101.127 32.1176L110.475 23.1133ZM110.91 26.8779L104.654 32.8788C106.798 35.5936 109.495 36.2085 112.061 33.5768C113.346 32.258 113.746 30.7869 113.042 29.0311C112.82 28.4775 111.515 26.7198 110.91 26.8799V26.8779Z" fill="black"/>
<path d="M40.0388 110.429C41.5078 110.238 43.408 110.815 44.6161 111.673C50.6862 115.985 44.9047 126.299 37.8638 123.558C31.0008 120.887 33.7512 111.246 40.0388 110.429ZM40.624 112.99C37.9409 113.546 35.1115 118.833 37.9113 120.944C41.237 123.453 46.0792 116.852 43.5483 113.925C42.7891 113.049 41.759 112.755 40.624 112.99Z" fill="black"/>
<path d="M53.3158 17.9702C55.736 18.0829 56.6336 21.033 58.0493 22.6128L55.4157 23.6568C53.4107 22.0908 53.1043 18.4744 49.7687 20.1511L51.5403 25.2741L48.8987 26.0512L44.2324 13.8259C46.6387 12.8512 48.9185 11.3742 51.647 11.6411C53.8714 11.8586 54.9431 14.1502 54.4073 16.1986C54.2095 16.95 53.4602 17.2624 53.3158 17.9683V17.9702ZM47.8112 14.6386C47.6313 14.9194 48.7188 17.9248 48.9699 18.0829C49.739 18.5654 52.1334 16.9678 51.8982 15.5541C51.5521 13.4681 49.1874 13.8121 47.8092 14.6406L47.8112 14.6386Z" fill="black"/>
<path d="M93.0009 128.344L90.0292 129.036L88.2279 126.209L84.3407 127.187L84.224 130.723L81.5508 131.504L81.7742 117.711C82.6165 117.537 84.9477 116.384 85.61 116.878L93.0009 128.344ZM84.1172 119.953C84.1983 121.623 84.0579 123.318 84.1172 124.987L87.0811 124.097L84.311 119.46L83.9156 119.561C83.9353 119.743 84.1152 119.891 84.1172 119.953Z" fill="black"/>
<path d="M98.7297 21.5215L102.872 23.9931L101.577 25.8655L97.4722 23.5284L95.7915 25.994C95.6729 26.3638 95.8746 26.2175 96.0169 26.3163C97.3357 27.2377 98.8859 28.0543 100.286 28.8551L99.2121 31.0162L92.0664 26.5655L98.7534 15.4297L99.3149 15.5088L105.8 19.6471C105.49 20.0248 104.895 21.5828 104.394 21.4998L100.236 18.9749L98.7297 21.5235V21.5215Z" fill="black"/>
<path d="M36.3464 21.1458L37.7226 23.6964L41.8016 21.1577C42.2307 21.1142 43.3439 22.9609 43.247 23.1013L39.3222 25.4977C39.1719 25.7547 40.5975 28.4833 41.4615 28.1432C42.4363 27.7577 44.6844 25.5985 45.5287 25.468C45.8846 25.6124 46.5391 26.6247 46.6518 26.9173C46.721 27.0973 46.891 27.2436 46.717 27.4492L39.7097 31.9791L32.6016 21.0568L39.2016 16.3965L40.465 18.3025C40.5243 18.4943 40.384 18.5497 40.2871 18.6584C39.6207 19.4039 37.2639 20.4775 36.3484 21.1478L36.3464 21.1458Z" fill="black"/>
<path d="M71.8759 132.291L68.912 132.491L68.1211 119.461C70.9901 118.942 76.204 117.883 77.5762 121.359C78.8337 124.544 76.8565 126.958 73.6989 127.504C73.1512 127.599 71.8007 127.411 71.5615 127.739L71.8759 132.291ZM71.4903 125.372C76.376 125.97 76.1763 120.028 71.2847 121.24L71.4903 125.372Z" fill="black"/>
<path d="M37.6921 107.781L35.5488 108.797C34.4771 105.626 31.2977 103.985 28.4367 106.328C25.1703 109.001 26.4614 112.505 29.8207 114.132L28.4999 116.085C24.3181 114.169 21.8881 109.197 25.1149 105.179C27.5726 102.118 31.8276 101.462 34.9556 103.959C35.5507 104.436 38.1132 107.061 37.6921 107.783V107.781Z" fill="black"/>
<path d="M35.7466 31.7943L37.8682 33.0736C35.4797 38.1689 29.6014 40.5416 25.5738 35.5471C22.3331 31.5293 24.3993 26.3411 28.7097 24.3184L30.0087 26.1691C27.3671 27.8319 25.4294 30.4676 27.7428 33.378C30.3784 36.6919 34.3606 35.4205 35.7466 31.7943Z" fill="black"/>
<path d="M87.0773 10.4685L86.666 12.8234L81.8574 11.8743C81.543 11.9554 80.8965 14.7255 81.1436 14.9074L85.6122 15.9889L85.2998 18.1698L80.3646 17.3789L79.376 22.5138L76.4141 21.9186L79.1802 8.88867L87.0753 10.4685H87.0773Z" fill="black"/>
<path d="M109.784 99.5186L112.313 107.754L116.287 111.688L114.399 113.721C113.754 113.832 111.16 110.542 110.322 110.138C108.257 109.146 104.667 108.899 102.387 108.003C102.197 107.928 102.017 107.936 101.891 107.712L104.166 105.436L109.983 107.416L107.447 101.953C107.425 101.711 109.017 100.13 109.335 99.7737C109.452 99.6412 109.323 99.396 109.784 99.5206V99.5186Z" fill="black"/>
<path d="M64.1738 11.0635L65.544 21.5982L65.2316 21.8928L62.596 22.1202L61.4116 11.457L57.9811 11.8386L57.6904 11.5262L57.4492 9.60626L67.5311 8.09961L67.7407 10.5751L64.1738 11.0635Z" fill="black"/>
<path d="M91.6009 12.1268L86.6641 24.5137L89.4504 25.6242L94.3872 13.2373L91.6009 12.1268Z" fill="black"/>
<path d="M71.3969 8.17445L70.7461 21.5762L73.825 21.7257L74.4757 8.32396L71.3969 8.17445Z" fill="black"/>
<path d="M112.345 70.0759C112.345 93.4211 93.4211 112.345 70.0759 112.345C46.7307 112.345 27.8066 93.4211 27.8066 70.0759C27.8066 46.7307 46.7307 27.8066 70.0759 27.8066C93.4211 27.8066 112.345 46.7307 112.345 70.0759ZM56.0811 64.1759V72.0729C56.8443 71.9622 58.0168 72.2469 58.7088 72.0354C59.2901 71.8574 59.1774 70.9262 60.1285 70.8688C60.8482 70.8253 62.772 71.9504 63.7745 72.1777C69.9178 73.5717 76.9429 71.2188 75.7783 63.729C74.7205 56.9313 65.3128 58.9856 61.7419 56.4409C60.0079 55.2052 60.9945 53.3604 62.7918 52.8186C66.4101 51.7292 71.4165 53.3466 71.8693 57.5778L74.6414 57.2654V49.7618L72.2133 49.7579C71.0151 52.1147 69.1585 50.1672 67.292 49.7065C61.297 48.2216 54.5823 50.5923 56.3282 57.9061C57.9298 64.6168 67.031 62.167 70.2895 64.8738C71.9029 66.2144 70.6177 68.506 68.7275 69.0201C64.9944 70.0344 59.0904 68.6405 58.8275 63.9959L56.0831 64.1739L56.0811 64.1759ZM87.2364 49.4257C81.4569 50.0149 78.4317 53.9417 77.9987 59.5393C77.2928 68.6899 81.7396 73.2178 90.9259 72.4664C99.0207 71.804 101.763 64.6998 100.417 57.4533C99.1314 50.529 93.6386 48.7732 87.2344 49.4277L87.2364 49.4257ZM53.7104 49.9596H42.2582L42.28 52.3085C43.0986 52.5735 44.1445 52.356 44.7278 53.1192L44.8267 68.6207C44.6645 69.4847 42.9957 69.5994 42.2582 69.5065V72.0749H53.7104V69.5065C52.9748 69.5974 51.3061 69.4828 51.1419 68.6207L51.2408 53.1192C51.8221 52.3579 52.8701 52.5735 53.6886 52.3085L53.7104 49.9596ZM36.1367 88.4603L36.2237 90.2516C36.6923 90.9239 40.0081 90.0875 40.7457 89.615C43.8242 87.6437 43.9646 79.968 39.7729 79.3986C34.0745 78.6235 33.766 87.1157 39.0057 86.4929C39.4071 86.4455 39.8342 86.2991 40.1624 86.0718C40.451 85.8721 40.372 85.4905 40.6765 85.5023C40.7595 88.393 38.4837 88.6936 36.1367 88.4622V88.4603ZM45.2874 80.235C43.3042 82.2181 43.4031 89.3045 46.6912 90.2477C52.3283 91.8651 52.7969 82.3803 49.9635 80.0649C48.706 79.0387 46.4421 79.0803 45.2874 80.235ZM55.4345 79.4243C52.5735 79.9522 52.4845 84.3278 52.7435 86.5641C53.2932 91.2818 58.8215 91.8571 59.9743 87.5191C60.8759 84.1242 60.1482 78.5563 55.4345 79.4243ZM66.7423 90.2378V79.6734C64.771 78.4614 63.0805 81.2354 61.4967 82.1371L61.4236 82.4139L62.3193 83.5409L64.3736 82.143V90.2378H66.7423ZM75.628 88.2645C76.3596 87.179 77.536 86.5582 78.3981 85.6032C82.9418 80.5751 76.67 77.1683 72.6701 80.8578L74.1194 82.3229C76.6146 80.1796 78.926 81.619 76.6107 84.6047C75.8771 85.5498 73.0972 87.7386 72.7689 88.4622C72.5317 88.9842 72.7155 89.6763 72.6661 90.2358H80.1697V88.2606H75.628V88.2645ZM83.8671 79.4243C80.6818 80.0115 80.6917 85.9867 81.6487 88.2645C82.8014 91.0089 86.744 91.2047 88.0411 88.5354C88.917 86.7322 88.917 83.0802 88.0411 81.2789C87.2146 79.5825 85.6585 79.0941 83.8671 79.4243ZM95.1749 90.2378V79.6734C94.7597 79.191 93.8047 79.3037 93.2511 79.5271C93.0257 79.6181 90.0302 81.9532 89.9293 82.1371C89.6802 82.5859 90.6945 83.2325 90.9575 83.5033L92.8042 82.141V90.2358H95.173L95.1749 90.2378ZM103.863 79.3788H98.2357L97.9391 79.8712L97.6465 84.919C98.2021 86.1647 101.352 84.3437 102.135 86.141C102.617 87.2482 101.949 88.2744 100.79 88.4464C99.5347 88.6343 98.5382 88.0391 97.3479 87.8671L97.3756 89.8127C100.217 91.1691 104.741 90.4296 104.668 86.5839C104.618 83.9798 102.253 82.7362 99.9163 83.5231L100.112 81.5478H103.863V79.3768V79.3788ZM69.6469 81.9888C68.4922 82.3269 68.6701 84.1954 70.0878 84.4307C72.1421 84.7707 72.2548 81.2236 69.6469 81.9888ZM71.6103 89.1384C71.6103 88.395 71.0072 87.792 70.2638 87.792C69.5203 87.792 68.9173 88.395 68.9173 89.1384C68.9173 89.8819 69.5203 90.4849 70.2638 90.4849C71.0072 90.4849 71.6103 89.8819 71.6103 89.1384Z" fill="black"/>
<path d="M88.8111 52.5807C93.2223 52.118 94.3118 55.4062 94.5787 59.1412C94.9208 63.9024 94.4008 70.0832 88.0143 69.0629C84.8567 68.5588 84.2931 64.7368 84.1191 62.0991C83.868 58.2969 84.0499 53.081 88.8111 52.5807Z" fill="black"/>
<path d="M84.453 81.3886C86.8474 80.6551 86.5113 86.4009 85.9972 87.6743C85.6353 88.5739 84.4707 88.7499 83.9408 87.9452C83.3081 86.9842 83.15 81.7881 84.453 81.3886Z" fill="black"/>
<path d="M57.2125 88.2105C56.1527 89.2011 55.2511 87.817 55.1088 86.7651C54.9249 85.4147 54.6204 80.6871 56.9278 81.389C58.219 81.7825 58.0904 87.3899 57.2125 88.2105Z" fill="black"/>
<path d="M47.3323 81.3892C49.703 80.6615 49.3748 86.0811 48.9596 87.3624C48.6076 88.4518 47.4608 88.958 46.8182 87.9457C46.1756 86.9333 46.0788 81.7727 47.3323 81.3872V81.3892Z" fill="black"/>
<path d="M40.0302 81.6079C41.3451 82.6874 40.3545 85.5129 38.314 84.6054C37.5607 84.2712 37.5429 82.5826 37.8217 81.9499C38.142 81.2223 39.4707 81.1491 40.0322 81.6079H40.0302Z" fill="black"/>
</g>
<defs>
<clipPath id="clip0_506_3373">
<rect width="140" height="140" fill="white"/>
</clipPath>
</defs>
</svg>
