<svg width="512" height="512" viewBox="0 0 512 512" fill="none" xmlns="http://www.w3.org/2000/svg">
<path d="M350.3 41.4999C343.8 44.2999 341.3 52.5999 344.6 59.5999C347.8 66.3999 348.3 66.4999 388.9 66.7999L425.4 67.0999L343.7 148.8C298.1 194.5 261.6 231.7 261 233.3C256.7 245 267.1 255.3 278.7 250.9C280.3 250.4 317.7 213.7 363.3 168.2L445 86.4999V121.5C445 142.3 445.4 158 446 160.2C448.2 168.1 456.7 171.8 464.4 168.1C472.3 164.2 472 166.5 472 104.8C472 43.9999 472.1 45.2999 465 41.7999C461.8 40.1999 457 39.9999 407.5 39.9999C363.4 40.0999 352.9 40.2999 350.3 41.4999Z" fill="black"/>
<path d="M115.2 86.0999C97.3999 88.6999 80.7999 97.1999 66.8999 111C52.6999 125.1 44.7999 139.8 41.4999 158.5C39.1999 171.6 39.1999 385.4 41.4999 398.5C44.6999 416.8 52.6999 431.8 66.3999 445.6C76.1999 455.4 85.1999 461.3 97.3999 466.1C112.8 472.1 111.5 472 233.9 472C353.9 471.9 352.7 472 367.8 466.7C380.6 462.3 389.6 456.4 400.5 445.5C411.7 434.2 417.5 425.2 422.1 411.6C426.7 397.7 427 392.7 427 317.9C427 259.3 426.8 247.4 425.6 244.5C421.8 235.5 408 234.4 402.4 242.7C400.6 245.4 400.5 249 400 320.5C399.5 389.5 399.3 395.9 397.6 401C390.9 421.3 372.9 438.3 352.5 443.5C343.6 445.8 123.4 445.8 114.5 443.5C92.7999 438 73.9999 419.2 68.4999 397.5C66.1999 388.6 66.1999 168.4 68.4999 159.5C71.1999 148.9 76.7999 139.2 84.9999 130.9C93.5999 122.2 102.1 117.1 113 114.1C120.2 112.1 122.9 112 192 111.9C244.7 111.9 264.4 111.6 267 110.7C274.2 108.2 277.3 98.1999 273 91.1999C269.1 84.7999 271.4 84.9999 192.8 85.0999C153.6 85.1999 118.7 85.6999 115.2 86.0999Z" fill="black"/>
</svg>
