<svg width="173" height="86" viewBox="0 0 173 86" fill="none" xmlns="http://www.w3.org/2000/svg">
<g clip-path="url(#clip0_445_1917)">
<path d="M104.159 10.4117C104.141 10.2972 104.085 10.192 103.999 10.113C103.913 10.0338 103.803 9.9854 103.686 9.97536C103.49 9.96015 99.6527 9.90217 99.6527 9.90217C99.6527 9.90217 96.4434 6.83009 96.1271 6.52358C95.8108 6.21705 95.1909 6.30681 94.9502 6.37585L93.3379 6.86876C93.139 6.22328 92.8809 5.59707 92.5666 4.99788C91.4232 2.84812 89.7507 1.70904 87.7297 1.70628H87.7228C87.5827 1.70628 87.4429 1.72009 87.303 1.73251C87.2442 1.6621 87.184 1.59444 87.1195 1.52402C86.2407 0.594806 85.1097 0.143315 83.7606 0.181975C81.1448 0.248249 78.5458 2.1053 76.4366 5.41901C74.9503 7.73861 73.8307 10.6657 73.5046 12.9204L68.3625 14.4917C66.8496 14.9597 66.802 15.0066 66.6033 16.4136C66.4535 17.4781 62.4941 47.6866 62.4941 47.6866L95.6806 53.3476L110.064 49.8213C110.064 49.8213 104.201 10.6809 104.159 10.4117ZM91.6752 7.3741L89.1 8.15972C89.0803 6.85632 88.9236 5.04069 88.3064 3.47221C90.2882 3.83948 91.2636 6.04999 91.6752 7.36995V7.3741ZM87.3645 8.68991L81.8236 10.3785C82.3595 8.35578 83.3743 6.34132 84.6228 5.02274C85.1464 4.44667 85.7873 3.98607 86.5037 3.67103C87.2244 5.15667 87.3813 7.26364 87.3645 8.68576V8.68991ZM83.8068 1.88853C84.3602 1.8599 84.9091 2.00175 85.3771 2.29445C84.6155 2.69616 83.9291 3.22337 83.3476 3.85328C81.6892 5.60817 80.4184 8.33369 79.9118 10.9626L75.3702 12.3529C76.2603 8.21356 79.776 2.00313 83.8068 1.88853Z" fill="black"/>
<path d="M103.686 9.9809C103.49 9.96572 99.6522 9.90774 99.6522 9.90774C99.6522 9.90774 96.443 6.83565 96.1268 6.52913C96.004 6.41643 95.8482 6.34532 95.6816 6.32617V53.3531L110.064 49.8269C110.064 49.8269 104.201 10.6864 104.159 10.4172C104.141 10.3028 104.084 10.1976 103.999 10.1185C103.913 10.0394 103.803 9.99097 103.686 9.9809Z" fill="black"/>
<path d="M87.7139 17.279L86.043 23.4439C84.7542 22.9173 83.3634 22.6783 81.9701 22.7439C78.7329 22.9454 78.6965 24.9613 78.7329 25.4666C78.9093 28.228 86.2626 28.826 86.6755 35.2848C87.0017 40.3658 83.9435 43.8453 79.5377 44.1213C74.2515 44.45 71.3418 41.3737 71.3418 41.3737L72.4614 36.6793C72.4614 36.6793 75.388 38.847 77.7322 38.6979C79.2634 38.6027 79.812 37.3737 79.756 36.5054C79.5251 32.9156 73.5377 33.1198 73.1598 27.2104C72.8421 22.2398 76.1521 17.1975 83.4579 16.7419C86.2724 16.5693 87.7139 17.279 87.7139 17.279Z" fill="white"/>
<path d="M88.3516 85.0918L91.2225 69.9888C91.5831 68.0938 91.8514 66.4125 92.0311 65.1118H93.2594L92.8114 67.9784H92.8705C94.1591 66.0575 95.9572 64.8164 97.8735 64.8164C100.601 64.8164 101.619 67.1214 101.619 69.4272C101.619 74.2155 98.2932 79.5912 93.7098 79.5912C92.3006 79.5912 91.3726 79.2664 90.8335 78.971H90.7732L89.6385 85.0866L88.3516 85.0918ZM91.0477 77.6729C91.7062 78.1751 92.6649 78.4706 93.8329 78.4706C97.6385 78.4706 100.275 73.1508 100.275 69.5124C100.275 67.8277 99.6151 65.9654 97.4883 65.9654C95.4514 65.9654 92.7843 68.5072 91.9769 72.7934L91.0477 77.6729Z" fill="black"/>
<path d="M111.536 79.2993C111.505 78.4423 111.685 77.1123 111.896 75.4869H111.838C110.19 78.6197 108.362 79.5948 106.474 79.5948C104.292 79.5948 102.969 77.8212 102.969 75.2793C102.969 70.4617 106.474 64.8164 112.049 64.8164C113.067 64.8164 114.206 64.9939 114.954 65.2299L113.427 72.8856C112.917 75.5162 112.737 77.7953 112.798 79.2993H111.536ZM113.457 66.1757C113.128 66.0576 112.618 65.9689 111.718 65.9689C107.585 65.9689 104.35 70.5212 104.32 74.9839C104.289 76.8168 104.828 78.4715 106.776 78.4715C109.113 78.4715 111.752 75.014 112.438 71.348L113.457 66.1757Z" fill="black"/>
<path d="M116.178 79.2993L118.005 69.752C118.365 67.9491 118.575 66.3531 118.695 65.1118H119.892C119.773 66.0284 119.653 66.9742 119.474 68.186H119.534C120.431 66.291 121.841 64.8164 123.636 64.8164C123.818 64.8181 123.999 64.8378 124.177 64.8751L123.936 66.2058C123.769 66.1675 123.598 66.1476 123.427 66.1464C121.54 66.1464 119.443 68.9544 118.842 72.0897L117.495 79.3019L116.178 79.2993Z" fill="black"/>
<path d="M129.63 61.9785L129.001 65.1121H132.386L132.147 66.2061H128.761L127.172 74.6593C126.994 75.6069 126.873 76.3442 126.873 77.1126C126.873 77.9403 127.263 78.4425 128.162 78.4425C128.642 78.4425 128.941 78.4132 129.209 78.3244L129.296 79.358C128.84 79.4932 128.366 79.5628 127.889 79.5648C126.181 79.5648 125.522 78.445 125.522 77.2599C125.522 76.4906 125.609 75.7516 125.852 74.6585L127.47 66.2051H125.402L125.612 65.1113H127.708L128.186 62.5694L129.63 61.9785Z" fill="black"/>
<path d="M132.055 79.2993L133.976 69.2791C134.266 67.9019 134.487 66.5111 134.634 65.1118H135.833L135.441 68.0086H135.501C136.759 65.9413 138.557 64.8164 140.504 64.8164C141.912 64.8164 143.709 65.7027 143.709 68.3928C143.709 69.1016 143.589 69.8115 143.439 70.5798L141.793 79.2993H140.504L142.181 70.5798C142.314 69.8984 142.385 69.2064 142.391 68.5126C142.391 67.0344 141.793 65.9707 140.024 65.9707C138.104 65.9707 135.411 68.335 134.786 71.7642L133.378 79.301L132.055 79.2993Z" fill="black"/>
<path d="M154.257 78.5016C153.508 78.9745 152.13 79.5655 150.333 79.5655C146.977 79.5655 145.809 76.9641 145.809 74.2448C145.809 70.1663 148.685 64.8164 152.819 64.8164C155.186 64.8164 156.174 66.3531 156.174 67.9173C156.174 71.5229 151.983 72.5281 147.276 72.4988C147.127 73.1492 147.102 75.0114 147.396 76.0158C147.906 77.6421 149.015 78.4103 150.54 78.4103C152.127 78.4103 153.206 77.8487 153.865 77.4628L154.257 78.5016ZM152.579 65.9689C150.362 65.9689 148.355 68.3333 147.486 71.3783C151.231 71.4075 154.826 70.7864 154.826 67.9785C154.826 66.6485 153.927 65.9689 152.579 65.9689Z" fill="black"/>
<path d="M156.893 79.2993L158.72 69.752C159.08 67.9491 159.29 66.3531 159.409 65.1118H160.608C160.488 66.0284 160.368 66.9742 160.189 68.186H160.249C161.146 66.291 162.555 64.8164 164.352 64.8164C164.533 64.8181 164.714 64.8378 164.891 64.8751L164.651 66.2058C164.484 66.1675 164.314 66.1476 164.142 66.1464C162.255 66.1464 160.158 68.9544 159.558 72.0897L158.21 79.3019L156.893 79.2993Z" fill="black"/>
<path d="M164.291 77.6444C165.049 78.1344 165.933 78.4011 166.838 78.4126C168.726 78.4126 169.981 77.0827 169.981 75.484C169.981 74.0645 169.382 73.2075 168.034 72.3504C166.626 71.4339 165.847 70.1634 165.847 68.8628C165.847 66.6456 167.644 64.8145 170.161 64.8145C171.149 64.8145 172.138 65.1392 172.557 65.4647L172.077 66.5595C171.628 66.2933 170.849 65.9686 170.009 65.9686C168.273 65.9686 167.134 67.1512 167.134 68.6285C167.134 69.9593 167.884 70.6957 169.081 71.4709C170.46 72.3875 171.299 73.6872 171.299 75.1067C171.299 77.9733 169.172 79.5695 166.714 79.5695C165.426 79.5695 164.287 79.0965 163.809 78.7123L164.291 77.6444Z" fill="black"/>
<path d="M7.43225 70.6914C6.39249 70.1349 5.8608 69.6654 5.8608 69.0203C5.8608 68.1994 6.60382 67.6723 7.7632 67.6723C9.11286 67.6723 10.3185 68.2287 10.3185 68.2287L11.2624 65.3562C11.2624 65.3562 10.3893 64.6816 7.81551 64.6816C4.23606 64.6816 1.75311 66.7042 1.75311 69.5484C1.75311 71.1608 2.91249 72.3908 4.45957 73.2711C5.70708 73.9748 6.15323 74.477 6.15323 75.2066C6.15323 75.9689 5.52899 76.5848 4.37046 76.5848C2.64357 76.5848 1.0128 75.7053 1.0128 75.7053L0 78.5779C0 78.5779 1.50695 79.5745 4.04135 79.5745C7.72652 79.5745 10.371 77.7863 10.371 74.5614C10.3744 72.8318 9.03692 71.6 7.43225 70.6914Z" fill="black"/>
<path d="M22.1116 64.6503C20.2992 64.6503 18.8726 65.5004 17.7735 66.7899L17.7132 66.7615L19.2847 58.6406H15.191L11.209 79.3132H15.3124L16.6786 72.25C17.2139 69.5798 18.6107 67.9433 19.9177 67.9433C20.8388 67.9433 21.1958 68.5591 21.1958 69.4386C21.1954 70.0389 21.1355 70.6379 21.0169 71.2267L19.4689 79.3123H23.5723L25.176 70.9572C25.3535 70.0877 25.453 69.2046 25.4737 68.3179C25.4694 66.0285 24.2506 64.6503 22.1116 64.6503Z" fill="black"/>
<path d="M34.7406 64.6484C29.808 64.6484 26.541 69.0491 26.541 73.945C26.541 77.0821 28.5019 79.6032 32.1869 79.6032C37.0306 79.6032 40.2984 75.3232 40.2984 70.31C40.2967 67.4047 38.5734 64.6484 34.7406 64.6484ZM32.7205 76.4921C31.3235 76.4921 30.729 75.3197 30.729 73.8537C30.729 71.5376 31.9512 67.7562 34.1758 67.7562C35.6321 67.7562 36.1069 68.9871 36.1069 70.1895C36.1069 72.6848 34.8891 76.4955 32.7205 76.4955V76.4921Z" fill="black"/>
<path d="M50.7836 64.6484C48.0153 64.6484 46.4437 67.0603 46.4437 67.0603H46.3844L46.6218 64.8904H42.9986C42.8241 66.3548 42.4932 68.5848 42.1666 70.2559L39.3145 85.0556H43.4177L44.5466 79.0752H44.634C44.634 79.0752 45.4756 79.6032 47.0409 79.6032C51.8549 79.6032 55.0039 74.7366 55.0039 69.8113C54.9996 67.0851 53.7852 64.6484 50.7836 64.6484ZM46.8619 76.554C46.2448 76.563 45.6445 76.3555 45.1682 75.9684L45.8518 72.1861C46.3268 69.6649 47.6642 67.9939 49.09 67.9939C50.3384 67.9939 50.7243 69.1369 50.7243 70.2223C50.7217 72.8313 49.1501 76.554 46.8619 76.554Z" fill="black"/>
<path d="M60.8587 58.8477C60.5477 58.8467 60.2397 58.9069 59.9524 59.0249C59.6653 59.1428 59.4048 59.316 59.1864 59.5344C58.9678 59.7528 58.7956 60.0119 58.6799 60.2968C58.5641 60.5816 58.507 60.8863 58.512 61.1931C58.512 62.399 59.2847 63.2156 60.4432 63.2156H60.5026C61.7807 63.2156 62.8799 62.3654 62.9096 60.8701C62.9096 59.6978 62.1072 58.8477 60.8587 58.8477Z" fill="black"/>
<path d="M55.125 79.311H59.2257L62.0185 64.9746H57.8882L55.125 79.311Z" fill="black"/>
<path d="M72.4468 64.9454H69.5945L69.7429 64.2719C69.9804 62.8937 70.8124 61.662 72.1796 61.662C72.6244 61.6627 73.0662 61.7322 73.4892 61.8678L74.2889 58.7058C74.2889 58.7058 73.5756 58.3535 72.06 58.3535C70.6047 58.3535 69.1485 58.7644 68.0493 59.7024C66.6523 60.8747 65.9984 62.575 65.6719 64.2762L65.5533 64.9498H63.6517L63.0571 67.999H64.9587L62.7891 79.3154H66.8924L69.0568 67.9946H71.8793L72.4468 64.9454Z" fill="black"/>
<path d="M82.3124 64.9746C82.3124 64.9746 79.7491 71.3486 78.5976 74.825H78.5391C78.4596 73.7053 77.5282 64.9746 77.5282 64.9746H73.2196L75.686 78.1378C75.7454 78.4307 75.7156 78.6073 75.5987 78.8122C75.1229 79.721 74.3205 80.6004 73.3698 81.2456C72.5971 81.8029 71.7354 82.1543 71.0527 82.3887L72.1816 85.8194C73.0136 85.6471 74.737 84.9684 76.1976 83.6203C78.0695 81.8908 79.7928 79.2223 81.5756 75.5873L86.5973 64.9746H82.3124Z" fill="black"/>
</g>
<defs>
<clipPath id="clip0_445_1917">
<rect width="172.557" height="85.6393" fill="white" transform="translate(0 0.179688)"/>
</clipPath>
</defs>
</svg>
