<svg width="129" height="140" viewBox="0 0 129 140" fill="none" xmlns="http://www.w3.org/2000/svg">
<g clip-path="url(#clip0_445_1970)">
<mask id="mask0_445_1970" style="mask-type:luminance" maskUnits="userSpaceOnUse" x="0" y="0" width="129" height="140">
<path d="M129 0H0V140H129V0Z" fill="white"/>
</mask>
<g mask="url(#mask0_445_1970)">
<path d="M64.5 140L64.2559 139.866L0 105.017V35L0.275045 34.8535L64.5 0L64.7441 0.133519L129 35V105.035L64.5 140ZM1.04595 104.38L64.5 138.796L127.954 104.38V35.6196L64.5 1.20426L1.04595 35.6196V104.38Z" fill="black"/>
<path d="M123.577 38.3516V101.647L64.5004 133.418L5.42383 101.647V38.3516L64.5004 6.58008L123.577 38.3516Z" stroke="black" stroke-width="3"/>
<path d="M123.707 54.25H5.16602V85.75H123.707V54.25Z" fill="black"/>
<path d="M18.3047 89.25H110.697" stroke="black" stroke-width="0.5" stroke-miterlimit="10"/>
<path d="M18.3047 50.75H110.697" stroke="black" stroke-width="0.5" stroke-miterlimit="10"/>
<path d="M51.9796 61.5996H48.8418V78.0496H51.9796V61.5996Z" fill="white"/>
<path d="M62.0902 73.1492C62.0902 75.7107 59.6742 75.9142 58.9976 75.9142C57.3034 75.9142 56.8605 74.4157 56.8605 73.5135V67.1992H54.4199V73.4992C54.4199 75.0885 54.9184 76.4003 55.8455 77.2727C56.7585 78.0816 57.9439 78.5107 59.1615 78.4692C60.1997 78.4433 61.2121 78.1361 62.0902 77.58V78.0492H64.8794V67.1992H62.0902V73.1492Z" fill="white"/>
<path d="M70.8069 63.3496H67.669V67.1996H65.9258V69.2996H67.669V78.0496H70.8069V69.2996H72.8988V67.1996H70.8069V63.3496Z" fill="white"/>
<path d="M81.9327 75.0337C81.2729 75.5743 80.4452 75.8633 79.5929 75.8491C77.6056 75.8491 76.1478 74.4802 76.1478 72.6006C76.1478 70.7209 77.5424 69.4117 79.5929 69.4117C80.4478 69.3961 81.2806 69.68 81.9495 70.2128L82.3821 70.5628L84.3061 68.757L83.8245 68.3513C82.63 67.3622 81.1231 66.8295 79.5748 66.8502C76.0083 66.8502 73.418 69.2691 73.418 72.5902C73.418 75.9113 76.0716 78.4002 79.5748 78.4002C81.1309 78.4248 82.6442 77.8869 83.8387 76.8848L84.3023 76.4752L82.3498 74.6695L81.9315 75.0337H81.9327Z" fill="white"/>
<path d="M94.5632 68.2211C93.6334 67.4135 92.4351 66.987 91.2058 67.0272C90.1495 67.0142 89.1152 67.3241 88.2384 67.9165V61.5996H85.4492V78.0496H88.2384V72.3446C88.2384 69.7831 90.4801 69.5757 91.1567 69.5757C92.8509 69.5757 93.1195 71.0768 93.1195 71.9804V78.0496H95.9087V71.9946C95.9087 70.4054 95.5045 69.0961 94.5632 68.2211Z" fill="white"/>
<path d="M79.4808 74.568C80.6191 74.568 81.5417 73.6998 81.5417 72.6287C81.5417 71.5577 80.6191 70.6895 79.4808 70.6895C78.3427 70.6895 77.4199 71.5577 77.4199 72.6287C77.4199 73.6998 78.3427 74.568 79.4808 74.568Z" fill="white"/>
<path d="M45.401 74.2319C44.2931 75.2845 42.8197 75.8652 41.2934 75.8484C38.1143 75.8484 35.8028 73.5034 35.8028 70.2834C35.8028 67.0634 38.1143 64.7041 41.2934 64.7041C42.8107 64.6963 44.275 65.2706 45.3868 66.3076L45.8194 66.7173L47.7266 64.9258L47.3083 64.5161C45.6851 62.9749 43.5274 62.1297 41.2934 62.1569C36.6112 62.1569 33.0898 65.6569 33.0898 70.2976C33.0898 74.9384 36.6254 78.4008 41.2934 78.4008C43.5351 78.4267 45.6993 77.5737 47.325 76.0247L47.7434 75.6189L45.8504 73.7989L45.401 74.2332V74.2319Z" fill="white"/>
<path d="M57.248 17.6878V17.0396H61.7558V17.6878H59.8658V23.0732H59.138V17.6878H57.248ZM67.7001 20.0563C67.7001 20.6927 67.5856 21.2427 67.3568 21.7063C67.1278 22.1697 66.8138 22.5272 66.4147 22.7786C66.0155 23.0301 65.5597 23.1557 65.0471 23.1557C64.5345 23.1557 64.0786 23.0301 63.6795 22.7786C63.2803 22.5272 62.9664 22.1697 62.7375 21.7063C62.5085 21.2427 62.3941 20.6927 62.3941 20.0563C62.3941 19.42 62.5085 18.8701 62.7375 18.4066C62.9664 17.943 63.2803 17.5856 63.6795 17.3341C64.0786 17.0828 64.5345 16.957 65.0471 16.957C65.5597 16.957 66.0155 17.0828 66.4147 17.3341C66.8138 17.5856 67.1278 17.943 67.3568 18.4066C67.5856 18.8701 67.7001 19.42 67.7001 20.0563ZM66.9957 20.0563C66.9957 19.5339 66.9087 19.0929 66.7345 18.7336C66.5624 18.3741 66.3287 18.1022 66.0332 17.9175C65.7397 17.7329 65.4109 17.6406 65.0471 17.6406C64.6832 17.6406 64.3535 17.7329 64.0581 17.9175C63.7645 18.1022 63.5308 18.3741 63.3566 18.7336C63.1845 19.0929 63.0984 19.5339 63.0984 20.0563C63.0984 20.5789 63.1845 21.0198 63.3566 21.3792C63.5308 21.7387 63.7645 22.0106 64.0581 22.1952C64.3535 22.38 64.6832 22.4723 65.0471 22.4723C65.4109 22.4723 65.7397 22.38 66.0332 22.1952C66.3287 22.0106 66.5624 21.7387 66.7345 21.3792C66.9087 21.0198 66.9957 20.5789 66.9957 20.0563ZM68.9239 23.0732V17.0396H70.9547C71.4263 17.0396 71.8117 17.125 72.1111 17.2959C72.4123 17.4648 72.6353 17.6936 72.7802 17.9823C72.925 18.2711 72.9973 18.5931 72.9973 18.9487C72.9973 19.3041 72.925 19.6273 72.7802 19.9179C72.6374 20.2087 72.4162 20.4403 72.1169 20.6132C71.8176 20.7841 71.434 20.8695 70.9665 20.8695H69.5108V20.2214H70.943C71.2658 20.2214 71.5251 20.1654 71.7207 20.0535C71.9163 19.9415 72.0583 19.7902 72.1463 19.5998C72.2363 19.4073 72.2813 19.1902 72.2813 18.9487C72.2813 18.707 72.2363 18.4911 72.1463 18.3005C72.0583 18.11 71.9154 17.9608 71.7177 17.8526C71.5202 17.7427 71.258 17.6878 70.9312 17.6878H69.6517V23.0732H68.9239Z" fill="black"/>
<path d="M57.7001 34.7406L56.0566 28.707H56.7962L58.0523 33.6212H58.111L59.3905 28.707H60.2123L61.4918 33.6212H61.5506L62.8066 28.707H63.5461L61.9027 34.7406H61.1514L59.8249 29.9325H59.7779L58.4515 34.7406H57.7001ZM64.453 34.7406V28.707H68.0804V29.3552H65.1808V31.3939H67.8925V32.042H65.1808V34.0925H68.1272V34.7406H64.453ZM69.3922 34.7406V28.707H71.4935C71.9122 28.707 72.2574 28.7796 72.5294 28.9249C72.8013 29.0683 73.0039 29.2618 73.1369 29.5054C73.2699 29.7469 73.3364 30.015 73.3364 30.3096C73.3364 30.5689 73.2905 30.783 73.1985 30.952C73.1085 31.1209 72.9892 31.2544 72.8405 31.3526C72.6938 31.4508 72.5343 31.5235 72.3622 31.5705V31.6295C72.546 31.6413 72.731 31.7061 72.9168 31.824C73.1027 31.9418 73.2582 32.1107 73.3834 32.3307C73.5087 32.5507 73.5712 32.8198 73.5712 33.1379C73.5712 33.4405 73.5028 33.7124 73.3659 33.9541C73.2289 34.1956 73.0127 34.3871 72.7173 34.5286C72.4218 34.67 72.0374 34.7406 71.5639 34.7406H69.3922ZM70.12 34.0925H71.5639C72.0393 34.0925 72.3768 34.0002 72.5764 33.8156C72.778 33.6289 72.8787 33.4031 72.8787 33.1379C72.8787 32.9337 72.8268 32.7451 72.7231 32.5723C72.6194 32.3975 72.4717 32.258 72.2799 32.1539C72.0883 32.0478 71.8613 31.9948 71.5991 31.9948H70.12V34.0925ZM70.12 31.3585H71.47C71.6891 31.3585 71.8867 31.3153 72.0628 31.2288C72.2408 31.1424 72.3817 31.0207 72.4854 30.8635C72.5911 30.7064 72.6439 30.5218 72.6439 30.3096C72.6439 30.0445 72.552 29.8196 72.368 29.635C72.1841 29.4484 71.8925 29.3552 71.4935 29.3552H70.12V31.3585Z" fill="black"/>
<path d="M40.5462 46.4072H38.6914V40.3736H40.6283C41.2115 40.3736 41.7103 40.4943 42.1251 40.7359C42.5398 40.9755 42.8579 41.3203 43.079 41.77C43.3 42.2178 43.4106 42.754 43.4106 43.3785C43.4106 44.0071 43.299 44.5482 43.076 45.0019C42.853 45.4536 42.5281 45.8013 42.1016 46.0449C41.6751 46.2864 41.1566 46.4072 40.5462 46.4072ZM39.4193 45.7591H40.4992C40.9962 45.7591 41.408 45.6629 41.7349 45.4704C42.0615 45.2779 42.3051 45.0038 42.4656 44.6484C42.626 44.2928 42.7062 43.8696 42.7062 43.3785C42.7062 42.8915 42.627 42.4722 42.4684 42.1206C42.31 41.7671 42.0733 41.4961 41.7582 41.3074C41.4433 41.1169 41.051 41.0217 40.5815 41.0217H39.4193V45.7591ZM44.6313 46.4072V40.3736H48.2587V41.0217H45.3593V43.0604H48.071V43.7086H45.3593V45.7591H48.3057V46.4072H44.6313ZM49.817 40.3736L51.6015 45.4526H51.6719L53.4562 40.3736H54.2192L52.0122 46.4072H51.261L49.054 40.3736H49.817ZM55.1554 46.4072V40.3736H58.7827V41.0217H55.8833V43.0604H58.595V43.7086H55.8833V45.7591H58.8297V46.4072H55.1554ZM60.0946 46.4072V40.3736H60.8225V45.7591H63.6163V46.4072H60.0946ZM69.5805 43.3903C69.5805 44.0267 69.466 44.5767 69.2372 45.0403C69.0082 45.5037 68.6942 45.8612 68.295 46.1126C67.8959 46.364 67.4401 46.4896 66.9274 46.4896C66.4148 46.4896 65.959 46.364 65.5598 46.1126C65.1607 45.8612 64.8468 45.5037 64.6178 45.0403C64.3889 44.5767 64.2745 44.0267 64.2745 43.3903C64.2745 42.754 64.3889 42.2041 64.6178 41.7405C64.8468 41.277 65.1607 40.9196 65.5598 40.6681C65.959 40.4168 66.4148 40.291 66.9274 40.291C67.4401 40.291 67.8959 40.4168 68.295 40.6681C68.6942 40.9196 69.0082 41.277 69.2372 41.7405C69.466 42.2041 69.5805 42.754 69.5805 43.3903ZM68.8761 43.3903C68.8761 42.8679 68.7891 42.4269 68.6149 42.0676C68.4428 41.7081 68.2089 41.4362 67.9136 41.2514C67.6201 41.0668 67.2913 40.9746 66.9274 40.9746C66.5635 40.9746 66.2339 41.0668 65.9384 41.2514C65.6449 41.4362 65.4112 41.7081 65.237 42.0676C65.0649 42.4269 64.9787 42.8679 64.9787 43.3903C64.9787 43.9129 65.0649 44.3537 65.237 44.7132C65.4112 45.0727 65.6449 45.3446 65.9384 45.5292C66.2339 45.7139 66.5635 45.8062 66.9274 45.8062C67.2913 45.8062 67.6201 45.7139 67.9136 45.5292C68.2089 45.3446 68.4428 45.0727 68.6149 44.7132C68.7891 44.3537 68.8761 43.9129 68.8761 43.3903ZM70.8043 46.4072V40.3736H72.8351C73.3067 40.3736 73.6921 40.459 73.9914 40.6299C74.2927 40.7988 74.5157 41.0276 74.6606 41.3163C74.8053 41.6051 74.8777 41.9271 74.8777 42.2826C74.8777 42.6381 74.8053 42.9613 74.6606 43.2519C74.5176 43.5426 74.2966 43.7743 73.9972 43.9472C73.6979 44.1181 73.3144 44.2035 72.8468 44.2035H71.3912V43.5553H72.8233C73.1462 43.5553 73.4054 43.4993 73.6011 43.3875C73.7967 43.2755 73.9386 43.1242 74.0266 42.9338C74.1166 42.7413 74.1616 42.5241 74.1616 42.2826C74.1616 42.041 74.1166 41.8251 74.0266 41.6345C73.9386 41.4439 73.7958 41.2947 73.5981 41.1866C73.4005 41.0767 73.1384 41.0217 72.8116 41.0217H71.532V46.4072H70.8043ZM76.0501 46.4072V40.3736H79.6775V41.0217H76.7779V43.0604H79.4896V43.7086H76.7779V45.7591H79.7244V46.4072H76.0501ZM80.9893 46.4072V40.3736H83.0201C83.4898 40.3736 83.8751 40.4541 84.1765 40.6151C84.4778 40.7741 84.7008 40.9932 84.8455 41.2721C84.9904 41.551 85.0627 41.8682 85.0627 42.2237C85.0627 42.5792 84.9904 42.8945 84.8455 43.1694C84.7008 43.4444 84.4788 43.6605 84.1793 43.8176C83.88 43.9728 83.4975 44.0503 83.0319 44.0503H81.3885V43.3903H83.0084C83.3293 43.3903 83.5875 43.3433 83.7832 43.2489C83.9809 43.1547 84.1237 43.0211 84.2116 42.8482C84.3016 42.6735 84.3467 42.4653 84.3467 42.2237C84.3467 41.9822 84.3016 41.771 84.2116 41.5903C84.1216 41.4096 83.9779 41.2701 83.7802 41.172C83.5826 41.0718 83.3214 41.0217 82.9966 41.0217H81.7171V46.4072H80.9893ZM83.8184 43.6968L85.2975 46.4072H84.4523L82.9966 43.6968H83.8184ZM89.5625 41.882C89.5272 41.5834 89.3844 41.3516 89.134 41.1866C88.8835 41.0217 88.5764 40.9392 88.2124 40.9392C87.9464 40.9392 87.7136 40.9825 87.514 41.0688C87.3164 41.1553 87.1618 41.2741 87.0503 41.4253C86.9408 41.5766 86.886 41.7484 86.886 41.9408C86.886 42.1019 86.9241 42.2404 87.0004 42.3563C87.0787 42.4702 87.1785 42.5655 87.2997 42.6421C87.4211 42.7166 87.5482 42.7786 87.6813 42.8276C87.8143 42.8748 87.9366 42.913 88.0482 42.9426L88.6586 43.1075C88.8151 43.1488 88.9893 43.2057 89.1809 43.2785C89.3746 43.3511 89.5595 43.4502 89.7356 43.576C89.9137 43.6998 90.0604 43.8588 90.1758 44.0533C90.2913 44.2477 90.349 44.4864 90.349 44.7692C90.349 45.0952 90.2639 45.3899 90.0937 45.653C89.9255 45.9162 89.6788 46.1254 89.3541 46.2806C89.0312 46.4357 88.6389 46.5132 88.1773 46.5132C87.7468 46.5132 87.3741 46.4435 87.0592 46.3041C86.746 46.1647 86.4995 45.9702 86.3195 45.7208C86.1415 45.4713 86.0407 45.1816 86.0172 44.8516H86.7686C86.7881 45.0795 86.8644 45.268 86.9975 45.4174C87.1325 45.5646 87.3027 45.6745 87.5082 45.7473C87.7155 45.818 87.9385 45.8533 88.1773 45.8533C88.4551 45.8533 88.7045 45.8082 88.9256 45.7178C89.1467 45.6255 89.3218 45.4978 89.4509 45.3348C89.58 45.1699 89.6446 44.9774 89.6446 44.7574C89.6446 44.557 89.5888 44.3941 89.4774 44.2683C89.3658 44.1426 89.2191 44.0404 89.0372 43.9619C88.8552 43.8833 88.6586 43.8146 88.4473 43.7556L87.7077 43.5436C87.2381 43.4081 86.8664 43.2146 86.5925 42.9632C86.3186 42.7117 86.1816 42.3828 86.1816 41.9762C86.1816 41.6384 86.2727 41.3437 86.4546 41.0924C86.6385 40.839 86.885 40.6426 87.1941 40.5032C87.5052 40.3618 87.8524 40.291 88.2359 40.291C88.6233 40.291 88.9677 40.3608 89.269 40.5002C89.5704 40.6376 89.809 40.8263 89.9851 41.0658C90.1631 41.3055 90.2571 41.5775 90.2667 41.882H89.5625Z" fill="black"/>
<path d="M54.7865 96.7617V102.795H54.0586V96.7617H54.7865ZM61.0118 96.7617V102.795H60.3074L57.0323 98.058H56.9736V102.795H56.2458V96.7617H56.9501L60.237 101.511H60.2958V96.7617H61.0118ZM64.3229 102.795H62.4681V96.7617H64.4051C64.9882 96.7617 65.487 96.8824 65.9018 97.124C66.3166 97.3636 66.6346 97.7084 66.8557 98.1581C67.0767 98.606 67.1873 99.1421 67.1873 99.7667C67.1873 100.395 67.0757 100.936 66.8527 101.39C66.6297 101.842 66.3048 102.189 65.8783 102.433C65.4518 102.675 64.9333 102.795 64.3229 102.795ZM63.196 102.147H64.2759C64.773 102.147 65.1847 102.051 65.5116 101.858C65.8383 101.666 66.0818 101.392 66.2423 101.037C66.4027 100.681 66.4829 100.258 66.4829 99.7667C66.4829 99.2796 66.4037 98.8603 66.2452 98.5087C66.0867 98.1552 65.85 97.8842 65.5349 97.6956C65.22 97.505 64.8277 97.4099 64.3582 97.4099H63.196V102.147ZM69.136 96.7617V102.795H68.4081V96.7617H69.136ZM70.8418 102.795H70.0787L72.2857 96.7617H73.037L75.2439 102.795H74.4809L72.6848 97.7162H72.6378L70.8418 102.795ZM71.1235 100.438H74.1991V101.087H71.1235V100.438Z" fill="black"/>
<path d="M54.9863 114.464V113.934L56.9703 111.753C57.2031 111.498 57.3948 111.276 57.5454 111.088C57.6961 110.897 57.8077 110.718 57.88 110.551C57.9544 110.382 57.9916 110.206 57.9916 110.021C57.9916 109.809 57.9407 109.625 57.8389 109.47C57.7391 109.315 57.6022 109.195 57.428 109.111C57.254 109.026 57.0583 108.984 56.8411 108.984C56.6103 108.984 56.4087 109.032 56.2366 109.128C56.0664 109.223 55.9343 109.355 55.8404 109.526C55.7484 109.697 55.7025 109.897 55.7025 110.127H55.0098C55.0098 109.774 55.0911 109.463 55.2534 109.196C55.4158 108.929 55.6369 108.721 55.9167 108.572C56.1985 108.422 56.5144 108.348 56.8646 108.348C57.2168 108.348 57.5289 108.422 57.8008 108.572C58.0728 108.721 58.286 108.922 58.4405 109.176C58.5951 109.429 58.6725 109.711 58.6725 110.021C58.6725 110.243 58.6323 110.46 58.5521 110.672C58.4738 110.882 58.3368 111.117 58.1412 111.376C57.9475 111.634 57.6785 111.948 57.3342 112.319L55.9841 113.769V113.816H58.7781V114.464H54.9863ZM61.9505 114.546C61.5084 114.546 61.1317 114.426 60.8206 114.184C60.5096 113.94 60.2718 113.588 60.1075 113.126C59.9432 112.663 59.861 112.103 59.861 111.447C59.861 110.795 59.9432 110.238 60.1075 109.777C60.2738 109.313 60.5125 108.96 60.8236 108.716C61.1366 108.47 61.5123 108.348 61.9505 108.348C62.3888 108.348 62.7634 108.47 63.0746 108.716C63.3876 108.96 63.6262 109.313 63.7906 109.777C63.9569 110.238 64.0401 110.795 64.0401 111.447C64.0401 112.103 63.9578 112.663 63.7936 113.126C63.6292 113.588 63.3915 113.94 63.0804 114.184C62.7693 114.426 62.3927 114.546 61.9505 114.546ZM61.9505 113.898C62.3888 113.898 62.7292 113.686 62.9718 113.262C63.2144 112.838 63.3357 112.233 63.3357 111.447C63.3357 110.925 63.2799 110.48 63.1685 110.112C63.0588 109.745 62.9004 109.465 62.693 109.273C62.4876 109.08 62.24 108.984 61.9505 108.984C61.5161 108.984 61.1768 109.199 60.9322 109.629C60.6876 110.057 60.5654 110.663 60.5654 111.447C60.5654 111.97 60.6201 112.413 60.7296 112.779C60.8392 113.144 60.9968 113.422 61.2022 113.612C61.4096 113.803 61.6589 113.898 61.9505 113.898ZM65.1552 114.464V113.934L67.1392 111.753C67.372 111.498 67.5638 111.276 67.7143 111.088C67.865 110.897 67.9766 110.718 68.0489 110.551C68.1233 110.382 68.1605 110.206 68.1605 110.021C68.1605 109.809 68.1096 109.625 68.0078 109.47C67.908 109.315 67.7711 109.195 67.5969 109.111C67.4229 109.026 67.2273 108.984 67.0101 108.984C66.7792 108.984 66.5776 109.032 66.4055 109.128C66.2353 109.223 66.1032 109.355 66.0093 109.526C65.9174 109.697 65.8714 109.897 65.8714 110.127H65.1787C65.1787 109.774 65.26 109.463 65.4223 109.196C65.5847 108.929 65.8058 108.721 66.0856 108.572C66.3674 108.422 66.6834 108.348 67.0336 108.348C67.3857 108.348 67.6978 108.422 67.9697 108.572C68.2417 108.721 68.4549 108.922 68.6095 109.176C68.764 109.429 68.8414 109.711 68.8414 110.021C68.8414 110.243 68.8012 110.46 68.721 110.672C68.6428 110.882 68.5058 111.117 68.3101 111.376C68.1164 111.634 67.8475 111.948 67.5031 112.319L66.153 113.769V113.816H68.947V114.464H65.1552ZM72.0373 114.546C71.6929 114.546 71.3828 114.478 71.1069 114.34C70.8311 114.203 70.6101 114.014 70.4437 113.774C70.2774 113.535 70.1864 113.262 70.1708 112.955H70.8752C70.9025 113.228 71.0257 113.454 71.2448 113.633C71.4659 113.81 71.7301 113.898 72.0373 113.898C72.2838 113.898 72.503 113.84 72.6947 113.724C72.8884 113.609 73.04 113.449 73.1495 113.247C73.2611 113.043 73.3169 112.812 73.3169 112.555C73.3169 112.292 73.2591 112.057 73.1437 111.851C73.0302 111.642 72.8737 111.478 72.674 111.359C72.4745 111.239 72.2466 111.178 71.9903 111.176C71.8064 111.174 71.6176 111.202 71.424 111.261C71.2303 111.318 71.0708 111.392 70.9455 111.482L70.2646 111.4L70.6286 108.43H73.7511V109.078H71.239L71.0277 110.858H71.0629C71.1862 110.76 71.3408 110.678 71.5266 110.613C71.7124 110.548 71.9061 110.516 72.1077 110.516C72.4756 110.516 72.8032 110.604 73.0909 110.781C73.3804 110.956 73.6074 111.196 73.7716 111.5C73.938 111.804 74.0211 112.152 74.0211 112.543C74.0211 112.928 73.9351 113.272 73.7629 113.574C73.5927 113.875 73.3579 114.112 73.0586 114.287C72.7593 114.46 72.4188 114.546 72.0373 114.546Z" fill="black"/>
</g>
</g>
<defs>
<clipPath id="clip0_445_1970">
<rect width="129" height="140" fill="white"/>
</clipPath>
</defs>
</svg>
