<svg width="129" height="140" viewBox="0 0 129 140" fill="none" xmlns="http://www.w3.org/2000/svg">
<g clip-path="url(#clip0_445_2033)">
<mask id="mask0_445_2033" style="mask-type:luminance" maskUnits="userSpaceOnUse" x="0" y="0" width="129" height="140">
<path d="M129 0H0V140H129V0Z" fill="white"/>
</mask>
<g mask="url(#mask0_445_2033)">
<path d="M64.5 140L64.2559 139.866L0 105.017V35L0.275045 34.8535L64.5 0L64.7441 0.133519L129 35V105.035L64.5 140ZM1.04595 104.38L64.5 138.796L127.954 104.38V35.6196L64.5 1.20426L1.04595 35.6196V104.38Z" fill="black"/>
<path d="M123.577 38.3516V101.647L64.5004 133.418L5.42383 101.647V38.3516L64.5004 6.58008L123.577 38.3516Z" stroke="black" stroke-width="3"/>
<path d="M123.771 54.25H5.23047V85.75H123.771V54.25Z" fill="black"/>
<path d="M18.3047 89.25H110.697" stroke="black" stroke-width="0.5" stroke-miterlimit="10"/>
<path d="M18.3047 50.75H110.697" stroke="black" stroke-width="0.5" stroke-miterlimit="10"/>
<path d="M51.9796 61.5996H48.8418V78.0496H51.9796V61.5996Z" fill="white"/>
<path d="M62.0902 73.1492C62.0902 75.7107 59.6742 75.9142 58.9976 75.9142C57.3034 75.9142 56.8605 74.4157 56.8605 73.5135V67.1992H54.4199V73.4992C54.4199 75.0885 54.9184 76.4003 55.8455 77.2727C56.7585 78.0816 57.9439 78.5107 59.1615 78.4692C60.1997 78.4433 61.2121 78.1361 62.0902 77.58V78.0492H64.8794V67.1992H62.0902V73.1492Z" fill="white"/>
<path d="M70.8069 63.3496H67.669V67.1996H65.9258V69.2996H67.669V78.0496H70.8069V69.2996H72.8988V67.1996H70.8069V63.3496Z" fill="white"/>
<path d="M81.9327 75.0337C81.2729 75.5743 80.4452 75.8633 79.5929 75.8491C77.6056 75.8491 76.1478 74.4802 76.1478 72.6006C76.1478 70.7209 77.5424 69.4117 79.5929 69.4117C80.4478 69.3961 81.2806 69.68 81.9495 70.2128L82.3821 70.5628L84.3061 68.757L83.8245 68.3513C82.63 67.3622 81.1231 66.8295 79.5748 66.8502C76.0083 66.8502 73.418 69.2691 73.418 72.5902C73.418 75.9113 76.0716 78.4002 79.5748 78.4002C81.1309 78.4248 82.6442 77.8869 83.8387 76.8848L84.3023 76.4752L82.3498 74.6695L81.9315 75.0337H81.9327Z" fill="white"/>
<path d="M94.5632 68.2211C93.6334 67.4135 92.4351 66.987 91.2058 67.0272C90.1495 67.0142 89.1152 67.3241 88.2384 67.9165V61.5996H85.4492V78.0496H88.2384V72.3446C88.2384 69.7831 90.4801 69.5757 91.1567 69.5757C92.8509 69.5757 93.1195 71.0768 93.1195 71.9804V78.0496H95.9087V71.9946C95.9087 70.4054 95.5045 69.0961 94.5632 68.2211Z" fill="white"/>
<path d="M79.4808 74.568C80.6191 74.568 81.5417 73.6998 81.5417 72.6287C81.5417 71.5577 80.6191 70.6895 79.4808 70.6895C78.3427 70.6895 77.4199 71.5577 77.4199 72.6287C77.4199 73.6998 78.3427 74.568 79.4808 74.568Z" fill="white"/>
<path d="M45.401 74.2319C44.2931 75.2845 42.8197 75.8652 41.2934 75.8484C38.1143 75.8484 35.8028 73.5034 35.8028 70.2834C35.8028 67.0634 38.1143 64.7041 41.2934 64.7041C42.8107 64.6963 44.275 65.2706 45.3868 66.3076L45.8194 66.7173L47.7266 64.9258L47.3083 64.5161C45.6851 62.9749 43.5274 62.1297 41.2934 62.1569C36.6112 62.1569 33.0898 65.6569 33.0898 70.2976C33.0898 74.9384 36.6254 78.4008 41.2934 78.4008C43.5351 78.4267 45.6993 77.5737 47.325 76.0247L47.7434 75.6189L45.8504 73.7989L45.401 74.2332V74.2319Z" fill="white"/>
<path d="M56.6816 17.6878V17.0396H61.1894V17.6878H59.2995V23.0732H58.5716V17.6878H56.6816ZM67.1337 20.0563C67.1337 20.6927 67.0193 21.2427 66.7904 21.7063C66.5614 22.1697 66.2475 22.5272 65.8484 22.7786C65.4493 23.0301 64.9934 23.1557 64.4808 23.1557C63.9681 23.1557 63.5123 23.0301 63.1132 22.7786C62.714 22.5272 62.4 22.1697 62.171 21.7063C61.9422 21.2427 61.8277 20.6927 61.8277 20.0563C61.8277 19.42 61.9422 18.8701 62.171 18.4066C62.4 17.943 62.714 17.5856 63.1132 17.3341C63.5123 17.0828 63.9681 16.957 64.4808 16.957C64.9934 16.957 65.4493 17.0828 65.8484 17.3341C66.2475 17.5856 66.5614 17.943 66.7904 18.4066C67.0193 18.8701 67.1337 19.42 67.1337 20.0563ZM66.4295 20.0563C66.4295 19.5339 66.3424 19.0929 66.1682 18.7336C65.9961 18.3741 65.7623 18.1022 65.4668 17.9175C65.1733 17.7329 64.8447 17.6406 64.4808 17.6406C64.1169 17.6406 63.7872 17.7329 63.4918 17.9175C63.1983 18.1022 62.9644 18.3741 62.7904 18.7336C62.6182 19.0929 62.5321 19.5339 62.5321 20.0563C62.5321 20.5789 62.6182 21.0198 62.7904 21.3792C62.9644 21.7387 63.1983 22.0106 63.4918 22.1952C63.7872 22.38 64.1169 22.4723 64.4808 22.4723C64.8447 22.4723 65.1733 22.38 65.4668 22.1952C65.7623 22.0106 65.9961 21.7387 66.1682 21.3792C66.3424 21.0198 66.4295 20.5789 66.4295 20.0563ZM68.3576 23.0732V17.0396H70.3884C70.8599 17.0396 71.2453 17.125 71.5447 17.2959C71.8461 17.4648 72.0691 17.6936 72.2138 17.9823C72.3586 18.2711 72.431 18.5931 72.431 18.9487C72.431 19.3041 72.3586 19.6273 72.2138 19.9179C72.071 20.2087 71.8499 20.4403 71.5506 20.6132C71.2513 20.7841 70.8678 20.8695 70.4002 20.8695H68.9445V20.2214H70.3767C70.6995 20.2214 70.9588 20.1654 71.1544 20.0535C71.3501 19.9415 71.4918 19.7902 71.5799 19.5998C71.6699 19.4073 71.715 19.1902 71.715 18.9487C71.715 18.707 71.6699 18.4911 71.5799 18.3005C71.4918 18.11 71.349 17.9608 71.1515 17.8526C70.9539 17.7427 70.6916 17.6878 70.3649 17.6878H69.0854V23.0732H68.3576Z" fill="black"/>
<path d="M50.4798 34.7406H48.625V28.707H50.5619C51.145 28.707 51.6439 28.8277 52.0587 29.0693C52.4734 29.3089 52.7913 29.6537 53.0124 30.1034C53.2335 30.5513 53.3442 31.0874 53.3442 31.712C53.3442 32.3405 53.2326 32.8816 53.0096 33.3353C52.7864 33.7871 52.4617 34.1348 52.0352 34.3783C51.6087 34.6198 51.0902 34.7406 50.4798 34.7406ZM49.3528 34.0925H50.4328C50.9298 34.0925 51.3416 33.9963 51.6683 33.8038C51.9951 33.6113 52.2387 33.3373 52.3991 32.9818C52.5596 32.6263 52.6398 32.203 52.6398 31.712C52.6398 31.225 52.5605 30.8056 52.402 30.4541C52.2436 30.1006 52.0068 29.8295 51.6918 29.6409C51.3769 29.4503 50.9846 29.3552 50.5149 29.3552H49.3528V34.0925ZM54.5649 34.7406V28.707H56.5958C57.0654 28.707 57.4508 28.7875 57.7521 28.9485C58.0534 29.1076 58.2764 29.3267 58.4213 29.6055C58.566 29.8845 58.6384 30.2017 58.6384 30.5571C58.6384 30.9127 58.566 31.2279 58.4213 31.5029C58.2764 31.7778 58.0544 31.9939 57.7551 32.151C57.4556 32.3062 57.0731 32.3837 56.6075 32.3837H54.9641V31.7238H56.584C56.9049 31.7238 57.1631 31.6767 57.3588 31.5823C57.5565 31.4881 57.6993 31.3546 57.7874 31.1817C57.8774 31.0069 57.9223 30.7987 57.9223 30.5571C57.9223 30.3156 57.8774 30.1044 57.7874 29.9237C57.6974 29.743 57.5535 29.6035 57.3559 29.5054C57.1582 29.4052 56.8971 29.3552 56.5724 29.3552H55.2927V34.7406H54.5649ZM57.394 32.0302L58.8732 34.7406H58.0279L56.5724 32.0302H57.394ZM63.7955 28.707H64.5232V32.702C64.5232 33.1144 64.4264 33.4826 64.2327 33.8067C64.0411 34.1288 63.77 34.3831 63.4198 34.5698C63.0696 34.7544 62.6588 34.8467 62.1872 34.8467C61.7157 34.8467 61.3048 34.7544 60.9546 34.5698C60.6044 34.3831 60.3325 34.1288 60.1388 33.8067C59.947 33.4826 59.8512 33.1144 59.8512 32.702V28.707H60.579V32.643C60.579 32.9376 60.6436 33.1999 60.7727 33.4296C60.9018 33.6575 61.0857 33.8371 61.3245 33.9687C61.565 34.0983 61.8527 34.1631 62.1872 34.1631C62.5217 34.1631 62.8094 34.0983 63.05 33.9687C63.2907 33.8371 63.4746 33.6575 63.6018 33.4296C63.7309 33.1999 63.7955 32.9376 63.7955 32.643V28.707ZM65.9767 34.7406V28.707H68.0075C68.4791 28.707 68.8646 28.7925 69.1639 28.9633C69.4651 29.1322 69.6882 29.361 69.833 29.6497C69.9778 29.9385 70.0502 30.2605 70.0502 30.6161C70.0502 30.9715 69.9778 31.2947 69.833 31.5853C69.6902 31.8761 69.4692 32.1077 69.1697 32.2807C68.8704 32.4515 68.4869 32.5369 68.0193 32.5369H66.5637V31.8888H67.9958C68.3186 31.8888 68.5779 31.8328 68.7735 31.7209C68.9692 31.6089 69.1111 31.4576 69.1991 31.2672C69.2891 31.0747 69.3341 30.8576 69.3341 30.6161C69.3341 30.3745 69.2891 30.1585 69.1991 29.9679C69.1111 29.7774 68.9683 29.6282 68.7706 29.5201C68.573 29.4101 68.3109 29.3552 67.9842 29.3552H66.7045V34.7406H65.9767ZM70.8557 34.7406H70.0927L72.2997 28.707H73.0509L75.2579 34.7406H74.4949L72.6988 29.6615H72.6518L70.8557 34.7406ZM71.1375 32.3837H74.2131V33.0319H71.1375V32.3837ZM76.1941 34.7406V28.707H76.9218V34.0925H79.7158V34.7406H76.1941Z" fill="black"/>
<path d="M39.9818 46.4072H38.127V40.3736H40.0639C40.647 40.3736 41.1459 40.4943 41.5606 40.7359C41.9754 40.9755 42.2934 41.3203 42.5145 41.77C42.7356 42.2178 42.8461 42.754 42.8461 43.3785C42.8461 44.0071 42.7345 44.5482 42.5115 45.0019C42.2885 45.4536 41.9638 45.8013 41.5373 46.0449C41.1106 46.2864 40.5922 46.4072 39.9818 46.4072ZM38.8549 45.7591H39.9348C40.4318 45.7591 40.8436 45.6629 41.1704 45.4704C41.4971 45.2779 41.7406 45.0038 41.9011 44.6484C42.0615 44.2928 42.1417 43.8696 42.1417 43.3785C42.1417 42.8915 42.0626 42.4722 41.904 42.1206C41.7455 41.7671 41.5088 41.4961 41.1938 41.3074C40.8788 41.1169 40.4865 41.0217 40.017 41.0217H38.8549V45.7591ZM44.0669 46.4072V40.3736H47.6943V41.0217H44.7948V43.0604H47.5065V43.7086H44.7948V45.7591H47.7413V46.4072H44.0669ZM49.2527 40.3736L51.037 45.4526H51.1074L52.8917 40.3736H53.6547L51.4479 46.4072H50.6965L48.4896 40.3736H49.2527ZM54.5909 46.4072V40.3736H58.2183V41.0217H55.3188V43.0604H58.0305V43.7086H55.3188V45.7591H58.2653V46.4072H54.5909ZM59.5301 46.4072V40.3736H60.258V45.7591H63.0518V46.4072H59.5301ZM69.0161 43.3903C69.0161 44.0267 68.9015 44.5767 68.6727 45.0403C68.4438 45.5037 68.1297 45.8612 67.7306 46.1126C67.3314 46.364 66.8756 46.4896 66.363 46.4896C65.8505 46.4896 65.3945 46.364 64.9954 46.1126C64.5962 45.8612 64.2823 45.5037 64.0534 45.0403C63.8244 44.5767 63.71 44.0267 63.71 43.3903C63.71 42.754 63.8244 42.2041 64.0534 41.7405C64.2823 41.277 64.5962 40.9196 64.9954 40.6681C65.3945 40.4168 65.8505 40.291 66.363 40.291C66.8756 40.291 67.3314 40.4168 67.7306 40.6681C68.1297 40.9196 68.4438 41.277 68.6727 41.7405C68.9015 42.2041 69.0161 42.754 69.0161 43.3903ZM68.3117 43.3903C68.3117 42.8679 68.2246 42.4269 68.0504 42.0676C67.8783 41.7081 67.6445 41.4362 67.3491 41.2514C67.0556 41.0668 66.7269 40.9746 66.363 40.9746C65.9991 40.9746 65.6694 41.0668 65.374 41.2514C65.0805 41.4362 64.8467 41.7081 64.6725 42.0676C64.5004 42.4269 64.4143 42.8679 64.4143 43.3903C64.4143 43.9129 64.5004 44.3537 64.6725 44.7132C64.8467 45.0727 65.0805 45.3446 65.374 45.5292C65.6694 45.7139 65.9991 45.8062 66.363 45.8062C66.7269 45.8062 67.0556 45.7139 67.3491 45.5292C67.6445 45.3446 67.8783 45.0727 68.0504 44.7132C68.2246 44.3537 68.3117 43.9129 68.3117 43.3903ZM70.2398 46.4072V40.3736H72.2706C72.7422 40.3736 73.1277 40.459 73.427 40.6299C73.7282 40.7988 73.9512 41.0276 74.0961 41.3163C74.2409 41.6051 74.3132 41.9271 74.3132 42.2826C74.3132 42.6381 74.2409 42.9613 74.0961 43.2519C73.9533 43.5426 73.7321 43.7743 73.4328 43.9472C73.1335 44.1181 72.75 44.2035 72.2824 44.2035H70.8267V43.5553H72.2589C72.5817 43.5553 72.841 43.4993 73.0366 43.3875C73.2323 43.2755 73.3742 43.1242 73.4621 42.9338C73.5521 42.7413 73.5972 42.5241 73.5972 42.2826C73.5972 42.041 73.5521 41.8251 73.4621 41.6345C73.3742 41.4439 73.2313 41.2947 73.0337 41.1866C72.8361 41.0767 72.574 41.0217 72.2471 41.0217H70.9676V46.4072H70.2398ZM75.4857 46.4072V40.3736H79.1131V41.0217H76.2135V43.0604H78.9252V43.7086H76.2135V45.7591H79.1599V46.4072H75.4857ZM80.4249 46.4072V40.3736H82.4557C82.9253 40.3736 83.3107 40.4541 83.612 40.6151C83.9133 40.7741 84.1363 40.9932 84.2812 41.2721C84.4259 41.551 84.4983 41.8682 84.4983 42.2237C84.4983 42.5792 84.4259 42.8945 84.2812 43.1694C84.1363 43.4444 83.9143 43.6605 83.6149 43.8176C83.3156 43.9728 82.9331 44.0503 82.4674 44.0503H80.824V43.3903H82.4439C82.7648 43.3903 83.0231 43.3433 83.2187 43.2489C83.4164 43.1547 83.5592 43.0211 83.6472 42.8482C83.7372 42.6735 83.7822 42.4653 83.7822 42.2237C83.7822 41.9822 83.7372 41.771 83.6472 41.5903C83.5573 41.4096 83.4134 41.2701 83.2159 41.172C83.0182 41.0718 82.7571 41.0217 82.4322 41.0217H81.1526V46.4072H80.4249ZM83.254 43.6968L84.7331 46.4072H83.8879L82.4322 43.6968H83.254ZM88.998 41.882C88.9628 41.5834 88.82 41.3516 88.5696 41.1866C88.3191 41.0217 88.012 40.9392 87.648 40.9392C87.382 40.9392 87.1491 40.9825 86.9495 41.0688C86.7519 41.1553 86.5974 41.2741 86.4858 41.4253C86.3763 41.5766 86.3216 41.7484 86.3216 41.9408C86.3216 42.1019 86.3597 42.2404 86.436 42.3563C86.5142 42.4702 86.614 42.5655 86.7353 42.6421C86.8567 42.7166 86.9837 42.7786 87.1169 42.8276C87.2499 42.8748 87.3722 42.913 87.4837 42.9426L88.0941 43.1075C88.2506 43.1488 88.4248 43.2057 88.6164 43.2785C88.8101 43.3511 88.9951 43.4502 89.1712 43.576C89.3493 43.6998 89.4959 43.8588 89.6114 44.0533C89.7268 44.2477 89.7845 44.4864 89.7845 44.7692C89.7845 45.0952 89.6995 45.3899 89.5293 45.653C89.361 45.9162 89.1144 46.1254 88.7896 46.2806C88.4668 46.4357 88.0745 46.5132 87.6129 46.5132C87.1823 46.5132 86.8097 46.4435 86.4947 46.3041C86.1816 46.1647 85.9351 45.9702 85.7551 45.7208C85.5771 45.4713 85.4763 45.1816 85.4528 44.8516H86.2042C86.2237 45.0795 86.3 45.268 86.433 45.4174C86.5681 45.5646 86.7383 45.6745 86.9437 45.7473C87.1511 45.818 87.3741 45.8533 87.6129 45.8533C87.8906 45.8533 88.1401 45.8082 88.3612 45.7178C88.5822 45.6255 88.7573 45.4978 88.8865 45.3348C89.0156 45.1699 89.0801 44.9774 89.0801 44.7574C89.0801 44.557 89.0245 44.3941 88.9129 44.2683C88.8014 44.1426 88.6547 44.0404 88.4727 43.9619C88.2908 43.8833 88.0941 43.8146 87.8829 43.7556L87.1432 43.5436C86.6737 43.4081 86.3019 43.2146 86.028 42.9632C85.7542 42.7117 85.6172 42.3828 85.6172 41.9762C85.6172 41.6384 85.7082 41.3437 85.8901 41.0924C86.074 40.839 86.3205 40.6426 86.6297 40.5032C86.9407 40.3618 87.2881 40.291 87.6715 40.291C88.0589 40.291 88.4033 40.3608 88.7045 40.5002C89.0059 40.6376 89.2445 40.8263 89.4207 41.0658C89.5986 41.3055 89.6926 41.5775 89.7024 41.882H88.998Z" fill="black"/>
<path d="M54.6777 102.796V102.266L56.6617 100.085C56.8945 99.8301 57.0863 99.6082 57.2369 99.4197C57.3875 99.2291 57.4991 99.0504 57.5714 98.8834C57.6458 98.7145 57.683 98.5378 57.683 98.3531C57.683 98.141 57.6321 97.9573 57.5303 97.8022C57.4306 97.647 57.2936 97.5272 57.1194 97.4428C56.9454 97.3583 56.7497 97.316 56.5325 97.316C56.3017 97.316 56.1001 97.3641 55.928 97.4604C55.7578 97.5547 55.6257 97.6873 55.5318 97.8582C55.4399 98.029 55.3939 98.2294 55.3939 98.4591H54.7012C54.7012 98.1056 54.7825 97.7953 54.9449 97.5282C55.1072 97.2611 55.3283 97.0529 55.6081 96.9036C55.8899 96.7544 56.2058 96.6797 56.556 96.6797C56.9082 96.6797 57.2203 96.7544 57.4922 96.9036C57.7642 97.0529 57.9774 97.2542 58.1319 97.5076C58.2865 97.7609 58.3639 98.0427 58.3639 98.3531C58.3639 98.575 58.3237 98.7921 58.2435 99.0042C58.1653 99.2143 58.0282 99.4491 57.8326 99.7084C57.6389 99.9657 57.3699 100.28 57.0256 100.651L55.6756 102.101V102.148H58.4695V102.796H54.6777ZM61.6419 102.878C61.1998 102.878 60.8231 102.758 60.512 102.516C60.201 102.272 59.9632 101.92 59.7989 101.458C59.6346 100.995 59.5524 100.435 59.5524 99.779C59.5524 99.127 59.6346 98.5702 59.7989 98.1086C59.9652 97.645 60.2039 97.2915 60.515 97.048C60.828 96.8024 61.2037 96.6797 61.6419 96.6797C62.0802 96.6797 62.4549 96.8024 62.766 97.048C63.079 97.2915 63.3176 97.645 63.482 98.1086C63.6483 98.5702 63.7315 99.127 63.7315 99.779C63.7315 100.435 63.6494 100.995 63.485 101.458C63.3206 101.92 63.0829 102.272 62.7718 102.516C62.4607 102.758 62.0841 102.878 61.6419 102.878ZM61.6419 102.23C62.0802 102.23 62.4206 102.018 62.6632 101.594C62.9058 101.17 63.0271 100.565 63.0271 99.779C63.0271 99.2566 62.9714 98.8117 62.8599 98.4445C62.7502 98.0771 62.5918 97.7972 62.3844 97.6049C62.179 97.4124 61.9316 97.316 61.6419 97.316C61.2077 97.316 60.8682 97.5311 60.6236 97.9613C60.379 98.3895 60.2568 98.9954 60.2568 99.779C60.2568 100.302 60.3115 100.745 60.4211 101.111C60.5306 101.476 60.6882 101.754 60.8936 101.944C61.101 102.135 61.3505 102.23 61.6419 102.23ZM64.8467 102.796V102.266L66.8306 100.085C67.0634 99.8301 67.2552 99.6082 67.4059 99.4197C67.5564 99.2291 67.668 99.0504 67.7403 98.8834C67.8147 98.7145 67.8519 98.5378 67.8519 98.3531C67.8519 98.141 67.801 97.9573 67.6992 97.8022C67.5996 97.647 67.4626 97.5272 67.2884 97.4428C67.1143 97.3583 66.9187 97.316 66.7015 97.316C66.4706 97.316 66.269 97.3641 66.0969 97.4604C65.9267 97.5547 65.7946 97.6873 65.7007 97.8582C65.6088 98.029 65.5628 98.2294 65.5628 98.4591H64.8702C64.8702 98.1056 64.9514 97.7953 65.1138 97.5282C65.2761 97.2611 65.4972 97.0529 65.777 96.9036C66.0588 96.7544 66.3748 96.6797 66.725 96.6797C67.0771 96.6797 67.3892 96.7544 67.6611 96.9036C67.9331 97.0529 68.1463 97.2542 68.3009 97.5076C68.4554 97.7609 68.5328 98.0427 68.5328 98.3531C68.5328 98.575 68.4926 98.7921 68.4124 99.0042C68.3342 99.2143 68.1972 99.4491 68.0015 99.7084C67.8078 99.9657 67.5389 100.28 67.1945 100.651L65.8446 102.101V102.148H68.6384V102.796H64.8467ZM71.7287 102.878C71.3843 102.878 71.0743 102.81 70.7983 102.672C70.5225 102.535 70.3015 102.346 70.1351 102.107C69.9688 101.867 69.8778 101.594 69.8622 101.288H70.5666C70.5939 101.561 70.7171 101.786 70.9363 101.965C71.1575 102.142 71.4215 102.23 71.7287 102.23C71.9752 102.23 72.1944 102.172 72.3861 102.056C72.5798 101.941 72.7314 101.781 72.8409 101.579C72.9525 101.375 73.0083 101.144 73.0083 100.887C73.0083 100.624 72.9505 100.389 72.8351 100.183C72.7216 99.9745 72.5651 99.8105 72.3656 99.6906C72.1659 99.5708 71.938 99.51 71.6817 99.5079C71.4978 99.506 71.309 99.5345 71.1154 99.5934C70.9217 99.6504 70.7622 99.724 70.6369 99.8144L69.9562 99.7319L70.32 96.7623H73.4426V97.4104H70.9304L70.7192 99.1898H70.7543C70.8776 99.0916 71.0322 99.01 71.218 98.9452C71.404 98.8804 71.5977 98.848 71.7991 98.848C72.167 98.848 72.4947 98.9364 72.7823 99.1132C73.0718 99.288 73.2988 99.5276 73.4632 99.832C73.6294 100.137 73.7125 100.484 73.7125 100.875C73.7125 101.26 73.6265 101.604 73.4543 101.906C73.2841 102.207 73.0493 102.444 72.75 102.619C72.4507 102.792 72.1102 102.878 71.7287 102.878Z" fill="black"/>
</g>
</g>
<defs>
<clipPath id="clip0_445_2033">
<rect width="129" height="140" fill="white"/>
</clipPath>
</defs>
</svg>
